M48
INCH
T40C0.020
T39C0.028
T38C0.071
T37C0.038
%
T40
X004035Y018012
X004685Y021102
X005118Y019783
X005118Y016240
X005315Y007480
X005512Y013287
X005591Y019173
X006250Y022000
X007087Y021850
X007283Y019882
X007283Y018898
X008268Y018307
X008465Y012500
X008524Y016929
X008524Y015236
X009055Y011713
X009291Y015236
X009449Y005906
X009547Y016929
X009646Y012303
X010039Y015236
X010433Y013780
X010550Y012100
X010591Y016929
X011024Y004528
X011083Y015256
X011250Y012000
X011350Y018700
X011496Y013701
X011654Y019370
X012008Y018307
X012008Y014173
X012008Y008661
X012205Y021850
X012598Y017717
X012598Y016732
X012992Y004528
X014500Y010650
X015945Y011417
X016339Y016732
X017500Y016250
X019100Y011400
X019500Y021250
X020000Y020750
X020500Y020250
X021000Y019750
X021500Y019000
X022000Y019500
X022244Y003839
X022500Y019250
X022638Y004232
X023000Y019250
X023500Y019500
X024200Y010750
X024213Y016732
X024500Y019750
X024750Y019000
X025492Y006299
X025500Y020250
X025550Y012350
X026500Y020750
X026575Y006299
X027250Y015880
X027500Y021250
X029500Y013000
T39
X014000Y013000
X014000Y010000
X015000Y013000
X015000Y010000
X016000Y013000
X016000Y010000
X017000Y013000
X017000Y010000
X018000Y013000
X018000Y010000
X019000Y013000
X019000Y010000
X020000Y013000
X020000Y010000
X021000Y013000
X021000Y010000
X022000Y013000
X022000Y010000
X023000Y013000
X023000Y010000
X024000Y013000
X024000Y010000
X025000Y013000
X025000Y010000
X026000Y013000
X026000Y010000
X027000Y013000
X027000Y010000
T37
X010900Y023000
X011900Y023000
X012900Y023000
X013900Y023000
X014500Y015500
X014500Y014500
X014500Y004000
X014900Y023000
X015000Y008500
X015000Y007500
X015500Y015500
X015500Y014500
X015500Y004000
X015900Y023000
X016000Y008500
X016000Y007500
X016500Y004000
X016900Y023000
X017000Y015500
X017000Y014500
X017000Y008500
X017000Y007500
X017500Y004000
X017900Y023000
X018000Y015500
X018000Y014500
X018000Y008500
X018000Y007500
X018500Y004000
X018900Y023000
X019000Y015500
X019000Y014500
X019500Y004000
X019900Y023000
X020000Y015500
X020000Y014500
X020000Y008500
X020000Y007500
X020500Y004000
X021000Y015500
X021000Y014500
X021000Y008500
X021000Y007500
X021500Y023000
X021500Y004000
X022000Y015500
X022000Y014500
X022000Y008500
X022000Y007500
X022500Y023000
X023000Y015500
X023000Y014500
X023000Y008500
X023000Y007500
X023500Y023000
X023500Y004000
X024000Y015500
X024000Y014500
X024000Y008500
X024000Y007500
X024500Y023000
X024500Y004000
X025000Y008500
X025000Y007500
X025500Y023000
X025500Y004000
X026000Y008500
X026000Y007500
X026500Y023000
X026500Y004000
X027000Y008500
X027000Y007500
X027500Y023000
X027500Y004000
X028000Y013000
X028000Y012000
X028000Y011000
X028000Y010000
X028500Y023000
X028500Y004000
X029000Y011000
X029000Y010000
T38
X005821Y006250
X006923Y004360
X008104Y006250
M30
