G04 start of page 10 for group -4078 idx -4078 *
G04 Title: AJ.001.00.01.01, bottomsilk *
G04 Creator: pcb 4.1.2 *
G04 CreationDate: Sat Sep 15 11:44:48 2018 UTC *
G04 For: bert *
G04 Format: Gerber/RS-274X *
G04 PCB-Dimensions (mil): 3200.00 2500.00 *
G04 PCB-Coordinate-Origin: lower left *
%MOIN*%
%FSLAX25Y25*%
%LNGBO*%
%ADD116C,0.0046*%
%ADD115C,0.0047*%
%ADD114C,0.0040*%
%ADD113C,0.0046*%
%ADD112C,0.0048*%
%ADD111C,0.0041*%
%ADD110C,0.0041*%
%ADD109C,0.0041*%
%ADD108C,0.0042*%
%ADD107C,0.0042*%
%ADD106C,0.0042*%
%ADD105C,0.0041*%
%ADD104C,0.0043*%
%ADD103C,0.0042*%
%ADD102C,0.0041*%
%ADD101C,0.0042*%
%ADD100C,0.0041*%
%ADD99C,0.0041*%
%ADD98C,0.0041*%
%ADD97C,0.0046*%
%ADD96C,0.0047*%
%ADD95C,0.0043*%
%ADD94C,0.0044*%
%ADD93C,0.0044*%
%ADD92C,0.0043*%
%ADD91C,0.0045*%
%ADD90C,0.0045*%
%ADD89C,0.0045*%
%ADD88C,0.0045*%
%ADD87C,0.0044*%
%ADD86C,0.0043*%
%ADD85C,0.0043*%
%ADD84C,0.0042*%
%ADD83C,0.0043*%
%ADD82C,0.0044*%
%ADD81C,0.0044*%
%ADD80C,0.0044*%
%ADD79C,0.0044*%
%ADD78C,0.0044*%
%ADD77C,0.0044*%
%ADD76C,0.0043*%
%ADD75C,0.0043*%
%ADD74C,0.0043*%
%ADD73C,0.0043*%
%ADD72C,0.0042*%
%ADD71C,0.0042*%
%ADD70C,0.0042*%
%ADD69C,0.0049*%
%ADD68C,0.0050*%
%ADD67C,0.0040*%
%ADD66C,0.0001*%
G54D66*G36*
X175414Y225280D02*X177991D01*
X178074Y225248D01*
X178121Y225172D01*
X178170Y224933D01*
X178214Y224711D01*
X178605Y222579D01*
X178652Y222491D01*
X178735Y222433D01*
X178838Y222389D01*
X179628Y222118D01*
X180378Y221760D01*
X180384D01*
X180471Y221722D01*
X180568Y221708D01*
X180666Y221739D01*
X182439Y222958D01*
X182630Y223083D01*
X182831Y223219D01*
X182917Y223244D01*
X182999Y223208D01*
X183330Y222878D01*
X183834Y222378D01*
X183992Y222215D01*
X184491Y221717D01*
X184653Y221560D01*
X184821Y221386D01*
X184860Y221301D01*
X184838Y221212D01*
X184702Y221011D01*
X184573Y220821D01*
X183384Y219085D01*
X183352Y218993D01*
X183367Y218896D01*
X183412Y218797D01*
X184095Y217191D01*
X184132Y217100D01*
X184195Y217022D01*
X184285Y216975D01*
X186324Y216594D01*
X186548Y216551D01*
X186791Y216508D01*
X186866Y216461D01*
X186895Y216378D01*
Y213801D01*
X186866Y213712D01*
X186791Y213665D01*
X186548Y213622D01*
X186324Y213579D01*
X184345Y213210D01*
X184257Y213162D01*
X184203Y213079D01*
X184175Y213019D01*
Y213008D01*
X183460Y211235D01*
X183455Y211223D01*
X183438Y211180D01*
X183421Y211079D01*
X183449Y210985D01*
X184578Y209353D01*
X184702Y209162D01*
X184843Y208961D01*
X184862Y208875D01*
X184821Y208793D01*
X184653Y208614D01*
X184491Y208457D01*
X183173Y207139D01*
X182999Y206971D01*
X182917Y206930D01*
X182831Y206948D01*
X182630Y207090D01*
X182439Y207214D01*
X180845Y208311D01*
X180746Y208340D01*
X180649Y208321D01*
X180318Y208137D01*
X180124Y208028D01*
X179777Y207850D01*
X179692Y207844D01*
X179630Y207904D01*
X179484Y208261D01*
X179396Y208468D01*
X178013Y211826D01*
X177925Y212032D01*
X177828Y212265D01*
X177824Y212360D01*
X177877Y212433D01*
X178100Y212564D01*
X178241Y212672D01*
X178777Y213118D01*
X179192Y213682D01*
X179459Y214341D01*
X179553Y215071D01*
X179495Y215646D01*
X179330Y216180D01*
X179067Y216665D01*
X178718Y217087D01*
X178298Y217436D01*
X177814Y217700D01*
X177280Y217865D01*
X176706Y217923D01*
X176131Y217865D01*
X175596Y217700D01*
X175113Y217436D01*
X174691Y217087D01*
X174343Y216665D01*
X174081Y216180D01*
X173916Y215646D01*
X173857Y215071D01*
X173950Y214341D01*
X174217Y213682D01*
X174631Y213118D01*
X175170Y212672D01*
X175306Y212564D01*
X175528Y212433D01*
X175582Y212360D01*
X175577Y212265D01*
X175480Y212032D01*
X175392Y211826D01*
X174009Y208468D01*
X173923Y208261D01*
X173775Y207904D01*
X173714Y207844D01*
X173630Y207850D01*
X173288Y208028D01*
X173087Y208137D01*
X172756Y208321D01*
X172657Y208340D01*
X172560Y208311D01*
X170966Y207214D01*
X170781Y207090D01*
X170575Y206948D01*
X170488Y206930D01*
X170406Y206971D01*
X170232Y207139D01*
X170075Y207301D01*
X169577Y207800D01*
X169414Y207958D01*
X168914Y208457D01*
X168752Y208614D01*
X168584Y208793D01*
X168545Y208875D01*
X168567Y208961D01*
X168703Y209162D01*
X168834Y209353D01*
X169956Y210985D01*
X169984Y211079D01*
X169967Y211180D01*
X169945Y211240D01*
X169235Y213014D01*
X169202Y213079D01*
X169148Y213162D01*
X169062Y213210D01*
X167081Y213579D01*
X166859Y213622D01*
X166620Y213665D01*
X166541Y213715D01*
X166512Y213801D01*
Y216378D01*
X166541Y216461D01*
X166620Y216508D01*
X166859Y216557D01*
X167081Y216594D01*
X169121Y216975D01*
X169210Y217022D01*
X169273Y217105D01*
X169310Y217191D01*
X169999Y218797D01*
X170038Y218896D01*
X170055Y218993D01*
X170027Y219085D01*
X168834Y220826D01*
X168703Y221011D01*
X168567Y221212D01*
X168545Y221301D01*
X168584Y221386D01*
X168752Y221560D01*
X168914Y221717D01*
X170406Y223208D01*
X170488Y223244D01*
X170575Y223225D01*
X170781Y223089D01*
X170966Y222958D01*
X172739Y221739D01*
X172837Y221710D01*
X172935Y221728D01*
X173021Y221760D01*
X173032Y221765D01*
X173778Y222119D01*
X174568Y222394D01*
X174671Y222433D01*
X174755Y222491D01*
X174800Y222579D01*
X175198Y224711D01*
X175235Y224933D01*
X175284Y225172D01*
X175331Y225248D01*
X175414Y225280D01*
G37*
G54D67*X211500Y183000D02*Y186000D01*
X210800Y187000D01*
X209700D02*X210800D01*
X209700D02*X209000Y186000D01*
Y183000D02*Y186000D01*
Y185000D02*X211500D01*
X206300Y187000D02*X207100D01*
X206300Y183500D02*Y187000D01*
X206800Y183000D02*X206300Y183500D01*
X206800Y183000D02*X207300D01*
X207800Y183500D02*X207300Y183000D01*
X207800Y183500D02*Y184000D01*
X204600Y183000D02*X205100D01*
X203400Y183500D02*X202900Y183000D01*
X203400Y183500D02*Y186500D01*
X202900Y187000D01*
X201900D02*X202900D01*
X201900D02*X201400Y186500D01*
Y183500D02*Y186500D01*
X201900Y183000D02*X201400Y183500D01*
X201900Y183000D02*X202900D01*
X203400Y184000D02*X201400Y186000D01*
X200200Y183500D02*X199700Y183000D01*
X200200Y183500D02*Y186500D01*
X199700Y187000D01*
X198700D02*X199700D01*
X198700D02*X198200Y186500D01*
Y183500D02*Y186500D01*
X198700Y183000D02*X198200Y183500D01*
X198700Y183000D02*X199700D01*
X200200Y184000D02*X198200Y186000D01*
X197000Y186200D02*X196200Y187000D01*
Y183000D02*Y187000D01*
X195500Y183000D02*X197000D01*
X193800D02*X194300D01*
X192600Y183500D02*X192100Y183000D01*
X192600Y183500D02*Y186500D01*
X192100Y187000D01*
X191100D02*X192100D01*
X191100D02*X190600Y186500D01*
Y183500D02*Y186500D01*
X191100Y183000D02*X190600Y183500D01*
X191100Y183000D02*X192100D01*
X192600Y184000D02*X190600Y186000D01*
X189400Y183500D02*X188900Y183000D01*
X189400Y183500D02*Y186500D01*
X188900Y187000D01*
X187900D02*X188900D01*
X187900D02*X187400Y186500D01*
Y183500D02*Y186500D01*
X187900Y183000D02*X187400Y183500D01*
X187900Y183000D02*X188900D01*
X189400Y184000D02*X187400Y186000D01*
X185700Y183000D02*X186200D01*
X184500Y183500D02*X184000Y183000D01*
X184500Y183500D02*Y186500D01*
X184000Y187000D01*
X183000D02*X184000D01*
X183000D02*X182500Y186500D01*
Y183500D02*Y186500D01*
X183000Y183000D02*X182500Y183500D01*
X183000Y183000D02*X184000D01*
X184500Y184000D02*X182500Y186000D01*
X181300Y186200D02*X180500Y187000D01*
Y183000D02*Y187000D01*
X179800Y183000D02*X181300D01*
X178100D02*X178600D01*
X176900Y183500D02*X176400Y183000D01*
X176900Y183500D02*Y186500D01*
X176400Y187000D01*
X175400D02*X176400D01*
X175400D02*X174900Y186500D01*
Y183500D02*Y186500D01*
X175400Y183000D02*X174900Y183500D01*
X175400Y183000D02*X176400D01*
X176900Y184000D02*X174900Y186000D01*
X173700Y186200D02*X172900Y187000D01*
Y183000D02*Y187000D01*
X172200Y183000D02*X173700D01*
X209500Y164000D02*X210800D01*
X211500Y164700D02*X210800Y164000D01*
X211500Y164700D02*Y167300D01*
X210800Y168000D01*
X209500D02*X210800D01*
X206300Y164000D02*X207600D01*
X208300Y164700D02*X207600Y164000D01*
X208300Y164700D02*Y167300D01*
X207600Y168000D01*
X206300D02*X207600D01*
X201300Y164000D02*X203300D01*
X201300D02*X200800Y164500D01*
Y165700D01*
X201300Y166200D02*X200800Y165700D01*
X201300Y166200D02*X202800D01*
Y164000D02*Y168000D01*
X201300D02*X203300D01*
X201300D02*X200800Y167500D01*
Y166700D02*Y167500D01*
X201300Y166200D02*X200800Y166700D01*
X199600Y168000D02*X198600Y166000D01*
X197600Y168000D01*
X198600Y164000D02*Y166000D01*
X194400D02*X196400D01*
X191200Y168000D02*X190700Y167500D01*
X191200Y168000D02*X192700D01*
X193200Y167500D02*X192700Y168000D01*
X193200Y166500D02*Y167500D01*
Y166500D02*X192700Y166000D01*
X191200D02*X192700D01*
X191200D02*X190700Y165500D01*
Y164500D02*Y165500D01*
X191200Y164000D02*X190700Y164500D01*
X191200Y164000D02*X192700D01*
X193200Y164500D02*X192700Y164000D01*
X189500D02*Y167000D01*
X188800Y168000D01*
X187700D02*X188800D01*
X187700D02*X187000Y167000D01*
Y164000D02*Y167000D01*
Y166000D02*X189500D01*
X184000Y165500D02*X182000Y168000D01*
X181500Y165500D02*X184000D01*
X182000Y164000D02*Y168000D01*
X179800Y164000D02*X180300D01*
X178600Y164500D02*X178100Y164000D01*
X178600Y164500D02*Y167500D01*
X178100Y168000D01*
X177100D02*X178100D01*
X177100D02*X176600Y167500D01*
Y164500D02*Y167500D01*
X177100Y164000D02*X176600Y164500D01*
X177100Y164000D02*X178100D01*
X178600Y165000D02*X176600Y167000D01*
X209500Y171000D02*X210800D01*
X211500Y171700D02*X210800Y171000D01*
X211500Y171700D02*Y174300D01*
X210800Y175000D01*
X209500D02*X210800D01*
X208300Y171500D02*Y172500D01*
X207800Y173000D01*
X206800D02*X207800D01*
X206800D02*X206300Y172500D01*
Y171500D02*Y172500D01*
X206800Y171000D02*X206300Y171500D01*
X206800Y171000D02*X207800D01*
X208300Y171500D02*X207800Y171000D01*
X204600Y169500D02*Y172500D01*
X205100Y173000D02*X204600Y172500D01*
X204100Y173000D01*
X203100D02*X204100D01*
X203100D02*X202600Y172500D01*
Y171500D02*Y172500D01*
X203100Y171000D02*X202600Y171500D01*
X203100Y171000D02*X204100D01*
X204600Y171500D02*X204100Y171000D01*
X201400Y171500D02*Y173000D01*
Y171500D02*X200900Y171000D01*
X199400Y170000D02*Y173000D01*
X199900Y169500D02*X199400Y170000D01*
X199900Y169500D02*X200900D01*
X201400Y170000D02*X200900Y169500D01*
X199900Y171000D02*X200900D01*
X199900D02*X199400Y171500D01*
X197700Y171000D02*Y172500D01*
X197200Y173000D01*
X196200D02*X197200D01*
X198200D02*X197700Y172500D01*
G54D68*X195000Y173900D02*Y174000D01*
G54D67*Y171000D02*Y172500D01*
X192500Y173000D02*X192000Y172500D01*
X192500Y173000D02*X193500D01*
X194000Y172500D02*X193500Y173000D01*
X194000Y171500D02*Y172500D01*
Y171500D02*X193500Y171000D01*
X192500D02*X193500D01*
X192500D02*X192000Y171500D01*
X194000Y170000D02*X193500Y169500D01*
X192500D02*X193500D01*
X192500D02*X192000Y170000D01*
Y173000D01*
X190800Y171000D02*Y175000D01*
Y172500D02*X190300Y173000D01*
X189300D02*X190300D01*
X189300D02*X188800Y172500D01*
Y171000D02*Y172500D01*
X187100Y171500D02*Y175000D01*
Y171500D02*X186600Y171000D01*
Y173500D02*X187600D01*
X183800Y171500D02*X183300Y171000D01*
X183800Y174500D02*X183300Y175000D01*
X183800Y171500D02*Y174500D01*
X180100Y171000D02*X181400D01*
X182100Y171700D02*X181400Y171000D01*
X182100Y171700D02*Y174300D01*
X181400Y175000D01*
X180100D02*X181400D01*
X178900D02*X178400Y174500D01*
Y171500D02*Y174500D01*
X178900Y171000D02*X178400Y171500D01*
X175400Y174500D02*X174900Y175000D01*
X173400D02*X174900D01*
X173400D02*X172900Y174500D01*
Y173500D02*Y174500D01*
X175400Y171000D02*X172900Y173500D01*
Y171000D02*X175400D01*
X171700Y171500D02*X171200Y171000D01*
X171700Y171500D02*Y174500D01*
X171200Y175000D01*
X170200D02*X171200D01*
X170200D02*X169700Y174500D01*
Y171500D02*Y174500D01*
X170200Y171000D02*X169700Y171500D01*
X170200Y171000D02*X171200D01*
X171700Y172000D02*X169700Y174000D01*
X168500Y174200D02*X167700Y175000D01*
Y171000D02*Y175000D01*
X167000Y171000D02*X168500D01*
X165800Y171500D02*X165300Y171000D01*
X165800Y171500D02*Y172300D01*
X165100Y173000D01*
X164500D02*X165100D01*
X164500D02*X163800Y172300D01*
Y171500D02*Y172300D01*
X164300Y171000D02*X163800Y171500D01*
X164300Y171000D02*X165300D01*
X165800Y173700D02*X165100Y173000D01*
X165800Y173700D02*Y174500D01*
X165300Y175000D01*
X164300D02*X165300D01*
X164300D02*X163800Y174500D01*
Y173700D02*Y174500D01*
X164500Y173000D02*X163800Y173700D01*
X158800Y171000D02*X160800D01*
X158800D02*X158300Y171500D01*
Y172700D01*
X158800Y173200D02*X158300Y172700D01*
X158800Y173200D02*X160300D01*
Y171000D02*Y175000D01*
X158800D02*X160800D01*
X158800D02*X158300Y174500D01*
Y173700D02*Y174500D01*
X158800Y173200D02*X158300Y173700D01*
X155100Y171000D02*X156600D01*
X157100Y171500D02*X156600Y171000D01*
X157100Y171500D02*Y172500D01*
X156600Y173000D01*
X155600D02*X156600D01*
X155600D02*X155100Y172500D01*
Y172000D02*X157100D01*
X155100D02*Y172500D01*
X153400Y171000D02*Y172500D01*
X152900Y173000D01*
X151900D02*X152900D01*
X153900D02*X153400Y172500D01*
X150200Y171500D02*Y175000D01*
Y171500D02*X149700Y171000D01*
Y173500D02*X150700D01*
X144900Y175000D02*X146900D01*
X145900Y171000D02*Y175000D01*
G54D68*X143700Y173900D02*Y174000D01*
G54D67*Y171000D02*Y172500D01*
X142200Y171000D02*Y172500D01*
X141700Y173000D01*
X141200D02*X141700D01*
X141200D02*X140700Y172500D01*
Y171000D02*Y172500D01*
X140200Y173000D01*
X139700D02*X140200D01*
X139700D02*X139200Y172500D01*
Y171000D02*Y172500D01*
X142700Y173000D02*X142200Y172500D01*
X137500Y171000D02*Y172500D01*
X137000Y173000D01*
X136500D02*X137000D01*
X136500D02*X136000Y172500D01*
Y171000D02*Y172500D01*
X135500Y173000D01*
X135000D02*X135500D01*
X135000D02*X134500Y172500D01*
Y171000D02*Y172500D01*
X138000Y173000D02*X137500Y172500D01*
X131300Y171000D02*X132800D01*
X133300Y171500D02*X132800Y171000D01*
X133300Y171500D02*Y172500D01*
X132800Y173000D01*
X131800D02*X132800D01*
X131800D02*X131300Y172500D01*
Y172000D02*X133300D01*
X131300D02*Y172500D01*
X129600Y171000D02*Y172500D01*
X129100Y173000D01*
X128100D02*X129100D01*
X130100D02*X129600Y172500D01*
X126400Y171000D02*Y172500D01*
X125900Y173000D01*
X125400D02*X125900D01*
X125400D02*X124900Y172500D01*
Y171000D02*Y172500D01*
X124400Y173000D01*
X123900D02*X124400D01*
X123900D02*X123400Y172500D01*
Y171000D02*Y172500D01*
X126900Y173000D02*X126400Y172500D01*
X120700Y173000D02*X120200Y172500D01*
X120700Y173000D02*X121700D01*
X122200Y172500D02*X121700Y173000D01*
X122200Y171500D02*Y172500D01*
Y171500D02*X121700Y171000D01*
X120200Y171500D02*Y173000D01*
Y171500D02*X119700Y171000D01*
X120700D02*X121700D01*
X120700D02*X120200Y171500D01*
X118000Y171000D02*Y172500D01*
X117500Y173000D01*
X117000D02*X117500D01*
X117000D02*X116500Y172500D01*
Y171000D02*Y172500D01*
X118500Y173000D02*X118000Y172500D01*
X209500Y189000D02*X211500D01*
X209500D02*X209000Y189500D01*
Y190700D01*
X209500Y191200D02*X209000Y190700D01*
X209500Y191200D02*X211000D01*
Y189000D02*Y193000D01*
X209500D02*X211500D01*
X209500D02*X209000Y192500D01*
Y191700D02*Y192500D01*
X209500Y191200D02*X209000Y191700D01*
X207800Y189500D02*Y192500D01*
X207300Y193000D01*
X206300D02*X207300D01*
X206300D02*X205800Y192500D01*
Y189500D02*Y192500D01*
X206300Y189000D02*X205800Y189500D01*
X206300Y189000D02*X207300D01*
X207800Y189500D02*X207300Y189000D01*
X204600D02*Y192000D01*
X203900Y193000D01*
X202800D02*X203900D01*
X202800D02*X202100Y192000D01*
Y189000D02*Y192000D01*
Y191000D02*X204600D01*
X198900Y193000D02*X200900D01*
X198900D02*X198400Y192500D01*
Y191500D02*Y192500D01*
X198900Y191000D02*X198400Y191500D01*
X198900Y191000D02*X200400D01*
Y189000D02*Y193000D01*
X199600Y191000D02*X198400Y189000D01*
X196700D02*Y193000D01*
X195400D02*X194700Y192300D01*
Y189700D02*Y192300D01*
X195400Y189000D02*X194700Y189700D01*
X195400Y189000D02*X197200D01*
X195400Y193000D02*X197200D01*
X191700Y189000D02*Y193000D01*
X190200Y191000D01*
X188700Y193000D01*
Y189000D02*Y193000D01*
X187500Y189500D02*Y192500D01*
X187000Y193000D01*
X186000D02*X187000D01*
X186000D02*X185500Y192500D01*
Y189500D02*Y192500D01*
X186000Y189000D02*X185500Y189500D01*
X186000Y189000D02*X187000D01*
X187500Y189500D02*X187000Y189000D01*
X183800D02*Y193000D01*
X182500D02*X181800Y192300D01*
Y189700D02*Y192300D01*
X182500Y189000D02*X181800Y189700D01*
X182500Y189000D02*X184300D01*
X182500Y193000D02*X184300D01*
X179100Y191200D02*X180600D01*
X178600Y189000D02*X180600D01*
Y193000D01*
X178600D02*X180600D01*
X177400Y189000D02*Y193000D01*
X175400Y189000D02*X177400D01*
X173700Y191500D02*X174200D01*
X173700Y190500D02*X174200D01*
X168700Y193000D02*X168200Y192500D01*
X168700Y193000D02*X170200D01*
X170700Y192500D02*X170200Y193000D01*
X170700Y191500D02*Y192500D01*
Y191500D02*X170200Y191000D01*
X168700D02*X170200D01*
X168700D02*X168200Y190500D01*
Y189500D02*Y190500D01*
X168700Y189000D02*X168200Y189500D01*
X168700Y189000D02*X170200D01*
X170700Y189500D02*X170200Y189000D01*
X167000D02*X164500Y193000D01*
X167000D02*X164500Y189000D01*
X163300Y192500D02*X162800Y193000D01*
X161300D02*X162800D01*
X161300D02*X160800Y192500D01*
Y191500D02*Y192500D01*
X163300Y189000D02*X160800Y191500D01*
Y189000D02*X163300D01*
X159600Y189500D02*X159100Y189000D01*
X159600Y189500D02*Y190300D01*
X158900Y191000D01*
X158300D02*X158900D01*
X158300D02*X157600Y190300D01*
Y189500D02*Y190300D01*
X158100Y189000D02*X157600Y189500D01*
X158100Y189000D02*X159100D01*
X159600Y191700D02*X158900Y191000D01*
X159600Y191700D02*Y192500D01*
X159100Y193000D01*
X158100D02*X159100D01*
X158100D02*X157600Y192500D01*
Y191700D02*Y192500D01*
X158300Y191000D02*X157600Y191700D01*
X156400Y189000D02*Y192000D01*
X155700Y193000D01*
X154600D02*X155700D01*
X154600D02*X153900Y192000D01*
Y189000D02*Y192000D01*
Y191000D02*X156400D01*
X150700Y189000D02*X152000D01*
X152700Y189700D02*X152000Y189000D01*
X152700Y189700D02*Y192300D01*
X152000Y193000D01*
X150700D02*X152000D01*
X149500Y189500D02*X146500Y192500D01*
X144800Y189000D02*Y193000D01*
X143500D02*X142800Y192300D01*
Y189700D02*Y192300D01*
X143500Y189000D02*X142800Y189700D01*
X143500Y189000D02*X145300D01*
X143500Y193000D02*X145300D01*
X141100Y189000D02*Y193000D01*
X139600D02*X141600D01*
X139600D02*X139100Y192500D01*
Y191500D02*Y192500D01*
X139600Y191000D02*X139100Y191500D01*
X139600Y191000D02*X141100D01*
X135600Y189000D02*Y190500D01*
X135100Y191000D01*
X134100D02*X135100D01*
X136100D02*X135600Y190500D01*
X130900Y189000D02*X132400D01*
X132900Y189500D02*X132400Y189000D01*
X132900Y189500D02*Y190500D01*
X132400Y191000D01*
X131400D02*X132400D01*
X131400D02*X130900Y190500D01*
Y190000D02*X132900D01*
X130900D02*Y190500D01*
X129700Y191000D02*X128700Y189000D01*
X127700Y191000D02*X128700Y189000D01*
X126000D02*X126500D01*
X123000Y189500D02*X122500Y189000D01*
X123000Y189500D02*Y192500D01*
X122500Y193000D01*
X121500D02*X122500D01*
X121500D02*X121000Y192500D01*
Y189500D02*Y192500D01*
X121500Y189000D02*X121000Y189500D01*
X121500Y189000D02*X122500D01*
X123000Y190000D02*X121000Y192000D01*
X163500Y218000D02*Y219000D01*
X163000Y219500D01*
X162000D02*X163000D01*
X162000D02*X161500Y219000D01*
Y218000D02*Y219000D01*
X162000Y217500D02*X161500Y218000D01*
X162000Y217500D02*X163000D01*
X163500Y218000D02*X163000Y217500D01*
X159800Y216000D02*Y219000D01*
X160300Y219500D02*X159800Y219000D01*
X159300Y219500D01*
X158300D02*X159300D01*
X158300D02*X157800Y219000D01*
Y218000D02*Y219000D01*
X158300Y217500D02*X157800Y218000D01*
X158300Y217500D02*X159300D01*
X159800Y218000D02*X159300Y217500D01*
X154600D02*X156100D01*
X156600Y218000D02*X156100Y217500D01*
X156600Y218000D02*Y219000D01*
X156100Y219500D01*
X155100D02*X156100D01*
X155100D02*X154600Y219000D01*
Y218500D02*X156600D01*
X154600D02*Y219000D01*
X152900Y217500D02*Y219000D01*
X152400Y219500D01*
X151900D02*X152400D01*
X151900D02*X151400Y219000D01*
Y217500D02*Y219000D01*
X153400Y219500D02*X152900Y219000D01*
X146400Y217500D02*X147900D01*
X146400D02*X145900Y218000D01*
X146400Y218500D02*X145900Y218000D01*
X146400Y218500D02*X147900D01*
X148400Y219000D02*X147900Y218500D01*
X148400Y219000D02*X147900Y219500D01*
X146400D02*X147900D01*
X146400D02*X145900Y219000D01*
X148400Y218000D02*X147900Y217500D01*
X144700Y218000D02*Y219000D01*
X144200Y219500D01*
X143200D02*X144200D01*
X143200D02*X142700Y219000D01*
Y218000D02*Y219000D01*
X143200Y217500D02*X142700Y218000D01*
X143200Y217500D02*X144200D01*
X144700Y218000D02*X144200Y217500D01*
X141500Y218000D02*Y219500D01*
Y218000D02*X141000Y217500D01*
X140000D02*X141000D01*
X140000D02*X139500Y218000D01*
Y219500D01*
X137800Y217500D02*Y219000D01*
X137300Y219500D01*
X136300D02*X137300D01*
X138300D02*X137800Y219000D01*
X133100Y219500D02*X134600D01*
X135100Y219000D02*X134600Y219500D01*
X135100Y218000D02*Y219000D01*
Y218000D02*X134600Y217500D01*
X133100D02*X134600D01*
X129900D02*X131400D01*
X131900Y218000D02*X131400Y217500D01*
X131900Y218000D02*Y219000D01*
X131400Y219500D01*
X130400D02*X131400D01*
X130400D02*X129900Y219000D01*
Y218500D02*X131900D01*
X129900D02*Y219000D01*
X163500Y211000D02*Y215000D01*
Y212500D02*X163000Y213000D01*
X162000D02*X163000D01*
X162000D02*X161500Y212500D01*
Y211000D02*Y212500D01*
X158800Y213000D02*X158300Y212500D01*
X158800Y213000D02*X159800D01*
X160300Y212500D02*X159800Y213000D01*
X160300Y211500D02*Y212500D01*
Y211500D02*X159800Y211000D01*
X158300Y211500D02*Y213000D01*
Y211500D02*X157800Y211000D01*
X158800D02*X159800D01*
X158800D02*X158300Y211500D01*
X156100Y211000D02*Y212500D01*
X155600Y213000D01*
X154600D02*X155600D01*
X156600D02*X156100Y212500D01*
X151400Y211000D02*Y215000D01*
X151900Y211000D02*X151400Y211500D01*
X151900Y211000D02*X152900D01*
X153400Y211500D02*X152900Y211000D01*
X153400Y211500D02*Y212500D01*
X152900Y213000D01*
X151900D02*X152900D01*
X151900D02*X151400Y212500D01*
X150200Y211500D02*Y213000D01*
Y211500D02*X149700Y211000D01*
X149200D02*X149700D01*
X149200D02*X148700Y211500D01*
Y213000D01*
Y211500D02*X148200Y211000D01*
X147700D02*X148200D01*
X147700D02*X147200Y211500D01*
Y213000D01*
X144500D02*X144000Y212500D01*
X144500Y213000D02*X145500D01*
X146000Y212500D02*X145500Y213000D01*
X146000Y211500D02*Y212500D01*
Y211500D02*X145500Y211000D01*
X144000Y211500D02*Y213000D01*
Y211500D02*X143500Y211000D01*
X144500D02*X145500D01*
X144500D02*X144000Y211500D01*
X141800Y211000D02*Y212500D01*
X141300Y213000D01*
X140300D02*X141300D01*
X142300D02*X141800Y212500D01*
X137100Y211000D02*X138600D01*
X139100Y211500D02*X138600Y211000D01*
X139100Y211500D02*Y212500D01*
X138600Y213000D01*
X137600D02*X138600D01*
X137600D02*X137100Y212500D01*
Y212000D02*X139100D01*
X137100D02*Y212500D01*
X211000Y177000D02*Y181000D01*
X209700D02*X209000Y180300D01*
Y177700D02*Y180300D01*
X209700Y177000D02*X209000Y177700D01*
X209700Y177000D02*X211500D01*
X209700Y181000D02*X211500D01*
X205800Y177000D02*X207300D01*
X207800Y177500D02*X207300Y177000D01*
X207800Y177500D02*Y178500D01*
X207300Y179000D01*
X206300D02*X207300D01*
X206300D02*X205800Y178500D01*
Y178000D02*X207800D01*
X205800D02*Y178500D01*
X202600Y177000D02*X204100D01*
X202600D02*X202100Y177500D01*
X202600Y178000D02*X202100Y177500D01*
X202600Y178000D02*X204100D01*
X204600Y178500D02*X204100Y178000D01*
X204600Y178500D02*X204100Y179000D01*
X202600D02*X204100D01*
X202600D02*X202100Y178500D01*
X204600Y177500D02*X204100Y177000D01*
G54D68*X200900Y179900D02*Y180000D01*
G54D67*Y177000D02*Y178500D01*
X198400Y179000D02*X197900Y178500D01*
X198400Y179000D02*X199400D01*
X199900Y178500D02*X199400Y179000D01*
X199900Y177500D02*Y178500D01*
Y177500D02*X199400Y177000D01*
X198400D02*X199400D01*
X198400D02*X197900Y177500D01*
X199900Y176000D02*X199400Y175500D01*
X198400D02*X199400D01*
X198400D02*X197900Y176000D01*
Y179000D01*
X196200Y177000D02*Y178500D01*
X195700Y179000D01*
X195200D02*X195700D01*
X195200D02*X194700Y178500D01*
Y177000D02*Y178500D01*
X196700Y179000D02*X196200Y178500D01*
X191500Y177000D02*X193000D01*
X193500Y177500D02*X193000Y177000D01*
X193500Y177500D02*Y178500D01*
X193000Y179000D01*
X192000D02*X193000D01*
X192000D02*X191500Y178500D01*
Y178000D02*X193500D01*
X191500D02*Y178500D01*
X188300Y177000D02*Y181000D01*
X188800Y177000D02*X188300Y177500D01*
X188800Y177000D02*X189800D01*
X190300Y177500D02*X189800Y177000D01*
X190300Y177500D02*Y178500D01*
X189800Y179000D01*
X188800D02*X189800D01*
X188800D02*X188300Y178500D01*
G54D68*X185300Y179900D02*Y180000D01*
G54D67*Y177000D02*Y178500D01*
X183800Y177000D02*Y178500D01*
X183300Y179000D01*
X182800D02*X183300D01*
X182800D02*X182300Y178500D01*
Y177000D02*Y178500D01*
X184300Y179000D02*X183800Y178500D01*
X178800Y177500D02*Y181000D01*
Y177500D02*X178300Y177000D01*
Y179500D02*X179300D01*
X177300Y177000D02*Y181000D01*
Y178500D02*X176800Y179000D01*
X175800D02*X176800D01*
X175800D02*X175300Y178500D01*
Y177000D02*Y178500D01*
X172100Y177000D02*X173600D01*
X174100Y177500D02*X173600Y177000D01*
X174100Y177500D02*Y178500D01*
X173600Y179000D01*
X172600D02*X173600D01*
X172600D02*X172100Y178500D01*
Y178000D02*X174100D01*
X172100D02*Y178500D01*
X169100Y177000D02*Y181000D01*
X166600Y177000D01*
Y181000D01*
X163400Y177000D02*X164900D01*
X165400Y177500D02*X164900Y177000D01*
X165400Y177500D02*Y178500D01*
X164900Y179000D01*
X163900D02*X164900D01*
X163900D02*X163400Y178500D01*
Y178000D02*X165400D01*
X163400D02*Y178500D01*
X161700Y177500D02*Y181000D01*
Y177500D02*X161200Y177000D01*
Y179500D02*X162200D01*
X160200Y177000D02*Y181000D01*
Y178500D02*X159700Y179000D01*
X158700D02*X159700D01*
X158700D02*X158200Y178500D01*
Y177000D02*Y178500D01*
X155000Y177000D02*X156500D01*
X157000Y177500D02*X156500Y177000D01*
X157000Y177500D02*Y178500D01*
X156500Y179000D01*
X155500D02*X156500D01*
X155500D02*X155000Y178500D01*
Y178000D02*X157000D01*
X155000D02*Y178500D01*
X153300Y177000D02*Y178500D01*
X152800Y179000D01*
X151800D02*X152800D01*
X153800D02*X153300Y178500D01*
X150600Y177500D02*Y181000D01*
Y177500D02*X150100Y177000D01*
X147600Y179000D02*X147100Y178500D01*
X147600Y179000D02*X148600D01*
X149100Y178500D02*X148600Y179000D01*
X149100Y177500D02*Y178500D01*
Y177500D02*X148600Y177000D01*
X147100Y177500D02*Y179000D01*
Y177500D02*X146600Y177000D01*
X147600D02*X148600D01*
X147600D02*X147100Y177500D01*
X144900Y177000D02*Y178500D01*
X144400Y179000D01*
X143900D02*X144400D01*
X143900D02*X143400Y178500D01*
Y177000D02*Y178500D01*
X145400Y179000D02*X144900Y178500D01*
X140200Y177000D02*Y181000D01*
X140700Y177000D02*X140200Y177500D01*
X140700Y177000D02*X141700D01*
X142200Y177500D02*X141700Y177000D01*
X142200Y177500D02*Y178500D01*
X141700Y179000D01*
X140700D02*X141700D01*
X140700D02*X140200Y178500D01*
X137000Y177000D02*X138500D01*
X137000D02*X136500Y177500D01*
X137000Y178000D02*X136500Y177500D01*
X137000Y178000D02*X138500D01*
X139000Y178500D02*X138500Y178000D01*
X139000Y178500D02*X138500Y179000D01*
X137000D02*X138500D01*
X137000D02*X136500Y178500D01*
X139000Y177500D02*X138500Y177000D01*
G54D69*X256754Y180762D03*
Y165999D03*
G54D70*X256262Y179778D03*
G54D71*Y179286D03*
G54D72*Y178794D03*
G54D73*Y178302D03*
G54D74*Y177810D03*
G54D75*Y177317D03*
G54D76*Y176825D03*
G54D77*Y176333D03*
G54D78*Y175841D03*
G54D79*Y175349D03*
G54D80*Y174857D03*
G54D81*Y174365D03*
G54D82*Y173873D03*
Y173380D03*
G54D81*Y172888D03*
G54D80*Y172396D03*
G54D79*Y171904D03*
G54D78*Y171412D03*
G54D83*Y170920D03*
G54D76*Y170428D03*
G54D70*X255770Y180270D03*
G54D71*Y179778D03*
G54D84*Y179286D03*
G54D85*Y178794D03*
G54D86*Y178302D03*
G54D76*Y177810D03*
G54D77*Y177317D03*
G54D78*Y176825D03*
G54D81*Y176333D03*
G54D87*Y175841D03*
G54D88*Y175349D03*
G54D89*Y174857D03*
G54D90*Y174365D03*
G54D91*Y173873D03*
Y173380D03*
G54D90*Y172888D03*
G54D89*Y172396D03*
G54D88*Y171904D03*
G54D87*Y171412D03*
G54D81*Y170920D03*
G54D78*Y170428D03*
G54D71*X255278Y180270D03*
G54D84*Y179778D03*
G54D85*Y179286D03*
G54D75*Y178794D03*
G54D92*Y178302D03*
G54D93*Y177810D03*
G54D80*Y177317D03*
G54D94*Y176825D03*
G54D89*Y176333D03*
Y170920D03*
G54D94*Y170428D03*
G54D80*Y169936D03*
G54D72*X254786Y180270D03*
G54D85*Y179778D03*
G54D75*Y179286D03*
G54D92*Y178794D03*
G54D78*Y178302D03*
G54D82*Y177810D03*
G54D88*Y177317D03*
Y169936D03*
G54D81*Y169443D03*
G54D73*X254294Y180270D03*
G54D86*Y179778D03*
G54D92*Y179286D03*
G54D78*Y178794D03*
G54D82*Y178302D03*
G54D89*Y177810D03*
G54D95*Y173873D03*
Y173380D03*
G54D89*Y169443D03*
G54D82*Y168951D03*
G54D74*X253802Y180270D03*
G54D76*Y179778D03*
G54D93*Y179286D03*
G54D82*Y178794D03*
G54D89*Y178302D03*
G54D96*Y175349D03*
G54D69*Y174857D03*
Y174365D03*
Y173873D03*
Y173380D03*
Y172888D03*
Y172396D03*
Y171904D03*
G54D89*Y168951D03*
G54D81*Y168459D03*
G54D75*X253310Y180270D03*
G54D77*Y179778D03*
G54D80*Y179286D03*
G54D88*Y178794D03*
G54D82*Y176333D03*
G54D69*Y175841D03*
Y175349D03*
Y174857D03*
Y174365D03*
Y173873D03*
Y173380D03*
Y172888D03*
Y172396D03*
Y171904D03*
Y171412D03*
G54D97*Y170920D03*
G54D88*Y168459D03*
G54D80*Y167967D03*
G54D76*X252817Y180270D03*
G54D79*Y179778D03*
G54D94*Y179286D03*
G54D96*Y176825D03*
G54D69*Y176333D03*
Y175841D03*
Y175349D03*
G54D95*Y174857D03*
G54D98*Y172396D03*
G54D69*Y171904D03*
Y171412D03*
Y170920D03*
G54D96*Y170428D03*
G54D94*Y167967D03*
G54D99*Y167475D03*
G54D77*X252325Y180270D03*
G54D81*Y179778D03*
G54D89*Y179286D03*
G54D97*Y177317D03*
G54D69*Y176825D03*
Y176333D03*
Y175841D03*
G54D95*Y175349D03*
Y171904D03*
G54D69*Y171412D03*
Y170920D03*
Y170428D03*
G54D82*Y169936D03*
G54D89*Y167967D03*
G54D81*Y167475D03*
G54D78*X251833Y180270D03*
G54D94*Y179778D03*
G54D69*Y177317D03*
Y176825D03*
Y176333D03*
Y175841D03*
Y171412D03*
Y170920D03*
Y170428D03*
Y169936D03*
G54D87*Y167475D03*
G54D79*X251341Y180270D03*
G54D88*Y179778D03*
G54D96*Y177810D03*
G54D69*Y177317D03*
Y176825D03*
Y176333D03*
Y175841D03*
G54D97*Y174365D03*
G54D69*Y173873D03*
Y173380D03*
G54D96*Y172888D03*
G54D69*Y171412D03*
Y170920D03*
Y170428D03*
Y169936D03*
G54D96*Y169443D03*
G54D88*Y167475D03*
G54D95*Y166983D03*
G54D80*X250849Y180270D03*
G54D89*Y179778D03*
G54D69*Y177810D03*
Y177317D03*
Y176825D03*
Y176333D03*
Y175841D03*
G54D95*Y174365D03*
G54D69*Y173873D03*
Y173380D03*
G54D82*Y172888D03*
G54D69*Y171412D03*
Y170920D03*
Y170428D03*
Y169936D03*
Y169443D03*
G54D89*Y167475D03*
G54D80*Y166983D03*
G54D81*X250357Y180270D03*
G54D90*Y179778D03*
G54D69*Y177810D03*
Y177317D03*
Y176825D03*
Y176333D03*
Y175841D03*
Y173873D03*
Y173380D03*
Y171412D03*
Y170920D03*
Y170428D03*
Y169936D03*
Y169443D03*
G54D90*Y167475D03*
G54D81*Y166983D03*
G54D82*X249865Y180270D03*
G54D91*Y179778D03*
G54D95*Y178302D03*
G54D69*Y177810D03*
Y177317D03*
Y176825D03*
Y176333D03*
Y175841D03*
Y175349D03*
Y173873D03*
Y173380D03*
Y171904D03*
Y171412D03*
Y170920D03*
Y170428D03*
Y169936D03*
Y169443D03*
G54D95*Y168951D03*
G54D91*Y167475D03*
G54D82*Y166983D03*
X249373Y180270D03*
G54D91*Y179778D03*
G54D95*Y178302D03*
G54D69*Y177810D03*
Y177317D03*
Y176825D03*
Y176333D03*
Y175841D03*
Y175349D03*
G54D98*Y174857D03*
Y172396D03*
G54D69*Y171904D03*
Y171412D03*
Y170920D03*
Y170428D03*
Y169936D03*
Y169443D03*
G54D95*Y168951D03*
G54D91*Y167475D03*
G54D82*Y166983D03*
G54D81*X248880Y180270D03*
G54D90*Y179778D03*
G54D69*Y177810D03*
Y177317D03*
Y176825D03*
Y176333D03*
Y175841D03*
G54D95*Y175349D03*
G54D98*Y171904D03*
G54D69*Y171412D03*
Y170920D03*
Y170428D03*
Y169936D03*
Y169443D03*
G54D90*Y167475D03*
G54D81*Y166983D03*
X248388Y180270D03*
G54D89*Y179778D03*
G54D69*Y177810D03*
Y177317D03*
Y176825D03*
Y176333D03*
Y175841D03*
Y171412D03*
Y170920D03*
Y170428D03*
Y169936D03*
Y169443D03*
G54D89*Y167475D03*
G54D80*Y166983D03*
G54D79*X247896Y180270D03*
G54D88*Y179778D03*
G54D69*Y177810D03*
Y177317D03*
Y176825D03*
Y176333D03*
Y175841D03*
G54D97*Y174365D03*
G54D69*Y173873D03*
Y173380D03*
G54D96*Y172888D03*
G54D69*Y171412D03*
Y170920D03*
Y170428D03*
Y169936D03*
G54D96*Y169443D03*
G54D88*Y167475D03*
G54D95*Y166983D03*
G54D78*X247404Y180270D03*
G54D94*Y179778D03*
G54D69*Y177317D03*
Y176825D03*
Y176333D03*
Y175841D03*
G54D98*Y174365D03*
G54D69*Y173873D03*
Y173380D03*
G54D82*Y172888D03*
G54D69*Y171412D03*
Y170920D03*
Y170428D03*
Y169936D03*
G54D94*Y167475D03*
G54D77*X246912Y180270D03*
G54D81*Y179778D03*
G54D89*Y179286D03*
G54D96*Y177317D03*
G54D69*Y176825D03*
Y176333D03*
Y175841D03*
Y173873D03*
Y173380D03*
Y171412D03*
Y170920D03*
Y170428D03*
G54D97*Y169936D03*
G54D89*Y167967D03*
G54D81*Y167475D03*
G54D92*X246420Y180270D03*
G54D79*Y179778D03*
G54D94*Y179286D03*
G54D96*Y176825D03*
G54D69*Y176333D03*
Y175841D03*
Y175349D03*
Y173873D03*
Y173380D03*
Y171904D03*
Y171412D03*
Y170920D03*
G54D96*Y170428D03*
G54D94*Y167967D03*
G54D100*Y167475D03*
G54D75*X245928Y180270D03*
G54D77*Y179778D03*
G54D81*Y179286D03*
G54D88*Y178794D03*
G54D96*Y176333D03*
G54D69*Y175841D03*
Y175349D03*
Y174857D03*
Y174365D03*
Y173873D03*
Y173380D03*
Y172888D03*
Y172396D03*
Y171904D03*
Y171412D03*
G54D96*Y170920D03*
G54D88*Y168459D03*
G54D80*Y167967D03*
G54D74*X245436Y180270D03*
G54D76*Y179778D03*
G54D78*Y179286D03*
G54D82*Y178794D03*
G54D76*Y178302D03*
G54D69*Y175349D03*
Y174857D03*
Y174365D03*
Y173873D03*
Y173380D03*
Y172888D03*
Y172396D03*
Y171904D03*
G54D89*Y168951D03*
G54D82*Y168459D03*
G54D73*X244943Y180270D03*
G54D75*Y179778D03*
G54D92*Y179286D03*
G54D79*Y178794D03*
G54D87*Y178302D03*
G54D76*Y177810D03*
G54D95*Y173873D03*
Y173380D03*
G54D89*Y169443D03*
G54D87*Y168951D03*
G54D72*X244451Y180270D03*
G54D85*Y179778D03*
G54D75*Y179286D03*
G54D83*Y178794D03*
G54D79*Y178302D03*
G54D82*Y177810D03*
G54D88*Y177317D03*
Y169936D03*
G54D82*Y169443D03*
G54D71*X243959Y180270D03*
G54D84*Y179778D03*
G54D85*Y179286D03*
G54D75*Y178794D03*
G54D92*Y178302D03*
G54D78*Y177810D03*
G54D81*Y177317D03*
G54D94*Y176825D03*
G54D89*Y176333D03*
Y170920D03*
G54D94*Y170428D03*
G54D80*Y169936D03*
G54D70*X243467Y180270D03*
G54D71*Y179778D03*
G54D84*Y179286D03*
G54D85*Y178794D03*
G54D75*Y178302D03*
G54D76*Y177810D03*
G54D77*Y177317D03*
G54D79*Y176825D03*
G54D81*Y176333D03*
G54D94*Y175841D03*
G54D88*Y175349D03*
G54D89*Y174857D03*
G54D90*Y174365D03*
G54D91*Y173873D03*
Y173380D03*
G54D90*Y172888D03*
G54D89*Y172396D03*
G54D88*Y171904D03*
G54D94*Y171412D03*
G54D81*Y170920D03*
G54D79*Y170428D03*
G54D101*X242975Y180270D03*
G54D70*Y179778D03*
G54D71*Y179286D03*
G54D72*Y178794D03*
G54D73*Y178302D03*
G54D74*Y177810D03*
G54D75*Y177317D03*
G54D92*Y176825D03*
G54D77*Y176333D03*
G54D78*Y175841D03*
G54D79*Y175349D03*
G54D81*Y174857D03*
Y174365D03*
G54D82*Y173873D03*
Y173380D03*
G54D81*Y172888D03*
G54D80*Y172396D03*
G54D79*Y171904D03*
G54D78*Y171412D03*
G54D77*Y170920D03*
G54D76*Y170428D03*
G54D102*X242483Y180270D03*
G54D101*Y179778D03*
G54D70*Y179286D03*
G54D71*Y178794D03*
G54D72*Y178302D03*
G54D103*Y177810D03*
G54D85*Y177317D03*
G54D86*Y176825D03*
G54D75*Y176333D03*
G54D76*Y175841D03*
G54D92*Y175349D03*
G54D83*Y174857D03*
G54D77*Y174365D03*
Y173873D03*
Y173380D03*
Y172888D03*
G54D83*Y172396D03*
G54D92*Y171904D03*
G54D104*Y171412D03*
G54D75*Y170920D03*
G54D74*Y170428D03*
G54D105*X241991Y180270D03*
G54D102*Y179778D03*
G54D101*Y179286D03*
G54D106*Y178794D03*
G54D107*Y178302D03*
G54D108*Y177810D03*
G54D72*Y177317D03*
G54D103*Y176825D03*
G54D73*Y176333D03*
G54D85*Y175841D03*
G54D86*Y175349D03*
G54D75*Y174857D03*
Y174365D03*
Y173873D03*
Y173380D03*
Y172888D03*
Y172396D03*
G54D86*Y171904D03*
G54D85*Y171412D03*
G54D73*Y170920D03*
G54D103*Y170428D03*
G54D109*X241499Y180270D03*
G54D105*Y179778D03*
G54D110*Y179286D03*
G54D102*Y178794D03*
G54D101*Y178302D03*
G54D70*Y177810D03*
G54D107*Y177317D03*
G54D71*Y176825D03*
G54D72*Y176333D03*
G54D84*Y175841D03*
G54D103*Y175349D03*
G54D95*Y174857D03*
G54D73*Y174365D03*
Y173873D03*
Y173380D03*
Y172888D03*
G54D95*Y172396D03*
G54D84*Y171904D03*
G54D72*Y171412D03*
Y170920D03*
G54D71*Y170428D03*
G54D99*X241006Y180270D03*
G54D109*Y179778D03*
G54D105*Y179286D03*
G54D110*Y178794D03*
G54D102*Y178302D03*
Y177810D03*
G54D101*Y177317D03*
G54D106*Y176825D03*
G54D70*Y176333D03*
G54D107*Y175841D03*
G54D71*Y175349D03*
G54D108*Y174857D03*
Y174365D03*
Y173873D03*
Y173380D03*
Y172888D03*
Y172396D03*
G54D71*Y171904D03*
G54D107*Y171412D03*
G54D70*Y170920D03*
G54D106*Y170428D03*
G54D99*X240514Y180270D03*
Y179778D03*
G54D100*Y179286D03*
G54D109*Y178794D03*
G54D105*Y178302D03*
G54D110*Y177810D03*
Y177317D03*
G54D102*Y176825D03*
G54D101*Y176333D03*
Y175841D03*
G54D106*Y175349D03*
Y174857D03*
G54D70*Y174365D03*
Y173873D03*
Y173380D03*
Y172888D03*
G54D106*Y172396D03*
Y171904D03*
G54D101*Y171412D03*
Y170920D03*
G54D102*Y170428D03*
G54D111*X240022Y180270D03*
Y179778D03*
G54D99*Y179286D03*
Y178794D03*
G54D100*Y178302D03*
G54D109*Y177810D03*
Y177317D03*
G54D105*Y176825D03*
G54D110*Y176333D03*
Y175841D03*
G54D102*Y175349D03*
Y174857D03*
Y174365D03*
Y173873D03*
Y173380D03*
Y172888D03*
Y172396D03*
Y171904D03*
G54D110*Y171412D03*
Y170920D03*
G54D105*Y170428D03*
G54D98*X239530Y180270D03*
G54D111*Y179778D03*
Y179286D03*
Y178794D03*
G54D99*Y178302D03*
Y177810D03*
Y177317D03*
G54D100*Y176825D03*
G54D109*Y176333D03*
Y175841D03*
Y175349D03*
G54D105*Y174857D03*
Y174365D03*
Y173873D03*
Y173380D03*
Y172888D03*
Y172396D03*
G54D109*Y171904D03*
Y171412D03*
Y170920D03*
G54D100*Y170428D03*
G54D98*X239038Y180270D03*
Y179778D03*
Y179286D03*
G54D111*Y178794D03*
Y178302D03*
Y177810D03*
Y177317D03*
Y176825D03*
G54D99*Y176333D03*
Y175841D03*
Y175349D03*
Y174857D03*
Y174365D03*
Y173873D03*
Y173380D03*
Y172888D03*
Y172396D03*
Y171904D03*
Y171412D03*
Y170920D03*
G54D111*Y170428D03*
G54D98*X238546Y180270D03*
Y179778D03*
Y179286D03*
Y178794D03*
Y178302D03*
Y177810D03*
G54D111*Y177317D03*
Y176825D03*
Y176333D03*
Y175841D03*
Y175349D03*
Y174857D03*
Y174365D03*
Y173873D03*
Y173380D03*
Y172888D03*
Y172396D03*
Y171904D03*
Y171412D03*
Y170920D03*
Y170428D03*
G54D98*X238054Y180270D03*
Y179778D03*
Y179286D03*
Y178794D03*
Y178302D03*
Y177810D03*
Y173380D03*
Y172888D03*
Y172396D03*
Y171904D03*
Y171412D03*
Y170920D03*
Y170428D03*
X237562Y180270D03*
Y179778D03*
Y179286D03*
Y178794D03*
Y172396D03*
Y171904D03*
Y171412D03*
Y170920D03*
Y170428D03*
X237069Y180270D03*
Y179778D03*
Y179286D03*
G54D97*Y176825D03*
G54D69*Y176333D03*
Y175841D03*
Y175349D03*
Y174857D03*
G54D97*Y174365D03*
G54D98*Y171904D03*
Y171412D03*
Y170920D03*
Y170428D03*
X236577Y180270D03*
Y179778D03*
Y179286D03*
G54D91*Y177317D03*
G54D69*Y176825D03*
Y176333D03*
Y175841D03*
Y175349D03*
Y174857D03*
Y174365D03*
Y173873D03*
G54D98*Y171904D03*
Y171412D03*
Y170920D03*
Y170428D03*
G54D69*Y168951D03*
Y168459D03*
Y167967D03*
Y167475D03*
Y166983D03*
G54D98*X236085Y180270D03*
Y179778D03*
G54D69*Y177810D03*
Y177317D03*
Y176825D03*
Y176333D03*
Y175841D03*
Y175349D03*
Y174857D03*
Y174365D03*
Y173873D03*
Y173380D03*
G54D98*Y171412D03*
Y170920D03*
Y170428D03*
G54D69*Y168951D03*
Y167967D03*
Y166983D03*
G54D98*X235593Y180270D03*
Y179778D03*
G54D97*Y178302D03*
G54D69*Y177810D03*
Y177317D03*
Y176825D03*
Y176333D03*
Y175841D03*
Y175349D03*
Y174857D03*
Y174365D03*
Y173873D03*
Y173380D03*
G54D97*Y172888D03*
G54D98*Y171412D03*
Y170920D03*
Y170428D03*
G54D69*Y168951D03*
Y167967D03*
Y166983D03*
G54D98*X235101Y180270D03*
Y179778D03*
G54D69*Y178302D03*
Y177810D03*
Y177317D03*
Y176825D03*
Y174365D03*
Y173873D03*
Y173380D03*
Y172888D03*
G54D98*Y171412D03*
Y170920D03*
Y170428D03*
G54D69*Y168459D03*
Y167475D03*
G54D98*X234609Y180270D03*
Y179778D03*
G54D69*Y178302D03*
Y176825D03*
Y172888D03*
G54D98*Y171412D03*
Y170920D03*
Y170428D03*
X234117Y180270D03*
Y179778D03*
G54D69*Y178302D03*
Y176825D03*
Y172888D03*
G54D98*Y171412D03*
Y170920D03*
Y170428D03*
G54D69*Y168951D03*
G54D98*X233625Y180270D03*
Y179778D03*
G54D69*Y178302D03*
Y177810D03*
Y177317D03*
Y176825D03*
Y174365D03*
Y173873D03*
Y173380D03*
Y172888D03*
G54D98*Y171412D03*
Y170920D03*
Y170428D03*
G54D69*Y168459D03*
G54D98*X233132Y180270D03*
Y179778D03*
G54D97*Y178302D03*
G54D69*Y177810D03*
Y177317D03*
Y176825D03*
Y176333D03*
Y175841D03*
Y175349D03*
Y174857D03*
Y174365D03*
Y173873D03*
Y173380D03*
G54D97*Y172888D03*
G54D98*Y171412D03*
Y170920D03*
Y170428D03*
G54D69*Y167967D03*
Y167475D03*
Y166983D03*
G54D98*X232640Y180270D03*
Y179778D03*
G54D69*Y177810D03*
Y177317D03*
Y176825D03*
Y176333D03*
Y175841D03*
Y175349D03*
Y174857D03*
Y174365D03*
Y173873D03*
Y173380D03*
G54D98*Y171412D03*
Y170920D03*
Y170428D03*
G54D69*Y168459D03*
G54D98*X232148Y180270D03*
Y179778D03*
Y179286D03*
G54D69*Y177317D03*
Y176825D03*
Y176333D03*
Y175841D03*
Y175349D03*
Y174857D03*
Y174365D03*
Y173873D03*
G54D98*Y171904D03*
Y171412D03*
Y170920D03*
Y170428D03*
G54D69*Y168951D03*
G54D98*X231656Y180270D03*
Y179778D03*
Y179286D03*
G54D97*Y176825D03*
G54D69*Y176333D03*
Y175841D03*
Y175349D03*
Y174857D03*
G54D97*Y174365D03*
G54D98*Y171904D03*
Y171412D03*
Y170920D03*
Y170428D03*
X231164Y180270D03*
Y179778D03*
Y179286D03*
Y178794D03*
Y172396D03*
Y171904D03*
Y171412D03*
Y170920D03*
Y170428D03*
X230672Y180270D03*
Y179778D03*
Y179286D03*
Y178794D03*
Y178302D03*
Y177810D03*
Y173380D03*
Y172888D03*
Y172396D03*
Y171904D03*
Y171412D03*
Y170920D03*
Y170428D03*
X230180Y180270D03*
Y179778D03*
Y179286D03*
Y178794D03*
Y178302D03*
Y177810D03*
Y177317D03*
Y176825D03*
Y176333D03*
Y175841D03*
Y175349D03*
Y174857D03*
Y174365D03*
Y173873D03*
Y173380D03*
Y172888D03*
Y172396D03*
Y171904D03*
Y171412D03*
Y170920D03*
Y170428D03*
X229688Y180270D03*
Y179778D03*
Y179286D03*
Y178794D03*
Y178302D03*
Y177810D03*
Y177317D03*
Y176825D03*
Y176333D03*
Y175841D03*
Y175349D03*
Y174857D03*
Y174365D03*
Y173873D03*
Y173380D03*
Y172888D03*
Y172396D03*
Y171904D03*
Y171412D03*
Y170920D03*
Y170428D03*
X229195Y180270D03*
Y179778D03*
Y179286D03*
Y178794D03*
Y178302D03*
Y177810D03*
Y177317D03*
Y176825D03*
Y176333D03*
Y175841D03*
Y175349D03*
Y174857D03*
Y174365D03*
Y173873D03*
Y173380D03*
Y172888D03*
Y172396D03*
Y171904D03*
Y171412D03*
Y170920D03*
Y170428D03*
X228703Y180270D03*
Y179778D03*
Y179286D03*
Y178794D03*
Y178302D03*
Y177810D03*
Y177317D03*
Y176825D03*
Y176333D03*
Y175841D03*
Y175349D03*
Y174857D03*
Y174365D03*
Y173873D03*
Y173380D03*
Y172888D03*
Y172396D03*
Y171904D03*
Y171412D03*
Y170920D03*
Y170428D03*
X228211Y180270D03*
Y179778D03*
Y179286D03*
Y178794D03*
Y178302D03*
Y177810D03*
Y177317D03*
Y176825D03*
Y176333D03*
Y175841D03*
Y175349D03*
Y174857D03*
Y174365D03*
Y173873D03*
Y173380D03*
Y172888D03*
Y172396D03*
Y171904D03*
Y171412D03*
Y170920D03*
Y170428D03*
X227719Y180270D03*
Y179778D03*
Y179286D03*
Y178794D03*
Y178302D03*
Y177810D03*
Y177317D03*
Y176825D03*
Y176333D03*
Y175841D03*
Y175349D03*
Y174857D03*
Y174365D03*
Y173873D03*
Y173380D03*
Y172888D03*
Y172396D03*
Y171904D03*
Y171412D03*
Y170920D03*
Y170428D03*
X227227Y180270D03*
Y179778D03*
Y179286D03*
Y178794D03*
Y178302D03*
Y177810D03*
Y177317D03*
Y176825D03*
Y176333D03*
Y175841D03*
Y175349D03*
Y174857D03*
Y174365D03*
Y173873D03*
Y173380D03*
Y172888D03*
Y172396D03*
Y171904D03*
Y171412D03*
Y170920D03*
Y170428D03*
X226735Y180270D03*
Y179778D03*
Y179286D03*
Y178794D03*
Y178302D03*
Y177810D03*
Y177317D03*
Y176825D03*
Y176333D03*
Y175841D03*
Y175349D03*
Y174857D03*
Y174365D03*
Y173873D03*
Y173380D03*
Y172888D03*
Y172396D03*
Y171904D03*
Y171412D03*
Y170920D03*
Y170428D03*
X226243Y180270D03*
Y179778D03*
Y179286D03*
Y178794D03*
Y178302D03*
Y177810D03*
Y173380D03*
Y172888D03*
Y172396D03*
Y171904D03*
Y171412D03*
Y170920D03*
Y170428D03*
X225750Y180270D03*
Y179778D03*
Y179286D03*
Y178794D03*
Y172396D03*
Y171904D03*
Y171412D03*
Y170920D03*
Y170428D03*
X225258Y180270D03*
Y179778D03*
Y179286D03*
G54D97*Y176825D03*
G54D69*Y176333D03*
Y175841D03*
Y175349D03*
Y174857D03*
G54D97*Y174365D03*
G54D98*Y171904D03*
Y171412D03*
Y170920D03*
Y170428D03*
X224766Y180270D03*
Y179778D03*
Y179286D03*
G54D91*Y177317D03*
G54D69*Y176825D03*
G54D112*Y176333D03*
Y175841D03*
G54D69*Y175349D03*
Y174857D03*
Y174365D03*
Y173873D03*
G54D98*Y171904D03*
Y171412D03*
Y170920D03*
Y170428D03*
G54D69*Y168459D03*
Y166983D03*
G54D98*X224274Y180270D03*
Y179778D03*
G54D69*Y177810D03*
Y177317D03*
G54D92*Y176825D03*
G54D102*Y175349D03*
G54D107*Y174857D03*
G54D69*Y173873D03*
Y173380D03*
G54D98*Y171412D03*
Y170920D03*
Y170428D03*
G54D69*Y168951D03*
Y167967D03*
Y166983D03*
G54D98*X223782Y180270D03*
Y179778D03*
G54D97*Y178302D03*
G54D69*Y177810D03*
Y173380D03*
G54D97*Y172888D03*
G54D98*Y171412D03*
Y170920D03*
Y170428D03*
G54D69*Y168951D03*
Y167967D03*
Y166983D03*
G54D98*X223290Y180270D03*
Y179778D03*
G54D69*Y178302D03*
G54D113*Y177810D03*
G54D95*Y175349D03*
G54D83*Y174857D03*
G54D93*Y173380D03*
G54D69*Y172888D03*
G54D98*Y171412D03*
Y170920D03*
Y170428D03*
G54D69*Y168951D03*
Y167475D03*
G54D98*X222798Y180270D03*
Y179778D03*
G54D69*Y178302D03*
G54D92*Y177810D03*
G54D69*Y176333D03*
Y175841D03*
Y175349D03*
Y174857D03*
G54D114*Y173380D03*
G54D69*Y172888D03*
G54D98*Y171412D03*
Y170920D03*
Y170428D03*
X222306Y180270D03*
Y179778D03*
G54D69*Y178302D03*
G54D92*Y177810D03*
G54D69*Y176333D03*
Y175841D03*
Y175349D03*
Y174857D03*
G54D114*Y173380D03*
G54D69*Y172888D03*
G54D98*Y171412D03*
Y170920D03*
Y170428D03*
G54D69*Y168459D03*
Y167967D03*
Y167475D03*
Y166983D03*
G54D98*X221813Y180270D03*
Y179778D03*
G54D69*Y178302D03*
G54D113*Y177810D03*
Y175841D03*
Y175349D03*
G54D114*Y174857D03*
G54D91*Y173380D03*
G54D69*Y172888D03*
G54D98*Y171412D03*
Y170920D03*
Y170428D03*
G54D69*Y168951D03*
Y167967D03*
G54D98*X221321Y180270D03*
Y179778D03*
G54D97*Y178302D03*
G54D69*Y177810D03*
G54D107*Y177317D03*
G54D69*Y173380D03*
G54D97*Y172888D03*
G54D98*Y171412D03*
Y170920D03*
Y170428D03*
G54D69*Y168951D03*
Y167967D03*
G54D98*X220829Y180270D03*
Y179778D03*
G54D69*Y177810D03*
Y177317D03*
G54D112*Y173873D03*
G54D69*Y173380D03*
G54D98*Y171412D03*
Y170920D03*
Y170428D03*
G54D69*Y168459D03*
Y167967D03*
Y167475D03*
Y166983D03*
G54D98*X220337Y180270D03*
Y179778D03*
Y179286D03*
G54D69*Y177317D03*
Y176825D03*
Y176333D03*
G54D115*Y175841D03*
G54D116*Y175349D03*
G54D69*Y174857D03*
Y174365D03*
Y173873D03*
G54D98*Y171904D03*
Y171412D03*
Y170920D03*
Y170428D03*
X219845Y180270D03*
Y179778D03*
Y179286D03*
G54D97*Y176825D03*
G54D69*Y176333D03*
Y175841D03*
Y175349D03*
Y174857D03*
G54D97*Y174365D03*
G54D98*Y171904D03*
Y171412D03*
Y170920D03*
Y170428D03*
X219353Y180270D03*
Y179778D03*
Y179286D03*
Y178794D03*
Y172396D03*
Y171904D03*
Y171412D03*
Y170920D03*
Y170428D03*
X218861Y180270D03*
Y179778D03*
Y179286D03*
Y178794D03*
Y178302D03*
Y177810D03*
Y173380D03*
Y172888D03*
Y172396D03*
Y171904D03*
Y171412D03*
Y170920D03*
Y170428D03*
X218369Y180270D03*
Y179778D03*
Y179286D03*
Y178794D03*
Y178302D03*
Y177810D03*
Y177317D03*
Y176825D03*
Y176333D03*
Y175841D03*
Y175349D03*
Y174857D03*
Y174365D03*
Y173873D03*
Y173380D03*
Y172888D03*
Y172396D03*
Y171904D03*
Y171412D03*
Y170920D03*
Y170428D03*
X217876Y180270D03*
Y179778D03*
Y179286D03*
Y178794D03*
Y178302D03*
Y177810D03*
Y177317D03*
Y176825D03*
Y176333D03*
Y175841D03*
Y175349D03*
Y174857D03*
Y174365D03*
Y173873D03*
Y173380D03*
Y172888D03*
Y172396D03*
Y171904D03*
Y171412D03*
Y170920D03*
Y170428D03*
X217384Y180270D03*
Y179778D03*
Y179286D03*
Y178794D03*
Y178302D03*
Y177810D03*
Y177317D03*
Y176825D03*
Y176333D03*
Y175841D03*
Y175349D03*
Y174857D03*
Y174365D03*
Y173873D03*
Y173380D03*
Y172888D03*
Y172396D03*
Y171904D03*
Y171412D03*
Y170920D03*
Y170428D03*
X216892Y180270D03*
Y179778D03*
Y179286D03*
Y178794D03*
Y178302D03*
Y177810D03*
Y177317D03*
Y176825D03*
Y176333D03*
Y175841D03*
Y175349D03*
Y174857D03*
Y174365D03*
Y173873D03*
Y173380D03*
Y172888D03*
Y172396D03*
Y171904D03*
Y171412D03*
Y170920D03*
Y170428D03*
X216400Y180270D03*
Y179778D03*
Y179286D03*
Y178794D03*
Y178302D03*
Y177810D03*
Y177317D03*
Y176825D03*
Y176333D03*
Y175841D03*
Y175349D03*
Y174857D03*
Y174365D03*
Y173873D03*
Y173380D03*
Y172888D03*
Y172396D03*
Y171904D03*
Y171412D03*
Y170920D03*
Y170428D03*
X215908Y180270D03*
Y179778D03*
Y179286D03*
Y178794D03*
Y178302D03*
Y177810D03*
Y177317D03*
Y176825D03*
Y176333D03*
Y175841D03*
Y175349D03*
Y174857D03*
Y174365D03*
Y173873D03*
Y173380D03*
Y172888D03*
Y172396D03*
Y171904D03*
Y171412D03*
Y170920D03*
Y170428D03*
X215416Y180270D03*
Y179778D03*
Y179286D03*
Y178794D03*
Y178302D03*
Y177810D03*
Y177317D03*
Y176825D03*
Y176333D03*
Y175841D03*
Y175349D03*
Y174857D03*
Y174365D03*
Y173873D03*
Y173380D03*
Y172888D03*
Y172396D03*
Y171904D03*
Y171412D03*
Y170920D03*
Y170428D03*
X214924Y180270D03*
Y179778D03*
Y179286D03*
Y178794D03*
Y178302D03*
Y177810D03*
Y177317D03*
Y176825D03*
Y176333D03*
Y175841D03*
Y175349D03*
Y174857D03*
Y174365D03*
Y173873D03*
Y173380D03*
Y172888D03*
Y172396D03*
Y171904D03*
Y171412D03*
Y170920D03*
Y170428D03*
X214432Y179778D03*
Y179286D03*
Y178794D03*
Y178302D03*
Y177810D03*
Y177317D03*
Y176825D03*
Y176333D03*
Y175841D03*
Y175349D03*
Y174857D03*
Y174365D03*
Y173873D03*
Y173380D03*
Y172888D03*
Y172396D03*
Y171904D03*
Y171412D03*
Y170920D03*
Y170428D03*
G54D69*X213939Y180762D03*
Y165999D03*
X128278Y141380D03*
X127786Y142857D03*
Y141873D03*
Y141380D03*
Y140888D03*
Y140396D03*
X127294Y144333D03*
Y143841D03*
Y143349D03*
Y142857D03*
Y142365D03*
Y141873D03*
Y141380D03*
Y140888D03*
Y140396D03*
X126802Y149254D03*
Y148762D03*
Y148270D03*
G54D79*Y147778D03*
G54D69*Y144333D03*
Y143841D03*
Y143349D03*
Y142857D03*
Y142365D03*
Y141873D03*
Y141380D03*
Y140888D03*
Y140396D03*
X126310Y148762D03*
Y148270D03*
Y144333D03*
Y143841D03*
Y143349D03*
Y142857D03*
Y142365D03*
Y141873D03*
Y141380D03*
Y140888D03*
Y140396D03*
Y139904D03*
G54D79*X125817Y149747D03*
G54D69*Y149254D03*
Y148762D03*
Y148270D03*
Y147778D03*
G54D79*Y146794D03*
G54D69*Y144333D03*
Y143841D03*
Y143349D03*
Y142857D03*
Y142365D03*
Y141873D03*
Y141380D03*
Y140888D03*
Y140396D03*
X125325Y149747D03*
Y149254D03*
Y148762D03*
Y148270D03*
Y147778D03*
Y147286D03*
Y146794D03*
Y146302D03*
Y144825D03*
Y144333D03*
Y143841D03*
Y143349D03*
Y142857D03*
Y142365D03*
Y141873D03*
Y141380D03*
X124833Y150239D03*
Y149747D03*
Y149254D03*
Y148762D03*
Y148270D03*
Y147778D03*
Y147286D03*
Y146794D03*
Y146302D03*
G54D79*Y144825D03*
G54D69*Y144333D03*
Y143841D03*
Y143349D03*
Y142857D03*
Y142365D03*
Y141873D03*
Y141380D03*
X124341Y149747D03*
Y149254D03*
Y148762D03*
Y148270D03*
Y147778D03*
Y147286D03*
Y146794D03*
Y146302D03*
G54D79*Y145810D03*
G54D69*Y144333D03*
Y143841D03*
Y143349D03*
Y142857D03*
Y142365D03*
Y141873D03*
G54D79*Y141380D03*
G54D69*X123849Y149747D03*
Y149254D03*
Y148762D03*
Y148270D03*
Y147778D03*
Y147286D03*
Y146794D03*
Y146302D03*
Y143349D03*
Y142857D03*
Y142365D03*
Y141873D03*
X123357Y149254D03*
Y148762D03*
Y148270D03*
Y147778D03*
Y147286D03*
Y146794D03*
Y146302D03*
Y145810D03*
Y143349D03*
Y142857D03*
Y142365D03*
Y141873D03*
Y141380D03*
G54D79*X122865Y149254D03*
G54D69*Y148762D03*
Y148270D03*
Y147778D03*
Y147286D03*
Y146794D03*
Y146302D03*
Y143349D03*
Y142857D03*
Y142365D03*
Y141873D03*
Y141380D03*
X122373Y153684D03*
Y149747D03*
Y148270D03*
Y147778D03*
Y147286D03*
Y146794D03*
Y146302D03*
G54D79*Y145317D03*
Y143349D03*
G54D69*Y142857D03*
Y142365D03*
Y141873D03*
Y141380D03*
Y140888D03*
X121880Y153684D03*
Y152699D03*
Y149747D03*
Y149254D03*
Y148762D03*
Y147286D03*
Y146794D03*
Y145810D03*
Y142365D03*
Y141873D03*
Y141380D03*
Y140888D03*
X121388Y153684D03*
Y153191D03*
Y152699D03*
Y149747D03*
Y149254D03*
Y148762D03*
Y147286D03*
Y146794D03*
Y146302D03*
Y145810D03*
Y145317D03*
Y144825D03*
G54D79*Y142857D03*
G54D69*Y142365D03*
Y141873D03*
Y141380D03*
Y140888D03*
G54D79*X120896Y154176D03*
G54D69*Y153684D03*
Y153191D03*
Y152699D03*
Y150239D03*
Y149747D03*
Y149254D03*
Y148762D03*
Y148270D03*
Y147778D03*
Y147286D03*
Y146794D03*
Y146302D03*
Y145810D03*
Y145317D03*
Y144825D03*
Y142365D03*
Y141873D03*
Y141380D03*
Y140888D03*
G54D79*Y140396D03*
G54D69*X120404Y153684D03*
Y153191D03*
G54D79*Y150239D03*
G54D69*Y149747D03*
Y149254D03*
Y148762D03*
Y148270D03*
Y147778D03*
Y147286D03*
Y146794D03*
Y146302D03*
Y145810D03*
Y145317D03*
Y144825D03*
Y142365D03*
Y141873D03*
Y141380D03*
Y140888D03*
Y140396D03*
G54D79*Y139904D03*
G54D69*Y139412D03*
G54D79*X119912Y154176D03*
G54D69*Y153684D03*
Y153191D03*
G54D79*Y152699D03*
G54D69*Y149747D03*
G54D79*Y148762D03*
G54D69*Y148270D03*
Y147778D03*
Y147286D03*
Y146794D03*
Y146302D03*
Y145810D03*
Y145317D03*
Y144825D03*
Y144333D03*
G54D79*Y143841D03*
G54D69*Y141873D03*
Y141380D03*
Y140888D03*
Y140396D03*
Y139904D03*
Y139412D03*
Y138920D03*
G54D79*Y138428D03*
G54D69*X119420Y153684D03*
Y153191D03*
Y150239D03*
Y149747D03*
Y149254D03*
G54D79*Y148762D03*
G54D69*Y148270D03*
Y147778D03*
Y147286D03*
Y146794D03*
Y146302D03*
Y145810D03*
Y145317D03*
Y144825D03*
Y144333D03*
Y143841D03*
G54D79*Y142365D03*
G54D69*Y141873D03*
Y141380D03*
Y140888D03*
Y140396D03*
Y139904D03*
Y139412D03*
G54D79*Y138920D03*
G54D69*X118928Y156636D03*
Y153684D03*
Y153191D03*
Y150239D03*
Y149747D03*
Y149254D03*
Y148270D03*
Y147778D03*
Y147286D03*
Y146794D03*
Y146302D03*
Y145810D03*
Y145317D03*
Y144825D03*
Y144333D03*
G54D79*Y142365D03*
G54D69*Y141873D03*
Y141380D03*
Y140888D03*
Y140396D03*
Y139904D03*
Y139412D03*
X118436Y156636D03*
Y155652D03*
Y154176D03*
Y153684D03*
Y153191D03*
Y152699D03*
G54D79*Y151715D03*
G54D69*Y148270D03*
Y147778D03*
Y147286D03*
Y146794D03*
Y146302D03*
Y145810D03*
Y145317D03*
Y144825D03*
Y144333D03*
Y142365D03*
Y141873D03*
Y141380D03*
Y140888D03*
Y140396D03*
Y139904D03*
X117943Y156636D03*
Y153684D03*
Y153191D03*
Y152699D03*
Y152207D03*
Y151715D03*
Y151223D03*
Y147778D03*
Y147286D03*
Y146794D03*
Y146302D03*
Y145810D03*
G54D79*Y144825D03*
G54D69*Y143349D03*
Y142857D03*
Y142365D03*
Y141873D03*
Y141380D03*
Y140888D03*
Y140396D03*
Y139904D03*
Y139412D03*
Y138920D03*
G54D79*X117451Y157128D03*
G54D69*Y156636D03*
G54D79*Y154176D03*
G54D69*Y153684D03*
Y153191D03*
Y152699D03*
Y152207D03*
Y151715D03*
Y151223D03*
Y147778D03*
Y147286D03*
Y146794D03*
Y146302D03*
G54D79*Y143349D03*
G54D69*Y142857D03*
Y142365D03*
Y141873D03*
Y141380D03*
Y140888D03*
Y140396D03*
Y139904D03*
X116959Y156636D03*
Y154176D03*
Y153684D03*
Y153191D03*
Y152699D03*
Y152207D03*
Y151715D03*
Y151223D03*
G54D79*Y150731D03*
G54D69*Y147286D03*
Y146794D03*
Y146302D03*
G54D79*Y144333D03*
G54D69*Y143841D03*
Y143349D03*
Y142857D03*
Y142365D03*
Y141873D03*
Y141380D03*
Y140888D03*
Y140396D03*
Y139904D03*
X116467Y161065D03*
Y157128D03*
Y156636D03*
G54D79*Y156144D03*
G54D69*Y153191D03*
Y152699D03*
Y152207D03*
Y151715D03*
Y151223D03*
G54D79*Y150731D03*
Y150239D03*
G54D69*Y149747D03*
Y147286D03*
Y146794D03*
Y146302D03*
G54D79*Y145317D03*
G54D69*Y143841D03*
Y143349D03*
Y142857D03*
Y142365D03*
Y141873D03*
Y141380D03*
Y140888D03*
Y140396D03*
Y139904D03*
X115975Y161558D03*
Y161065D03*
Y157128D03*
Y156636D03*
G54D79*Y156144D03*
Y153191D03*
G54D69*Y152207D03*
Y151715D03*
Y151223D03*
G54D79*Y150731D03*
Y150239D03*
G54D69*Y149747D03*
Y149254D03*
Y147286D03*
Y146794D03*
Y146302D03*
Y145810D03*
G54D79*Y143841D03*
G54D69*Y143349D03*
Y142857D03*
Y142365D03*
Y141873D03*
Y141380D03*
Y140888D03*
Y140396D03*
G54D79*Y139904D03*
G54D69*X115483Y161065D03*
Y160573D03*
G54D79*Y159589D03*
G54D69*Y158605D03*
Y156636D03*
Y156144D03*
Y155652D03*
G54D79*Y154668D03*
G54D69*Y151715D03*
Y149747D03*
Y149254D03*
Y148762D03*
Y146794D03*
Y146302D03*
Y145810D03*
Y145317D03*
Y143349D03*
Y142857D03*
Y142365D03*
Y141873D03*
Y141380D03*
Y140888D03*
Y140396D03*
X114991Y161065D03*
Y160573D03*
Y159589D03*
Y159097D03*
Y158605D03*
Y156144D03*
Y155652D03*
Y155160D03*
Y154668D03*
Y154176D03*
Y153684D03*
Y151715D03*
G54D79*Y151223D03*
G54D69*Y150731D03*
Y150239D03*
Y149747D03*
Y149254D03*
Y148762D03*
Y145317D03*
Y144825D03*
Y144333D03*
Y142857D03*
Y142365D03*
Y141873D03*
Y141380D03*
Y140888D03*
G54D79*Y140396D03*
G54D69*X114499Y161065D03*
Y160573D03*
Y160081D03*
G54D79*Y159589D03*
G54D69*Y159097D03*
Y158605D03*
Y158113D03*
Y157128D03*
Y155652D03*
Y155160D03*
Y154668D03*
Y154176D03*
Y153684D03*
Y152207D03*
G54D79*Y151715D03*
G54D69*Y150239D03*
Y149747D03*
Y149254D03*
Y148762D03*
Y148270D03*
Y147778D03*
Y145317D03*
Y144825D03*
G54D79*Y144333D03*
G54D69*Y142365D03*
Y141873D03*
Y141380D03*
Y140888D03*
Y140396D03*
X114006Y161558D03*
Y161065D03*
Y160573D03*
Y160081D03*
Y159589D03*
Y159097D03*
Y158605D03*
Y158113D03*
Y157621D03*
Y155160D03*
Y154668D03*
Y154176D03*
Y153684D03*
Y151715D03*
Y149747D03*
Y149254D03*
Y148762D03*
Y148270D03*
Y147778D03*
Y145317D03*
Y144825D03*
Y142365D03*
Y141873D03*
Y141380D03*
Y140888D03*
X113514Y162050D03*
Y161558D03*
Y161065D03*
Y160573D03*
Y160081D03*
Y159589D03*
Y159097D03*
Y158605D03*
Y158113D03*
Y157621D03*
Y157128D03*
G54D79*Y156636D03*
Y155652D03*
G54D69*Y155160D03*
Y154668D03*
Y154176D03*
Y153684D03*
G54D79*Y153191D03*
G54D69*Y151715D03*
G54D79*Y150731D03*
G54D69*Y150239D03*
Y149747D03*
Y149254D03*
Y148762D03*
Y148270D03*
Y144825D03*
Y144333D03*
Y143841D03*
Y142365D03*
Y141873D03*
Y141380D03*
Y140888D03*
X113022Y162050D03*
Y161558D03*
Y161065D03*
Y160573D03*
Y160081D03*
Y159589D03*
Y159097D03*
Y158605D03*
Y158113D03*
Y157621D03*
Y157128D03*
Y155160D03*
Y154668D03*
Y154176D03*
Y153684D03*
Y153191D03*
G54D79*Y151223D03*
G54D69*Y150731D03*
Y149254D03*
Y148762D03*
Y148270D03*
Y145317D03*
Y144825D03*
Y142365D03*
Y141873D03*
G54D79*Y141380D03*
X112530Y163526D03*
G54D69*Y162542D03*
Y162050D03*
Y161558D03*
Y161065D03*
Y160573D03*
Y160081D03*
Y159589D03*
Y159097D03*
Y158605D03*
Y158113D03*
Y157621D03*
Y157128D03*
Y156636D03*
Y155160D03*
Y154668D03*
Y154176D03*
Y153684D03*
Y153191D03*
Y152699D03*
Y150731D03*
Y150239D03*
Y149254D03*
Y148762D03*
Y148270D03*
Y147778D03*
Y145317D03*
Y144825D03*
Y144333D03*
Y142857D03*
Y142365D03*
G54D79*Y141873D03*
G54D69*X112038Y164018D03*
Y163526D03*
Y163034D03*
Y162542D03*
Y162050D03*
Y161558D03*
Y161065D03*
Y160573D03*
Y160081D03*
Y159589D03*
Y159097D03*
Y158605D03*
Y158113D03*
Y157621D03*
Y157128D03*
Y156636D03*
Y156144D03*
Y154668D03*
Y154176D03*
Y153684D03*
Y153191D03*
Y152699D03*
Y150731D03*
Y150239D03*
Y149747D03*
Y148762D03*
Y148270D03*
Y147778D03*
Y144825D03*
G54D79*Y144333D03*
Y143841D03*
G54D69*Y142857D03*
G54D79*X111546Y164510D03*
G54D69*Y164018D03*
Y163526D03*
Y163034D03*
Y162542D03*
Y162050D03*
Y161558D03*
Y161065D03*
Y160573D03*
Y160081D03*
Y159589D03*
Y159097D03*
Y158605D03*
Y158113D03*
Y157621D03*
Y157128D03*
Y156636D03*
Y156144D03*
Y155652D03*
Y153684D03*
Y153191D03*
Y152699D03*
Y152207D03*
Y150731D03*
Y150239D03*
Y149747D03*
Y149254D03*
Y148762D03*
Y148270D03*
Y147778D03*
Y145317D03*
Y144825D03*
Y144333D03*
Y143841D03*
X111054Y164510D03*
Y164018D03*
Y163526D03*
Y163034D03*
Y162542D03*
Y162050D03*
Y161558D03*
Y161065D03*
Y160573D03*
Y160081D03*
Y159589D03*
Y159097D03*
Y158605D03*
Y158113D03*
Y157621D03*
Y157128D03*
Y156636D03*
Y156144D03*
Y155652D03*
Y153684D03*
Y153191D03*
Y152699D03*
Y152207D03*
G54D79*Y151715D03*
G54D69*Y150731D03*
Y150239D03*
Y149747D03*
Y149254D03*
Y148762D03*
Y148270D03*
Y147778D03*
Y147286D03*
Y146794D03*
Y144825D03*
Y144333D03*
Y143841D03*
G54D79*X110562Y165987D03*
G54D69*Y165495D03*
Y165002D03*
Y164510D03*
Y164018D03*
Y163526D03*
Y163034D03*
Y162542D03*
Y162050D03*
Y161558D03*
Y161065D03*
Y160573D03*
Y160081D03*
Y159589D03*
Y159097D03*
Y158605D03*
Y158113D03*
Y157621D03*
Y157128D03*
Y156636D03*
Y156144D03*
Y155652D03*
Y155160D03*
Y152699D03*
Y152207D03*
Y150731D03*
Y150239D03*
Y149747D03*
Y149254D03*
Y148762D03*
Y148270D03*
Y147778D03*
Y147286D03*
Y146794D03*
Y146302D03*
Y145810D03*
Y145317D03*
Y144825D03*
Y144333D03*
Y143841D03*
X110069Y166479D03*
Y165987D03*
Y165495D03*
Y165002D03*
Y164510D03*
Y164018D03*
Y163526D03*
Y163034D03*
Y162542D03*
Y162050D03*
Y161558D03*
Y161065D03*
Y160573D03*
Y160081D03*
Y159589D03*
Y159097D03*
Y158605D03*
Y158113D03*
Y157621D03*
Y157128D03*
Y156636D03*
Y156144D03*
Y155652D03*
Y155160D03*
Y153191D03*
Y152699D03*
Y152207D03*
G54D79*Y151715D03*
G54D69*Y151223D03*
Y150731D03*
Y150239D03*
Y149747D03*
Y149254D03*
Y148762D03*
Y148270D03*
Y147778D03*
Y147286D03*
Y146794D03*
Y146302D03*
Y145810D03*
Y145317D03*
Y144825D03*
Y144333D03*
Y143841D03*
Y143349D03*
G54D79*X109577Y167463D03*
G54D69*Y166479D03*
Y165987D03*
Y165495D03*
Y165002D03*
Y164510D03*
Y164018D03*
Y163526D03*
Y163034D03*
Y162542D03*
Y162050D03*
Y161558D03*
Y161065D03*
Y160573D03*
Y160081D03*
Y159589D03*
Y159097D03*
Y158605D03*
Y158113D03*
Y157621D03*
Y157128D03*
Y156636D03*
Y156144D03*
Y155652D03*
Y155160D03*
Y151223D03*
Y150731D03*
Y150239D03*
Y149747D03*
Y149254D03*
Y148762D03*
Y148270D03*
Y147778D03*
Y147286D03*
Y146794D03*
Y146302D03*
Y145810D03*
Y145317D03*
Y144825D03*
Y144333D03*
Y143841D03*
Y143349D03*
X109085Y167463D03*
Y166971D03*
Y166479D03*
Y165987D03*
Y165495D03*
Y165002D03*
Y164510D03*
Y164018D03*
Y163526D03*
Y163034D03*
Y162542D03*
Y162050D03*
Y161558D03*
Y161065D03*
Y160573D03*
Y160081D03*
Y159589D03*
Y159097D03*
Y158605D03*
Y158113D03*
Y157621D03*
Y157128D03*
Y156636D03*
Y156144D03*
Y155652D03*
Y155160D03*
Y154668D03*
Y151715D03*
Y151223D03*
Y150731D03*
Y150239D03*
Y149747D03*
Y149254D03*
Y148762D03*
Y148270D03*
Y147778D03*
Y147286D03*
Y146794D03*
Y146302D03*
G54D79*Y145317D03*
G54D69*Y144333D03*
Y143841D03*
Y143349D03*
G54D79*X108593Y168447D03*
G54D69*Y167955D03*
Y167463D03*
Y166971D03*
Y166479D03*
Y165987D03*
Y165495D03*
Y165002D03*
Y164510D03*
Y164018D03*
Y163526D03*
Y163034D03*
Y162542D03*
Y162050D03*
Y161558D03*
Y161065D03*
Y160573D03*
Y160081D03*
Y159589D03*
Y159097D03*
Y158605D03*
Y158113D03*
Y157621D03*
Y157128D03*
Y156636D03*
Y156144D03*
Y155652D03*
Y155160D03*
Y154668D03*
Y154176D03*
Y153684D03*
Y152207D03*
Y151715D03*
Y151223D03*
Y150731D03*
Y150239D03*
Y149747D03*
Y149254D03*
Y148762D03*
Y148270D03*
Y147778D03*
Y147286D03*
Y146794D03*
Y146302D03*
Y145810D03*
G54D79*Y143841D03*
X108101Y169432D03*
G54D69*Y168939D03*
Y168447D03*
Y167955D03*
Y167463D03*
Y166971D03*
Y166479D03*
Y165987D03*
Y165495D03*
Y165002D03*
Y164510D03*
Y164018D03*
Y163526D03*
Y163034D03*
Y162542D03*
Y162050D03*
Y161558D03*
Y161065D03*
Y160573D03*
Y160081D03*
Y159589D03*
Y159097D03*
Y158605D03*
Y158113D03*
Y157621D03*
Y157128D03*
Y156636D03*
Y156144D03*
Y155652D03*
Y155160D03*
Y154668D03*
Y154176D03*
Y152699D03*
Y152207D03*
Y151715D03*
Y151223D03*
Y150731D03*
Y150239D03*
Y149747D03*
Y149254D03*
Y148762D03*
Y148270D03*
Y147778D03*
Y147286D03*
Y146794D03*
Y146302D03*
X107609Y169924D03*
Y169432D03*
Y168939D03*
Y168447D03*
Y167955D03*
Y167463D03*
Y166971D03*
Y166479D03*
Y165987D03*
Y165495D03*
Y165002D03*
Y164510D03*
Y164018D03*
Y163526D03*
Y163034D03*
Y162542D03*
Y162050D03*
Y161558D03*
Y161065D03*
Y160573D03*
Y160081D03*
Y159589D03*
Y159097D03*
Y158605D03*
Y158113D03*
Y157621D03*
Y157128D03*
Y156636D03*
Y156144D03*
Y155652D03*
Y155160D03*
Y154668D03*
Y154176D03*
Y153684D03*
Y152207D03*
Y151715D03*
Y151223D03*
Y150731D03*
Y150239D03*
Y149747D03*
Y149254D03*
Y148762D03*
Y148270D03*
Y147778D03*
Y147286D03*
Y146794D03*
X107117Y170416D03*
Y169924D03*
Y169432D03*
Y168939D03*
Y168447D03*
Y167955D03*
Y167463D03*
Y166971D03*
Y166479D03*
Y165987D03*
Y165495D03*
Y165002D03*
Y164510D03*
Y164018D03*
Y163526D03*
Y163034D03*
Y162542D03*
Y162050D03*
Y161558D03*
Y161065D03*
Y160573D03*
Y160081D03*
Y159589D03*
Y159097D03*
Y158605D03*
Y158113D03*
Y157621D03*
Y157128D03*
Y156636D03*
Y156144D03*
Y155652D03*
Y155160D03*
Y154668D03*
Y154176D03*
Y153684D03*
Y152699D03*
Y152207D03*
Y151715D03*
Y151223D03*
Y150731D03*
Y150239D03*
Y149747D03*
Y149254D03*
Y148762D03*
Y148270D03*
Y147778D03*
Y147286D03*
Y146794D03*
X106625Y171892D03*
Y171400D03*
Y170908D03*
Y170416D03*
Y169924D03*
Y169432D03*
Y168939D03*
Y168447D03*
Y167955D03*
Y167463D03*
Y166971D03*
Y166479D03*
Y165987D03*
Y165495D03*
Y165002D03*
Y164510D03*
Y164018D03*
Y163526D03*
Y163034D03*
Y162542D03*
Y162050D03*
Y161558D03*
Y161065D03*
Y160573D03*
Y160081D03*
Y159589D03*
Y159097D03*
Y158605D03*
Y158113D03*
Y157621D03*
Y157128D03*
Y156636D03*
Y156144D03*
Y155652D03*
Y155160D03*
Y154668D03*
Y154176D03*
Y153684D03*
Y152207D03*
Y151715D03*
Y151223D03*
Y150731D03*
Y150239D03*
Y149747D03*
Y149254D03*
Y148762D03*
Y148270D03*
Y147778D03*
Y147286D03*
Y146794D03*
Y146302D03*
Y145810D03*
G54D79*X106132Y174353D03*
G54D69*Y173369D03*
Y172876D03*
Y172384D03*
Y171892D03*
Y171400D03*
Y170908D03*
Y170416D03*
Y169924D03*
Y169432D03*
Y168939D03*
Y168447D03*
Y167955D03*
Y167463D03*
Y166971D03*
Y166479D03*
Y165987D03*
Y165495D03*
Y165002D03*
Y164510D03*
Y164018D03*
Y163526D03*
Y163034D03*
Y162542D03*
Y162050D03*
Y161558D03*
Y161065D03*
Y160573D03*
Y160081D03*
Y159589D03*
Y159097D03*
Y158605D03*
Y158113D03*
Y157621D03*
Y157128D03*
Y156636D03*
Y156144D03*
Y155652D03*
Y155160D03*
Y154668D03*
Y154176D03*
Y153684D03*
Y153191D03*
Y152207D03*
Y151715D03*
Y151223D03*
Y150731D03*
Y150239D03*
Y149747D03*
Y149254D03*
Y148762D03*
Y148270D03*
Y147778D03*
Y147286D03*
Y146794D03*
Y146302D03*
Y145810D03*
Y145317D03*
G54D79*Y144825D03*
G54D69*X105640Y175337D03*
Y174353D03*
Y173861D03*
Y173369D03*
Y172876D03*
Y172384D03*
Y171892D03*
Y171400D03*
Y170908D03*
Y170416D03*
Y169924D03*
Y169432D03*
Y168939D03*
Y168447D03*
Y167955D03*
Y167463D03*
Y166971D03*
Y166479D03*
Y165987D03*
Y165495D03*
Y165002D03*
Y164510D03*
Y164018D03*
Y163526D03*
Y163034D03*
Y162542D03*
Y162050D03*
Y161558D03*
Y161065D03*
Y160573D03*
Y160081D03*
Y159589D03*
Y159097D03*
Y158605D03*
Y158113D03*
Y157621D03*
Y157128D03*
Y156636D03*
Y156144D03*
Y155652D03*
Y155160D03*
Y154668D03*
Y154176D03*
Y153684D03*
Y152207D03*
Y151715D03*
Y151223D03*
Y150731D03*
Y150239D03*
Y149747D03*
Y149254D03*
Y148762D03*
Y148270D03*
Y147778D03*
Y147286D03*
Y146794D03*
Y146302D03*
Y145810D03*
Y145317D03*
X105148Y177306D03*
Y176321D03*
Y175829D03*
Y175337D03*
Y174845D03*
Y174353D03*
Y173861D03*
Y173369D03*
Y172876D03*
Y172384D03*
Y171892D03*
Y171400D03*
Y170908D03*
Y170416D03*
Y169924D03*
Y169432D03*
Y168939D03*
Y168447D03*
Y167955D03*
Y167463D03*
Y166971D03*
Y166479D03*
Y165987D03*
Y165495D03*
Y165002D03*
Y164510D03*
Y164018D03*
Y163526D03*
Y163034D03*
Y162542D03*
Y162050D03*
Y161558D03*
Y161065D03*
Y160573D03*
Y160081D03*
Y159589D03*
Y159097D03*
Y158605D03*
Y158113D03*
Y157621D03*
Y157128D03*
Y156636D03*
Y156144D03*
Y155652D03*
Y155160D03*
Y154668D03*
Y154176D03*
Y153684D03*
Y152207D03*
Y151715D03*
Y151223D03*
Y150731D03*
Y150239D03*
Y149747D03*
Y149254D03*
Y148762D03*
Y148270D03*
Y147778D03*
Y147286D03*
Y146794D03*
Y146302D03*
Y145810D03*
Y145317D03*
Y144825D03*
G54D79*X104656Y179274D03*
G54D69*Y178290D03*
Y177798D03*
Y177306D03*
Y176813D03*
Y176321D03*
Y175829D03*
Y175337D03*
Y174845D03*
Y174353D03*
Y173861D03*
Y173369D03*
Y172876D03*
Y172384D03*
Y171892D03*
Y171400D03*
Y170908D03*
Y170416D03*
Y169924D03*
Y169432D03*
Y168939D03*
Y168447D03*
Y167955D03*
Y167463D03*
Y166971D03*
Y166479D03*
Y165987D03*
Y165495D03*
Y165002D03*
Y164510D03*
Y164018D03*
Y163526D03*
Y163034D03*
Y162542D03*
Y162050D03*
Y161558D03*
Y161065D03*
Y160573D03*
Y160081D03*
Y159589D03*
Y159097D03*
Y158605D03*
Y158113D03*
Y157621D03*
Y157128D03*
Y156636D03*
Y156144D03*
Y155652D03*
Y155160D03*
Y154668D03*
Y154176D03*
G54D79*Y153684D03*
G54D69*Y152207D03*
Y151715D03*
Y151223D03*
Y150731D03*
Y150239D03*
Y149747D03*
Y149254D03*
Y148762D03*
Y148270D03*
Y147778D03*
Y147286D03*
Y146794D03*
Y146302D03*
Y145810D03*
Y145317D03*
G54D79*X104164Y183211D03*
G54D69*Y182719D03*
G54D79*Y182227D03*
Y181735D03*
G54D69*Y180258D03*
Y179766D03*
Y179274D03*
Y178782D03*
Y178290D03*
Y177798D03*
Y177306D03*
Y176813D03*
Y176321D03*
Y175829D03*
Y175337D03*
Y174845D03*
Y174353D03*
Y173861D03*
Y173369D03*
Y172876D03*
Y172384D03*
Y171892D03*
Y171400D03*
Y170908D03*
Y170416D03*
Y169924D03*
Y169432D03*
Y168939D03*
Y168447D03*
Y167955D03*
Y167463D03*
Y166971D03*
Y166479D03*
Y165987D03*
Y165495D03*
Y165002D03*
Y164510D03*
Y164018D03*
Y163526D03*
Y163034D03*
Y162542D03*
Y162050D03*
Y161558D03*
Y161065D03*
Y160573D03*
Y160081D03*
Y159589D03*
Y159097D03*
Y158605D03*
Y158113D03*
Y157621D03*
Y157128D03*
Y156636D03*
Y156144D03*
Y155652D03*
Y155160D03*
Y154668D03*
Y154176D03*
G54D79*Y153684D03*
G54D69*Y153191D03*
Y152699D03*
Y152207D03*
Y151715D03*
Y151223D03*
Y150731D03*
Y150239D03*
Y149747D03*
Y149254D03*
Y148762D03*
Y148270D03*
Y147778D03*
Y147286D03*
Y146794D03*
Y146302D03*
Y145810D03*
Y145317D03*
G54D79*X103672Y186164D03*
G54D69*Y185672D03*
Y185180D03*
Y184688D03*
Y184195D03*
Y183703D03*
Y183211D03*
Y182719D03*
Y182227D03*
Y181735D03*
Y181243D03*
Y180750D03*
Y180258D03*
Y179766D03*
Y179274D03*
Y178782D03*
Y178290D03*
Y177798D03*
Y177306D03*
Y176813D03*
Y176321D03*
Y175829D03*
Y175337D03*
Y174845D03*
Y174353D03*
Y173861D03*
Y173369D03*
Y172876D03*
Y172384D03*
Y171892D03*
Y171400D03*
Y170908D03*
Y170416D03*
Y169924D03*
Y169432D03*
Y168939D03*
Y168447D03*
Y167955D03*
Y167463D03*
Y166971D03*
Y166479D03*
Y165987D03*
Y165495D03*
Y165002D03*
Y164510D03*
Y164018D03*
Y163526D03*
Y163034D03*
Y162542D03*
Y162050D03*
Y161558D03*
Y161065D03*
Y160573D03*
Y160081D03*
Y159589D03*
Y159097D03*
Y158605D03*
Y158113D03*
Y157621D03*
Y157128D03*
Y156636D03*
Y156144D03*
Y155652D03*
Y155160D03*
Y154668D03*
Y154176D03*
Y153684D03*
Y153191D03*
Y152699D03*
Y152207D03*
Y151715D03*
Y151223D03*
Y150731D03*
Y150239D03*
Y149747D03*
Y149254D03*
Y148762D03*
Y148270D03*
Y147778D03*
Y147286D03*
Y146794D03*
Y146302D03*
Y145810D03*
Y145317D03*
X103180Y187640D03*
Y186656D03*
Y186164D03*
Y185672D03*
Y185180D03*
Y184688D03*
Y184195D03*
Y183703D03*
Y183211D03*
Y182719D03*
Y182227D03*
Y181735D03*
Y181243D03*
Y180750D03*
Y180258D03*
Y179766D03*
Y179274D03*
Y178782D03*
Y178290D03*
Y177798D03*
Y177306D03*
Y176813D03*
Y176321D03*
Y175829D03*
Y175337D03*
Y174845D03*
Y174353D03*
Y173861D03*
Y173369D03*
Y172876D03*
Y172384D03*
Y171892D03*
Y171400D03*
Y170908D03*
Y170416D03*
Y169924D03*
Y169432D03*
Y168939D03*
Y168447D03*
Y167955D03*
Y167463D03*
Y166971D03*
Y166479D03*
Y165987D03*
Y165495D03*
Y165002D03*
Y164510D03*
Y164018D03*
Y163526D03*
Y163034D03*
Y162542D03*
Y162050D03*
Y161558D03*
Y161065D03*
Y160573D03*
Y160081D03*
Y159589D03*
Y159097D03*
Y158605D03*
Y158113D03*
Y157621D03*
Y157128D03*
Y156636D03*
Y156144D03*
Y155652D03*
Y155160D03*
Y154668D03*
Y154176D03*
Y153684D03*
Y153191D03*
Y152699D03*
Y152207D03*
Y151715D03*
Y151223D03*
Y150731D03*
Y150239D03*
Y149747D03*
Y149254D03*
Y148762D03*
Y148270D03*
Y147778D03*
Y147286D03*
Y146794D03*
G54D79*X102688Y193054D03*
Y192069D03*
Y189609D03*
G54D69*Y189117D03*
Y188132D03*
Y187640D03*
Y187148D03*
Y186656D03*
Y186164D03*
Y185672D03*
Y185180D03*
Y184688D03*
Y184195D03*
Y183703D03*
Y183211D03*
Y182719D03*
Y182227D03*
Y181735D03*
Y181243D03*
Y180750D03*
Y180258D03*
Y179766D03*
Y179274D03*
Y178782D03*
Y178290D03*
Y177798D03*
Y177306D03*
Y176813D03*
Y176321D03*
Y175829D03*
Y175337D03*
Y174845D03*
Y174353D03*
Y173861D03*
Y173369D03*
Y172876D03*
Y172384D03*
Y171892D03*
Y171400D03*
Y170908D03*
Y170416D03*
Y169924D03*
Y169432D03*
Y168939D03*
Y168447D03*
Y167955D03*
Y167463D03*
Y166971D03*
Y166479D03*
Y165987D03*
Y165495D03*
Y165002D03*
Y164510D03*
Y164018D03*
Y163526D03*
Y163034D03*
Y162542D03*
Y162050D03*
Y161558D03*
Y161065D03*
Y160573D03*
Y160081D03*
Y159589D03*
Y159097D03*
Y158605D03*
Y158113D03*
Y157621D03*
Y157128D03*
Y156636D03*
Y156144D03*
Y155652D03*
Y155160D03*
Y154668D03*
Y154176D03*
Y153684D03*
Y153191D03*
Y152699D03*
Y152207D03*
Y151715D03*
Y151223D03*
Y150731D03*
Y150239D03*
Y149747D03*
Y149254D03*
Y148762D03*
Y148270D03*
Y147778D03*
Y147286D03*
Y146794D03*
Y146302D03*
X102195Y193546D03*
Y193054D03*
Y192562D03*
Y192069D03*
G54D79*Y191577D03*
G54D69*Y190593D03*
Y190101D03*
Y189609D03*
Y189117D03*
Y188625D03*
Y188132D03*
Y187640D03*
Y187148D03*
Y186656D03*
Y186164D03*
Y185672D03*
Y185180D03*
Y184688D03*
Y184195D03*
Y183703D03*
Y183211D03*
Y182719D03*
Y182227D03*
Y181735D03*
Y181243D03*
Y180750D03*
Y180258D03*
Y179766D03*
Y179274D03*
Y178782D03*
Y178290D03*
Y177798D03*
Y177306D03*
Y176813D03*
Y176321D03*
Y175829D03*
Y175337D03*
Y174845D03*
Y174353D03*
Y173861D03*
Y173369D03*
Y172876D03*
Y172384D03*
Y171892D03*
Y171400D03*
Y170908D03*
Y170416D03*
Y169924D03*
Y169432D03*
Y168939D03*
Y168447D03*
Y167955D03*
Y167463D03*
Y166971D03*
Y166479D03*
Y165987D03*
Y165495D03*
Y165002D03*
Y164510D03*
Y164018D03*
Y163526D03*
Y163034D03*
Y162542D03*
Y162050D03*
Y161558D03*
Y161065D03*
Y160573D03*
Y160081D03*
Y159589D03*
Y159097D03*
Y158605D03*
Y158113D03*
Y157621D03*
Y157128D03*
Y156636D03*
Y156144D03*
Y155652D03*
Y155160D03*
Y154668D03*
Y154176D03*
Y153684D03*
Y153191D03*
Y152699D03*
Y152207D03*
Y151715D03*
Y151223D03*
Y150731D03*
Y150239D03*
Y149747D03*
Y149254D03*
Y148762D03*
Y148270D03*
Y147778D03*
Y147286D03*
Y146794D03*
X101703Y194530D03*
Y194038D03*
Y193546D03*
Y193054D03*
Y192562D03*
Y192069D03*
Y190593D03*
Y190101D03*
Y189609D03*
Y189117D03*
Y188625D03*
Y188132D03*
Y187640D03*
Y187148D03*
Y186656D03*
Y186164D03*
Y185672D03*
Y185180D03*
Y184688D03*
Y184195D03*
Y183703D03*
Y183211D03*
Y182719D03*
Y182227D03*
Y181735D03*
Y181243D03*
Y180750D03*
Y180258D03*
Y179766D03*
Y179274D03*
Y178782D03*
Y178290D03*
Y177798D03*
Y177306D03*
Y176813D03*
Y176321D03*
Y175829D03*
Y175337D03*
Y174845D03*
Y174353D03*
Y173861D03*
Y173369D03*
Y172876D03*
Y172384D03*
Y171892D03*
Y171400D03*
Y170908D03*
Y170416D03*
Y169924D03*
Y169432D03*
Y168939D03*
Y168447D03*
Y167955D03*
Y167463D03*
Y166971D03*
Y166479D03*
Y165987D03*
Y165495D03*
Y165002D03*
Y164510D03*
Y164018D03*
Y163526D03*
Y163034D03*
Y162542D03*
Y162050D03*
Y161558D03*
Y161065D03*
Y160573D03*
Y160081D03*
Y159589D03*
Y159097D03*
Y158605D03*
Y158113D03*
Y157621D03*
Y157128D03*
Y156636D03*
Y156144D03*
Y155652D03*
Y155160D03*
Y154668D03*
Y154176D03*
Y153684D03*
Y153191D03*
Y152699D03*
Y152207D03*
Y151715D03*
Y151223D03*
Y150731D03*
Y150239D03*
Y149747D03*
Y149254D03*
Y148762D03*
Y148270D03*
Y147778D03*
Y147286D03*
G54D79*Y146794D03*
G54D69*X101211Y195022D03*
Y194530D03*
Y194038D03*
Y193546D03*
Y193054D03*
Y192562D03*
Y192069D03*
Y190101D03*
Y189117D03*
Y188625D03*
Y188132D03*
Y187640D03*
Y187148D03*
Y186656D03*
Y186164D03*
Y185672D03*
Y185180D03*
Y184688D03*
Y184195D03*
Y183703D03*
Y183211D03*
Y182719D03*
Y182227D03*
Y181735D03*
Y181243D03*
Y180750D03*
Y180258D03*
Y179766D03*
Y179274D03*
Y178782D03*
Y178290D03*
Y177798D03*
Y177306D03*
Y176813D03*
Y176321D03*
Y175829D03*
Y175337D03*
Y174845D03*
Y174353D03*
Y173861D03*
Y173369D03*
Y172876D03*
Y172384D03*
Y171892D03*
Y171400D03*
Y170908D03*
Y170416D03*
Y169924D03*
Y169432D03*
Y168939D03*
Y168447D03*
Y167955D03*
Y167463D03*
Y166971D03*
Y166479D03*
Y165987D03*
Y165495D03*
Y165002D03*
Y164510D03*
Y164018D03*
Y163526D03*
Y163034D03*
Y162542D03*
Y162050D03*
Y161558D03*
Y161065D03*
Y160573D03*
Y160081D03*
Y159589D03*
Y159097D03*
Y158605D03*
Y158113D03*
Y157621D03*
Y157128D03*
Y156636D03*
Y156144D03*
Y155652D03*
Y155160D03*
Y154668D03*
Y154176D03*
Y153684D03*
Y153191D03*
Y152699D03*
Y152207D03*
Y151715D03*
Y151223D03*
Y150731D03*
Y150239D03*
Y149747D03*
Y149254D03*
Y148762D03*
Y148270D03*
Y147778D03*
Y147286D03*
Y144825D03*
G54D79*Y144333D03*
G54D69*X100719Y196006D03*
Y195514D03*
Y195022D03*
Y194530D03*
Y194038D03*
Y193546D03*
Y193054D03*
Y189117D03*
Y188625D03*
Y188132D03*
Y187640D03*
Y187148D03*
Y186656D03*
Y186164D03*
Y185672D03*
Y185180D03*
Y184688D03*
Y184195D03*
Y183703D03*
Y183211D03*
Y182719D03*
Y182227D03*
Y181735D03*
Y181243D03*
Y180750D03*
Y180258D03*
Y179766D03*
Y179274D03*
Y178782D03*
Y178290D03*
Y177798D03*
Y177306D03*
Y176813D03*
Y176321D03*
Y175829D03*
Y175337D03*
Y174845D03*
Y174353D03*
Y173861D03*
Y173369D03*
Y172876D03*
Y172384D03*
Y171892D03*
Y171400D03*
Y170908D03*
Y170416D03*
Y169924D03*
Y169432D03*
Y168939D03*
Y168447D03*
Y167955D03*
Y167463D03*
Y166971D03*
Y166479D03*
Y165987D03*
Y165495D03*
Y165002D03*
Y164510D03*
Y164018D03*
Y163526D03*
Y163034D03*
Y162542D03*
Y162050D03*
Y161558D03*
Y161065D03*
Y160573D03*
Y160081D03*
Y159589D03*
Y159097D03*
Y158605D03*
Y158113D03*
Y157621D03*
Y157128D03*
Y156636D03*
Y156144D03*
Y155652D03*
Y155160D03*
Y154668D03*
Y154176D03*
Y153684D03*
Y153191D03*
Y152699D03*
Y152207D03*
Y151715D03*
Y151223D03*
Y150731D03*
Y150239D03*
Y149747D03*
Y149254D03*
Y148762D03*
Y148270D03*
Y147778D03*
Y147286D03*
Y146794D03*
G54D79*Y146302D03*
G54D69*Y145810D03*
Y145317D03*
Y144825D03*
G54D79*Y144333D03*
G54D69*X100227Y196499D03*
Y196006D03*
Y195514D03*
Y195022D03*
Y194530D03*
Y194038D03*
Y193546D03*
Y193054D03*
G54D79*Y188625D03*
G54D69*Y188132D03*
Y187640D03*
Y187148D03*
Y186656D03*
Y186164D03*
Y185672D03*
Y185180D03*
Y184688D03*
Y184195D03*
Y183703D03*
Y183211D03*
Y182719D03*
Y182227D03*
Y181735D03*
Y181243D03*
Y180750D03*
Y180258D03*
Y179766D03*
Y179274D03*
Y178782D03*
Y178290D03*
Y177798D03*
Y177306D03*
Y176813D03*
Y176321D03*
Y175829D03*
Y175337D03*
Y174845D03*
Y174353D03*
Y173861D03*
Y173369D03*
Y172876D03*
Y172384D03*
Y171892D03*
Y171400D03*
Y170908D03*
Y170416D03*
Y169924D03*
Y169432D03*
Y168939D03*
Y168447D03*
Y167955D03*
Y167463D03*
Y166971D03*
Y166479D03*
Y165987D03*
Y165495D03*
Y165002D03*
Y164510D03*
Y164018D03*
Y163526D03*
Y163034D03*
Y162542D03*
Y162050D03*
Y161558D03*
Y161065D03*
Y160573D03*
Y160081D03*
Y159589D03*
Y159097D03*
Y158605D03*
Y158113D03*
Y157621D03*
Y157128D03*
Y156636D03*
Y156144D03*
Y155652D03*
Y155160D03*
Y154668D03*
Y154176D03*
Y153684D03*
Y153191D03*
Y152699D03*
Y152207D03*
Y151715D03*
Y151223D03*
Y150731D03*
Y150239D03*
Y149747D03*
Y149254D03*
Y148762D03*
Y148270D03*
Y147778D03*
Y147286D03*
Y146794D03*
Y146302D03*
Y145810D03*
Y145317D03*
Y144825D03*
X99735Y198467D03*
Y196499D03*
Y196006D03*
Y195514D03*
Y195022D03*
Y194530D03*
Y194038D03*
Y193546D03*
Y188625D03*
Y188132D03*
Y187640D03*
Y187148D03*
Y186656D03*
Y186164D03*
Y185672D03*
Y185180D03*
Y184688D03*
Y184195D03*
Y183703D03*
Y183211D03*
Y182719D03*
Y182227D03*
Y181735D03*
Y181243D03*
Y180750D03*
Y180258D03*
Y179766D03*
Y179274D03*
Y178782D03*
Y178290D03*
Y177798D03*
Y177306D03*
Y176813D03*
Y176321D03*
Y175829D03*
Y175337D03*
Y174845D03*
Y174353D03*
Y173861D03*
Y173369D03*
Y172876D03*
Y172384D03*
Y171892D03*
Y171400D03*
Y170908D03*
Y170416D03*
Y169924D03*
Y169432D03*
Y168939D03*
Y168447D03*
Y167955D03*
Y167463D03*
Y166971D03*
Y166479D03*
Y165987D03*
Y165495D03*
Y165002D03*
Y164510D03*
Y164018D03*
Y163526D03*
Y163034D03*
Y162542D03*
Y162050D03*
Y161558D03*
Y161065D03*
Y160573D03*
Y160081D03*
Y159589D03*
Y159097D03*
Y158605D03*
Y158113D03*
Y157621D03*
Y157128D03*
Y156636D03*
Y156144D03*
Y155652D03*
Y155160D03*
Y154668D03*
Y154176D03*
Y153684D03*
Y153191D03*
Y152699D03*
Y152207D03*
Y151715D03*
Y151223D03*
Y150731D03*
Y150239D03*
Y149747D03*
Y149254D03*
Y148762D03*
Y148270D03*
Y147778D03*
Y147286D03*
Y146794D03*
Y146302D03*
Y145810D03*
Y145317D03*
Y144825D03*
X99243Y198467D03*
G54D79*Y196006D03*
G54D69*Y195022D03*
Y194530D03*
Y188625D03*
Y188132D03*
Y187640D03*
Y187148D03*
Y186656D03*
Y186164D03*
Y185672D03*
Y185180D03*
Y184688D03*
Y184195D03*
Y183703D03*
Y183211D03*
Y182719D03*
Y182227D03*
Y181735D03*
Y181243D03*
Y180750D03*
Y180258D03*
Y179766D03*
Y179274D03*
Y178782D03*
Y178290D03*
Y177798D03*
Y177306D03*
Y176813D03*
Y176321D03*
Y175829D03*
Y175337D03*
Y174845D03*
Y174353D03*
Y173861D03*
Y173369D03*
Y172876D03*
Y172384D03*
Y171892D03*
Y171400D03*
Y170908D03*
Y170416D03*
Y169924D03*
Y169432D03*
Y168939D03*
Y168447D03*
Y167955D03*
Y167463D03*
Y166971D03*
Y166479D03*
Y165987D03*
Y165495D03*
Y165002D03*
Y164510D03*
Y164018D03*
Y163526D03*
Y163034D03*
Y162542D03*
Y162050D03*
Y161558D03*
Y161065D03*
Y160573D03*
Y160081D03*
Y159589D03*
Y159097D03*
Y158605D03*
Y158113D03*
Y157621D03*
Y157128D03*
Y156636D03*
Y156144D03*
Y155652D03*
Y155160D03*
Y154668D03*
Y154176D03*
Y153684D03*
Y153191D03*
Y152699D03*
Y152207D03*
Y151715D03*
Y151223D03*
Y150731D03*
Y150239D03*
Y149747D03*
Y149254D03*
Y148762D03*
Y148270D03*
Y147778D03*
Y147286D03*
Y146794D03*
Y146302D03*
Y145810D03*
Y145317D03*
Y144825D03*
Y144333D03*
Y143841D03*
X98750Y199451D03*
Y198959D03*
Y189117D03*
Y188625D03*
Y188132D03*
Y187640D03*
Y187148D03*
Y186656D03*
Y186164D03*
Y185672D03*
Y185180D03*
Y184688D03*
Y184195D03*
Y183703D03*
Y183211D03*
Y182719D03*
Y182227D03*
Y181735D03*
Y181243D03*
Y180750D03*
Y180258D03*
Y179766D03*
Y179274D03*
Y178782D03*
Y178290D03*
Y177798D03*
Y177306D03*
Y176813D03*
Y176321D03*
Y175829D03*
Y175337D03*
Y174845D03*
Y174353D03*
Y173861D03*
Y173369D03*
Y172876D03*
Y172384D03*
Y171892D03*
Y171400D03*
Y170908D03*
Y170416D03*
Y169924D03*
Y169432D03*
Y168939D03*
Y168447D03*
Y167955D03*
Y167463D03*
Y166971D03*
Y166479D03*
Y165987D03*
Y165495D03*
Y165002D03*
Y164510D03*
Y164018D03*
Y163526D03*
Y163034D03*
Y162542D03*
Y162050D03*
Y161558D03*
Y161065D03*
Y160573D03*
Y160081D03*
Y159589D03*
Y159097D03*
Y158605D03*
Y158113D03*
Y157621D03*
Y157128D03*
Y156636D03*
Y156144D03*
Y155652D03*
Y155160D03*
Y154668D03*
Y154176D03*
Y153684D03*
Y153191D03*
Y152699D03*
Y152207D03*
Y151715D03*
Y151223D03*
Y150731D03*
Y150239D03*
Y149747D03*
Y149254D03*
Y148762D03*
Y148270D03*
Y147778D03*
Y147286D03*
Y146794D03*
Y146302D03*
Y145810D03*
Y145317D03*
G54D79*X98258Y199943D03*
G54D69*Y199451D03*
Y189117D03*
Y188625D03*
Y188132D03*
Y187640D03*
Y187148D03*
Y186656D03*
Y186164D03*
Y185672D03*
Y185180D03*
Y184688D03*
Y184195D03*
Y183703D03*
Y183211D03*
Y182719D03*
Y182227D03*
Y181735D03*
Y181243D03*
Y180750D03*
Y180258D03*
Y179766D03*
Y179274D03*
Y178782D03*
Y178290D03*
Y177798D03*
Y177306D03*
Y176813D03*
Y176321D03*
Y175829D03*
Y175337D03*
Y174845D03*
Y174353D03*
Y173861D03*
Y173369D03*
Y172876D03*
Y172384D03*
Y171892D03*
Y171400D03*
Y170908D03*
Y170416D03*
Y169924D03*
Y169432D03*
Y168939D03*
Y168447D03*
Y167955D03*
Y167463D03*
Y166971D03*
Y166479D03*
Y165987D03*
Y165495D03*
Y165002D03*
Y164510D03*
Y164018D03*
Y163526D03*
Y163034D03*
Y162542D03*
Y162050D03*
Y161558D03*
Y161065D03*
Y160573D03*
Y160081D03*
Y159589D03*
Y159097D03*
Y158605D03*
Y158113D03*
Y157621D03*
Y157128D03*
Y156636D03*
Y156144D03*
Y155652D03*
Y155160D03*
Y154668D03*
Y154176D03*
Y153684D03*
Y153191D03*
Y152699D03*
Y152207D03*
Y151715D03*
Y151223D03*
Y150731D03*
Y150239D03*
Y149747D03*
Y149254D03*
Y148762D03*
Y148270D03*
Y147778D03*
Y147286D03*
Y146794D03*
Y146302D03*
Y145810D03*
Y145317D03*
X97766Y199943D03*
G54D79*Y199451D03*
G54D69*Y189609D03*
Y189117D03*
Y188625D03*
Y188132D03*
Y187640D03*
Y187148D03*
Y186656D03*
Y186164D03*
Y185672D03*
Y185180D03*
Y184688D03*
Y184195D03*
Y183703D03*
Y183211D03*
Y182719D03*
Y182227D03*
Y181735D03*
Y181243D03*
Y180750D03*
Y180258D03*
Y179766D03*
Y179274D03*
Y178782D03*
Y178290D03*
Y177798D03*
Y177306D03*
Y176813D03*
Y176321D03*
Y175829D03*
Y175337D03*
Y174845D03*
Y174353D03*
Y173861D03*
Y173369D03*
Y172876D03*
Y172384D03*
Y171892D03*
Y171400D03*
Y170908D03*
Y170416D03*
Y169924D03*
Y169432D03*
Y168939D03*
Y168447D03*
Y167955D03*
Y167463D03*
Y166971D03*
Y166479D03*
Y165987D03*
Y165495D03*
Y165002D03*
Y164510D03*
Y164018D03*
Y163526D03*
Y163034D03*
Y162542D03*
Y162050D03*
Y161558D03*
Y161065D03*
Y160573D03*
Y160081D03*
Y159589D03*
Y159097D03*
Y158605D03*
Y158113D03*
Y157621D03*
Y157128D03*
Y156636D03*
Y156144D03*
Y155652D03*
Y155160D03*
Y154668D03*
Y154176D03*
Y153684D03*
Y153191D03*
Y152699D03*
Y152207D03*
Y151715D03*
Y151223D03*
Y150731D03*
Y150239D03*
Y149747D03*
Y149254D03*
Y148762D03*
Y148270D03*
Y147778D03*
Y147286D03*
Y146794D03*
Y146302D03*
X97274Y200436D03*
G54D79*Y199943D03*
G54D69*Y189609D03*
Y189117D03*
Y188625D03*
Y188132D03*
Y187640D03*
Y187148D03*
Y186656D03*
Y186164D03*
Y185672D03*
Y185180D03*
Y184688D03*
Y184195D03*
Y183703D03*
Y183211D03*
Y182719D03*
Y182227D03*
Y181735D03*
Y181243D03*
Y180750D03*
Y179274D03*
Y178782D03*
Y178290D03*
Y177798D03*
Y177306D03*
Y176813D03*
Y176321D03*
Y175829D03*
Y175337D03*
Y174845D03*
Y174353D03*
Y173369D03*
Y171400D03*
Y170908D03*
Y170416D03*
Y169924D03*
Y169432D03*
Y168939D03*
Y168447D03*
Y167955D03*
Y167463D03*
Y166971D03*
Y166479D03*
Y165987D03*
Y165495D03*
Y165002D03*
Y164510D03*
Y164018D03*
Y163526D03*
Y163034D03*
Y162542D03*
Y162050D03*
Y161558D03*
Y161065D03*
Y160573D03*
Y160081D03*
Y159589D03*
Y159097D03*
Y158605D03*
Y158113D03*
Y157621D03*
Y157128D03*
Y156636D03*
Y156144D03*
Y155652D03*
Y155160D03*
Y154668D03*
Y154176D03*
Y153684D03*
Y153191D03*
Y152699D03*
Y152207D03*
Y151715D03*
Y151223D03*
Y150731D03*
Y150239D03*
Y149747D03*
Y149254D03*
Y148762D03*
Y148270D03*
Y147778D03*
Y147286D03*
Y146794D03*
Y146302D03*
X96782Y200436D03*
Y199943D03*
Y189609D03*
Y189117D03*
Y188625D03*
Y188132D03*
Y187640D03*
Y187148D03*
Y186656D03*
Y186164D03*
Y185672D03*
Y185180D03*
Y184688D03*
Y184195D03*
Y183703D03*
Y183211D03*
Y182719D03*
Y182227D03*
Y181735D03*
Y181243D03*
G54D79*Y178782D03*
G54D69*Y177798D03*
Y177306D03*
Y176813D03*
Y176321D03*
Y175829D03*
Y175337D03*
Y174845D03*
Y174353D03*
G54D79*Y173861D03*
Y171892D03*
G54D69*Y171400D03*
Y170908D03*
Y170416D03*
Y169924D03*
Y169432D03*
Y168939D03*
Y168447D03*
Y167955D03*
Y167463D03*
Y166971D03*
Y166479D03*
Y165987D03*
Y165495D03*
Y165002D03*
Y164510D03*
Y164018D03*
Y163526D03*
Y163034D03*
Y162542D03*
Y162050D03*
Y161558D03*
Y161065D03*
Y160573D03*
Y160081D03*
Y159589D03*
Y159097D03*
Y158605D03*
Y158113D03*
Y157621D03*
Y157128D03*
Y156636D03*
Y156144D03*
Y155652D03*
Y155160D03*
Y154668D03*
Y154176D03*
Y153684D03*
Y153191D03*
Y152699D03*
Y152207D03*
Y151715D03*
Y151223D03*
Y150731D03*
Y150239D03*
Y149747D03*
Y149254D03*
Y148762D03*
Y148270D03*
Y147778D03*
Y147286D03*
Y146794D03*
X96290Y189117D03*
Y188132D03*
Y187640D03*
Y187148D03*
Y186656D03*
Y186164D03*
Y185672D03*
Y185180D03*
Y184688D03*
Y184195D03*
Y183703D03*
Y183211D03*
Y182719D03*
Y182227D03*
Y181735D03*
Y181243D03*
G54D79*Y177798D03*
G54D69*Y176813D03*
Y176321D03*
Y175829D03*
Y174845D03*
Y174353D03*
G54D79*Y171892D03*
G54D69*Y171400D03*
Y170908D03*
Y170416D03*
Y169924D03*
Y169432D03*
Y168939D03*
Y168447D03*
Y167955D03*
Y167463D03*
Y166971D03*
Y166479D03*
Y165987D03*
Y165495D03*
Y165002D03*
Y164510D03*
Y164018D03*
Y163526D03*
Y163034D03*
Y162542D03*
Y162050D03*
Y161558D03*
Y161065D03*
Y160573D03*
Y160081D03*
Y159589D03*
Y159097D03*
Y158605D03*
Y158113D03*
Y157621D03*
Y157128D03*
Y156636D03*
Y156144D03*
Y155652D03*
Y155160D03*
Y154668D03*
Y154176D03*
Y153684D03*
Y153191D03*
Y152699D03*
Y152207D03*
Y151715D03*
Y151223D03*
Y150731D03*
Y150239D03*
Y149747D03*
Y149254D03*
Y148762D03*
Y148270D03*
Y147778D03*
Y147286D03*
Y146794D03*
Y146302D03*
G54D79*Y144333D03*
G54D69*Y143841D03*
X95798Y200928D03*
G54D79*Y188132D03*
G54D69*Y187640D03*
Y187148D03*
Y186656D03*
Y186164D03*
Y185672D03*
Y185180D03*
Y184688D03*
Y184195D03*
Y183703D03*
Y183211D03*
Y182719D03*
Y182227D03*
Y181735D03*
Y181243D03*
G54D79*Y180750D03*
G54D69*Y171892D03*
Y171400D03*
Y170908D03*
Y170416D03*
Y169924D03*
Y169432D03*
Y168939D03*
Y168447D03*
Y167955D03*
Y167463D03*
Y166971D03*
Y166479D03*
Y165987D03*
Y165495D03*
Y165002D03*
Y164510D03*
Y164018D03*
Y163526D03*
Y163034D03*
Y162542D03*
Y162050D03*
Y161558D03*
Y161065D03*
Y160573D03*
Y160081D03*
Y159589D03*
Y159097D03*
Y158605D03*
Y158113D03*
Y157621D03*
Y157128D03*
Y156636D03*
Y156144D03*
Y155652D03*
Y155160D03*
Y154668D03*
Y154176D03*
Y153684D03*
Y153191D03*
Y152699D03*
Y152207D03*
Y151715D03*
Y151223D03*
Y150731D03*
Y150239D03*
Y149747D03*
Y149254D03*
Y148762D03*
Y148270D03*
Y147778D03*
Y147286D03*
Y146794D03*
Y146302D03*
Y145810D03*
Y145317D03*
Y144333D03*
Y143841D03*
G54D79*X95306Y200928D03*
G54D69*Y186656D03*
Y185180D03*
Y184195D03*
Y183703D03*
Y183211D03*
Y182719D03*
Y182227D03*
Y181735D03*
Y181243D03*
Y180750D03*
G54D79*Y171892D03*
G54D69*Y170908D03*
Y170416D03*
Y169924D03*
Y169432D03*
Y168939D03*
Y168447D03*
Y167955D03*
Y167463D03*
Y166971D03*
Y166479D03*
Y165987D03*
Y165495D03*
Y165002D03*
Y164510D03*
Y164018D03*
Y163526D03*
Y163034D03*
Y162542D03*
Y162050D03*
Y161558D03*
Y161065D03*
Y160573D03*
Y160081D03*
Y159589D03*
Y159097D03*
Y158605D03*
Y158113D03*
Y157621D03*
Y157128D03*
Y156636D03*
Y156144D03*
Y155652D03*
Y155160D03*
Y154668D03*
Y154176D03*
Y153684D03*
Y153191D03*
Y152699D03*
Y152207D03*
Y151715D03*
Y151223D03*
Y150731D03*
Y150239D03*
Y149747D03*
Y149254D03*
Y148762D03*
Y148270D03*
Y147778D03*
Y147286D03*
Y146794D03*
Y146302D03*
Y145810D03*
Y145317D03*
Y144825D03*
Y144333D03*
Y143841D03*
Y143349D03*
X94813Y183703D03*
Y183211D03*
Y182719D03*
Y182227D03*
Y181735D03*
Y181243D03*
Y180750D03*
Y173369D03*
Y172876D03*
Y170416D03*
Y169924D03*
Y169432D03*
Y168939D03*
Y168447D03*
Y167955D03*
Y167463D03*
Y166971D03*
Y166479D03*
Y165987D03*
Y165495D03*
Y165002D03*
Y164510D03*
Y164018D03*
Y163526D03*
Y163034D03*
Y162542D03*
Y162050D03*
Y161558D03*
Y161065D03*
Y160573D03*
Y160081D03*
Y159589D03*
Y159097D03*
Y158605D03*
Y158113D03*
Y157621D03*
Y157128D03*
Y156636D03*
Y156144D03*
Y155652D03*
Y155160D03*
Y154668D03*
Y154176D03*
Y153684D03*
Y153191D03*
Y152699D03*
Y152207D03*
Y151715D03*
Y151223D03*
Y150731D03*
Y150239D03*
Y149747D03*
Y149254D03*
Y148762D03*
Y148270D03*
Y147778D03*
Y147286D03*
Y146794D03*
Y146302D03*
Y145810D03*
Y145317D03*
Y144825D03*
Y144333D03*
Y143841D03*
Y143349D03*
Y142857D03*
Y142365D03*
Y141873D03*
X94321Y202896D03*
Y202404D03*
Y184195D03*
Y183703D03*
Y183211D03*
Y182719D03*
Y182227D03*
Y181735D03*
Y181243D03*
G54D79*Y180750D03*
Y173861D03*
G54D69*Y173369D03*
Y172876D03*
Y172384D03*
Y170416D03*
Y169924D03*
Y169432D03*
Y168939D03*
Y168447D03*
Y167955D03*
Y167463D03*
Y166971D03*
Y166479D03*
Y165987D03*
Y165495D03*
Y165002D03*
Y164510D03*
Y164018D03*
Y163526D03*
Y163034D03*
Y162542D03*
Y162050D03*
Y161558D03*
Y161065D03*
Y160573D03*
Y160081D03*
Y159589D03*
Y159097D03*
Y158605D03*
Y158113D03*
Y157621D03*
Y157128D03*
Y156636D03*
Y156144D03*
Y155652D03*
Y155160D03*
Y154668D03*
Y154176D03*
Y153684D03*
Y153191D03*
Y152699D03*
Y152207D03*
Y151715D03*
Y151223D03*
Y150731D03*
Y150239D03*
Y149747D03*
Y149254D03*
Y148762D03*
Y148270D03*
Y147778D03*
Y147286D03*
Y146794D03*
Y146302D03*
Y145810D03*
Y145317D03*
Y144825D03*
Y144333D03*
Y143841D03*
Y143349D03*
Y142857D03*
Y142365D03*
Y141873D03*
G54D79*Y141380D03*
X93829Y203388D03*
G54D69*Y202896D03*
Y202404D03*
G54D79*Y201912D03*
G54D69*Y183703D03*
Y183211D03*
Y182719D03*
Y182227D03*
Y181735D03*
Y181243D03*
Y173369D03*
Y172876D03*
Y172384D03*
Y170908D03*
Y170416D03*
Y169924D03*
Y169432D03*
Y168939D03*
Y168447D03*
Y167955D03*
Y167463D03*
Y166971D03*
Y166479D03*
Y165987D03*
Y165495D03*
Y165002D03*
Y164510D03*
Y164018D03*
Y163526D03*
Y163034D03*
Y162542D03*
Y162050D03*
Y161558D03*
Y161065D03*
Y160573D03*
Y160081D03*
Y159589D03*
Y159097D03*
Y158605D03*
Y158113D03*
Y157621D03*
Y157128D03*
Y156636D03*
Y156144D03*
Y155652D03*
Y155160D03*
Y154668D03*
Y154176D03*
Y153684D03*
Y153191D03*
Y152699D03*
Y152207D03*
Y151715D03*
Y151223D03*
Y150731D03*
Y150239D03*
Y149747D03*
Y149254D03*
Y148762D03*
Y148270D03*
Y147778D03*
Y147286D03*
Y146794D03*
Y146302D03*
Y145810D03*
Y145317D03*
Y144825D03*
Y144333D03*
Y143841D03*
Y143349D03*
Y142857D03*
Y142365D03*
X93337Y203388D03*
Y202896D03*
Y184195D03*
Y183703D03*
Y183211D03*
Y182719D03*
Y182227D03*
Y181735D03*
Y181243D03*
Y173861D03*
Y173369D03*
Y172876D03*
Y172384D03*
Y170416D03*
Y169924D03*
Y169432D03*
Y168939D03*
Y168447D03*
Y167955D03*
Y167463D03*
Y166971D03*
Y166479D03*
Y165987D03*
Y165495D03*
Y165002D03*
Y164510D03*
Y164018D03*
Y163526D03*
Y163034D03*
Y162542D03*
Y162050D03*
Y161558D03*
Y161065D03*
Y160573D03*
Y160081D03*
Y159589D03*
Y159097D03*
Y158605D03*
Y158113D03*
Y157621D03*
Y157128D03*
Y156636D03*
Y156144D03*
Y155652D03*
Y155160D03*
Y154668D03*
Y154176D03*
Y153684D03*
Y153191D03*
Y152699D03*
Y152207D03*
Y151715D03*
Y151223D03*
Y150731D03*
Y150239D03*
Y149747D03*
Y149254D03*
Y148762D03*
Y148270D03*
Y147778D03*
Y147286D03*
Y146794D03*
Y146302D03*
Y145810D03*
Y145317D03*
Y144825D03*
Y144333D03*
Y143841D03*
Y143349D03*
Y142857D03*
Y142365D03*
Y141873D03*
Y141380D03*
G54D79*X92845Y203880D03*
G54D69*Y203388D03*
Y183703D03*
Y183211D03*
Y182719D03*
Y182227D03*
G54D79*Y174353D03*
G54D69*Y173861D03*
Y173369D03*
Y172876D03*
Y172384D03*
G54D79*Y170908D03*
G54D69*Y170416D03*
Y169924D03*
Y169432D03*
Y168939D03*
Y168447D03*
Y167955D03*
Y167463D03*
Y166971D03*
Y166479D03*
Y165987D03*
Y165495D03*
Y165002D03*
Y164510D03*
Y164018D03*
Y163526D03*
Y163034D03*
Y162542D03*
Y162050D03*
Y161558D03*
Y161065D03*
Y160573D03*
Y160081D03*
Y159589D03*
Y159097D03*
Y158605D03*
Y158113D03*
Y157621D03*
Y157128D03*
Y156636D03*
Y156144D03*
Y155652D03*
Y155160D03*
Y154668D03*
Y154176D03*
Y153684D03*
Y153191D03*
Y152699D03*
Y152207D03*
Y151715D03*
Y151223D03*
Y150731D03*
Y150239D03*
Y149747D03*
Y149254D03*
Y148762D03*
Y148270D03*
Y147778D03*
Y147286D03*
Y146794D03*
Y146302D03*
Y145810D03*
Y145317D03*
Y144825D03*
Y144333D03*
Y143841D03*
Y143349D03*
Y142857D03*
Y142365D03*
Y141873D03*
Y141380D03*
Y140888D03*
Y140396D03*
Y139904D03*
X92353Y203880D03*
Y203388D03*
G54D79*Y202896D03*
G54D69*Y184195D03*
Y183211D03*
Y174353D03*
Y173861D03*
Y173369D03*
Y172876D03*
Y172384D03*
Y171892D03*
Y171400D03*
Y170416D03*
Y169924D03*
Y169432D03*
Y168939D03*
Y168447D03*
Y167955D03*
Y167463D03*
Y166971D03*
Y166479D03*
Y165987D03*
Y165495D03*
Y165002D03*
Y164510D03*
Y164018D03*
Y163526D03*
Y163034D03*
Y162542D03*
Y162050D03*
Y161558D03*
Y161065D03*
Y160573D03*
Y160081D03*
Y159589D03*
Y159097D03*
Y158605D03*
Y158113D03*
Y157621D03*
Y157128D03*
Y156636D03*
Y156144D03*
Y155652D03*
Y155160D03*
Y154668D03*
Y154176D03*
Y153684D03*
Y153191D03*
Y152699D03*
Y152207D03*
Y151715D03*
Y151223D03*
Y150731D03*
Y150239D03*
Y149747D03*
Y149254D03*
Y148762D03*
Y148270D03*
Y147778D03*
Y147286D03*
Y146794D03*
Y146302D03*
Y145810D03*
Y145317D03*
Y144825D03*
Y144333D03*
Y143841D03*
Y143349D03*
Y142857D03*
Y142365D03*
Y141873D03*
Y141380D03*
Y140888D03*
Y140396D03*
Y139904D03*
X91861Y203880D03*
Y203388D03*
G54D79*Y175337D03*
G54D69*Y174845D03*
Y174353D03*
Y173861D03*
Y173369D03*
Y172876D03*
Y172384D03*
Y171892D03*
Y171400D03*
Y170908D03*
Y169924D03*
Y169432D03*
Y168939D03*
Y168447D03*
Y167955D03*
Y167463D03*
Y166971D03*
Y166479D03*
Y165987D03*
Y165495D03*
Y165002D03*
Y164510D03*
Y164018D03*
Y163526D03*
Y163034D03*
Y162542D03*
Y162050D03*
Y161558D03*
Y161065D03*
Y160573D03*
Y160081D03*
Y159589D03*
Y159097D03*
Y158605D03*
Y158113D03*
Y157621D03*
Y157128D03*
Y156636D03*
Y156144D03*
Y155652D03*
Y155160D03*
Y154668D03*
Y154176D03*
Y153684D03*
Y153191D03*
Y152699D03*
Y152207D03*
Y151715D03*
Y151223D03*
Y150731D03*
Y150239D03*
Y149747D03*
Y149254D03*
Y148762D03*
Y148270D03*
Y147778D03*
Y147286D03*
Y146794D03*
Y146302D03*
Y145810D03*
Y145317D03*
Y144825D03*
Y144333D03*
Y143841D03*
Y143349D03*
Y142857D03*
Y142365D03*
Y141873D03*
Y141380D03*
Y140888D03*
Y140396D03*
Y139904D03*
X91369Y203880D03*
Y203388D03*
G54D79*Y175829D03*
G54D69*Y175337D03*
Y174845D03*
Y174353D03*
Y173861D03*
Y173369D03*
Y172876D03*
Y172384D03*
Y171892D03*
Y171400D03*
Y170908D03*
Y170416D03*
Y169432D03*
Y168939D03*
Y168447D03*
Y167955D03*
Y167463D03*
Y166971D03*
Y166479D03*
Y165987D03*
Y165495D03*
Y165002D03*
Y164510D03*
Y164018D03*
Y163526D03*
Y163034D03*
Y162542D03*
Y162050D03*
Y161558D03*
Y161065D03*
Y160573D03*
Y160081D03*
Y159589D03*
Y159097D03*
Y158605D03*
Y158113D03*
Y157621D03*
Y157128D03*
Y156636D03*
Y156144D03*
Y155652D03*
Y155160D03*
Y154668D03*
Y154176D03*
Y153684D03*
Y153191D03*
Y152699D03*
Y152207D03*
Y151715D03*
Y151223D03*
Y150731D03*
Y150239D03*
Y149747D03*
Y149254D03*
Y148762D03*
Y148270D03*
Y147778D03*
Y147286D03*
Y146794D03*
Y146302D03*
Y145810D03*
Y145317D03*
Y144825D03*
Y144333D03*
Y143841D03*
Y143349D03*
Y142857D03*
Y142365D03*
Y141873D03*
Y141380D03*
Y140888D03*
Y140396D03*
Y139904D03*
X90876Y204373D03*
Y203880D03*
Y188132D03*
Y175337D03*
Y174845D03*
Y174353D03*
Y173861D03*
Y173369D03*
Y172876D03*
Y172384D03*
Y171892D03*
Y171400D03*
Y170908D03*
Y170416D03*
G54D79*Y169924D03*
G54D69*Y169432D03*
Y168939D03*
Y168447D03*
Y167955D03*
Y167463D03*
Y166971D03*
Y166479D03*
Y165987D03*
Y165495D03*
Y165002D03*
Y164510D03*
Y164018D03*
Y163526D03*
Y163034D03*
Y162542D03*
Y162050D03*
Y161558D03*
Y161065D03*
Y160573D03*
Y160081D03*
Y159589D03*
Y159097D03*
Y158605D03*
Y158113D03*
Y157621D03*
Y157128D03*
Y156636D03*
Y156144D03*
Y155652D03*
Y155160D03*
Y154668D03*
Y154176D03*
Y153684D03*
Y153191D03*
Y152699D03*
Y152207D03*
Y151715D03*
Y151223D03*
Y150731D03*
Y150239D03*
Y149747D03*
Y149254D03*
Y148762D03*
Y148270D03*
Y147778D03*
Y147286D03*
Y146794D03*
Y146302D03*
Y145810D03*
Y145317D03*
Y144825D03*
Y144333D03*
Y143841D03*
Y143349D03*
Y142857D03*
Y142365D03*
Y141873D03*
Y141380D03*
Y140888D03*
Y140396D03*
X90384Y203880D03*
Y195022D03*
Y194530D03*
Y193054D03*
Y192562D03*
G54D79*Y189117D03*
G54D69*Y188625D03*
Y188132D03*
Y176321D03*
Y175829D03*
Y175337D03*
Y174845D03*
Y174353D03*
Y173861D03*
Y173369D03*
Y172876D03*
Y172384D03*
Y171892D03*
Y171400D03*
Y170908D03*
Y170416D03*
Y169924D03*
Y168939D03*
Y168447D03*
Y167955D03*
Y167463D03*
Y166971D03*
Y166479D03*
Y165987D03*
Y165495D03*
Y165002D03*
Y164510D03*
Y164018D03*
Y163526D03*
Y163034D03*
Y162542D03*
Y162050D03*
Y161558D03*
Y161065D03*
Y160573D03*
Y160081D03*
Y159589D03*
Y159097D03*
Y158605D03*
Y158113D03*
Y157621D03*
Y157128D03*
Y156636D03*
Y156144D03*
Y155652D03*
Y155160D03*
Y154668D03*
Y154176D03*
Y153684D03*
Y153191D03*
Y152699D03*
Y152207D03*
Y151715D03*
Y151223D03*
Y150731D03*
Y150239D03*
Y149747D03*
Y149254D03*
Y148762D03*
Y148270D03*
Y147778D03*
Y147286D03*
Y146794D03*
Y146302D03*
Y145810D03*
Y145317D03*
Y144825D03*
Y144333D03*
Y143841D03*
Y143349D03*
Y142857D03*
Y142365D03*
Y141873D03*
Y141380D03*
Y140888D03*
Y140396D03*
X89892Y204373D03*
G54D79*Y203880D03*
G54D69*Y197483D03*
Y196499D03*
Y196006D03*
Y195514D03*
Y195022D03*
Y194530D03*
Y194038D03*
Y193546D03*
Y193054D03*
Y192562D03*
Y192069D03*
Y191577D03*
Y190593D03*
Y190101D03*
Y189609D03*
Y189117D03*
Y188625D03*
Y188132D03*
Y187640D03*
Y177306D03*
Y176321D03*
Y175829D03*
Y175337D03*
Y174845D03*
Y174353D03*
Y173861D03*
Y173369D03*
Y172876D03*
Y172384D03*
Y171892D03*
Y171400D03*
Y170908D03*
Y170416D03*
Y169924D03*
Y168939D03*
Y168447D03*
Y167955D03*
Y167463D03*
Y166971D03*
Y166479D03*
Y165987D03*
Y165495D03*
Y165002D03*
Y164510D03*
Y164018D03*
Y163526D03*
Y163034D03*
Y162542D03*
Y162050D03*
Y161558D03*
Y161065D03*
Y160573D03*
Y160081D03*
Y159589D03*
Y159097D03*
Y158605D03*
Y158113D03*
Y157621D03*
Y157128D03*
Y156636D03*
Y156144D03*
Y155652D03*
Y155160D03*
Y154668D03*
Y154176D03*
Y153684D03*
Y153191D03*
Y152699D03*
Y152207D03*
Y151715D03*
Y151223D03*
Y150731D03*
Y150239D03*
Y149747D03*
Y149254D03*
Y148762D03*
Y148270D03*
Y147778D03*
Y147286D03*
Y146794D03*
Y146302D03*
Y145810D03*
Y145317D03*
Y144825D03*
Y144333D03*
Y143841D03*
Y143349D03*
Y142857D03*
Y142365D03*
Y141873D03*
Y141380D03*
Y140888D03*
Y140396D03*
X89400Y204373D03*
G54D79*Y203880D03*
G54D69*Y197975D03*
Y197483D03*
Y196991D03*
Y196499D03*
Y196006D03*
Y195514D03*
Y195022D03*
Y194530D03*
Y194038D03*
Y193546D03*
Y193054D03*
Y192562D03*
Y192069D03*
Y191577D03*
Y191085D03*
Y190593D03*
Y190101D03*
Y189609D03*
Y189117D03*
Y188625D03*
Y188132D03*
Y187640D03*
Y177306D03*
Y176813D03*
Y176321D03*
Y175829D03*
Y175337D03*
Y174845D03*
Y174353D03*
Y173861D03*
Y173369D03*
Y172876D03*
Y172384D03*
Y171892D03*
Y171400D03*
Y170908D03*
Y170416D03*
Y168939D03*
Y168447D03*
Y167955D03*
Y167463D03*
Y166971D03*
Y166479D03*
Y165987D03*
Y165495D03*
Y165002D03*
Y164510D03*
Y164018D03*
Y163526D03*
Y163034D03*
Y162542D03*
Y162050D03*
Y161558D03*
Y161065D03*
Y160573D03*
Y160081D03*
Y159589D03*
Y159097D03*
Y158605D03*
Y158113D03*
Y157621D03*
Y157128D03*
Y156636D03*
Y156144D03*
Y155652D03*
Y155160D03*
Y154668D03*
Y154176D03*
Y153684D03*
Y153191D03*
Y152699D03*
Y152207D03*
Y151715D03*
Y151223D03*
Y150731D03*
Y150239D03*
Y149747D03*
Y149254D03*
Y148762D03*
Y148270D03*
Y147778D03*
Y147286D03*
Y146794D03*
Y146302D03*
Y145810D03*
Y145317D03*
Y144825D03*
Y144333D03*
Y143841D03*
Y143349D03*
Y142857D03*
Y142365D03*
Y141873D03*
Y141380D03*
Y140888D03*
G54D79*Y140396D03*
G54D69*X88908Y204373D03*
Y197975D03*
Y197483D03*
Y196991D03*
Y196499D03*
Y196006D03*
Y195514D03*
Y195022D03*
Y194530D03*
Y194038D03*
Y193546D03*
Y193054D03*
Y192562D03*
Y192069D03*
Y191577D03*
Y191085D03*
Y190593D03*
Y190101D03*
Y189609D03*
Y189117D03*
Y188625D03*
Y188132D03*
Y187640D03*
Y177798D03*
Y177306D03*
Y176813D03*
Y176321D03*
Y175829D03*
Y175337D03*
Y174845D03*
Y174353D03*
Y173861D03*
Y173369D03*
Y172876D03*
Y172384D03*
Y171892D03*
Y171400D03*
Y170908D03*
Y170416D03*
Y168939D03*
Y168447D03*
Y167955D03*
Y167463D03*
Y166971D03*
Y166479D03*
Y165987D03*
Y165495D03*
Y165002D03*
Y164510D03*
Y164018D03*
Y163526D03*
Y163034D03*
Y162542D03*
Y162050D03*
Y161558D03*
Y161065D03*
Y160573D03*
Y160081D03*
Y159589D03*
Y159097D03*
Y158605D03*
Y158113D03*
Y157621D03*
Y157128D03*
Y156636D03*
Y156144D03*
Y155652D03*
Y155160D03*
Y154668D03*
Y154176D03*
Y153684D03*
Y153191D03*
Y152699D03*
Y152207D03*
Y151715D03*
Y151223D03*
Y150731D03*
Y150239D03*
Y149747D03*
Y149254D03*
Y148762D03*
Y148270D03*
Y147778D03*
Y147286D03*
Y146794D03*
Y146302D03*
Y145810D03*
Y145317D03*
Y144825D03*
Y144333D03*
Y143841D03*
Y143349D03*
Y142857D03*
Y142365D03*
Y141873D03*
Y141380D03*
G54D79*X88416Y205357D03*
G54D69*Y204865D03*
Y198467D03*
Y197975D03*
Y197483D03*
Y196991D03*
Y196499D03*
Y196006D03*
Y195514D03*
Y195022D03*
Y194530D03*
Y194038D03*
Y193546D03*
Y193054D03*
Y192562D03*
Y192069D03*
Y191577D03*
Y191085D03*
Y190593D03*
Y190101D03*
Y189609D03*
Y189117D03*
Y188625D03*
Y188132D03*
Y187640D03*
Y178290D03*
Y177798D03*
Y177306D03*
Y176813D03*
Y176321D03*
Y175829D03*
Y175337D03*
Y174845D03*
Y174353D03*
Y173861D03*
Y173369D03*
Y172876D03*
Y172384D03*
Y171892D03*
Y171400D03*
Y170908D03*
Y170416D03*
Y169924D03*
Y169432D03*
Y168939D03*
Y168447D03*
Y167955D03*
Y167463D03*
Y166971D03*
Y166479D03*
Y165987D03*
Y165495D03*
Y165002D03*
Y164510D03*
Y164018D03*
Y163526D03*
Y163034D03*
Y162542D03*
Y162050D03*
Y161558D03*
Y161065D03*
Y160573D03*
Y160081D03*
Y159589D03*
Y159097D03*
Y158605D03*
Y158113D03*
Y157621D03*
Y157128D03*
Y156636D03*
Y156144D03*
Y155652D03*
Y155160D03*
Y154668D03*
Y154176D03*
Y153684D03*
Y153191D03*
Y152699D03*
Y152207D03*
Y151715D03*
Y151223D03*
Y150731D03*
Y150239D03*
Y149747D03*
Y149254D03*
Y148762D03*
Y148270D03*
Y147778D03*
Y147286D03*
Y146794D03*
Y146302D03*
Y145810D03*
Y145317D03*
Y144825D03*
Y144333D03*
Y143841D03*
Y143349D03*
Y142857D03*
Y142365D03*
Y141873D03*
Y141380D03*
G54D79*Y140888D03*
X87924Y205357D03*
G54D69*Y198959D03*
Y198467D03*
Y197975D03*
Y197483D03*
Y196991D03*
Y196499D03*
Y196006D03*
Y195514D03*
Y195022D03*
Y194530D03*
Y194038D03*
Y193546D03*
Y193054D03*
Y192562D03*
Y192069D03*
Y191577D03*
Y191085D03*
Y190593D03*
Y190101D03*
Y189609D03*
Y189117D03*
Y188625D03*
Y188132D03*
Y187640D03*
Y187148D03*
Y178290D03*
Y177798D03*
Y177306D03*
Y176813D03*
Y176321D03*
Y175829D03*
Y175337D03*
Y174845D03*
Y174353D03*
Y173861D03*
Y173369D03*
Y172876D03*
Y172384D03*
Y171892D03*
Y170908D03*
Y169432D03*
Y168939D03*
Y168447D03*
Y167955D03*
Y167463D03*
Y166971D03*
Y166479D03*
Y165987D03*
Y165495D03*
Y165002D03*
Y164510D03*
Y164018D03*
Y163526D03*
Y163034D03*
Y162542D03*
Y162050D03*
Y161558D03*
Y161065D03*
Y160573D03*
Y160081D03*
Y159589D03*
Y159097D03*
Y158605D03*
Y158113D03*
Y157621D03*
Y157128D03*
Y156636D03*
Y156144D03*
Y155652D03*
Y155160D03*
Y154668D03*
Y154176D03*
Y153684D03*
Y153191D03*
Y152699D03*
Y152207D03*
Y151715D03*
Y151223D03*
Y150731D03*
Y150239D03*
Y149747D03*
Y149254D03*
Y148762D03*
Y148270D03*
Y147778D03*
Y147286D03*
Y146794D03*
Y146302D03*
Y145810D03*
Y145317D03*
Y144825D03*
Y144333D03*
Y143841D03*
Y143349D03*
Y142857D03*
Y142365D03*
Y141873D03*
Y141380D03*
X87432Y199451D03*
Y198959D03*
Y198467D03*
Y197975D03*
Y197483D03*
Y196991D03*
Y196499D03*
Y196006D03*
Y195514D03*
Y195022D03*
Y194530D03*
Y194038D03*
Y193546D03*
Y193054D03*
Y192562D03*
Y192069D03*
Y191577D03*
Y191085D03*
Y190593D03*
Y190101D03*
Y189609D03*
Y189117D03*
Y188625D03*
Y188132D03*
Y187640D03*
Y187148D03*
G54D79*Y179274D03*
G54D69*Y178782D03*
Y178290D03*
Y177798D03*
Y177306D03*
Y176813D03*
Y176321D03*
Y175829D03*
Y175337D03*
Y174845D03*
Y174353D03*
Y173861D03*
Y173369D03*
G54D79*Y172876D03*
G54D69*Y169924D03*
Y169432D03*
Y168939D03*
Y168447D03*
Y167955D03*
Y167463D03*
Y166971D03*
Y166479D03*
Y165987D03*
Y165495D03*
Y165002D03*
Y164510D03*
Y164018D03*
Y163526D03*
Y163034D03*
Y162542D03*
Y162050D03*
Y161558D03*
Y161065D03*
Y160573D03*
Y160081D03*
Y159589D03*
Y159097D03*
Y158605D03*
Y158113D03*
Y157621D03*
Y157128D03*
Y156636D03*
Y156144D03*
Y155652D03*
Y155160D03*
Y154668D03*
Y154176D03*
Y153684D03*
Y153191D03*
Y152699D03*
Y152207D03*
Y151715D03*
Y151223D03*
Y150731D03*
Y150239D03*
Y149747D03*
Y149254D03*
Y148762D03*
Y148270D03*
Y147778D03*
Y147286D03*
Y146794D03*
Y146302D03*
Y145810D03*
Y145317D03*
Y144825D03*
Y144333D03*
Y143841D03*
Y143349D03*
Y142857D03*
Y142365D03*
Y141873D03*
Y141380D03*
Y140888D03*
G54D79*Y139904D03*
G54D69*X86939Y199943D03*
Y199451D03*
Y198959D03*
Y198467D03*
Y197975D03*
Y197483D03*
Y196991D03*
Y196499D03*
Y196006D03*
Y195514D03*
Y195022D03*
Y194530D03*
Y194038D03*
Y193546D03*
Y193054D03*
Y192562D03*
Y192069D03*
Y191577D03*
Y191085D03*
Y190593D03*
Y190101D03*
Y189609D03*
Y189117D03*
Y188625D03*
Y188132D03*
Y187640D03*
Y184195D03*
Y183211D03*
G54D79*Y182227D03*
G54D69*Y181735D03*
Y179766D03*
Y179274D03*
Y178782D03*
Y178290D03*
Y177798D03*
Y177306D03*
Y176813D03*
Y176321D03*
Y175829D03*
Y175337D03*
Y174845D03*
Y174353D03*
Y173861D03*
Y173369D03*
G54D79*Y172876D03*
G54D69*Y170908D03*
Y170416D03*
Y169924D03*
Y169432D03*
Y168939D03*
Y168447D03*
Y167955D03*
Y167463D03*
Y166971D03*
Y166479D03*
Y165987D03*
Y165495D03*
Y165002D03*
Y164510D03*
Y164018D03*
Y163526D03*
Y163034D03*
Y162542D03*
Y162050D03*
Y161558D03*
Y161065D03*
Y160573D03*
Y160081D03*
Y159589D03*
Y159097D03*
Y158605D03*
Y158113D03*
Y157621D03*
Y157128D03*
Y156636D03*
Y156144D03*
Y155652D03*
Y155160D03*
Y154668D03*
Y154176D03*
Y153684D03*
Y153191D03*
Y152699D03*
Y152207D03*
Y151715D03*
Y151223D03*
Y150731D03*
Y150239D03*
Y149747D03*
Y149254D03*
Y148762D03*
Y148270D03*
Y147778D03*
Y147286D03*
Y146794D03*
Y146302D03*
Y145810D03*
Y145317D03*
Y144825D03*
Y144333D03*
Y143841D03*
Y143349D03*
Y142857D03*
Y142365D03*
Y141873D03*
Y141380D03*
Y140888D03*
Y140396D03*
Y139904D03*
Y139412D03*
Y138920D03*
Y138428D03*
X86447Y205357D03*
Y200928D03*
Y200436D03*
Y199943D03*
Y199451D03*
Y198959D03*
Y198467D03*
Y197975D03*
Y197483D03*
Y196991D03*
Y196499D03*
Y196006D03*
Y195514D03*
Y195022D03*
Y194530D03*
Y194038D03*
Y193546D03*
Y193054D03*
Y192562D03*
Y192069D03*
Y191577D03*
Y191085D03*
Y190593D03*
Y190101D03*
Y189609D03*
Y189117D03*
Y188625D03*
Y188132D03*
Y187640D03*
G54D79*Y187148D03*
Y185180D03*
G54D69*Y184688D03*
Y184195D03*
Y183703D03*
Y183211D03*
Y182719D03*
Y182227D03*
Y181735D03*
Y179766D03*
Y179274D03*
Y178782D03*
Y178290D03*
Y177798D03*
Y177306D03*
Y176813D03*
Y176321D03*
Y175829D03*
Y175337D03*
Y174845D03*
Y174353D03*
Y173861D03*
Y173369D03*
Y171892D03*
Y171400D03*
Y170908D03*
Y170416D03*
Y169924D03*
Y169432D03*
Y168939D03*
Y168447D03*
Y167955D03*
Y167463D03*
Y166971D03*
Y166479D03*
Y165987D03*
Y165495D03*
Y165002D03*
Y164510D03*
Y164018D03*
Y163526D03*
Y163034D03*
Y162542D03*
Y162050D03*
Y161558D03*
Y161065D03*
Y160573D03*
Y160081D03*
Y159589D03*
Y159097D03*
Y158605D03*
Y158113D03*
Y157621D03*
Y157128D03*
Y156636D03*
Y156144D03*
Y155652D03*
Y155160D03*
Y154668D03*
Y154176D03*
Y153684D03*
Y153191D03*
Y152699D03*
Y152207D03*
Y151715D03*
Y151223D03*
Y150731D03*
Y150239D03*
Y149747D03*
Y149254D03*
Y148762D03*
Y148270D03*
Y147778D03*
Y147286D03*
Y146794D03*
Y146302D03*
Y145810D03*
Y145317D03*
Y144825D03*
Y144333D03*
Y143841D03*
Y143349D03*
Y142857D03*
Y142365D03*
Y141873D03*
Y141380D03*
Y140888D03*
Y140396D03*
Y139904D03*
Y139412D03*
Y138920D03*
X85955Y205357D03*
Y204865D03*
Y200928D03*
Y200436D03*
Y199943D03*
Y199451D03*
Y198959D03*
Y198467D03*
Y197975D03*
Y197483D03*
Y196991D03*
Y196499D03*
Y196006D03*
Y195514D03*
Y195022D03*
Y194530D03*
Y194038D03*
Y193546D03*
Y193054D03*
Y192562D03*
Y192069D03*
Y191577D03*
Y191085D03*
Y190593D03*
Y190101D03*
Y189609D03*
Y189117D03*
Y188625D03*
Y188132D03*
Y187640D03*
Y185672D03*
Y185180D03*
Y184688D03*
Y184195D03*
Y183703D03*
Y183211D03*
Y182719D03*
Y182227D03*
Y181735D03*
Y181243D03*
G54D79*Y180750D03*
G54D69*Y179274D03*
Y178782D03*
Y178290D03*
Y177798D03*
Y177306D03*
Y176813D03*
Y176321D03*
Y175829D03*
Y175337D03*
Y174845D03*
Y174353D03*
Y173861D03*
Y173369D03*
G54D79*Y172876D03*
G54D69*Y171892D03*
Y171400D03*
Y170908D03*
Y170416D03*
Y169924D03*
Y169432D03*
Y168939D03*
Y168447D03*
Y167955D03*
Y167463D03*
Y166971D03*
Y166479D03*
Y165987D03*
Y165495D03*
Y165002D03*
Y164510D03*
Y164018D03*
Y163526D03*
Y163034D03*
Y162542D03*
Y162050D03*
Y161558D03*
Y161065D03*
Y160573D03*
Y160081D03*
Y159589D03*
Y159097D03*
Y158605D03*
Y158113D03*
Y157621D03*
Y157128D03*
Y156636D03*
Y156144D03*
Y155652D03*
Y155160D03*
Y154668D03*
Y154176D03*
Y153684D03*
Y153191D03*
Y152699D03*
Y152207D03*
Y151715D03*
Y151223D03*
Y150731D03*
Y150239D03*
Y149747D03*
Y149254D03*
Y148762D03*
Y148270D03*
Y147778D03*
Y147286D03*
Y146794D03*
Y146302D03*
Y145810D03*
Y145317D03*
Y144825D03*
Y144333D03*
Y143841D03*
Y143349D03*
Y142857D03*
Y142365D03*
Y141873D03*
Y141380D03*
Y140888D03*
Y140396D03*
Y139904D03*
Y139412D03*
Y138920D03*
X85463Y205357D03*
Y204865D03*
Y200928D03*
Y200436D03*
Y199943D03*
Y199451D03*
Y198959D03*
Y198467D03*
Y197975D03*
Y197483D03*
Y196991D03*
Y196499D03*
Y196006D03*
Y195514D03*
Y195022D03*
Y194530D03*
Y194038D03*
Y193546D03*
Y193054D03*
Y192562D03*
Y192069D03*
Y191577D03*
Y191085D03*
Y190593D03*
Y190101D03*
Y189609D03*
Y189117D03*
Y188625D03*
Y188132D03*
Y187640D03*
G54D79*Y186656D03*
G54D69*Y186164D03*
Y185672D03*
Y185180D03*
Y184688D03*
Y184195D03*
Y183703D03*
Y183211D03*
Y182719D03*
Y182227D03*
Y181735D03*
Y181243D03*
Y180750D03*
Y180258D03*
Y179274D03*
Y178782D03*
Y178290D03*
Y177798D03*
Y177306D03*
Y176813D03*
Y176321D03*
Y175829D03*
Y175337D03*
Y174845D03*
Y174353D03*
Y173861D03*
G54D79*Y172876D03*
G54D69*Y172384D03*
Y171892D03*
Y171400D03*
Y170908D03*
Y170416D03*
Y169924D03*
Y169432D03*
Y168939D03*
Y168447D03*
Y167955D03*
Y167463D03*
Y166971D03*
Y166479D03*
Y165987D03*
Y165495D03*
Y165002D03*
Y164510D03*
Y164018D03*
Y163526D03*
Y163034D03*
Y162542D03*
Y162050D03*
Y161558D03*
Y161065D03*
Y160573D03*
Y160081D03*
Y159589D03*
Y159097D03*
Y158605D03*
Y158113D03*
Y157621D03*
Y157128D03*
Y156636D03*
Y156144D03*
Y155652D03*
Y155160D03*
Y154668D03*
Y154176D03*
Y153684D03*
Y153191D03*
Y152699D03*
Y152207D03*
Y151715D03*
Y151223D03*
Y150731D03*
Y150239D03*
Y149747D03*
Y149254D03*
Y148762D03*
Y148270D03*
Y147778D03*
Y147286D03*
Y146794D03*
Y146302D03*
Y145810D03*
Y145317D03*
Y144825D03*
Y144333D03*
Y143841D03*
Y143349D03*
Y142857D03*
Y142365D03*
Y141873D03*
Y141380D03*
Y140888D03*
Y140396D03*
Y139904D03*
Y139412D03*
Y138920D03*
Y138428D03*
G54D79*Y128585D03*
G54D69*Y127601D03*
X84971Y205357D03*
Y204865D03*
Y200928D03*
Y200436D03*
Y199943D03*
Y199451D03*
Y198959D03*
Y198467D03*
Y197975D03*
Y197483D03*
Y196991D03*
Y196499D03*
Y196006D03*
Y195514D03*
Y195022D03*
Y194530D03*
Y194038D03*
Y193546D03*
Y193054D03*
Y192562D03*
Y192069D03*
Y191577D03*
Y191085D03*
Y190593D03*
Y190101D03*
Y189609D03*
Y189117D03*
Y188625D03*
Y188132D03*
Y187640D03*
Y187148D03*
Y186164D03*
Y185672D03*
Y185180D03*
Y184688D03*
Y184195D03*
Y183703D03*
Y183211D03*
Y182719D03*
Y182227D03*
Y181735D03*
Y181243D03*
Y180750D03*
Y180258D03*
Y179274D03*
Y178782D03*
Y178290D03*
Y177798D03*
Y177306D03*
Y176813D03*
Y176321D03*
Y175829D03*
Y175337D03*
Y174845D03*
Y174353D03*
Y173861D03*
Y173369D03*
Y172876D03*
Y172384D03*
Y171892D03*
Y171400D03*
Y170908D03*
Y170416D03*
Y169924D03*
Y169432D03*
Y168939D03*
Y168447D03*
Y167955D03*
Y167463D03*
Y166971D03*
Y166479D03*
Y165987D03*
Y165495D03*
Y165002D03*
Y164510D03*
Y164018D03*
Y163526D03*
Y163034D03*
Y162542D03*
Y162050D03*
Y161558D03*
Y161065D03*
Y160573D03*
Y160081D03*
Y159589D03*
Y159097D03*
Y158605D03*
Y158113D03*
Y157621D03*
Y157128D03*
Y156636D03*
Y156144D03*
Y155652D03*
Y155160D03*
Y154668D03*
Y154176D03*
Y153684D03*
Y153191D03*
Y152699D03*
Y152207D03*
Y151715D03*
Y151223D03*
Y150731D03*
Y150239D03*
Y149747D03*
Y149254D03*
Y148762D03*
Y148270D03*
Y147778D03*
Y147286D03*
Y146794D03*
Y146302D03*
Y145810D03*
Y145317D03*
Y144825D03*
Y144333D03*
Y143841D03*
Y143349D03*
Y142857D03*
Y142365D03*
Y141873D03*
Y141380D03*
Y140888D03*
Y140396D03*
Y139904D03*
Y139412D03*
Y138920D03*
Y138428D03*
Y137936D03*
Y128093D03*
Y127601D03*
Y127109D03*
X84479Y205357D03*
Y204865D03*
Y201420D03*
Y200928D03*
Y200436D03*
Y199943D03*
Y199451D03*
Y198959D03*
Y198467D03*
Y197975D03*
Y197483D03*
Y196991D03*
Y196499D03*
Y196006D03*
Y195514D03*
Y195022D03*
Y194530D03*
Y194038D03*
Y193546D03*
Y193054D03*
Y192562D03*
Y192069D03*
Y191577D03*
Y191085D03*
Y190593D03*
Y190101D03*
Y189609D03*
Y189117D03*
Y188625D03*
Y188132D03*
Y187640D03*
Y187148D03*
Y186656D03*
Y186164D03*
Y185672D03*
Y185180D03*
Y184688D03*
Y184195D03*
Y183703D03*
Y183211D03*
Y182719D03*
Y182227D03*
Y181735D03*
Y181243D03*
Y180750D03*
Y179274D03*
Y178782D03*
Y178290D03*
Y177798D03*
Y177306D03*
Y176813D03*
Y176321D03*
Y175829D03*
Y175337D03*
Y174845D03*
Y174353D03*
Y172876D03*
Y172384D03*
Y171892D03*
Y171400D03*
Y170908D03*
Y170416D03*
Y169924D03*
Y169432D03*
Y168939D03*
Y168447D03*
Y167955D03*
Y167463D03*
Y166971D03*
Y166479D03*
Y165987D03*
Y165495D03*
Y165002D03*
Y164510D03*
Y164018D03*
Y163526D03*
Y163034D03*
Y162542D03*
Y162050D03*
Y161558D03*
Y161065D03*
Y160573D03*
Y160081D03*
Y159589D03*
Y159097D03*
Y158605D03*
Y158113D03*
Y157621D03*
Y157128D03*
Y156636D03*
Y156144D03*
Y155652D03*
Y155160D03*
Y154668D03*
Y154176D03*
Y153684D03*
Y153191D03*
Y152699D03*
Y152207D03*
Y151715D03*
Y151223D03*
Y150731D03*
Y150239D03*
Y149747D03*
Y149254D03*
Y148762D03*
Y148270D03*
Y147778D03*
Y147286D03*
Y146794D03*
Y146302D03*
Y145810D03*
Y145317D03*
Y144825D03*
Y144333D03*
Y143841D03*
Y143349D03*
Y142857D03*
Y142365D03*
Y141873D03*
Y141380D03*
Y140888D03*
Y140396D03*
Y139904D03*
Y139412D03*
Y138920D03*
Y138428D03*
Y137936D03*
Y128585D03*
Y128093D03*
Y127601D03*
Y127109D03*
Y126617D03*
Y126125D03*
Y125632D03*
Y125140D03*
G54D79*Y124648D03*
G54D69*X83987Y205357D03*
Y204865D03*
Y201912D03*
Y201420D03*
Y200928D03*
Y200436D03*
Y199943D03*
Y199451D03*
Y198959D03*
Y198467D03*
Y197975D03*
Y197483D03*
Y196991D03*
Y196499D03*
Y196006D03*
Y195514D03*
Y195022D03*
Y194530D03*
Y194038D03*
Y193546D03*
Y193054D03*
Y192562D03*
Y192069D03*
Y191577D03*
Y191085D03*
Y190593D03*
Y190101D03*
Y189609D03*
Y189117D03*
Y188625D03*
Y188132D03*
Y187640D03*
Y187148D03*
Y186656D03*
Y186164D03*
Y185672D03*
Y185180D03*
Y184688D03*
Y184195D03*
Y183703D03*
Y183211D03*
Y182719D03*
Y182227D03*
Y181735D03*
Y181243D03*
Y180750D03*
Y178782D03*
Y178290D03*
Y177798D03*
Y177306D03*
Y176813D03*
Y176321D03*
Y175829D03*
Y175337D03*
Y174845D03*
G54D79*Y174353D03*
G54D69*Y173861D03*
Y173369D03*
Y172876D03*
Y172384D03*
Y171892D03*
Y171400D03*
Y170908D03*
Y170416D03*
Y169924D03*
Y169432D03*
Y168939D03*
Y168447D03*
Y167955D03*
Y167463D03*
Y166971D03*
Y166479D03*
Y165987D03*
Y165495D03*
Y165002D03*
Y164510D03*
Y164018D03*
Y163526D03*
Y163034D03*
Y162542D03*
Y162050D03*
Y161558D03*
Y161065D03*
Y160573D03*
Y160081D03*
Y159589D03*
Y159097D03*
Y158605D03*
Y158113D03*
Y157621D03*
Y157128D03*
Y156636D03*
Y156144D03*
Y155652D03*
Y155160D03*
Y154668D03*
Y154176D03*
Y153684D03*
Y153191D03*
Y152699D03*
Y152207D03*
Y151715D03*
Y151223D03*
Y150731D03*
Y150239D03*
Y149747D03*
Y149254D03*
Y148762D03*
Y148270D03*
Y147778D03*
Y147286D03*
Y146794D03*
Y146302D03*
Y145810D03*
Y145317D03*
Y144825D03*
Y144333D03*
Y143841D03*
Y143349D03*
Y142857D03*
Y142365D03*
Y141873D03*
Y141380D03*
Y140888D03*
Y140396D03*
Y139904D03*
Y139412D03*
Y138920D03*
Y138428D03*
Y137936D03*
G54D79*Y131046D03*
G54D69*Y129077D03*
Y128585D03*
Y128093D03*
Y127601D03*
Y127109D03*
Y126617D03*
Y126125D03*
Y125632D03*
Y125140D03*
X83495Y205357D03*
G54D79*Y204865D03*
G54D69*Y201912D03*
Y201420D03*
Y200928D03*
Y200436D03*
Y199943D03*
Y199451D03*
Y198959D03*
Y198467D03*
Y197975D03*
Y197483D03*
Y196991D03*
Y196499D03*
Y196006D03*
Y195514D03*
Y195022D03*
Y194530D03*
Y194038D03*
Y193546D03*
Y193054D03*
Y192562D03*
Y192069D03*
Y191577D03*
Y191085D03*
Y190593D03*
Y190101D03*
Y189609D03*
Y189117D03*
Y188625D03*
Y188132D03*
Y187640D03*
Y187148D03*
Y186656D03*
Y186164D03*
Y185672D03*
Y185180D03*
Y184688D03*
Y184195D03*
Y183703D03*
Y183211D03*
Y182719D03*
Y182227D03*
Y181735D03*
Y181243D03*
Y180750D03*
Y178782D03*
Y178290D03*
Y177798D03*
Y177306D03*
Y176813D03*
Y176321D03*
Y175829D03*
Y175337D03*
Y173861D03*
Y173369D03*
Y172876D03*
Y172384D03*
Y171892D03*
Y171400D03*
Y170908D03*
Y170416D03*
Y169924D03*
Y169432D03*
Y168939D03*
Y168447D03*
Y167955D03*
Y167463D03*
Y166971D03*
Y166479D03*
Y165987D03*
Y165495D03*
Y165002D03*
Y164510D03*
Y164018D03*
Y163526D03*
Y163034D03*
Y162542D03*
Y162050D03*
Y161558D03*
Y161065D03*
Y160573D03*
Y160081D03*
Y159589D03*
Y159097D03*
Y158605D03*
Y158113D03*
Y157621D03*
Y157128D03*
Y156636D03*
Y156144D03*
Y155652D03*
Y155160D03*
Y154668D03*
Y154176D03*
Y153684D03*
Y153191D03*
Y152699D03*
Y152207D03*
Y151715D03*
Y151223D03*
Y150731D03*
Y150239D03*
Y149747D03*
Y149254D03*
Y148762D03*
Y148270D03*
Y147778D03*
Y147286D03*
Y146794D03*
Y146302D03*
Y145810D03*
Y145317D03*
Y144825D03*
Y144333D03*
Y143841D03*
Y143349D03*
Y142857D03*
Y142365D03*
Y141873D03*
Y141380D03*
Y140888D03*
Y140396D03*
Y139904D03*
Y139412D03*
Y138920D03*
Y138428D03*
Y137936D03*
Y131538D03*
Y131046D03*
G54D79*Y130554D03*
G54D69*Y130062D03*
Y129569D03*
Y129077D03*
Y128585D03*
Y128093D03*
Y127601D03*
Y127109D03*
Y126617D03*
Y126125D03*
Y125632D03*
X83002Y205357D03*
Y204865D03*
Y201912D03*
Y201420D03*
Y200928D03*
Y200436D03*
Y199943D03*
Y199451D03*
Y198959D03*
Y198467D03*
Y197975D03*
Y197483D03*
Y196991D03*
Y196499D03*
Y196006D03*
Y195514D03*
Y195022D03*
Y194530D03*
Y194038D03*
Y193546D03*
Y193054D03*
Y192562D03*
Y192069D03*
Y191577D03*
Y191085D03*
Y190593D03*
Y190101D03*
Y189609D03*
Y189117D03*
Y188625D03*
Y188132D03*
Y187640D03*
Y187148D03*
Y186656D03*
Y186164D03*
Y185672D03*
Y185180D03*
Y184688D03*
Y184195D03*
Y183703D03*
Y183211D03*
Y182719D03*
Y182227D03*
Y181735D03*
Y181243D03*
Y180750D03*
Y180258D03*
G54D79*Y179274D03*
G54D69*Y178782D03*
Y178290D03*
Y177798D03*
Y177306D03*
Y176813D03*
Y176321D03*
Y175829D03*
Y175337D03*
Y174845D03*
Y174353D03*
Y173861D03*
Y173369D03*
Y172876D03*
Y172384D03*
Y171892D03*
Y171400D03*
Y170908D03*
Y170416D03*
Y169924D03*
Y169432D03*
Y168939D03*
Y168447D03*
Y167955D03*
Y167463D03*
Y166971D03*
Y166479D03*
Y165987D03*
Y165495D03*
Y165002D03*
Y164510D03*
Y164018D03*
Y163526D03*
Y163034D03*
Y162542D03*
Y162050D03*
Y161558D03*
Y161065D03*
Y160573D03*
Y160081D03*
Y159589D03*
Y159097D03*
Y158605D03*
Y158113D03*
Y157621D03*
Y157128D03*
Y156636D03*
Y156144D03*
Y155652D03*
Y155160D03*
Y154668D03*
Y154176D03*
Y153684D03*
Y153191D03*
Y152699D03*
Y152207D03*
Y151715D03*
Y151223D03*
Y150731D03*
Y150239D03*
Y149747D03*
Y149254D03*
Y148762D03*
Y148270D03*
Y147778D03*
Y147286D03*
Y146794D03*
Y146302D03*
Y145810D03*
Y145317D03*
Y144825D03*
Y144333D03*
Y143841D03*
Y143349D03*
Y142857D03*
Y142365D03*
Y141873D03*
Y141380D03*
Y140888D03*
Y140396D03*
Y139904D03*
Y139412D03*
Y138920D03*
Y138428D03*
Y137936D03*
Y137443D03*
Y136951D03*
Y133506D03*
Y133014D03*
Y132522D03*
Y132030D03*
Y131538D03*
Y131046D03*
Y130554D03*
Y130062D03*
Y129569D03*
Y129077D03*
Y128585D03*
Y128093D03*
Y127601D03*
Y127109D03*
Y126617D03*
Y126125D03*
Y125632D03*
G54D79*Y125140D03*
G54D69*X82510Y202404D03*
Y201912D03*
Y201420D03*
Y200928D03*
Y200436D03*
Y199943D03*
Y199451D03*
Y198959D03*
Y198467D03*
Y197975D03*
Y197483D03*
Y196991D03*
Y196499D03*
Y196006D03*
Y195514D03*
Y195022D03*
Y194530D03*
Y194038D03*
Y193546D03*
Y193054D03*
Y192562D03*
Y192069D03*
Y191577D03*
Y191085D03*
Y190593D03*
Y190101D03*
Y189609D03*
Y189117D03*
Y188625D03*
Y188132D03*
Y187640D03*
Y187148D03*
Y186656D03*
Y186164D03*
Y185672D03*
Y185180D03*
Y184688D03*
Y184195D03*
Y183703D03*
Y183211D03*
Y182719D03*
Y182227D03*
Y181735D03*
Y181243D03*
Y180750D03*
G54D79*Y179766D03*
G54D69*Y178782D03*
Y178290D03*
Y177798D03*
Y177306D03*
Y176813D03*
Y176321D03*
Y174845D03*
Y174353D03*
Y173861D03*
Y173369D03*
Y172876D03*
Y172384D03*
Y171892D03*
Y171400D03*
Y170908D03*
Y170416D03*
Y169924D03*
Y169432D03*
Y168939D03*
Y168447D03*
Y167955D03*
Y167463D03*
Y166971D03*
Y166479D03*
Y165987D03*
Y165495D03*
Y165002D03*
Y164510D03*
Y164018D03*
Y163526D03*
Y163034D03*
Y162542D03*
Y162050D03*
Y161558D03*
Y161065D03*
Y160573D03*
Y160081D03*
Y159589D03*
Y159097D03*
Y158605D03*
Y158113D03*
Y157621D03*
Y157128D03*
Y156636D03*
Y156144D03*
Y155652D03*
Y155160D03*
Y154668D03*
Y154176D03*
Y153684D03*
Y153191D03*
Y152699D03*
Y152207D03*
Y151715D03*
Y151223D03*
Y150731D03*
Y150239D03*
Y149747D03*
Y149254D03*
Y148762D03*
Y148270D03*
Y147778D03*
Y147286D03*
Y146794D03*
Y146302D03*
Y145810D03*
Y145317D03*
Y144825D03*
Y144333D03*
Y143841D03*
Y143349D03*
Y142857D03*
Y142365D03*
Y141873D03*
Y141380D03*
Y140888D03*
Y140396D03*
Y139904D03*
Y139412D03*
Y138920D03*
Y138428D03*
Y137936D03*
Y137443D03*
G54D79*Y135475D03*
G54D69*Y134491D03*
Y133999D03*
Y133506D03*
Y133014D03*
Y132522D03*
Y132030D03*
Y131538D03*
Y131046D03*
Y130554D03*
Y130062D03*
Y129569D03*
Y129077D03*
Y128585D03*
Y128093D03*
Y127601D03*
Y127109D03*
Y126617D03*
Y126125D03*
Y125632D03*
X82018Y202896D03*
Y202404D03*
Y201912D03*
Y201420D03*
Y200928D03*
Y200436D03*
Y199943D03*
Y199451D03*
Y198959D03*
Y198467D03*
Y197975D03*
Y197483D03*
Y196991D03*
Y196499D03*
Y196006D03*
Y195514D03*
Y195022D03*
Y194530D03*
Y194038D03*
Y193546D03*
Y193054D03*
Y192562D03*
Y192069D03*
Y191577D03*
Y191085D03*
Y190593D03*
Y190101D03*
Y189609D03*
Y189117D03*
Y188625D03*
Y188132D03*
Y187640D03*
Y187148D03*
Y186656D03*
Y186164D03*
Y185672D03*
Y185180D03*
Y184688D03*
Y184195D03*
Y183703D03*
Y183211D03*
Y182719D03*
Y182227D03*
Y181735D03*
Y181243D03*
Y180750D03*
G54D79*Y180258D03*
G54D69*Y179766D03*
Y179274D03*
Y178290D03*
Y177798D03*
Y177306D03*
G54D79*Y176321D03*
G54D69*Y175337D03*
Y174845D03*
Y174353D03*
Y173861D03*
Y173369D03*
Y172876D03*
Y172384D03*
Y171892D03*
Y171400D03*
Y170908D03*
Y170416D03*
Y169924D03*
Y169432D03*
Y168939D03*
Y168447D03*
Y167955D03*
Y167463D03*
Y166971D03*
Y166479D03*
Y165987D03*
Y165495D03*
Y165002D03*
Y164510D03*
Y164018D03*
Y163526D03*
Y163034D03*
Y162542D03*
Y162050D03*
Y161558D03*
Y161065D03*
Y160573D03*
Y160081D03*
Y159589D03*
Y159097D03*
Y158605D03*
Y158113D03*
Y157621D03*
Y157128D03*
Y156636D03*
Y156144D03*
Y155652D03*
Y155160D03*
Y154668D03*
Y154176D03*
Y153684D03*
Y153191D03*
Y152699D03*
Y152207D03*
Y151715D03*
Y151223D03*
Y150731D03*
Y150239D03*
Y149747D03*
Y149254D03*
Y148762D03*
Y148270D03*
Y147778D03*
Y147286D03*
Y146794D03*
Y146302D03*
Y145810D03*
Y145317D03*
Y144825D03*
Y144333D03*
Y143841D03*
Y143349D03*
Y142857D03*
Y142365D03*
Y141873D03*
Y141380D03*
Y140888D03*
Y140396D03*
Y139904D03*
Y139412D03*
Y138920D03*
Y138428D03*
Y137936D03*
Y137443D03*
G54D79*Y136951D03*
G54D69*Y135967D03*
Y135475D03*
Y134983D03*
Y134491D03*
Y133999D03*
Y133506D03*
Y133014D03*
Y132522D03*
Y132030D03*
Y131538D03*
Y131046D03*
Y130554D03*
Y130062D03*
Y129569D03*
Y129077D03*
Y128585D03*
Y128093D03*
Y127601D03*
Y127109D03*
Y126617D03*
Y126125D03*
Y125632D03*
Y125140D03*
X81526Y205357D03*
Y202896D03*
Y202404D03*
Y201912D03*
Y201420D03*
Y200928D03*
Y200436D03*
Y199943D03*
Y199451D03*
Y198959D03*
Y198467D03*
Y197975D03*
Y197483D03*
Y196991D03*
Y196499D03*
Y196006D03*
Y195514D03*
Y195022D03*
Y194530D03*
Y194038D03*
Y193546D03*
Y193054D03*
Y192562D03*
Y192069D03*
Y191577D03*
Y191085D03*
Y190593D03*
Y190101D03*
Y189609D03*
Y189117D03*
Y188625D03*
Y188132D03*
Y187640D03*
Y187148D03*
Y186656D03*
Y186164D03*
Y185672D03*
Y185180D03*
Y184688D03*
Y184195D03*
Y183703D03*
Y183211D03*
Y182719D03*
Y182227D03*
Y181735D03*
Y181243D03*
G54D79*Y180258D03*
G54D69*Y179766D03*
Y179274D03*
Y178782D03*
Y178290D03*
Y177798D03*
Y177306D03*
Y176813D03*
Y176321D03*
Y175829D03*
Y175337D03*
Y174845D03*
Y174353D03*
Y173861D03*
Y173369D03*
Y172876D03*
Y172384D03*
Y171892D03*
Y171400D03*
Y170908D03*
Y170416D03*
Y169924D03*
Y169432D03*
Y168939D03*
Y168447D03*
Y167955D03*
Y167463D03*
Y166971D03*
Y166479D03*
Y165987D03*
Y165495D03*
Y165002D03*
Y164510D03*
Y164018D03*
Y163526D03*
Y163034D03*
Y162542D03*
Y162050D03*
Y161558D03*
Y161065D03*
Y160573D03*
Y160081D03*
Y159589D03*
Y159097D03*
Y158605D03*
Y158113D03*
Y157621D03*
Y157128D03*
Y156636D03*
Y156144D03*
Y155652D03*
Y155160D03*
Y154668D03*
Y154176D03*
Y153684D03*
Y153191D03*
Y152699D03*
Y152207D03*
Y151715D03*
Y151223D03*
Y150731D03*
Y150239D03*
Y149747D03*
Y149254D03*
Y148762D03*
Y148270D03*
Y147778D03*
Y147286D03*
Y146794D03*
Y146302D03*
Y145810D03*
Y145317D03*
Y144825D03*
Y144333D03*
Y143841D03*
Y143349D03*
Y142857D03*
Y142365D03*
Y141873D03*
Y141380D03*
Y140888D03*
Y140396D03*
Y139904D03*
Y139412D03*
Y138920D03*
Y138428D03*
Y137936D03*
Y137443D03*
Y136951D03*
Y136459D03*
Y135967D03*
Y135475D03*
Y134983D03*
Y134491D03*
Y133999D03*
Y133506D03*
Y133014D03*
Y132522D03*
Y132030D03*
Y131538D03*
Y131046D03*
Y130554D03*
Y130062D03*
Y129569D03*
Y129077D03*
Y128585D03*
Y128093D03*
Y127601D03*
Y127109D03*
Y126617D03*
Y126125D03*
Y125632D03*
Y125140D03*
G54D79*Y124648D03*
X81034Y205357D03*
G54D69*Y202896D03*
Y202404D03*
Y201912D03*
Y201420D03*
Y200928D03*
Y200436D03*
Y199943D03*
Y199451D03*
Y198959D03*
Y198467D03*
Y197975D03*
Y197483D03*
Y196991D03*
Y196499D03*
Y196006D03*
Y195514D03*
Y195022D03*
Y194530D03*
Y194038D03*
Y193546D03*
Y193054D03*
Y192562D03*
Y192069D03*
Y191577D03*
Y191085D03*
Y190593D03*
Y190101D03*
Y189609D03*
Y189117D03*
Y188625D03*
Y188132D03*
Y187640D03*
Y187148D03*
Y186656D03*
Y186164D03*
Y185672D03*
Y185180D03*
Y184688D03*
Y184195D03*
Y183703D03*
Y183211D03*
Y182719D03*
Y182227D03*
Y181735D03*
Y181243D03*
G54D79*Y180750D03*
G54D69*Y180258D03*
Y179766D03*
Y179274D03*
Y178782D03*
Y178290D03*
Y177798D03*
Y177306D03*
Y176813D03*
Y176321D03*
Y175829D03*
Y175337D03*
Y174845D03*
Y174353D03*
Y173861D03*
Y173369D03*
Y172876D03*
Y172384D03*
Y171892D03*
Y171400D03*
Y170908D03*
Y170416D03*
Y169924D03*
Y169432D03*
Y168939D03*
Y168447D03*
Y167955D03*
Y167463D03*
Y166971D03*
Y166479D03*
Y165987D03*
Y165495D03*
Y165002D03*
Y164510D03*
Y164018D03*
Y163526D03*
Y163034D03*
Y162542D03*
Y162050D03*
Y161558D03*
Y161065D03*
Y160573D03*
Y160081D03*
Y159589D03*
Y159097D03*
Y158605D03*
Y158113D03*
Y157621D03*
Y157128D03*
Y156636D03*
Y156144D03*
Y155652D03*
Y155160D03*
Y154668D03*
Y154176D03*
Y153684D03*
Y153191D03*
Y152699D03*
Y152207D03*
Y151715D03*
Y151223D03*
Y150731D03*
Y150239D03*
Y149747D03*
Y149254D03*
Y148762D03*
Y148270D03*
Y147778D03*
Y147286D03*
Y146794D03*
Y146302D03*
Y145810D03*
Y145317D03*
Y144825D03*
Y144333D03*
Y143841D03*
Y143349D03*
Y142857D03*
Y142365D03*
Y141873D03*
Y141380D03*
Y140888D03*
Y140396D03*
Y139904D03*
Y139412D03*
Y138920D03*
Y138428D03*
Y137936D03*
Y137443D03*
Y136951D03*
Y136459D03*
Y135967D03*
Y135475D03*
Y134983D03*
Y134491D03*
Y133999D03*
Y131538D03*
Y131046D03*
Y130554D03*
Y130062D03*
Y129569D03*
Y129077D03*
Y128585D03*
Y128093D03*
Y127601D03*
Y127109D03*
Y126617D03*
Y126125D03*
Y125632D03*
Y125140D03*
X80542Y202896D03*
Y202404D03*
Y201912D03*
Y201420D03*
Y200928D03*
Y200436D03*
Y199943D03*
Y199451D03*
Y198959D03*
Y198467D03*
Y197975D03*
Y197483D03*
Y196991D03*
Y196499D03*
Y196006D03*
Y195514D03*
Y195022D03*
Y194530D03*
Y194038D03*
Y193546D03*
Y193054D03*
Y192562D03*
Y192069D03*
Y191577D03*
Y191085D03*
Y190593D03*
Y190101D03*
Y189609D03*
Y189117D03*
Y188625D03*
Y188132D03*
Y187640D03*
Y187148D03*
Y186656D03*
Y186164D03*
Y185672D03*
Y185180D03*
Y184688D03*
Y184195D03*
Y183703D03*
Y183211D03*
Y182719D03*
Y182227D03*
Y181735D03*
Y181243D03*
Y180258D03*
Y179766D03*
Y179274D03*
Y178782D03*
Y178290D03*
Y177798D03*
Y177306D03*
Y176813D03*
Y176321D03*
Y175829D03*
Y175337D03*
Y174845D03*
Y174353D03*
Y173861D03*
Y173369D03*
Y172876D03*
Y172384D03*
Y171892D03*
Y171400D03*
Y170908D03*
Y170416D03*
Y169924D03*
Y169432D03*
Y168939D03*
Y168447D03*
Y167955D03*
Y167463D03*
Y166971D03*
Y166479D03*
Y165987D03*
Y165495D03*
Y165002D03*
Y164510D03*
Y164018D03*
Y163526D03*
Y163034D03*
Y162542D03*
Y162050D03*
Y161558D03*
Y161065D03*
Y160573D03*
Y160081D03*
Y159589D03*
Y159097D03*
Y158605D03*
Y158113D03*
Y157621D03*
Y157128D03*
Y156636D03*
Y156144D03*
Y155652D03*
Y155160D03*
Y154668D03*
Y154176D03*
Y153684D03*
Y153191D03*
Y152699D03*
Y152207D03*
Y151715D03*
Y151223D03*
Y150731D03*
Y150239D03*
Y149747D03*
Y149254D03*
Y148762D03*
Y148270D03*
Y147778D03*
Y147286D03*
Y146794D03*
Y146302D03*
Y145810D03*
Y145317D03*
Y144825D03*
Y144333D03*
Y143841D03*
Y143349D03*
Y142857D03*
Y142365D03*
Y141873D03*
Y141380D03*
Y140888D03*
Y140396D03*
Y139904D03*
Y139412D03*
Y138920D03*
Y138428D03*
Y137936D03*
Y137443D03*
Y136951D03*
Y136459D03*
Y135967D03*
Y135475D03*
Y134983D03*
Y134491D03*
Y131538D03*
Y131046D03*
Y130554D03*
Y130062D03*
Y129569D03*
Y129077D03*
Y128585D03*
Y128093D03*
Y127601D03*
Y127109D03*
Y126617D03*
Y126125D03*
Y125632D03*
Y125140D03*
X80050Y203388D03*
Y202896D03*
Y202404D03*
Y201912D03*
Y201420D03*
Y200928D03*
Y200436D03*
Y199943D03*
Y199451D03*
Y198959D03*
Y198467D03*
Y197975D03*
Y197483D03*
Y196991D03*
Y196499D03*
Y196006D03*
Y195514D03*
Y195022D03*
Y194530D03*
Y194038D03*
Y193546D03*
Y193054D03*
Y192562D03*
Y192069D03*
Y191577D03*
Y191085D03*
Y190593D03*
Y190101D03*
Y189609D03*
Y189117D03*
Y188625D03*
Y188132D03*
Y187640D03*
Y187148D03*
Y186656D03*
Y186164D03*
Y185672D03*
Y185180D03*
Y184688D03*
Y184195D03*
Y183703D03*
Y183211D03*
Y182719D03*
Y182227D03*
Y181735D03*
Y180258D03*
Y179766D03*
Y179274D03*
Y178782D03*
Y178290D03*
Y177798D03*
Y177306D03*
Y176813D03*
Y176321D03*
Y175829D03*
Y175337D03*
Y174845D03*
Y174353D03*
Y173861D03*
Y173369D03*
Y172876D03*
Y172384D03*
Y171892D03*
Y171400D03*
Y170908D03*
Y170416D03*
Y169924D03*
Y169432D03*
Y168939D03*
Y168447D03*
Y167955D03*
Y167463D03*
Y166971D03*
Y166479D03*
Y165987D03*
Y165495D03*
Y165002D03*
Y164510D03*
Y164018D03*
Y163526D03*
Y163034D03*
Y162542D03*
Y162050D03*
Y161558D03*
Y161065D03*
Y160573D03*
Y160081D03*
Y159589D03*
Y159097D03*
Y158605D03*
Y158113D03*
Y157621D03*
Y157128D03*
Y156144D03*
Y155652D03*
Y155160D03*
Y154668D03*
Y153684D03*
Y153191D03*
Y152699D03*
Y152207D03*
Y151715D03*
Y151223D03*
Y150731D03*
Y150239D03*
Y149747D03*
Y149254D03*
Y148762D03*
Y148270D03*
Y147778D03*
Y147286D03*
Y146794D03*
Y146302D03*
Y145810D03*
Y145317D03*
Y144825D03*
Y144333D03*
Y143841D03*
Y143349D03*
Y142857D03*
Y142365D03*
Y141873D03*
Y141380D03*
Y140888D03*
Y140396D03*
Y139904D03*
Y139412D03*
Y138920D03*
Y138428D03*
Y137936D03*
Y137443D03*
Y136951D03*
Y136459D03*
Y135967D03*
Y135475D03*
Y134983D03*
Y134491D03*
Y133999D03*
G54D79*Y131538D03*
G54D69*Y131046D03*
Y130554D03*
Y130062D03*
Y129569D03*
Y129077D03*
Y128585D03*
Y128093D03*
Y127601D03*
Y127109D03*
Y126617D03*
Y126125D03*
Y125632D03*
Y125140D03*
X79558Y203388D03*
Y202896D03*
Y202404D03*
Y201912D03*
Y201420D03*
Y200928D03*
Y200436D03*
Y199943D03*
Y199451D03*
Y198959D03*
Y198467D03*
Y197975D03*
Y197483D03*
Y196991D03*
Y196499D03*
Y196006D03*
Y195514D03*
Y195022D03*
Y194530D03*
Y194038D03*
Y193546D03*
Y193054D03*
Y192562D03*
Y192069D03*
Y191577D03*
Y191085D03*
Y190593D03*
Y190101D03*
Y189609D03*
Y189117D03*
Y188625D03*
Y188132D03*
Y187640D03*
Y187148D03*
Y186656D03*
Y186164D03*
Y185672D03*
Y185180D03*
Y184688D03*
Y184195D03*
Y183703D03*
Y183211D03*
Y182719D03*
Y182227D03*
Y181735D03*
Y180258D03*
Y179766D03*
Y179274D03*
Y178782D03*
Y178290D03*
Y177798D03*
Y177306D03*
Y176813D03*
Y176321D03*
Y175829D03*
Y175337D03*
Y174845D03*
Y174353D03*
Y173861D03*
Y173369D03*
Y172876D03*
Y172384D03*
Y171892D03*
Y171400D03*
Y170908D03*
Y170416D03*
Y169924D03*
Y169432D03*
Y168939D03*
Y168447D03*
Y167955D03*
Y167463D03*
Y166971D03*
Y166479D03*
Y165987D03*
Y165495D03*
Y165002D03*
Y164510D03*
Y164018D03*
Y163526D03*
Y163034D03*
Y162542D03*
Y162050D03*
Y161558D03*
Y161065D03*
Y160573D03*
Y160081D03*
Y159589D03*
Y159097D03*
Y158605D03*
Y158113D03*
Y157621D03*
Y157128D03*
G54D79*Y155652D03*
G54D69*Y155160D03*
Y153684D03*
Y153191D03*
Y152699D03*
Y152207D03*
Y151715D03*
Y151223D03*
Y150731D03*
Y150239D03*
Y149747D03*
Y149254D03*
Y148762D03*
Y148270D03*
Y147778D03*
Y147286D03*
Y146794D03*
Y146302D03*
Y145810D03*
Y145317D03*
Y144825D03*
Y144333D03*
Y143841D03*
Y143349D03*
Y142857D03*
Y142365D03*
Y141873D03*
Y141380D03*
Y140888D03*
Y140396D03*
Y139904D03*
Y139412D03*
Y138920D03*
Y138428D03*
Y137936D03*
Y137443D03*
Y136951D03*
Y136459D03*
Y135967D03*
Y135475D03*
Y134983D03*
Y134491D03*
Y133506D03*
G54D79*Y131538D03*
G54D69*Y131046D03*
Y130554D03*
Y130062D03*
Y129569D03*
Y129077D03*
Y128585D03*
Y128093D03*
Y127601D03*
Y127109D03*
Y126617D03*
Y126125D03*
Y125632D03*
Y125140D03*
X79065Y203388D03*
Y202896D03*
Y202404D03*
Y201912D03*
Y201420D03*
Y200928D03*
Y200436D03*
Y199943D03*
Y199451D03*
Y198959D03*
Y198467D03*
Y197975D03*
Y197483D03*
Y196991D03*
Y196499D03*
Y196006D03*
Y195514D03*
Y195022D03*
Y194530D03*
Y194038D03*
Y193546D03*
Y193054D03*
Y192562D03*
Y192069D03*
Y191577D03*
Y191085D03*
Y190593D03*
Y190101D03*
Y189609D03*
Y189117D03*
Y188625D03*
Y188132D03*
Y187640D03*
Y187148D03*
Y186656D03*
Y186164D03*
Y185672D03*
Y185180D03*
Y184688D03*
Y184195D03*
Y183703D03*
Y183211D03*
Y182719D03*
Y182227D03*
Y181735D03*
G54D79*Y181243D03*
G54D69*Y180750D03*
Y180258D03*
Y179766D03*
Y179274D03*
Y178782D03*
Y178290D03*
Y177798D03*
Y177306D03*
Y176813D03*
Y176321D03*
Y175829D03*
Y175337D03*
Y174845D03*
Y174353D03*
Y173861D03*
Y173369D03*
Y172876D03*
Y172384D03*
Y171892D03*
Y171400D03*
Y170908D03*
Y170416D03*
Y169924D03*
Y169432D03*
Y168939D03*
Y168447D03*
Y167955D03*
Y167463D03*
Y166971D03*
Y166479D03*
Y165987D03*
Y165495D03*
Y165002D03*
Y164510D03*
Y164018D03*
Y163526D03*
Y163034D03*
Y162542D03*
Y162050D03*
Y161558D03*
Y161065D03*
Y160573D03*
Y160081D03*
Y159589D03*
Y159097D03*
Y158605D03*
Y158113D03*
Y157621D03*
Y157128D03*
Y153684D03*
Y153191D03*
Y152699D03*
Y152207D03*
Y151715D03*
Y151223D03*
Y150731D03*
Y150239D03*
Y149747D03*
Y149254D03*
Y148762D03*
Y148270D03*
Y147778D03*
Y147286D03*
Y146794D03*
Y146302D03*
Y145810D03*
Y145317D03*
Y144825D03*
Y144333D03*
Y143841D03*
Y143349D03*
Y142857D03*
Y142365D03*
Y141873D03*
Y141380D03*
Y140888D03*
Y140396D03*
Y139904D03*
Y139412D03*
Y138920D03*
Y138428D03*
Y137936D03*
Y137443D03*
Y136951D03*
Y136459D03*
Y135967D03*
Y135475D03*
Y134983D03*
Y134491D03*
Y131046D03*
Y130554D03*
Y130062D03*
Y129569D03*
Y129077D03*
Y128585D03*
Y128093D03*
Y127601D03*
Y127109D03*
Y126617D03*
G54D79*Y126125D03*
G54D69*Y125632D03*
Y125140D03*
X78573Y203880D03*
Y203388D03*
Y202896D03*
Y202404D03*
Y201912D03*
Y201420D03*
Y200928D03*
Y200436D03*
Y199943D03*
Y199451D03*
Y198959D03*
Y198467D03*
Y197975D03*
Y197483D03*
Y196991D03*
Y196499D03*
Y196006D03*
Y195514D03*
Y195022D03*
Y194530D03*
Y194038D03*
Y193546D03*
Y193054D03*
Y192562D03*
Y192069D03*
Y191577D03*
Y191085D03*
Y190593D03*
Y190101D03*
Y189609D03*
Y189117D03*
Y188625D03*
Y188132D03*
Y187640D03*
Y187148D03*
Y186656D03*
Y186164D03*
Y185672D03*
Y185180D03*
Y184688D03*
Y184195D03*
Y183703D03*
Y183211D03*
Y182719D03*
Y182227D03*
Y181735D03*
Y181243D03*
Y180750D03*
Y180258D03*
Y179766D03*
Y179274D03*
Y178782D03*
Y178290D03*
Y177798D03*
Y177306D03*
Y176813D03*
Y176321D03*
Y175829D03*
Y175337D03*
Y174845D03*
Y174353D03*
Y173861D03*
Y173369D03*
Y172876D03*
Y172384D03*
Y171892D03*
Y171400D03*
Y170908D03*
Y170416D03*
Y169924D03*
Y169432D03*
Y168939D03*
Y168447D03*
Y167955D03*
Y167463D03*
Y166971D03*
Y166479D03*
Y165987D03*
Y165495D03*
Y165002D03*
Y164510D03*
Y164018D03*
Y163526D03*
Y163034D03*
Y162542D03*
Y162050D03*
Y161558D03*
Y161065D03*
Y160573D03*
Y160081D03*
Y159589D03*
Y159097D03*
Y158605D03*
Y158113D03*
Y157621D03*
G54D79*Y157128D03*
Y153684D03*
G54D69*Y152699D03*
Y151715D03*
Y151223D03*
Y150731D03*
Y150239D03*
Y149747D03*
Y149254D03*
Y148762D03*
Y148270D03*
Y147778D03*
Y147286D03*
Y146794D03*
Y146302D03*
Y145810D03*
Y145317D03*
Y144825D03*
Y144333D03*
Y143841D03*
Y143349D03*
Y142857D03*
Y142365D03*
Y141873D03*
Y141380D03*
Y140888D03*
Y140396D03*
Y139904D03*
Y139412D03*
Y138920D03*
Y138428D03*
Y137936D03*
Y137443D03*
Y136951D03*
Y136459D03*
Y135967D03*
Y135475D03*
Y134983D03*
G54D79*Y131538D03*
G54D69*Y131046D03*
G54D79*Y130554D03*
G54D69*Y129569D03*
Y129077D03*
Y128585D03*
Y128093D03*
Y127601D03*
Y127109D03*
Y125140D03*
G54D79*X78081Y203880D03*
G54D69*Y203388D03*
Y202896D03*
Y202404D03*
Y201912D03*
Y201420D03*
Y200928D03*
Y200436D03*
Y199943D03*
Y199451D03*
Y198959D03*
Y198467D03*
Y197975D03*
Y197483D03*
Y196991D03*
Y196499D03*
Y196006D03*
Y195514D03*
Y195022D03*
Y194530D03*
Y194038D03*
Y193546D03*
Y193054D03*
Y192562D03*
Y192069D03*
Y191577D03*
Y191085D03*
Y190593D03*
Y190101D03*
Y189609D03*
Y189117D03*
Y188625D03*
Y188132D03*
Y187640D03*
Y187148D03*
Y186656D03*
Y186164D03*
Y185672D03*
Y185180D03*
Y184688D03*
Y184195D03*
Y183703D03*
Y183211D03*
Y182719D03*
Y182227D03*
Y181735D03*
Y181243D03*
Y180750D03*
Y180258D03*
Y179766D03*
Y179274D03*
Y178782D03*
Y178290D03*
Y177798D03*
Y177306D03*
Y176813D03*
Y176321D03*
Y175829D03*
Y175337D03*
Y174845D03*
Y174353D03*
Y173861D03*
Y173369D03*
Y172876D03*
Y172384D03*
Y171892D03*
Y171400D03*
Y170908D03*
Y170416D03*
Y169924D03*
Y169432D03*
Y168939D03*
Y168447D03*
Y167955D03*
Y167463D03*
Y166971D03*
Y166479D03*
Y165987D03*
Y165495D03*
Y165002D03*
Y164510D03*
Y164018D03*
Y163526D03*
Y163034D03*
Y162542D03*
Y162050D03*
Y161558D03*
Y161065D03*
Y160573D03*
Y160081D03*
Y159589D03*
Y159097D03*
Y158605D03*
G54D79*Y157621D03*
G54D69*Y151715D03*
Y151223D03*
Y150731D03*
Y150239D03*
Y149747D03*
Y149254D03*
Y148762D03*
Y148270D03*
Y147778D03*
Y147286D03*
Y146794D03*
Y146302D03*
Y145810D03*
Y145317D03*
Y144825D03*
Y144333D03*
Y143841D03*
Y143349D03*
Y142857D03*
Y142365D03*
Y141873D03*
Y141380D03*
Y140888D03*
Y140396D03*
Y139904D03*
Y139412D03*
Y138920D03*
Y138428D03*
Y137936D03*
Y137443D03*
Y136951D03*
Y136459D03*
Y135967D03*
Y135475D03*
G54D79*Y134983D03*
G54D69*Y129569D03*
Y129077D03*
Y128585D03*
Y128093D03*
G54D79*Y127601D03*
G54D69*X77589Y203388D03*
Y202896D03*
Y202404D03*
Y201912D03*
Y201420D03*
Y200928D03*
Y200436D03*
Y199943D03*
Y199451D03*
Y198959D03*
Y198467D03*
Y197975D03*
Y197483D03*
Y196991D03*
Y196499D03*
Y196006D03*
Y195514D03*
Y195022D03*
Y194530D03*
Y194038D03*
Y193546D03*
Y193054D03*
Y192562D03*
Y192069D03*
Y191577D03*
Y191085D03*
Y190593D03*
Y190101D03*
Y189609D03*
Y189117D03*
Y188625D03*
Y188132D03*
Y187640D03*
Y187148D03*
Y186656D03*
Y186164D03*
Y185672D03*
Y185180D03*
Y184688D03*
Y184195D03*
Y183703D03*
Y183211D03*
Y182719D03*
Y182227D03*
Y181735D03*
Y181243D03*
Y180750D03*
Y180258D03*
Y179766D03*
Y179274D03*
Y178782D03*
Y178290D03*
Y177798D03*
Y177306D03*
Y176813D03*
Y176321D03*
Y175829D03*
Y175337D03*
Y174845D03*
Y174353D03*
Y173861D03*
Y173369D03*
Y172876D03*
Y172384D03*
Y171892D03*
Y171400D03*
Y170908D03*
Y170416D03*
Y169924D03*
Y169432D03*
Y168939D03*
Y168447D03*
Y167955D03*
Y167463D03*
Y166971D03*
Y166479D03*
Y165987D03*
Y165495D03*
Y165002D03*
Y164510D03*
Y164018D03*
Y163526D03*
Y163034D03*
Y162542D03*
Y162050D03*
Y161558D03*
Y161065D03*
Y160573D03*
Y160081D03*
Y159589D03*
Y159097D03*
Y158605D03*
Y158113D03*
Y157621D03*
Y151715D03*
Y151223D03*
Y150731D03*
Y150239D03*
Y149747D03*
Y149254D03*
Y148762D03*
Y148270D03*
Y147778D03*
Y147286D03*
Y146794D03*
Y146302D03*
Y145810D03*
Y145317D03*
Y144825D03*
Y144333D03*
Y143841D03*
Y143349D03*
Y142857D03*
Y142365D03*
Y141873D03*
Y141380D03*
Y140888D03*
Y140396D03*
Y139904D03*
Y139412D03*
Y138920D03*
Y137443D03*
Y136951D03*
Y136459D03*
Y135967D03*
G54D79*Y135475D03*
G54D69*Y129077D03*
Y128585D03*
Y128093D03*
X77097Y205849D03*
Y203388D03*
Y202896D03*
Y202404D03*
Y201912D03*
Y201420D03*
Y200928D03*
Y200436D03*
Y199943D03*
Y199451D03*
Y198959D03*
Y198467D03*
Y197975D03*
Y197483D03*
Y196991D03*
Y196499D03*
Y196006D03*
Y195514D03*
Y195022D03*
Y194530D03*
Y194038D03*
Y193546D03*
Y193054D03*
Y192562D03*
Y192069D03*
Y191577D03*
Y191085D03*
Y190593D03*
Y190101D03*
Y189609D03*
Y189117D03*
Y188625D03*
Y188132D03*
Y187640D03*
Y187148D03*
Y186656D03*
Y186164D03*
Y185672D03*
Y185180D03*
Y184688D03*
Y184195D03*
Y183703D03*
Y183211D03*
Y182719D03*
Y182227D03*
Y181735D03*
Y181243D03*
Y180750D03*
Y180258D03*
Y179766D03*
Y179274D03*
Y178782D03*
Y178290D03*
Y177798D03*
Y177306D03*
Y176813D03*
Y176321D03*
Y175829D03*
Y175337D03*
Y174845D03*
Y174353D03*
Y173861D03*
Y173369D03*
Y172876D03*
Y172384D03*
Y171892D03*
Y171400D03*
Y170908D03*
Y170416D03*
Y169924D03*
Y169432D03*
Y168939D03*
Y168447D03*
Y167955D03*
Y167463D03*
Y166971D03*
Y166479D03*
Y165987D03*
Y165495D03*
Y165002D03*
Y164510D03*
Y164018D03*
Y163526D03*
Y163034D03*
Y162542D03*
Y162050D03*
Y161558D03*
Y161065D03*
Y160573D03*
Y160081D03*
Y159589D03*
Y159097D03*
Y158605D03*
Y158113D03*
G54D79*Y157621D03*
Y151715D03*
Y150239D03*
G54D69*Y149747D03*
Y149254D03*
Y148762D03*
Y148270D03*
Y147778D03*
Y147286D03*
Y146794D03*
Y146302D03*
Y145810D03*
Y145317D03*
Y144825D03*
Y144333D03*
Y143841D03*
Y143349D03*
Y142857D03*
Y142365D03*
Y141873D03*
Y141380D03*
Y140888D03*
Y140396D03*
G54D79*Y139904D03*
G54D69*Y136459D03*
X76605Y206833D03*
Y206341D03*
Y203880D03*
Y203388D03*
Y202896D03*
Y202404D03*
Y201912D03*
Y201420D03*
Y200928D03*
Y200436D03*
Y199943D03*
Y199451D03*
Y198959D03*
Y198467D03*
Y197975D03*
Y197483D03*
Y196991D03*
Y196499D03*
Y196006D03*
Y195514D03*
Y195022D03*
Y194530D03*
Y194038D03*
Y193546D03*
Y193054D03*
Y192562D03*
Y192069D03*
Y191577D03*
Y191085D03*
Y190593D03*
Y190101D03*
Y189609D03*
Y189117D03*
Y188625D03*
Y188132D03*
Y187640D03*
Y187148D03*
Y186656D03*
Y186164D03*
Y185672D03*
Y185180D03*
Y184688D03*
Y184195D03*
Y183703D03*
Y183211D03*
Y182719D03*
Y182227D03*
Y181735D03*
Y181243D03*
Y180750D03*
Y180258D03*
Y179766D03*
Y179274D03*
Y178782D03*
Y178290D03*
Y177798D03*
Y177306D03*
Y176813D03*
Y176321D03*
Y175829D03*
Y175337D03*
Y174845D03*
Y174353D03*
Y173861D03*
Y173369D03*
Y172876D03*
Y172384D03*
Y171892D03*
Y171400D03*
Y170908D03*
Y170416D03*
Y169924D03*
Y169432D03*
Y168939D03*
Y168447D03*
Y167955D03*
Y167463D03*
Y166971D03*
Y166479D03*
Y165987D03*
Y165495D03*
Y165002D03*
Y164510D03*
Y164018D03*
Y163526D03*
Y163034D03*
Y162542D03*
Y162050D03*
Y161558D03*
Y161065D03*
Y160573D03*
Y160081D03*
Y159589D03*
Y159097D03*
Y158605D03*
Y158113D03*
Y149254D03*
Y148762D03*
Y148270D03*
Y147778D03*
Y147286D03*
Y146794D03*
Y146302D03*
Y145810D03*
Y145317D03*
Y144825D03*
Y144333D03*
Y143841D03*
Y143349D03*
Y142857D03*
Y142365D03*
Y141873D03*
Y141380D03*
Y140888D03*
Y136951D03*
X76113Y206833D03*
Y206341D03*
Y203880D03*
Y203388D03*
Y202896D03*
Y202404D03*
Y201912D03*
Y201420D03*
Y200928D03*
Y200436D03*
Y199943D03*
Y199451D03*
Y198959D03*
Y198467D03*
Y197975D03*
Y197483D03*
Y196991D03*
Y196499D03*
Y196006D03*
Y195514D03*
Y195022D03*
Y194530D03*
Y194038D03*
Y193546D03*
Y193054D03*
Y192562D03*
Y192069D03*
Y191577D03*
Y191085D03*
Y190593D03*
Y190101D03*
Y189609D03*
Y189117D03*
Y188625D03*
Y188132D03*
Y187640D03*
Y187148D03*
Y186656D03*
Y186164D03*
Y185672D03*
Y185180D03*
Y184688D03*
Y184195D03*
Y183703D03*
Y183211D03*
Y182719D03*
Y182227D03*
Y181735D03*
Y181243D03*
Y180750D03*
Y180258D03*
Y179766D03*
Y179274D03*
Y178782D03*
Y178290D03*
Y177798D03*
Y177306D03*
Y176813D03*
Y176321D03*
Y175829D03*
Y175337D03*
Y174845D03*
Y174353D03*
Y173861D03*
Y173369D03*
Y172876D03*
Y172384D03*
Y171892D03*
Y171400D03*
Y170908D03*
Y170416D03*
Y169924D03*
Y169432D03*
Y168939D03*
Y168447D03*
Y167955D03*
Y167463D03*
Y166971D03*
Y166479D03*
Y165987D03*
Y165495D03*
Y165002D03*
Y164510D03*
Y164018D03*
Y163526D03*
Y163034D03*
Y162542D03*
Y162050D03*
Y161558D03*
Y161065D03*
Y160573D03*
Y160081D03*
Y159589D03*
Y159097D03*
Y158605D03*
Y158113D03*
Y157621D03*
Y149254D03*
Y148762D03*
Y148270D03*
Y147778D03*
Y147286D03*
Y146794D03*
Y146302D03*
Y145810D03*
Y145317D03*
Y144825D03*
Y144333D03*
Y143841D03*
Y143349D03*
Y142857D03*
Y142365D03*
Y141873D03*
Y140888D03*
G54D79*Y137443D03*
G54D69*Y136951D03*
G54D79*Y136459D03*
G54D69*X75621Y206341D03*
Y203880D03*
Y203388D03*
Y202896D03*
Y202404D03*
Y201912D03*
Y201420D03*
Y200928D03*
Y200436D03*
Y199943D03*
Y199451D03*
Y198959D03*
Y198467D03*
Y197975D03*
Y197483D03*
Y196991D03*
Y196499D03*
Y196006D03*
Y195514D03*
Y195022D03*
Y194530D03*
Y194038D03*
Y193546D03*
Y193054D03*
Y192562D03*
Y192069D03*
Y191577D03*
Y191085D03*
Y190593D03*
Y190101D03*
Y189609D03*
Y189117D03*
Y188625D03*
Y188132D03*
Y187640D03*
Y187148D03*
Y186656D03*
Y186164D03*
Y185672D03*
Y185180D03*
Y184688D03*
Y184195D03*
Y183703D03*
Y183211D03*
Y182719D03*
Y182227D03*
Y181735D03*
Y181243D03*
Y180750D03*
Y180258D03*
Y179766D03*
Y179274D03*
Y178782D03*
Y178290D03*
Y177798D03*
Y177306D03*
Y176813D03*
Y176321D03*
Y175829D03*
Y175337D03*
Y174845D03*
Y174353D03*
Y173861D03*
Y173369D03*
Y172876D03*
Y172384D03*
Y171892D03*
Y171400D03*
Y170908D03*
Y170416D03*
Y169924D03*
Y169432D03*
Y168939D03*
Y168447D03*
Y167955D03*
Y167463D03*
Y166971D03*
Y166479D03*
Y165987D03*
Y165495D03*
Y165002D03*
Y164510D03*
Y164018D03*
Y163526D03*
Y163034D03*
Y162542D03*
Y162050D03*
Y161558D03*
Y161065D03*
Y160573D03*
Y160081D03*
Y159589D03*
Y159097D03*
Y158605D03*
Y158113D03*
Y147286D03*
Y146794D03*
Y146302D03*
Y145810D03*
Y145317D03*
Y144825D03*
Y144333D03*
Y143841D03*
Y143349D03*
Y142857D03*
Y142365D03*
X75128Y206341D03*
Y203880D03*
Y203388D03*
Y202896D03*
Y202404D03*
Y201912D03*
Y201420D03*
Y200928D03*
Y200436D03*
Y199943D03*
Y199451D03*
Y198959D03*
Y198467D03*
Y197975D03*
Y197483D03*
Y196991D03*
Y196499D03*
Y196006D03*
Y195514D03*
Y195022D03*
Y194530D03*
Y194038D03*
Y193546D03*
Y193054D03*
Y192562D03*
Y192069D03*
Y191577D03*
Y191085D03*
Y190593D03*
Y190101D03*
Y189609D03*
Y189117D03*
Y188625D03*
Y188132D03*
Y187640D03*
Y187148D03*
Y186656D03*
Y186164D03*
Y185672D03*
Y185180D03*
Y184688D03*
Y184195D03*
Y183703D03*
Y183211D03*
Y182719D03*
Y182227D03*
Y181735D03*
Y181243D03*
Y180750D03*
Y180258D03*
Y179766D03*
Y179274D03*
Y178782D03*
Y178290D03*
Y177798D03*
Y177306D03*
Y176813D03*
Y176321D03*
Y175829D03*
Y175337D03*
Y174845D03*
Y174353D03*
Y173861D03*
Y173369D03*
Y172876D03*
Y172384D03*
Y171892D03*
Y171400D03*
Y170908D03*
Y170416D03*
Y169924D03*
Y169432D03*
Y168939D03*
Y168447D03*
Y167955D03*
Y167463D03*
Y166971D03*
Y166479D03*
Y165987D03*
Y165495D03*
Y165002D03*
Y164510D03*
Y164018D03*
Y163526D03*
Y163034D03*
Y162542D03*
Y162050D03*
Y161558D03*
Y161065D03*
Y160573D03*
Y160081D03*
Y159589D03*
Y159097D03*
Y158605D03*
G54D79*Y147286D03*
Y144825D03*
G54D69*Y143349D03*
Y142857D03*
X74636Y206833D03*
Y206341D03*
Y203880D03*
Y203388D03*
Y202896D03*
Y202404D03*
Y201912D03*
Y201420D03*
Y200928D03*
Y200436D03*
Y199943D03*
Y199451D03*
Y198959D03*
Y198467D03*
Y197975D03*
Y197483D03*
Y196991D03*
Y196499D03*
Y196006D03*
Y195514D03*
Y195022D03*
Y194530D03*
Y194038D03*
Y193546D03*
Y193054D03*
Y192562D03*
Y192069D03*
Y191577D03*
Y191085D03*
Y190593D03*
Y190101D03*
Y189609D03*
Y189117D03*
Y188625D03*
Y188132D03*
Y187640D03*
Y187148D03*
Y186656D03*
Y186164D03*
Y185672D03*
Y185180D03*
Y184688D03*
Y184195D03*
Y183703D03*
Y183211D03*
Y182719D03*
Y182227D03*
Y181735D03*
Y181243D03*
Y180750D03*
Y180258D03*
Y179766D03*
Y179274D03*
Y178782D03*
Y178290D03*
Y177798D03*
Y177306D03*
Y176813D03*
Y176321D03*
Y175829D03*
Y175337D03*
Y174845D03*
Y174353D03*
Y173861D03*
Y173369D03*
Y172876D03*
Y172384D03*
Y171892D03*
Y171400D03*
Y170908D03*
Y170416D03*
Y169924D03*
Y169432D03*
Y168939D03*
Y168447D03*
Y167955D03*
Y167463D03*
Y166971D03*
Y166479D03*
Y165987D03*
Y165495D03*
Y165002D03*
Y164510D03*
Y164018D03*
Y163526D03*
Y163034D03*
Y162542D03*
Y162050D03*
Y161558D03*
Y161065D03*
Y160573D03*
Y160081D03*
Y159589D03*
Y159097D03*
Y158605D03*
G54D79*X74144Y203880D03*
G54D69*Y203388D03*
Y202896D03*
Y202404D03*
Y201912D03*
Y201420D03*
Y200928D03*
Y200436D03*
Y199943D03*
Y199451D03*
Y198959D03*
Y198467D03*
Y197975D03*
Y197483D03*
Y196991D03*
Y196499D03*
Y196006D03*
Y195514D03*
Y195022D03*
Y194530D03*
Y194038D03*
Y193546D03*
Y193054D03*
Y192562D03*
Y192069D03*
Y191577D03*
Y191085D03*
Y190593D03*
Y190101D03*
Y189609D03*
Y189117D03*
Y188625D03*
Y188132D03*
Y187640D03*
Y187148D03*
Y186656D03*
Y186164D03*
Y185672D03*
Y185180D03*
Y184688D03*
Y184195D03*
Y183703D03*
Y183211D03*
Y182719D03*
Y182227D03*
Y181735D03*
Y181243D03*
Y180750D03*
Y180258D03*
Y179766D03*
Y179274D03*
Y178782D03*
Y178290D03*
Y177798D03*
Y177306D03*
Y176813D03*
Y176321D03*
Y175829D03*
Y175337D03*
Y174845D03*
Y174353D03*
Y173861D03*
Y173369D03*
Y172876D03*
Y172384D03*
Y171892D03*
Y171400D03*
Y170908D03*
Y170416D03*
Y169924D03*
Y169432D03*
Y168939D03*
Y168447D03*
Y167955D03*
Y167463D03*
Y166971D03*
Y166479D03*
Y165987D03*
Y165495D03*
Y165002D03*
Y164510D03*
Y164018D03*
Y163526D03*
Y163034D03*
Y162542D03*
Y162050D03*
Y161558D03*
Y161065D03*
Y160573D03*
Y160081D03*
Y159589D03*
Y159097D03*
Y158605D03*
Y158113D03*
X73652Y203880D03*
Y203388D03*
Y202896D03*
Y202404D03*
Y201912D03*
Y201420D03*
Y200928D03*
Y200436D03*
Y199943D03*
Y199451D03*
Y198959D03*
Y198467D03*
Y197975D03*
Y197483D03*
Y196991D03*
Y196499D03*
Y196006D03*
Y195514D03*
Y195022D03*
Y194530D03*
Y194038D03*
Y193546D03*
Y193054D03*
Y192562D03*
Y192069D03*
Y191577D03*
Y191085D03*
Y190593D03*
Y190101D03*
Y189609D03*
Y189117D03*
Y188625D03*
Y188132D03*
Y187640D03*
Y187148D03*
Y186656D03*
Y186164D03*
Y185672D03*
Y185180D03*
Y184688D03*
Y184195D03*
Y183703D03*
Y183211D03*
Y182719D03*
Y182227D03*
Y181735D03*
Y181243D03*
Y180750D03*
Y180258D03*
Y179766D03*
Y179274D03*
Y178782D03*
Y178290D03*
Y177798D03*
Y177306D03*
Y176813D03*
Y176321D03*
Y175829D03*
Y175337D03*
Y174845D03*
Y174353D03*
Y173861D03*
Y173369D03*
Y172876D03*
Y172384D03*
Y171892D03*
Y171400D03*
Y170908D03*
Y170416D03*
Y169924D03*
Y169432D03*
Y168939D03*
Y168447D03*
Y167955D03*
Y167463D03*
Y166971D03*
Y166479D03*
Y165987D03*
Y165495D03*
Y165002D03*
Y164510D03*
Y164018D03*
Y163526D03*
Y163034D03*
Y162542D03*
Y162050D03*
Y161558D03*
Y161065D03*
Y160573D03*
Y160081D03*
Y159589D03*
Y159097D03*
Y158605D03*
Y158113D03*
X73160Y203388D03*
Y202896D03*
Y202404D03*
Y201912D03*
Y201420D03*
Y200928D03*
Y200436D03*
Y199943D03*
Y199451D03*
Y198959D03*
Y198467D03*
Y197975D03*
Y197483D03*
Y196991D03*
Y196499D03*
Y196006D03*
Y195514D03*
Y195022D03*
Y194530D03*
Y194038D03*
Y193546D03*
Y193054D03*
Y192562D03*
Y192069D03*
Y191577D03*
Y191085D03*
Y190593D03*
Y190101D03*
Y189609D03*
Y189117D03*
Y188625D03*
Y188132D03*
Y187640D03*
Y187148D03*
Y186656D03*
Y186164D03*
Y185672D03*
Y185180D03*
Y184688D03*
Y184195D03*
Y183703D03*
Y183211D03*
Y182719D03*
Y182227D03*
Y181735D03*
Y181243D03*
Y180750D03*
Y180258D03*
Y179766D03*
Y179274D03*
Y178782D03*
Y178290D03*
Y177798D03*
Y177306D03*
Y176813D03*
Y176321D03*
Y175829D03*
Y175337D03*
Y174845D03*
Y174353D03*
Y173861D03*
Y173369D03*
Y172876D03*
Y172384D03*
Y171892D03*
Y171400D03*
Y170908D03*
Y170416D03*
Y169924D03*
Y169432D03*
Y168939D03*
Y168447D03*
Y167955D03*
Y167463D03*
Y166971D03*
Y166479D03*
Y165987D03*
Y165495D03*
Y165002D03*
Y164510D03*
Y164018D03*
Y163526D03*
Y163034D03*
Y162542D03*
Y162050D03*
Y161558D03*
Y161065D03*
Y160573D03*
Y160081D03*
Y159589D03*
Y159097D03*
Y158605D03*
Y158113D03*
X72668Y203880D03*
Y203388D03*
Y202896D03*
Y202404D03*
Y201912D03*
Y201420D03*
Y200928D03*
Y200436D03*
Y199943D03*
Y199451D03*
Y198959D03*
Y198467D03*
Y197975D03*
Y197483D03*
Y196991D03*
Y196499D03*
Y196006D03*
Y195514D03*
Y195022D03*
Y194530D03*
Y194038D03*
Y193546D03*
Y193054D03*
Y192562D03*
Y192069D03*
Y191577D03*
Y191085D03*
Y190593D03*
Y190101D03*
Y189609D03*
Y189117D03*
Y188625D03*
Y188132D03*
Y187640D03*
Y187148D03*
Y186656D03*
Y186164D03*
Y185672D03*
Y185180D03*
Y184688D03*
Y184195D03*
Y183703D03*
Y183211D03*
Y182719D03*
Y182227D03*
Y181735D03*
Y181243D03*
Y180750D03*
Y180258D03*
Y179766D03*
Y179274D03*
Y178782D03*
Y178290D03*
Y177798D03*
Y177306D03*
Y176813D03*
Y176321D03*
Y175829D03*
Y175337D03*
Y174845D03*
Y174353D03*
Y173861D03*
Y173369D03*
Y172876D03*
Y172384D03*
Y171892D03*
Y171400D03*
Y170908D03*
Y170416D03*
Y169924D03*
Y169432D03*
Y168939D03*
Y168447D03*
Y167955D03*
Y167463D03*
Y166971D03*
Y166479D03*
Y165987D03*
Y165495D03*
Y165002D03*
Y164510D03*
Y164018D03*
Y163526D03*
Y163034D03*
Y162542D03*
Y162050D03*
Y161558D03*
Y161065D03*
Y160573D03*
Y160081D03*
Y159589D03*
Y159097D03*
Y158605D03*
Y158113D03*
Y157621D03*
G54D79*Y157128D03*
G54D69*X72176Y203880D03*
Y203388D03*
Y202896D03*
Y202404D03*
Y201912D03*
Y201420D03*
Y200928D03*
Y200436D03*
Y199943D03*
Y199451D03*
Y198959D03*
Y198467D03*
Y197975D03*
Y197483D03*
Y196991D03*
Y196499D03*
Y196006D03*
Y195514D03*
Y195022D03*
Y194530D03*
Y194038D03*
Y193546D03*
Y193054D03*
Y192562D03*
Y192069D03*
Y191577D03*
Y191085D03*
Y190593D03*
Y190101D03*
Y189609D03*
Y189117D03*
Y188625D03*
Y188132D03*
Y187640D03*
Y187148D03*
Y186656D03*
Y186164D03*
Y185672D03*
Y185180D03*
Y184688D03*
Y184195D03*
Y183703D03*
Y183211D03*
Y182719D03*
Y182227D03*
Y181735D03*
Y181243D03*
Y180750D03*
Y180258D03*
Y179766D03*
Y179274D03*
Y178782D03*
Y178290D03*
Y177798D03*
Y177306D03*
Y176813D03*
Y176321D03*
Y175829D03*
Y175337D03*
Y174845D03*
Y174353D03*
Y173861D03*
Y173369D03*
Y172876D03*
Y172384D03*
Y171892D03*
Y171400D03*
Y170908D03*
Y170416D03*
Y169924D03*
Y169432D03*
Y168939D03*
Y168447D03*
Y167955D03*
Y167463D03*
Y166971D03*
Y166479D03*
Y165987D03*
Y165495D03*
Y165002D03*
Y164510D03*
Y164018D03*
Y163526D03*
Y163034D03*
Y162542D03*
Y162050D03*
Y161558D03*
Y161065D03*
Y160573D03*
Y160081D03*
Y159589D03*
Y159097D03*
Y158605D03*
Y158113D03*
Y157621D03*
Y157128D03*
G54D79*X71684Y208310D03*
G54D69*Y203880D03*
Y203388D03*
Y202896D03*
Y202404D03*
Y201912D03*
Y201420D03*
Y200928D03*
Y200436D03*
Y199943D03*
Y199451D03*
Y198959D03*
Y198467D03*
Y197975D03*
Y197483D03*
Y196991D03*
Y196499D03*
Y196006D03*
Y195514D03*
Y195022D03*
Y194530D03*
Y194038D03*
Y193546D03*
Y193054D03*
Y192562D03*
Y192069D03*
Y191577D03*
Y191085D03*
Y190593D03*
Y190101D03*
Y189609D03*
Y189117D03*
Y188625D03*
Y188132D03*
Y187640D03*
Y187148D03*
Y186656D03*
Y186164D03*
Y185672D03*
Y185180D03*
Y184688D03*
Y184195D03*
Y183703D03*
Y183211D03*
Y182719D03*
Y182227D03*
Y181735D03*
Y181243D03*
Y180750D03*
Y180258D03*
Y179766D03*
Y179274D03*
Y178782D03*
Y178290D03*
Y177798D03*
Y177306D03*
Y176813D03*
Y176321D03*
Y175829D03*
Y175337D03*
Y174845D03*
Y174353D03*
Y173861D03*
Y173369D03*
Y172876D03*
Y172384D03*
Y171892D03*
Y171400D03*
Y170908D03*
Y170416D03*
Y169924D03*
Y169432D03*
Y168939D03*
Y168447D03*
Y167955D03*
Y167463D03*
Y166971D03*
Y166479D03*
Y165987D03*
Y165495D03*
Y165002D03*
Y164510D03*
Y164018D03*
Y163526D03*
Y163034D03*
Y162542D03*
Y162050D03*
Y161558D03*
Y161065D03*
Y160573D03*
Y160081D03*
Y159589D03*
Y159097D03*
Y158605D03*
Y158113D03*
Y157621D03*
X71191Y207817D03*
Y204373D03*
Y203880D03*
Y203388D03*
Y202896D03*
Y202404D03*
Y201912D03*
Y201420D03*
Y200928D03*
Y200436D03*
Y199943D03*
Y199451D03*
Y198959D03*
Y198467D03*
Y197975D03*
Y197483D03*
Y196991D03*
Y196499D03*
Y196006D03*
Y195514D03*
Y195022D03*
Y194530D03*
Y194038D03*
Y193546D03*
Y193054D03*
Y192562D03*
Y192069D03*
Y191577D03*
Y191085D03*
Y190593D03*
Y190101D03*
Y189609D03*
Y189117D03*
Y188625D03*
Y188132D03*
Y187640D03*
Y187148D03*
Y186656D03*
Y186164D03*
Y185672D03*
Y185180D03*
Y184688D03*
Y184195D03*
Y183703D03*
Y183211D03*
Y182719D03*
Y182227D03*
Y181735D03*
Y181243D03*
Y180750D03*
Y180258D03*
Y179766D03*
Y179274D03*
Y178782D03*
Y178290D03*
Y177798D03*
Y177306D03*
Y176813D03*
Y176321D03*
Y175829D03*
Y175337D03*
Y174845D03*
Y174353D03*
Y173861D03*
Y173369D03*
Y172876D03*
Y172384D03*
Y171892D03*
Y171400D03*
Y170908D03*
Y170416D03*
Y169924D03*
Y169432D03*
Y168939D03*
Y168447D03*
Y167955D03*
Y167463D03*
Y166971D03*
Y166479D03*
Y165987D03*
Y165495D03*
Y165002D03*
Y164510D03*
Y164018D03*
Y163526D03*
Y163034D03*
Y162542D03*
Y162050D03*
Y161558D03*
Y161065D03*
Y160573D03*
Y160081D03*
Y159589D03*
Y159097D03*
Y158605D03*
Y158113D03*
X70699Y204373D03*
Y203880D03*
Y203388D03*
Y202896D03*
Y202404D03*
Y201912D03*
Y201420D03*
Y200928D03*
Y200436D03*
Y199943D03*
Y199451D03*
Y198959D03*
Y198467D03*
Y197975D03*
Y197483D03*
Y196991D03*
Y196499D03*
Y196006D03*
Y195514D03*
Y195022D03*
Y194530D03*
Y194038D03*
Y193546D03*
Y193054D03*
Y192562D03*
Y192069D03*
Y191577D03*
Y191085D03*
Y190593D03*
Y190101D03*
Y189609D03*
Y189117D03*
Y188625D03*
Y188132D03*
Y187640D03*
Y187148D03*
Y186656D03*
Y186164D03*
Y185672D03*
Y185180D03*
Y184688D03*
Y184195D03*
Y183703D03*
Y183211D03*
Y182719D03*
Y182227D03*
Y181735D03*
Y181243D03*
Y180750D03*
Y180258D03*
Y179766D03*
Y179274D03*
Y178782D03*
Y178290D03*
Y177798D03*
Y177306D03*
Y176813D03*
Y176321D03*
Y175829D03*
Y175337D03*
Y174845D03*
Y174353D03*
Y173861D03*
Y173369D03*
Y172876D03*
Y172384D03*
Y171892D03*
Y171400D03*
Y170908D03*
Y170416D03*
Y169924D03*
Y169432D03*
Y168939D03*
Y168447D03*
Y167955D03*
Y167463D03*
Y166971D03*
Y166479D03*
Y165987D03*
Y165495D03*
Y165002D03*
Y164510D03*
Y164018D03*
Y163526D03*
Y163034D03*
Y162542D03*
Y162050D03*
Y161558D03*
Y161065D03*
Y160573D03*
Y160081D03*
Y159589D03*
Y159097D03*
Y158605D03*
Y158113D03*
X70207Y204373D03*
Y203880D03*
Y203388D03*
Y202896D03*
Y202404D03*
Y201912D03*
Y201420D03*
Y200928D03*
Y200436D03*
Y199943D03*
Y199451D03*
Y198959D03*
Y198467D03*
Y197975D03*
Y197483D03*
Y196991D03*
Y196499D03*
Y196006D03*
Y195514D03*
Y195022D03*
Y194530D03*
Y194038D03*
Y193546D03*
Y193054D03*
Y192562D03*
Y192069D03*
Y191577D03*
Y191085D03*
Y190593D03*
Y190101D03*
Y189609D03*
Y189117D03*
Y188625D03*
Y188132D03*
Y187640D03*
Y187148D03*
Y186656D03*
Y186164D03*
Y185672D03*
Y185180D03*
Y184688D03*
Y184195D03*
Y183703D03*
Y183211D03*
Y182719D03*
Y182227D03*
Y181735D03*
Y181243D03*
Y180750D03*
Y180258D03*
Y179766D03*
Y179274D03*
Y178782D03*
Y178290D03*
Y177798D03*
Y177306D03*
Y176813D03*
Y176321D03*
Y175829D03*
Y175337D03*
Y174845D03*
Y174353D03*
Y173861D03*
Y173369D03*
Y172876D03*
Y172384D03*
Y171892D03*
Y171400D03*
Y170908D03*
Y170416D03*
Y169924D03*
Y169432D03*
Y168939D03*
Y168447D03*
Y167955D03*
Y167463D03*
Y166971D03*
Y166479D03*
Y165987D03*
Y165495D03*
Y165002D03*
Y164510D03*
Y164018D03*
Y163526D03*
Y163034D03*
Y162542D03*
Y162050D03*
Y161558D03*
Y161065D03*
Y160573D03*
Y160081D03*
Y159589D03*
Y159097D03*
Y158605D03*
Y158113D03*
X69715Y204865D03*
Y204373D03*
Y203880D03*
Y203388D03*
Y202896D03*
Y202404D03*
Y201912D03*
Y201420D03*
Y200928D03*
Y200436D03*
Y199943D03*
Y199451D03*
Y198959D03*
Y198467D03*
Y197975D03*
Y197483D03*
Y196991D03*
Y196499D03*
Y196006D03*
Y195514D03*
Y195022D03*
Y194530D03*
Y194038D03*
Y193546D03*
Y193054D03*
Y192562D03*
Y192069D03*
Y191577D03*
Y191085D03*
Y190593D03*
Y190101D03*
Y189609D03*
Y189117D03*
Y188625D03*
Y188132D03*
Y187640D03*
Y187148D03*
Y186656D03*
Y186164D03*
Y185672D03*
Y185180D03*
Y184688D03*
Y184195D03*
Y183703D03*
Y183211D03*
Y182719D03*
Y182227D03*
Y181735D03*
Y181243D03*
Y180750D03*
Y180258D03*
Y179766D03*
Y179274D03*
Y178782D03*
Y178290D03*
Y177798D03*
Y177306D03*
Y176813D03*
Y176321D03*
Y175829D03*
Y175337D03*
Y174845D03*
Y174353D03*
Y173861D03*
Y173369D03*
Y172876D03*
Y172384D03*
Y171892D03*
Y171400D03*
Y170908D03*
Y170416D03*
Y169924D03*
Y169432D03*
Y168939D03*
Y168447D03*
Y167955D03*
Y167463D03*
Y166971D03*
Y166479D03*
Y165987D03*
Y165495D03*
Y165002D03*
Y164510D03*
Y164018D03*
Y163526D03*
Y163034D03*
Y162542D03*
Y162050D03*
Y161558D03*
Y161065D03*
Y160573D03*
Y160081D03*
Y159589D03*
Y159097D03*
Y158605D03*
G54D79*Y158113D03*
X69223Y208310D03*
G54D69*Y204373D03*
Y203880D03*
Y203388D03*
Y202896D03*
Y202404D03*
Y201912D03*
Y201420D03*
Y200928D03*
Y200436D03*
Y199943D03*
Y199451D03*
Y198959D03*
Y198467D03*
Y197975D03*
Y197483D03*
Y196991D03*
Y196499D03*
Y196006D03*
Y195514D03*
Y195022D03*
Y194530D03*
Y194038D03*
Y193546D03*
Y193054D03*
Y192562D03*
Y192069D03*
Y191577D03*
Y191085D03*
Y190593D03*
Y190101D03*
Y189609D03*
Y189117D03*
Y188625D03*
Y188132D03*
Y187640D03*
Y187148D03*
Y186656D03*
Y186164D03*
Y185672D03*
Y185180D03*
Y184688D03*
Y184195D03*
Y183703D03*
Y183211D03*
Y182719D03*
Y182227D03*
Y181735D03*
Y181243D03*
Y180750D03*
Y180258D03*
Y179766D03*
Y179274D03*
Y178782D03*
Y178290D03*
Y177798D03*
Y177306D03*
Y176813D03*
Y176321D03*
Y175829D03*
Y175337D03*
Y174845D03*
Y174353D03*
Y173861D03*
Y173369D03*
Y172876D03*
Y172384D03*
Y171892D03*
Y171400D03*
Y170908D03*
Y170416D03*
Y169924D03*
Y169432D03*
Y168939D03*
Y168447D03*
Y167955D03*
Y167463D03*
Y166971D03*
Y166479D03*
Y165987D03*
Y165495D03*
Y165002D03*
Y164510D03*
Y164018D03*
Y163526D03*
Y163034D03*
Y162542D03*
Y162050D03*
Y161558D03*
Y161065D03*
Y160573D03*
Y160081D03*
Y159589D03*
Y159097D03*
G54D79*X68731Y205357D03*
G54D69*Y204865D03*
Y204373D03*
Y203880D03*
Y203388D03*
Y202896D03*
Y202404D03*
Y201912D03*
Y201420D03*
Y200928D03*
Y200436D03*
Y199943D03*
Y199451D03*
Y198959D03*
Y198467D03*
Y197975D03*
Y197483D03*
Y196991D03*
Y196499D03*
Y196006D03*
Y195514D03*
Y195022D03*
Y194530D03*
Y194038D03*
Y193546D03*
Y193054D03*
Y192562D03*
Y192069D03*
Y191577D03*
Y191085D03*
Y190593D03*
Y190101D03*
Y189609D03*
Y189117D03*
Y188625D03*
Y188132D03*
Y187640D03*
Y187148D03*
Y186656D03*
Y186164D03*
Y185672D03*
Y185180D03*
Y184688D03*
Y184195D03*
Y183703D03*
Y183211D03*
Y182719D03*
Y182227D03*
Y181735D03*
Y181243D03*
Y180750D03*
Y180258D03*
Y179766D03*
Y179274D03*
Y178782D03*
Y178290D03*
Y177798D03*
Y177306D03*
Y176813D03*
Y176321D03*
Y175829D03*
Y175337D03*
Y174845D03*
Y174353D03*
Y173861D03*
Y173369D03*
Y172876D03*
Y172384D03*
Y171892D03*
Y171400D03*
Y170908D03*
Y170416D03*
Y169924D03*
Y169432D03*
Y168939D03*
Y168447D03*
Y167955D03*
Y167463D03*
Y166971D03*
Y166479D03*
Y165987D03*
Y165495D03*
Y165002D03*
Y164510D03*
Y164018D03*
Y163526D03*
Y163034D03*
Y162542D03*
Y162050D03*
Y161558D03*
Y161065D03*
Y160573D03*
Y160081D03*
Y159589D03*
Y159097D03*
G54D79*Y158605D03*
G54D69*X68239Y205357D03*
Y204865D03*
Y204373D03*
Y203880D03*
Y203388D03*
Y202896D03*
Y202404D03*
Y201912D03*
Y201420D03*
Y200928D03*
Y200436D03*
Y199943D03*
Y199451D03*
Y198959D03*
Y198467D03*
Y197975D03*
Y197483D03*
Y196991D03*
Y196499D03*
Y196006D03*
Y195514D03*
Y195022D03*
Y194530D03*
Y194038D03*
Y193546D03*
Y193054D03*
Y192562D03*
Y192069D03*
Y191577D03*
Y191085D03*
Y190593D03*
Y190101D03*
Y189609D03*
Y189117D03*
Y188625D03*
Y188132D03*
Y187640D03*
Y187148D03*
Y186656D03*
Y186164D03*
Y185672D03*
Y185180D03*
Y184688D03*
Y184195D03*
Y183703D03*
Y183211D03*
Y182719D03*
Y182227D03*
Y181735D03*
Y181243D03*
Y180750D03*
Y180258D03*
Y179766D03*
Y179274D03*
Y178782D03*
Y178290D03*
Y177798D03*
Y177306D03*
Y176813D03*
Y176321D03*
Y175829D03*
Y175337D03*
Y174845D03*
Y174353D03*
Y173861D03*
Y173369D03*
Y172876D03*
Y172384D03*
Y171892D03*
Y171400D03*
Y170908D03*
Y170416D03*
Y169924D03*
Y169432D03*
Y168939D03*
Y168447D03*
Y167955D03*
Y167463D03*
Y166971D03*
Y166479D03*
Y165987D03*
Y165495D03*
Y165002D03*
Y164510D03*
Y164018D03*
Y163526D03*
Y163034D03*
Y162542D03*
Y162050D03*
Y161558D03*
Y161065D03*
Y160573D03*
Y160081D03*
Y159589D03*
X67747Y205357D03*
Y204865D03*
Y204373D03*
Y203880D03*
Y203388D03*
Y202896D03*
Y202404D03*
Y201912D03*
Y201420D03*
Y200928D03*
Y200436D03*
Y199943D03*
Y199451D03*
Y198959D03*
Y198467D03*
Y197975D03*
Y197483D03*
Y196991D03*
Y196499D03*
Y196006D03*
Y195514D03*
Y195022D03*
Y194530D03*
Y194038D03*
Y193546D03*
Y193054D03*
Y192562D03*
Y192069D03*
Y191577D03*
Y191085D03*
Y190593D03*
Y190101D03*
Y189609D03*
Y189117D03*
Y188625D03*
Y188132D03*
Y187640D03*
Y187148D03*
Y186656D03*
Y186164D03*
Y185672D03*
Y185180D03*
Y184688D03*
Y184195D03*
Y183703D03*
Y183211D03*
Y182719D03*
Y182227D03*
Y181735D03*
Y181243D03*
Y180750D03*
Y180258D03*
Y179766D03*
Y179274D03*
Y178782D03*
Y178290D03*
Y177798D03*
Y177306D03*
Y176813D03*
Y176321D03*
Y175829D03*
Y175337D03*
Y174845D03*
Y174353D03*
Y173861D03*
Y173369D03*
Y172876D03*
Y172384D03*
Y171892D03*
Y171400D03*
Y170908D03*
Y170416D03*
Y169924D03*
Y169432D03*
Y168939D03*
Y168447D03*
Y167955D03*
Y167463D03*
Y166971D03*
Y166479D03*
Y165987D03*
Y165495D03*
Y165002D03*
Y164510D03*
Y164018D03*
Y163526D03*
Y163034D03*
Y162542D03*
Y162050D03*
Y161558D03*
Y161065D03*
Y160573D03*
Y160081D03*
Y159589D03*
Y159097D03*
X67254Y205849D03*
Y205357D03*
Y204865D03*
Y204373D03*
Y203880D03*
Y203388D03*
Y202896D03*
Y202404D03*
Y201912D03*
Y201420D03*
Y200928D03*
Y200436D03*
Y199943D03*
Y199451D03*
Y198959D03*
Y198467D03*
Y197975D03*
Y197483D03*
Y196991D03*
Y196499D03*
Y196006D03*
Y195514D03*
Y195022D03*
Y194530D03*
Y194038D03*
Y193546D03*
Y193054D03*
Y192562D03*
Y192069D03*
Y191577D03*
Y191085D03*
Y190593D03*
Y190101D03*
Y189609D03*
Y189117D03*
Y188625D03*
Y188132D03*
Y187640D03*
Y187148D03*
Y186656D03*
Y186164D03*
Y185672D03*
Y185180D03*
Y184688D03*
Y184195D03*
Y183703D03*
Y183211D03*
Y182719D03*
Y182227D03*
Y181735D03*
Y181243D03*
Y180750D03*
Y180258D03*
Y179766D03*
Y179274D03*
Y178782D03*
Y178290D03*
Y177798D03*
Y177306D03*
Y176813D03*
Y176321D03*
Y175829D03*
Y175337D03*
Y174845D03*
Y174353D03*
Y173861D03*
Y173369D03*
Y172876D03*
Y172384D03*
Y171892D03*
Y171400D03*
Y170908D03*
Y170416D03*
Y169924D03*
Y169432D03*
Y168939D03*
Y168447D03*
Y167955D03*
Y167463D03*
Y166971D03*
Y166479D03*
Y165987D03*
Y165495D03*
Y165002D03*
Y164510D03*
Y164018D03*
Y163526D03*
Y163034D03*
Y162542D03*
Y162050D03*
Y161558D03*
Y161065D03*
Y160573D03*
Y160081D03*
Y159589D03*
X66762Y205357D03*
Y204865D03*
Y204373D03*
Y203880D03*
Y203388D03*
Y202896D03*
Y202404D03*
Y201912D03*
Y201420D03*
Y200928D03*
Y200436D03*
Y199943D03*
Y199451D03*
Y198959D03*
Y198467D03*
Y197975D03*
Y197483D03*
Y196991D03*
Y196499D03*
Y196006D03*
Y195514D03*
Y195022D03*
Y194530D03*
Y194038D03*
Y193546D03*
Y193054D03*
Y192562D03*
Y192069D03*
Y191577D03*
Y191085D03*
Y190593D03*
Y190101D03*
Y189609D03*
Y189117D03*
Y188625D03*
Y188132D03*
Y187640D03*
Y187148D03*
Y186656D03*
Y186164D03*
Y185672D03*
Y185180D03*
Y184688D03*
Y184195D03*
Y183703D03*
Y183211D03*
Y182719D03*
Y182227D03*
Y181735D03*
Y181243D03*
Y180750D03*
Y180258D03*
Y179766D03*
Y179274D03*
Y178782D03*
Y178290D03*
Y177798D03*
Y177306D03*
Y176813D03*
Y176321D03*
Y175829D03*
Y175337D03*
Y174845D03*
Y174353D03*
Y173861D03*
Y173369D03*
Y172876D03*
Y172384D03*
Y171892D03*
Y171400D03*
Y170908D03*
Y170416D03*
Y169924D03*
Y169432D03*
Y168939D03*
Y168447D03*
Y167955D03*
Y167463D03*
Y166971D03*
Y166479D03*
Y165987D03*
Y165495D03*
Y165002D03*
Y164510D03*
Y164018D03*
Y163526D03*
Y163034D03*
Y162542D03*
Y162050D03*
Y161558D03*
Y161065D03*
Y160573D03*
Y160081D03*
Y159589D03*
X66270Y205357D03*
Y204865D03*
Y204373D03*
Y203880D03*
Y203388D03*
Y202896D03*
Y202404D03*
Y201912D03*
Y201420D03*
Y200928D03*
Y200436D03*
Y199943D03*
Y199451D03*
Y198959D03*
Y198467D03*
Y197975D03*
Y197483D03*
Y196991D03*
Y196499D03*
Y196006D03*
Y195514D03*
Y195022D03*
Y194530D03*
Y194038D03*
Y193546D03*
Y193054D03*
Y192562D03*
Y192069D03*
Y191577D03*
Y191085D03*
Y190593D03*
Y190101D03*
Y189609D03*
Y189117D03*
Y188625D03*
Y188132D03*
Y187640D03*
Y187148D03*
Y186656D03*
Y186164D03*
Y185672D03*
Y185180D03*
Y184688D03*
Y184195D03*
Y183703D03*
Y183211D03*
Y182719D03*
Y182227D03*
Y181735D03*
Y181243D03*
G54D79*Y180258D03*
G54D69*Y179274D03*
Y178782D03*
G54D79*Y176321D03*
G54D69*Y175829D03*
Y175337D03*
Y174845D03*
Y174353D03*
Y173861D03*
Y173369D03*
Y172876D03*
Y172384D03*
Y171892D03*
Y171400D03*
Y170908D03*
Y170416D03*
Y169924D03*
Y169432D03*
Y168939D03*
Y168447D03*
Y167955D03*
Y167463D03*
Y166971D03*
Y166479D03*
Y165987D03*
Y165495D03*
Y165002D03*
Y164510D03*
Y162542D03*
Y162050D03*
Y161558D03*
Y161065D03*
Y160573D03*
Y160081D03*
Y159589D03*
X65778Y205357D03*
Y204865D03*
Y204373D03*
Y203880D03*
Y203388D03*
Y202896D03*
Y202404D03*
Y201912D03*
Y201420D03*
Y200928D03*
Y200436D03*
Y199943D03*
Y199451D03*
Y198959D03*
Y198467D03*
Y197975D03*
Y197483D03*
Y196991D03*
Y196499D03*
Y196006D03*
Y195514D03*
Y195022D03*
Y194530D03*
Y194038D03*
Y193546D03*
Y193054D03*
Y192562D03*
Y192069D03*
Y191577D03*
Y191085D03*
Y190593D03*
Y190101D03*
Y189609D03*
Y189117D03*
Y188625D03*
Y188132D03*
Y187640D03*
Y187148D03*
Y186656D03*
Y186164D03*
Y185672D03*
Y185180D03*
Y184688D03*
Y184195D03*
Y183703D03*
Y183211D03*
Y182719D03*
Y182227D03*
Y181735D03*
Y181243D03*
Y179274D03*
Y175337D03*
Y174845D03*
Y174353D03*
Y173861D03*
Y173369D03*
Y172876D03*
Y172384D03*
Y171892D03*
Y171400D03*
Y170908D03*
Y170416D03*
Y169924D03*
Y169432D03*
Y168939D03*
Y168447D03*
Y167955D03*
Y167463D03*
Y166971D03*
Y166479D03*
Y165987D03*
Y165495D03*
Y165002D03*
G54D79*Y163034D03*
G54D69*Y162542D03*
Y162050D03*
Y161558D03*
Y161065D03*
Y160573D03*
Y160081D03*
Y159589D03*
G54D79*Y159097D03*
G54D69*X65286Y204865D03*
Y204373D03*
Y203880D03*
Y203388D03*
Y202896D03*
Y202404D03*
Y201912D03*
Y201420D03*
Y200928D03*
Y200436D03*
Y199943D03*
Y199451D03*
Y198959D03*
Y198467D03*
Y197975D03*
Y197483D03*
Y196991D03*
Y196499D03*
Y196006D03*
Y195514D03*
Y195022D03*
Y194530D03*
Y194038D03*
Y193546D03*
Y193054D03*
Y192562D03*
Y192069D03*
Y191577D03*
Y191085D03*
Y190593D03*
Y190101D03*
Y189609D03*
Y189117D03*
Y188625D03*
Y188132D03*
Y187640D03*
Y187148D03*
Y186656D03*
Y186164D03*
Y185672D03*
Y185180D03*
Y184688D03*
Y184195D03*
Y183703D03*
Y183211D03*
Y182719D03*
Y182227D03*
Y181735D03*
Y175337D03*
Y174845D03*
Y174353D03*
Y173861D03*
Y173369D03*
Y172876D03*
Y172384D03*
Y171892D03*
Y171400D03*
Y170908D03*
Y170416D03*
Y169924D03*
Y169432D03*
Y168939D03*
Y168447D03*
Y167955D03*
Y167463D03*
Y166971D03*
Y166479D03*
Y165987D03*
Y165495D03*
Y162542D03*
Y162050D03*
Y161558D03*
Y161065D03*
Y160573D03*
Y160081D03*
Y159589D03*
Y159097D03*
G54D79*X64794Y205357D03*
G54D69*Y204865D03*
Y204373D03*
Y203880D03*
Y203388D03*
Y202896D03*
Y202404D03*
Y201912D03*
Y201420D03*
Y200928D03*
Y200436D03*
Y199943D03*
Y199451D03*
Y198959D03*
Y198467D03*
Y197975D03*
Y197483D03*
Y196991D03*
Y196499D03*
Y196006D03*
Y195514D03*
Y195022D03*
Y194530D03*
Y194038D03*
Y193546D03*
Y193054D03*
Y192562D03*
Y192069D03*
Y191577D03*
Y191085D03*
Y190593D03*
Y190101D03*
Y189609D03*
Y189117D03*
Y188625D03*
Y188132D03*
Y187640D03*
Y187148D03*
Y186656D03*
Y186164D03*
Y185672D03*
Y185180D03*
Y184688D03*
Y184195D03*
Y183703D03*
Y183211D03*
Y182719D03*
Y182227D03*
Y181735D03*
Y175337D03*
Y174845D03*
Y174353D03*
Y173861D03*
Y173369D03*
Y172876D03*
Y172384D03*
Y171892D03*
Y171400D03*
Y170908D03*
Y170416D03*
Y169924D03*
Y169432D03*
Y168939D03*
Y168447D03*
Y167955D03*
Y167463D03*
Y166971D03*
Y166479D03*
Y165987D03*
G54D79*Y165495D03*
G54D69*Y162542D03*
Y162050D03*
Y161558D03*
Y161065D03*
Y160573D03*
Y160081D03*
Y159589D03*
G54D79*X64302Y204865D03*
G54D69*Y204373D03*
Y203880D03*
Y203388D03*
Y202896D03*
Y202404D03*
Y201912D03*
Y201420D03*
Y200928D03*
Y200436D03*
Y199943D03*
Y199451D03*
Y198959D03*
Y198467D03*
Y197975D03*
Y197483D03*
Y196991D03*
Y196499D03*
Y196006D03*
Y195514D03*
Y195022D03*
Y194530D03*
Y194038D03*
Y193546D03*
Y193054D03*
Y192562D03*
Y192069D03*
Y191577D03*
Y191085D03*
Y190593D03*
Y190101D03*
Y189609D03*
Y189117D03*
Y188625D03*
Y188132D03*
Y187640D03*
Y187148D03*
Y186656D03*
Y186164D03*
Y185672D03*
Y185180D03*
Y184688D03*
Y184195D03*
Y183703D03*
Y183211D03*
Y182719D03*
Y182227D03*
Y181735D03*
Y181243D03*
Y175337D03*
Y174845D03*
Y174353D03*
Y173861D03*
Y173369D03*
Y172876D03*
Y172384D03*
Y171892D03*
Y171400D03*
Y170908D03*
Y170416D03*
Y169924D03*
Y169432D03*
Y168939D03*
Y168447D03*
Y167955D03*
Y167463D03*
Y166971D03*
Y166479D03*
Y165987D03*
Y161558D03*
G54D79*Y161065D03*
G54D69*X63810Y203388D03*
Y202896D03*
Y202404D03*
Y201912D03*
Y201420D03*
Y200928D03*
Y200436D03*
Y199943D03*
Y199451D03*
Y198959D03*
Y198467D03*
Y197975D03*
Y197483D03*
Y196991D03*
Y196499D03*
Y196006D03*
Y195514D03*
Y195022D03*
Y194530D03*
Y194038D03*
Y193546D03*
Y193054D03*
Y192562D03*
Y192069D03*
Y191577D03*
Y191085D03*
Y190593D03*
Y190101D03*
Y189609D03*
Y189117D03*
Y188625D03*
Y188132D03*
Y187640D03*
Y187148D03*
Y186656D03*
Y186164D03*
Y185672D03*
Y185180D03*
Y184688D03*
Y184195D03*
Y183703D03*
Y183211D03*
Y182719D03*
Y182227D03*
Y181735D03*
Y181243D03*
Y175337D03*
Y174845D03*
Y174353D03*
Y173861D03*
Y173369D03*
Y172876D03*
Y172384D03*
Y171892D03*
Y171400D03*
Y170908D03*
Y170416D03*
Y169924D03*
Y169432D03*
Y168939D03*
Y168447D03*
Y167955D03*
Y167463D03*
Y166971D03*
Y166479D03*
Y165987D03*
G54D79*X63317Y202896D03*
G54D69*Y202404D03*
Y201912D03*
Y201420D03*
Y200928D03*
Y200436D03*
Y199943D03*
Y199451D03*
Y198959D03*
Y198467D03*
Y197975D03*
Y197483D03*
Y196991D03*
Y196499D03*
Y196006D03*
Y195514D03*
Y195022D03*
Y194530D03*
Y194038D03*
Y193546D03*
Y193054D03*
Y192562D03*
Y192069D03*
Y191577D03*
Y191085D03*
Y190593D03*
Y190101D03*
Y189609D03*
Y189117D03*
Y188625D03*
Y188132D03*
Y187640D03*
Y187148D03*
Y186656D03*
Y186164D03*
Y185672D03*
Y185180D03*
Y184688D03*
Y184195D03*
Y183703D03*
Y183211D03*
Y182719D03*
Y182227D03*
Y181735D03*
G54D79*Y181243D03*
G54D69*Y174845D03*
Y174353D03*
Y173861D03*
Y173369D03*
Y172876D03*
Y172384D03*
Y171892D03*
Y171400D03*
Y170908D03*
Y170416D03*
Y169924D03*
Y169432D03*
Y168939D03*
Y168447D03*
Y167955D03*
Y167463D03*
Y166971D03*
G54D79*X62825Y202404D03*
G54D69*Y201912D03*
Y201420D03*
Y200928D03*
Y200436D03*
Y199943D03*
Y199451D03*
Y198959D03*
Y198467D03*
Y197975D03*
Y197483D03*
Y196991D03*
Y196499D03*
Y196006D03*
Y195514D03*
Y195022D03*
Y194530D03*
Y194038D03*
Y193546D03*
Y193054D03*
Y192562D03*
Y192069D03*
Y191577D03*
Y191085D03*
Y190593D03*
Y190101D03*
Y189609D03*
Y189117D03*
Y188625D03*
Y188132D03*
Y187640D03*
Y187148D03*
Y186656D03*
Y186164D03*
Y185672D03*
Y185180D03*
Y184688D03*
Y184195D03*
Y183703D03*
Y183211D03*
Y182719D03*
Y182227D03*
Y181735D03*
G54D79*Y181243D03*
Y175337D03*
G54D69*Y174845D03*
Y174353D03*
Y173861D03*
Y173369D03*
Y172876D03*
Y172384D03*
Y171892D03*
Y171400D03*
Y170908D03*
Y170416D03*
Y169924D03*
Y169432D03*
Y168939D03*
Y168447D03*
Y167955D03*
Y167463D03*
G54D79*Y166971D03*
G54D69*X62333Y200928D03*
Y200436D03*
Y199943D03*
Y199451D03*
Y198959D03*
Y198467D03*
Y197975D03*
Y197483D03*
Y196991D03*
Y196499D03*
Y196006D03*
Y195514D03*
Y195022D03*
Y194530D03*
Y194038D03*
Y193546D03*
Y193054D03*
Y192562D03*
Y192069D03*
Y191577D03*
Y191085D03*
Y190593D03*
Y190101D03*
Y189609D03*
Y189117D03*
Y188625D03*
Y188132D03*
Y187640D03*
Y187148D03*
Y186656D03*
Y186164D03*
Y185672D03*
Y185180D03*
Y184688D03*
Y184195D03*
Y183703D03*
Y183211D03*
Y182719D03*
Y182227D03*
Y181735D03*
Y181243D03*
Y174845D03*
Y174353D03*
Y173861D03*
Y173369D03*
Y172876D03*
Y172384D03*
Y171892D03*
Y171400D03*
Y170908D03*
Y170416D03*
Y169924D03*
Y169432D03*
Y168939D03*
Y168447D03*
Y167955D03*
X61841Y201420D03*
Y200928D03*
Y200436D03*
Y199943D03*
Y199451D03*
Y198959D03*
Y198467D03*
Y197975D03*
Y197483D03*
Y196991D03*
Y196499D03*
Y196006D03*
Y195514D03*
Y195022D03*
Y194530D03*
Y194038D03*
Y193546D03*
Y193054D03*
Y192562D03*
Y192069D03*
Y191577D03*
Y191085D03*
Y190593D03*
Y190101D03*
Y189609D03*
Y189117D03*
Y188625D03*
Y188132D03*
Y187640D03*
Y187148D03*
Y186656D03*
Y186164D03*
Y185672D03*
Y185180D03*
Y184688D03*
Y184195D03*
Y183703D03*
Y183211D03*
Y182719D03*
Y182227D03*
Y181735D03*
Y175337D03*
Y174845D03*
Y174353D03*
Y173861D03*
Y173369D03*
Y172876D03*
Y172384D03*
Y171892D03*
Y171400D03*
Y170908D03*
Y170416D03*
Y169924D03*
Y169432D03*
Y168939D03*
Y168447D03*
Y167955D03*
Y167463D03*
X61349Y200928D03*
Y200436D03*
Y199943D03*
Y199451D03*
Y198959D03*
Y198467D03*
Y197975D03*
Y197483D03*
Y196991D03*
Y196499D03*
Y196006D03*
Y195514D03*
Y195022D03*
Y194530D03*
Y194038D03*
Y193546D03*
Y193054D03*
Y192562D03*
Y192069D03*
Y191577D03*
Y191085D03*
Y190593D03*
Y190101D03*
Y189609D03*
Y189117D03*
Y188625D03*
Y188132D03*
Y187640D03*
Y187148D03*
Y186656D03*
Y186164D03*
Y185672D03*
Y185180D03*
Y184688D03*
Y184195D03*
Y183703D03*
Y183211D03*
Y182719D03*
Y182227D03*
Y181735D03*
Y181243D03*
Y175337D03*
Y174845D03*
Y174353D03*
Y173861D03*
Y173369D03*
Y172876D03*
Y172384D03*
Y171892D03*
Y171400D03*
Y170908D03*
Y170416D03*
Y169924D03*
Y169432D03*
Y168939D03*
Y168447D03*
G54D79*Y167955D03*
G54D69*X60857Y200436D03*
Y199943D03*
Y199451D03*
Y198959D03*
Y198467D03*
Y197975D03*
Y197483D03*
Y196991D03*
Y196499D03*
Y196006D03*
Y195514D03*
Y195022D03*
Y194530D03*
Y194038D03*
Y193546D03*
Y193054D03*
Y192562D03*
Y192069D03*
Y191577D03*
Y191085D03*
Y190593D03*
Y190101D03*
Y189609D03*
Y189117D03*
Y188625D03*
Y188132D03*
Y187640D03*
Y187148D03*
Y186656D03*
Y186164D03*
Y185672D03*
Y185180D03*
Y184688D03*
Y184195D03*
Y183703D03*
Y183211D03*
Y182719D03*
Y182227D03*
Y181735D03*
Y181243D03*
G54D79*Y175337D03*
G54D69*Y174353D03*
Y173861D03*
Y173369D03*
Y172876D03*
Y172384D03*
Y171892D03*
Y171400D03*
Y170908D03*
Y170416D03*
Y169924D03*
Y169432D03*
X60365Y200928D03*
Y200436D03*
Y199943D03*
Y199451D03*
Y198959D03*
Y198467D03*
Y197975D03*
Y197483D03*
Y196991D03*
Y196499D03*
Y196006D03*
Y195514D03*
Y195022D03*
Y194530D03*
Y194038D03*
Y193546D03*
Y193054D03*
Y192562D03*
Y192069D03*
Y191577D03*
Y191085D03*
Y190593D03*
Y190101D03*
Y189609D03*
Y189117D03*
Y188625D03*
Y188132D03*
Y187640D03*
Y187148D03*
Y186656D03*
Y186164D03*
Y185672D03*
Y185180D03*
Y184688D03*
Y184195D03*
Y183703D03*
Y183211D03*
Y182719D03*
Y182227D03*
Y181735D03*
Y181243D03*
Y173861D03*
Y173369D03*
Y172876D03*
Y172384D03*
Y171892D03*
Y171400D03*
Y170908D03*
Y169924D03*
Y169432D03*
X59873Y200436D03*
Y199451D03*
Y198959D03*
Y198467D03*
Y197975D03*
Y197483D03*
Y196991D03*
Y196499D03*
Y196006D03*
Y195514D03*
Y195022D03*
Y194530D03*
Y194038D03*
Y193546D03*
Y193054D03*
Y192562D03*
Y192069D03*
Y191577D03*
Y191085D03*
Y190593D03*
Y190101D03*
Y189609D03*
Y189117D03*
Y188625D03*
Y188132D03*
Y187640D03*
Y187148D03*
Y186164D03*
Y173861D03*
Y173369D03*
Y172876D03*
G54D79*Y169924D03*
G54D69*X59380Y199451D03*
Y198959D03*
Y198467D03*
Y197975D03*
Y197483D03*
Y196991D03*
Y196499D03*
Y196006D03*
Y195514D03*
Y195022D03*
Y194530D03*
Y194038D03*
Y193546D03*
Y193054D03*
Y192562D03*
Y192069D03*
Y191577D03*
Y191085D03*
Y190593D03*
Y190101D03*
Y189609D03*
Y189117D03*
Y188625D03*
Y188132D03*
X58888Y198959D03*
Y198467D03*
Y197975D03*
Y197483D03*
Y196991D03*
Y196499D03*
Y196006D03*
Y195514D03*
Y195022D03*
Y194530D03*
Y194038D03*
Y193546D03*
Y193054D03*
Y192562D03*
Y192069D03*
Y191577D03*
Y191085D03*
Y190593D03*
Y190101D03*
Y189609D03*
Y189117D03*
G54D79*X58396Y199451D03*
G54D69*Y198959D03*
Y198467D03*
Y197975D03*
Y197483D03*
Y196991D03*
Y196006D03*
Y195514D03*
Y195022D03*
Y194530D03*
Y194038D03*
Y193546D03*
Y193054D03*
Y192562D03*
Y192069D03*
Y191577D03*
Y191085D03*
Y190101D03*
G54D79*X57904Y198959D03*
G54D69*Y197975D03*
Y197483D03*
G54D79*Y195022D03*
Y194038D03*
G54D69*Y192562D03*
Y192069D03*
G54D79*Y191577D03*
M02*
