G04 start of page 2 for group 0 idx 0 *
G04 Title: AJ.001.00.01.01, top *
G04 Creator: pcb 4.1.2 *
G04 CreationDate: Fri Sep  7 21:25:06 2018 UTC *
G04 For: bert *
G04 Format: Gerber/RS-274X *
G04 PCB-Dimensions (mil): 3200.00 2500.00 *
G04 PCB-Coordinate-Origin: lower left *
%MOIN*%
%FSLAX25Y25*%
%LNGTL*%
%ADD24C,0.0354*%
%ADD23C,0.0709*%
%ADD22C,0.0280*%
%ADD21C,0.0380*%
%ADD20C,0.1260*%
%ADD19C,0.0200*%
%ADD18C,0.0360*%
%ADD17C,0.0160*%
%ADD16C,0.1102*%
%ADD15C,0.0600*%
%ADD14C,0.0001*%
%ADD13C,0.0040*%
%ADD12C,0.0100*%
%ADD11C,0.0250*%
G54D11*X267717Y159843D02*X298425D01*
G54D12*X159449Y161417D02*X248031D01*
X267717Y159843D02*X249606D01*
X248031Y161417D01*
G54D11*X298425Y142126D02*X267717D01*
X240000Y130000D02*Y145000D01*
X230000Y130000D02*Y145000D01*
X220000Y130000D02*Y145000D01*
X210000Y130000D02*Y145000D01*
X200000Y130000D02*Y145000D01*
X190000Y130000D02*Y145000D01*
X236220Y167323D02*Y179134D01*
G54D12*X248031D02*Y183071D01*
X246063Y185039D01*
X248031Y161417D02*Y167323D01*
X298425Y159843D02*Y154331D01*
X299213Y153543D01*
X301181D01*
X303150Y151575D01*
Y131890D01*
X301181Y129921D01*
X289370D01*
G54D11*X180000Y130000D02*Y145000D01*
X170000Y130000D02*Y145000D01*
X160000Y130000D02*X155000Y145000D01*
X150000Y130000D02*X145000Y145000D01*
X226378Y173228D02*X236220D01*
G54D12*X246063Y185039D02*X159449D01*
X157480Y183071D01*
Y179134D01*
X169291Y173228D02*X153543D01*
X152559Y172244D01*
G54D11*X169291Y179134D02*Y167323D01*
X177165Y173228D02*X169291D01*
G54D12*X157480Y167323D02*Y163386D01*
X159449Y161417D01*
X152559Y172244D02*Y163386D01*
X155512Y160433D01*
Y155512D01*
X157480Y179134D02*X147638D01*
X145669Y177165D01*
Y155512D01*
G54D11*X195000Y40000D02*X205000D01*
X95000Y53652D02*X128652D01*
X185000Y40000D02*Y45000D01*
X182500Y47500D01*
X145000D01*
X131890Y167323D02*Y157480D01*
X125984Y167323D02*X120079D01*
G54D12*Y157480D02*X107480D01*
X105906Y155906D01*
X110236Y165354D02*X111024Y166142D01*
X120079Y147638D02*Y141732D01*
X105906Y147638D02*Y151181D01*
Y152362D02*X100394D01*
G54D11*X104331Y137795D02*X98228D01*
G54D12*X110827Y152559D02*Y147441D01*
X105906Y155906D02*Y151181D01*
X95472Y169291D02*Y175984D01*
X103150Y171850D02*X100591Y169291D01*
X95472D01*
X105906Y175984D02*Y169291D01*
X103150Y175984D02*Y171850D01*
X98031Y175984D02*Y180709D01*
X99409Y182087D01*
X111024Y166142D02*Y175984D01*
X99409Y182087D02*X107283D01*
X108268Y183071D01*
X103346Y185039D02*X95079D01*
G54D11*X44882Y141339D02*X47638Y125591D01*
X59055Y124016D02*Y151575D01*
X72835Y149606D02*Y122047D01*
X74803Y120079D01*
X68898Y96457D02*Y136811D01*
X65945Y139764D01*
X59055Y151575D02*X61024Y153543D01*
X68898D01*
X72835Y149606D01*
X63386Y162598D02*X39764D01*
X78740Y137795D02*Y127953D01*
G54D12*X92913Y147244D02*Y152362D01*
G54D11*X55118Y94488D02*Y108268D01*
X95669Y96457D02*X68898D01*
X64961Y92520D01*
X58268Y62598D02*X69291Y43701D01*
X93701Y53150D01*
X78740Y90551D02*X81102Y62205D01*
X58268Y62598D02*X46063Y90945D01*
X74803Y120079D02*X88583D01*
X145000Y47500D02*X140000Y52500D01*
Y72500D01*
X93701Y64961D02*X110236Y75591D01*
X95669Y96457D02*X110236Y75591D01*
X120000Y53652D02*Y95000D01*
X129921Y75591D02*X140000Y100000D01*
Y72500D02*X137500Y75000D01*
X129678D01*
X95669Y108268D02*X82677Y111024D01*
X140000Y100000D02*X150000D01*
G54D12*X106299Y96457D02*X119921D01*
X120000Y96378D01*
G54D11*X101476Y127953D02*X90551D01*
X84646D02*X78740D01*
X88583Y120079D02*X90551Y122047D01*
Y137795D02*Y122047D01*
X39764Y197638D02*X63386D01*
X39764Y228740D02*X70472D01*
X39764Y211024D02*X70472D01*
G54D12*X70866Y218504D02*Y211024D01*
G54D11*X39764Y197638D02*Y162933D01*
X63402Y162598D02*Y176598D01*
G54D12*X71654Y183071D02*X68504Y186220D01*
X65157D01*
Y180118D02*X69094D01*
X69882Y179331D01*
Y166339D01*
X70866Y165354D01*
G54D11*X108466Y218504D02*Y188976D01*
X90551Y208661D02*X100196D01*
X90551Y218504D02*X100196D01*
G54D12*X122047D02*X108466D01*
X87598Y193898D02*X103346D01*
X104331Y192913D01*
Y186024D01*
X120079Y183071D02*Y177165D01*
X84646Y186024D02*Y217520D01*
X83661Y218504D01*
X78740D01*
X86614Y222441D02*Y194882D01*
X87598Y193898D01*
X78740Y208661D02*X75787D01*
X74803Y209646D01*
Y222441D01*
X75787Y223425D01*
X85630D01*
X86614Y222441D01*
X72835Y198819D02*X78740D01*
X72835Y188976D02*X78740D01*
X85236Y169291D02*Y175984D01*
X70866Y165354D02*X110236D01*
X87598Y182087D02*X84646Y186024D01*
G54D11*X90551Y198819D02*X100196D01*
X90551Y188976D02*X100196D01*
G54D12*X108268Y183071D02*Y188580D01*
X104331Y186024D02*X103346Y185039D01*
X95079D02*X93110Y183071D01*
X82677D02*X71654D01*
X82677Y175984D02*X85236D01*
X90354D02*Y180709D01*
X88976Y182087D01*
X87598D01*
X93110Y183071D02*Y175984D01*
G54D13*X10000Y18200D02*X10800Y19000D01*
Y15000D01*
X10000D02*X11500D01*
G54D14*G36*
X287000Y133000D02*Y127000D01*
X293000D01*
Y133000D01*
X287000D01*
G37*
G54D15*X290000Y120000D03*
Y110000D03*
Y100000D03*
G54D14*G36*
X237000Y158000D02*Y152000D01*
X243000D01*
Y158000D01*
X237000D01*
G37*
G54D15*X240000Y75000D03*
X250000D03*
X260000D03*
X270000D03*
G54D14*G36*
X277000Y103000D02*Y97000D01*
X283000D01*
Y103000D01*
X277000D01*
G37*
G54D15*X280000Y110000D03*
X165000Y40000D03*
X175000D03*
X185000D03*
X195000D03*
X205000D03*
X215000D03*
G54D14*G36*
X232000Y43000D02*Y37000D01*
X238000D01*
Y43000D01*
X232000D01*
G37*
G54D15*X245000Y40000D03*
X255000D03*
X265000D03*
X275000D03*
X285000D03*
G54D14*G36*
X212000Y233000D02*Y227000D01*
X218000D01*
Y233000D01*
X212000D01*
G37*
G54D15*X225000Y230000D03*
X235000D03*
X245000D03*
X255000D03*
X265000D03*
X275000D03*
X285000D03*
X230000Y145000D03*
X220000D03*
X210000D03*
X200000D03*
X190000D03*
X220000Y155000D03*
X210000D03*
X200000D03*
X190000D03*
G54D14*G36*
X197000Y88000D02*Y82000D01*
X203000D01*
Y88000D01*
X197000D01*
G37*
G54D15*X210000Y85000D03*
X190000Y100000D03*
X200000D03*
X210000D03*
X220000Y85000D03*
Y100000D03*
G54D14*G36*
X237000Y148000D02*Y142000D01*
X243000D01*
Y148000D01*
X237000D01*
G37*
G54D15*X240000Y130000D03*
X230000D03*
X220000D03*
X210000D03*
Y75000D03*
X220000D03*
X200000Y130000D03*
X190000D03*
X170000D03*
X180000Y155000D03*
X170000D03*
Y75000D03*
X180000D03*
G54D14*G36*
X197000Y78000D02*Y72000D01*
X203000D01*
Y78000D01*
X197000D01*
G37*
G54D15*X270000Y130000D03*
X260000D03*
X250000D03*
X230000Y85000D03*
Y100000D03*
X240000D03*
X230000Y75000D03*
X240000Y85000D03*
X250000D03*
X260000D03*
X270000D03*
X230000Y155000D03*
X250000Y100000D03*
X260000D03*
X270000D03*
G54D14*G36*
X75531Y68012D02*Y56988D01*
X86555D01*
Y68012D01*
X75531D01*
G37*
G36*
X106000Y233000D02*Y227000D01*
X112000D01*
Y233000D01*
X106000D01*
G37*
G54D15*X119000Y230000D03*
X129000D03*
X139000D03*
X149000D03*
X159000D03*
X169000D03*
X179000D03*
X189000D03*
X199000D03*
G54D14*G36*
X142000Y43000D02*Y37000D01*
X148000D01*
Y43000D01*
X142000D01*
G37*
G54D15*X155000Y40000D03*
G54D16*X58209Y62500D03*
X69232Y43602D03*
G54D14*G36*
X147000Y88000D02*Y82000D01*
X153000D01*
Y88000D01*
X147000D01*
G37*
G36*
X137000Y103000D02*Y97000D01*
X143000D01*
Y103000D01*
X137000D01*
G37*
G54D15*X150000Y100000D03*
G54D14*G36*
X147000Y78000D02*Y72000D01*
X153000D01*
Y78000D01*
X147000D01*
G37*
G54D15*X160000Y85000D03*
Y100000D03*
Y75000D03*
X170000Y85000D03*
X180000D03*
X170000Y100000D03*
X180000D03*
Y145000D03*
X170000D03*
X180000Y130000D03*
X160000D03*
X150000D03*
X140000D03*
G54D14*G36*
X142000Y158000D02*Y152000D01*
X148000D01*
Y158000D01*
X142000D01*
G37*
G54D15*X145000Y145000D03*
G54D14*G36*
X152000Y158000D02*Y152000D01*
X158000D01*
Y158000D01*
X152000D01*
G37*
G54D15*X155000Y145000D03*
G54D14*G36*
X175197Y176181D02*Y170276D01*
X196850D01*
Y176181D01*
X175197D01*
G37*
G36*
X208661D02*Y170276D01*
X230315D01*
Y176181D01*
X208661D01*
G37*
G36*
X159843Y170472D02*X155118D01*
Y164173D01*
X159843D01*
Y170472D01*
G37*
G36*
X134252Y160630D02*X129528D01*
Y154331D01*
X134252D01*
Y160630D01*
G37*
G36*
X122441D02*X117717D01*
Y154331D01*
X122441D01*
Y160630D01*
G37*
G36*
X171654Y170472D02*X166929D01*
Y164173D01*
X171654D01*
Y170472D01*
G37*
G36*
Y182283D02*X166929D01*
Y175984D01*
X171654D01*
Y182283D01*
G37*
G36*
X159843D02*X155118D01*
Y175984D01*
X159843D01*
Y182283D01*
G37*
G36*
X244488Y117323D02*X239764D01*
Y111024D01*
X244488D01*
Y117323D01*
G37*
G36*
X256299D02*X251575D01*
Y111024D01*
X256299D01*
Y117323D01*
G37*
G36*
X175591D02*X170866D01*
Y111024D01*
X175591D01*
Y117323D01*
G37*
G36*
X187402D02*X182677D01*
Y111024D01*
X187402D01*
Y117323D01*
G37*
G36*
X122441Y150787D02*X117717D01*
Y144488D01*
X122441D01*
Y150787D01*
G37*
G36*
X134252D02*X129528D01*
Y144488D01*
X134252D01*
Y150787D01*
G37*
G36*
X122653Y101394D02*X117504D01*
Y91520D01*
X122653D01*
Y101394D01*
G37*
G36*
X134252Y79921D02*X125591D01*
Y69685D01*
X134252D01*
Y79921D01*
G37*
G36*
X114567D02*X105906D01*
Y69685D01*
X114567D01*
Y79921D01*
G37*
G36*
Y60236D02*X105906D01*
Y50000D01*
X114567D01*
Y60236D01*
G37*
G36*
X134252D02*X125591D01*
Y50000D01*
X134252D01*
Y60236D01*
G37*
G36*
X91339Y55512D02*Y50787D01*
X97638D01*
Y55512D01*
X91339D01*
G37*
G36*
Y67323D02*Y62598D01*
X97638D01*
Y67323D01*
X91339D01*
G37*
G36*
X167717Y117323D02*X162992D01*
Y111024D01*
X167717D01*
Y117323D01*
G37*
G36*
X155906D02*X151181D01*
Y111024D01*
X155906D01*
Y117323D01*
G37*
G36*
X93307Y110630D02*Y105906D01*
X99606D01*
Y110630D01*
X93307D01*
G37*
G36*
Y98819D02*Y94094D01*
X99606D01*
Y98819D01*
X93307D01*
G37*
G36*
X264890Y162614D02*Y157102D01*
X271189D01*
Y162614D01*
X264890D01*
G37*
G36*
X294811D02*Y157102D01*
X301110D01*
Y162614D01*
X294811D01*
G37*
G36*
X264890Y144898D02*Y139386D01*
X271189D01*
Y144898D01*
X264890D01*
G37*
G36*
X294811D02*Y139386D01*
X301110D01*
Y144898D01*
X294811D01*
G37*
G36*
X250394Y170472D02*X245669D01*
Y164173D01*
X250394D01*
Y170472D01*
G37*
G36*
X238583D02*X233858D01*
Y164173D01*
X238583D01*
Y170472D01*
G37*
G36*
Y182283D02*X233858D01*
Y175984D01*
X238583D01*
Y182283D01*
G37*
G36*
X250394D02*X245669D01*
Y175984D01*
X250394D01*
Y182283D01*
G37*
G36*
X285827Y87795D02*X281102D01*
Y81496D01*
X285827D01*
Y87795D01*
G37*
G36*
X297638D02*X292913D01*
Y81496D01*
X297638D01*
Y87795D01*
G37*
G36*
X285827Y75984D02*X281102D01*
Y69685D01*
X285827D01*
Y75984D01*
G37*
G36*
X297638D02*X292913D01*
Y69685D01*
X297638D01*
Y75984D01*
G37*
G36*
X99934Y129003D02*Y126903D01*
X103019D01*
Y129003D01*
X99934D01*
G37*
G36*
X105643Y130971D02*Y128871D01*
X108727D01*
Y130971D01*
X105643D01*
G37*
G36*
Y127034D02*Y124934D01*
X108727D01*
Y127034D01*
X105643D01*
G37*
G54D17*X77500Y147826D02*Y145626D01*
G54D14*G36*
X80900Y148626D02*X79300D01*
Y144826D01*
X80900D01*
Y148626D01*
G37*
G36*
X83400D02*X81800D01*
Y144826D01*
X83400D01*
Y148626D01*
G37*
G36*
X86000D02*X84400D01*
Y144826D01*
X86000D01*
Y148626D01*
G37*
G36*
X88600D02*X87000D01*
Y144826D01*
X88600D01*
Y148626D01*
G37*
G36*
X91100D02*X89500D01*
Y144826D01*
X91100D01*
Y148626D01*
G37*
G36*
X93700D02*X92100D01*
Y144826D01*
X93700D01*
Y148626D01*
G37*
G36*
X96200D02*X94600D01*
Y144826D01*
X96200D01*
Y148626D01*
G37*
G36*
X98800D02*X97200D01*
Y144826D01*
X98800D01*
Y148626D01*
G37*
G36*
X100787Y140945D02*X96063D01*
Y134646D01*
X100787D01*
Y140945D01*
G37*
G36*
X92913D02*X88189D01*
Y134646D01*
X92913D01*
Y140945D01*
G37*
G36*
Y131102D02*X88189D01*
Y124803D01*
X92913D01*
Y131102D01*
G37*
G36*
X58209Y187283D02*Y185315D01*
X67264D01*
Y187283D01*
X58209D01*
G37*
G36*
Y184134D02*Y182165D01*
X67264D01*
Y184134D01*
X58209D01*
G37*
G36*
Y180984D02*Y179016D01*
X67264D01*
Y180984D01*
X58209D01*
G37*
G36*
Y177835D02*Y175866D01*
X67264D01*
Y177835D01*
X58209D01*
G37*
G36*
X81102Y192126D02*X76378D01*
Y185827D01*
X81102D01*
Y192126D01*
G37*
G36*
X92913D02*X88189D01*
Y185827D01*
X92913D01*
Y192126D01*
G37*
G36*
X58209Y174685D02*Y172717D01*
X67264D01*
Y174685D01*
X58209D01*
G37*
G36*
X57421Y166417D02*Y158543D01*
X67264D01*
Y166417D01*
X57421D01*
G37*
G36*
X35768D02*Y158543D01*
X45610D01*
Y166417D01*
X35768D01*
G37*
G36*
X101400Y148626D02*X99800D01*
Y144826D01*
X101400D01*
Y148626D01*
G37*
G36*
X103900D02*X102300D01*
Y144826D01*
X103900D01*
Y148626D01*
G37*
G36*
X106500D02*X104900D01*
Y144826D01*
X106500D01*
Y148626D01*
G37*
G36*
X109000D02*X107400D01*
Y144826D01*
X109000D01*
Y148626D01*
G37*
G36*
X111600D02*X110000D01*
Y144826D01*
X111600D01*
Y148626D01*
G37*
G36*
X112598Y140945D02*X107874D01*
Y134646D01*
X112598D01*
Y140945D01*
G37*
G36*
X122653Y113205D02*X117504D01*
Y103331D01*
X122653D01*
Y113205D01*
G37*
G36*
X122441Y170472D02*X117717D01*
Y164173D01*
X122441D01*
Y170472D01*
G37*
G36*
X134252D02*X129528D01*
Y164173D01*
X134252D01*
Y170472D01*
G37*
G36*
X122441Y180315D02*X117717D01*
Y174016D01*
X122441D01*
Y180315D01*
G37*
G36*
X134252D02*X129528D01*
Y174016D01*
X134252D01*
Y180315D01*
G37*
G36*
X97833Y201181D02*Y196456D01*
X102558D01*
Y201181D01*
X97833D01*
G37*
G36*
Y211024D02*Y206299D01*
X102558D01*
Y211024D01*
X97833D01*
G37*
G36*
Y220866D02*Y216141D01*
X102558D01*
Y220866D01*
X97833D01*
G37*
G36*
X106103Y201181D02*Y196456D01*
X110828D01*
Y201181D01*
X106103D01*
G37*
G36*
Y211024D02*Y206299D01*
X110828D01*
Y211024D01*
X106103D01*
G37*
G36*
Y220866D02*Y216141D01*
X110828D01*
Y220866D01*
X106103D01*
G37*
G36*
X97833Y191339D02*Y186614D01*
X102558D01*
Y191339D01*
X97833D01*
G37*
G36*
X106103D02*Y186614D01*
X110828D01*
Y191339D01*
X106103D01*
G37*
G36*
X111700Y177726D02*X110100D01*
Y173926D01*
X111700D01*
Y177726D01*
G37*
G36*
X109100D02*X107500D01*
Y173926D01*
X109100D01*
Y177726D01*
G37*
G36*
X106600D02*X105000D01*
Y173926D01*
X106600D01*
Y177726D01*
G37*
G36*
X104000D02*X102400D01*
Y173926D01*
X104000D01*
Y177726D01*
G37*
G36*
X101400D02*X99800D01*
Y173926D01*
X101400D01*
Y177726D01*
G37*
G36*
X98900D02*X97300D01*
Y173926D01*
X98900D01*
Y177726D01*
G37*
G36*
X96300D02*X94700D01*
Y173926D01*
X96300D01*
Y177726D01*
G37*
G36*
X93800D02*X92200D01*
Y173926D01*
X93800D01*
Y177726D01*
G37*
G36*
X91200D02*X89600D01*
Y173926D01*
X91200D01*
Y177726D01*
G37*
G36*
X88600D02*X87000D01*
Y173926D01*
X88600D01*
Y177726D01*
G37*
G36*
X86100D02*X84500D01*
Y173926D01*
X86100D01*
Y177726D01*
G37*
G36*
X83500D02*X81900D01*
Y173926D01*
X83500D01*
Y177726D01*
G37*
G36*
X81000D02*X79400D01*
Y173926D01*
X81000D01*
Y177726D01*
G37*
G36*
X78400D02*X76800D01*
Y173926D01*
X78400D01*
Y177726D01*
G37*
G36*
X67913Y149606D02*X62992D01*
Y137795D01*
X67913D01*
Y149606D01*
G37*
G36*
X47244D02*X42323D01*
Y137795D01*
X47244D01*
Y149606D01*
G37*
G36*
X65945Y128228D02*X44291D01*
Y105787D01*
X65945D01*
Y128228D01*
G37*
G36*
X72835Y113189D02*Y108268D01*
X84646D01*
Y113189D01*
X72835D01*
G37*
G36*
Y92520D02*Y87598D01*
X84646D01*
Y92520D01*
X72835D01*
G37*
G36*
X81102Y140945D02*X76378D01*
Y134646D01*
X81102D01*
Y140945D01*
G37*
G36*
Y131102D02*X76378D01*
Y124803D01*
X81102D01*
Y131102D01*
G37*
G36*
X48681Y95000D02*X43563D01*
Y88307D01*
X48681D01*
Y95000D01*
G37*
G36*
X57677Y97283D02*X52559D01*
Y90591D01*
X57677D01*
Y97283D01*
G37*
G36*
X66673Y95000D02*X61555D01*
Y88307D01*
X66673D01*
Y95000D01*
G37*
G36*
X57421Y201457D02*Y193583D01*
X67264D01*
Y201457D01*
X57421D01*
G37*
G36*
X35768D02*Y193583D01*
X45610D01*
Y201457D01*
X35768D01*
G37*
G36*
X36890Y213898D02*Y208386D01*
X43189D01*
Y213898D01*
X36890D01*
G37*
G36*
Y231614D02*Y226102D01*
X43189D01*
Y231614D01*
X36890D01*
G37*
G36*
X66811D02*Y226102D01*
X73110D01*
Y231614D01*
X66811D01*
G37*
G36*
Y213898D02*Y208386D01*
X73110D01*
Y213898D01*
X66811D01*
G37*
G36*
X81102Y221654D02*X76378D01*
Y215354D01*
X81102D01*
Y221654D01*
G37*
G36*
Y211811D02*X76378D01*
Y205512D01*
X81102D01*
Y211811D01*
G37*
G36*
Y201969D02*X76378D01*
Y195669D01*
X81102D01*
Y201969D01*
G37*
G36*
X92913D02*X88189D01*
Y195669D01*
X92913D01*
Y201969D01*
G37*
G36*
Y221654D02*X88189D01*
Y215354D01*
X92913D01*
Y221654D01*
G37*
G36*
Y211811D02*X88189D01*
Y205512D01*
X92913D01*
Y211811D01*
G37*
G54D18*X260000Y107500D03*
X100394Y152362D03*
X104331Y137795D03*
X84646Y127953D03*
X85236Y169291D03*
X120079Y141732D03*
Y183071D03*
X106299Y96457D03*
X105906Y169291D03*
X125984Y167323D03*
X110827Y152559D03*
X70866Y218504D03*
X72835Y198819D03*
Y188976D03*
X51181Y197835D03*
X40354Y180118D03*
X122047Y218504D03*
X92913Y152362D03*
X95472Y169291D03*
X51181Y162402D03*
X82677Y183071D03*
G54D19*G54D20*G54D21*G54D22*G54D21*G54D22*G54D21*G54D22*G54D21*G54D22*G54D21*G54D22*G54D21*G54D22*G54D21*G54D22*G54D20*G54D23*G54D21*G54D24*G54D21*G54D23*G54D21*G54D22*G54D21*G54D22*G54D21*G54D22*G54D21*G54D22*G54D21*M02*
