G04 start of page 13 for group -3984 idx -3984 *
G04 Title: AJ.001.00.01.01, fab *
G04 Creator: pcb 4.1.2 *
G04 CreationDate: Sun Sep  9 20:15:37 2018 UTC *
G04 For: bert *
G04 Format: Gerber/RS-274X *
G04 PCB-Dimensions (mil): 3200.00 2500.00 *
G04 PCB-Coordinate-Origin: lower left *
%MOIN*%
%FSLAX25Y25*%
%LNFAB*%
%ADD98C,0.0040*%
%ADD97C,0.0100*%
%ADD96C,0.0075*%
%ADD95C,0.0060*%
%ADD94C,0.0001*%
%ADD93R,0.0080X0.0080*%
G54D93*X90000Y40000D02*Y36800D01*
G54D94*G36*
X89454Y40147D02*X92920Y42146D01*
X93320Y41453D01*
X89853Y39454D01*
X89454Y40147D01*
G37*
G36*
X90147Y39454D02*X86680Y41453D01*
X87080Y42146D01*
X90546Y40147D01*
X90147Y39454D01*
G37*
G54D93*X88400Y40000D02*G75*G03X91600Y40000I1600J0D01*G01*
G75*G03X88400Y40000I-1600J0D01*G01*
X95000Y230000D02*Y226800D01*
G54D94*G36*
X94454Y230147D02*X97920Y232146D01*
X98320Y231453D01*
X94853Y229454D01*
X94454Y230147D01*
G37*
G36*
X95147Y229454D02*X91680Y231453D01*
X92080Y232146D01*
X95546Y230147D01*
X95147Y229454D01*
G37*
G54D93*X93400Y230000D02*G75*G03X96600Y230000I1600J0D01*G01*
G75*G03X93400Y230000I-1600J0D01*G01*
X295000Y170000D02*Y166800D01*
G54D94*G36*
X294454Y170147D02*X297920Y172146D01*
X298320Y171453D01*
X294853Y169454D01*
X294454Y170147D01*
G37*
G36*
X295147Y169454D02*X291680Y171453D01*
X292080Y172146D01*
X295546Y170147D01*
X295147Y169454D01*
G37*
G54D93*X293400Y170000D02*G75*G03X296600Y170000I1600J0D01*G01*
G75*G03X293400Y170000I-1600J0D01*G01*
X295000Y55000D02*Y51800D01*
G54D94*G36*
X294454Y55147D02*X297920Y57146D01*
X298320Y56453D01*
X294853Y54454D01*
X294454Y55147D01*
G37*
G36*
X295147Y54454D02*X291680Y56453D01*
X292080Y57146D01*
X295546Y55147D01*
X295147Y54454D01*
G37*
G54D93*X293400Y55000D02*G75*G03X296600Y55000I1600J0D01*G01*
G75*G03X293400Y55000I-1600J0D01*G01*
X15000Y261250D02*Y258050D01*
G54D94*G36*
X14454Y261397D02*X17920Y263396D01*
X18320Y262703D01*
X14853Y260704D01*
X14454Y261397D01*
G37*
G36*
X15147Y260704D02*X11680Y262703D01*
X12080Y263396D01*
X15546Y261397D01*
X15147Y260704D01*
G37*
G54D93*X13400Y261250D02*G75*G03X16600Y261250I1600J0D01*G01*
G75*G03X13400Y261250I-1600J0D01*G01*
G54D95*X140000Y263500D02*Y257500D01*
Y263500D02*X143750Y257500D01*
Y263500D02*Y257500D01*
X145550Y262750D02*Y258250D01*
Y262750D02*X146300Y263500D01*
X147800D01*
X148550Y262750D01*
Y258250D01*
X147800Y257500D02*X148550Y258250D01*
X146300Y257500D02*X147800D01*
X145550Y258250D02*X146300Y257500D01*
X98000Y259750D02*X101000Y263500D01*
X98000Y259750D02*X101750D01*
X101000Y263500D02*Y257500D01*
X45000Y258250D02*X45750Y257500D01*
X45000Y262750D02*Y258250D01*
Y262750D02*X45750Y263500D01*
X47250D01*
X48000Y262750D01*
Y258250D01*
X47250Y257500D02*X48000Y258250D01*
X45750Y257500D02*X47250D01*
X45000Y259000D02*X48000Y262000D01*
X49800Y257500D02*X50550D01*
X52350Y262300D02*X53550Y263500D01*
Y257500D01*
X52350D02*X54600D01*
X56400Y262750D02*X57150Y263500D01*
X59400D01*
X60150Y262750D01*
Y261250D01*
X56400Y257500D02*X60150Y261250D01*
X56400Y257500D02*X60150D01*
X64200Y263500D02*X64950Y262750D01*
X62700Y263500D02*X64200D01*
X61950Y262750D02*X62700Y263500D01*
X61950Y262750D02*Y258250D01*
X62700Y257500D01*
X64200Y260800D02*X64950Y260050D01*
X61950Y260800D02*X64200D01*
X62700Y257500D02*X64200D01*
X64950Y258250D01*
Y260050D02*Y258250D01*
X79443Y64100D02*X82643D01*
X79443D02*Y60900D01*
X82643D01*
Y64100D02*Y60900D01*
X56609Y64100D02*X59809D01*
X56609D02*Y60900D01*
X59809D01*
Y64100D02*Y60900D01*
X67632Y45202D02*X70832D01*
X67632D02*Y42002D01*
X70832D01*
Y45202D02*Y42002D01*
X13400Y277850D02*X16600D01*
X13400D02*Y274650D01*
X16600D01*
Y277850D02*Y274650D01*
X135000Y278500D02*X136500Y275500D01*
X138000Y278500D01*
X136500Y275500D02*Y272500D01*
X139800Y275800D02*X142050D01*
X139800Y272500D02*X142800D01*
X139800Y278500D02*Y272500D01*
Y278500D02*X142800D01*
X147600D02*X148350Y277750D01*
X145350Y278500D02*X147600D01*
X144600Y277750D02*X145350Y278500D01*
X144600Y277750D02*Y276250D01*
X145350Y275500D01*
X147600D01*
X148350Y274750D01*
Y273250D01*
X147600Y272500D02*X148350Y273250D01*
X145350Y272500D02*X147600D01*
X144600Y273250D02*X145350Y272500D01*
X98000Y277750D02*X98750Y278500D01*
X100250D01*
X101000Y277750D01*
X100250Y272500D02*X101000Y273250D01*
X98750Y272500D02*X100250D01*
X98000Y273250D02*X98750Y272500D01*
Y275800D02*X100250D01*
X101000Y277750D02*Y276550D01*
Y275050D02*Y273250D01*
Y275050D02*X100250Y275800D01*
X101000Y276550D02*X100250Y275800D01*
X45000Y273250D02*X45750Y272500D01*
X45000Y277750D02*Y273250D01*
Y277750D02*X45750Y278500D01*
X47250D01*
X48000Y277750D01*
Y273250D01*
X47250Y272500D02*X48000Y273250D01*
X45750Y272500D02*X47250D01*
X45000Y274000D02*X48000Y277000D01*
X49800Y272500D02*X50550D01*
X52350Y273250D02*X53100Y272500D01*
X52350Y277750D02*Y273250D01*
Y277750D02*X53100Y278500D01*
X54600D01*
X55350Y277750D01*
Y273250D01*
X54600Y272500D02*X55350Y273250D01*
X53100Y272500D02*X54600D01*
X52350Y274000D02*X55350Y277000D01*
X57900Y272500D02*X60900Y278500D01*
X57150D02*X60900D01*
X62700Y277300D02*X63900Y278500D01*
Y272500D01*
X62700D02*X64950D01*
X279200Y130000D02*G75*G03X280800Y130000I800J0D01*G01*
G75*G03X279200Y130000I-800J0D01*G01*
Y120000D02*G75*G03X280800Y120000I800J0D01*G01*
G75*G03X279200Y120000I-800J0D01*G01*
Y110000D02*G75*G03X280800Y110000I800J0D01*G01*
G75*G03X279200Y110000I-800J0D01*G01*
Y100000D02*G75*G03X280800Y100000I800J0D01*G01*
G75*G03X279200Y100000I-800J0D01*G01*
X144200Y40000D02*G75*G03X145800Y40000I800J0D01*G01*
G75*G03X144200Y40000I-800J0D01*G01*
X154200D02*G75*G03X155800Y40000I800J0D01*G01*
G75*G03X154200Y40000I-800J0D01*G01*
X164200D02*G75*G03X165800Y40000I800J0D01*G01*
G75*G03X164200Y40000I-800J0D01*G01*
X174200D02*G75*G03X175800Y40000I800J0D01*G01*
G75*G03X174200Y40000I-800J0D01*G01*
X184200D02*G75*G03X185800Y40000I800J0D01*G01*
G75*G03X184200Y40000I-800J0D01*G01*
X194200D02*G75*G03X195800Y40000I800J0D01*G01*
G75*G03X194200Y40000I-800J0D01*G01*
X204200D02*G75*G03X205800Y40000I800J0D01*G01*
G75*G03X204200Y40000I-800J0D01*G01*
X214200D02*G75*G03X215800Y40000I800J0D01*G01*
G75*G03X214200Y40000I-800J0D01*G01*
Y230000D02*G75*G03X215800Y230000I800J0D01*G01*
G75*G03X214200Y230000I-800J0D01*G01*
X224200D02*G75*G03X225800Y230000I800J0D01*G01*
G75*G03X224200Y230000I-800J0D01*G01*
X234200D02*G75*G03X235800Y230000I800J0D01*G01*
G75*G03X234200Y230000I-800J0D01*G01*
X244200D02*G75*G03X245800Y230000I800J0D01*G01*
G75*G03X244200Y230000I-800J0D01*G01*
X254200D02*G75*G03X255800Y230000I800J0D01*G01*
G75*G03X254200Y230000I-800J0D01*G01*
X264200D02*G75*G03X265800Y230000I800J0D01*G01*
G75*G03X264200Y230000I-800J0D01*G01*
X274200D02*G75*G03X275800Y230000I800J0D01*G01*
G75*G03X274200Y230000I-800J0D01*G01*
X284200D02*G75*G03X285800Y230000I800J0D01*G01*
G75*G03X284200Y230000I-800J0D01*G01*
X234200Y40000D02*G75*G03X235800Y40000I800J0D01*G01*
G75*G03X234200Y40000I-800J0D01*G01*
X244200D02*G75*G03X245800Y40000I800J0D01*G01*
G75*G03X244200Y40000I-800J0D01*G01*
X254200D02*G75*G03X255800Y40000I800J0D01*G01*
G75*G03X254200Y40000I-800J0D01*G01*
X264200D02*G75*G03X265800Y40000I800J0D01*G01*
G75*G03X264200Y40000I-800J0D01*G01*
X274200D02*G75*G03X275800Y40000I800J0D01*G01*
G75*G03X274200Y40000I-800J0D01*G01*
X284200D02*G75*G03X285800Y40000I800J0D01*G01*
G75*G03X284200Y40000I-800J0D01*G01*
X108200Y230000D02*G75*G03X109800Y230000I800J0D01*G01*
G75*G03X108200Y230000I-800J0D01*G01*
X118200D02*G75*G03X119800Y230000I800J0D01*G01*
G75*G03X118200Y230000I-800J0D01*G01*
X128200D02*G75*G03X129800Y230000I800J0D01*G01*
G75*G03X128200Y230000I-800J0D01*G01*
X138200D02*G75*G03X139800Y230000I800J0D01*G01*
G75*G03X138200Y230000I-800J0D01*G01*
X148200D02*G75*G03X149800Y230000I800J0D01*G01*
G75*G03X148200Y230000I-800J0D01*G01*
X158200D02*G75*G03X159800Y230000I800J0D01*G01*
G75*G03X158200Y230000I-800J0D01*G01*
X168200D02*G75*G03X169800Y230000I800J0D01*G01*
G75*G03X168200Y230000I-800J0D01*G01*
X178200D02*G75*G03X179800Y230000I800J0D01*G01*
G75*G03X178200Y230000I-800J0D01*G01*
X188200D02*G75*G03X189800Y230000I800J0D01*G01*
G75*G03X188200Y230000I-800J0D01*G01*
X198200D02*G75*G03X199800Y230000I800J0D01*G01*
G75*G03X198200Y230000I-800J0D01*G01*
X149200Y85000D02*G75*G03X150800Y85000I800J0D01*G01*
G75*G03X149200Y85000I-800J0D01*G01*
X159200D02*G75*G03X160800Y85000I800J0D01*G01*
G75*G03X159200Y85000I-800J0D01*G01*
X169200D02*G75*G03X170800Y85000I800J0D01*G01*
G75*G03X169200Y85000I-800J0D01*G01*
X179200D02*G75*G03X180800Y85000I800J0D01*G01*
G75*G03X179200Y85000I-800J0D01*G01*
X239200Y145000D02*G75*G03X240800Y145000I800J0D01*G01*
G75*G03X239200Y145000I-800J0D01*G01*
X229200D02*G75*G03X230800Y145000I800J0D01*G01*
G75*G03X229200Y145000I-800J0D01*G01*
X219200D02*G75*G03X220800Y145000I800J0D01*G01*
G75*G03X219200Y145000I-800J0D01*G01*
X209200D02*G75*G03X210800Y145000I800J0D01*G01*
G75*G03X209200Y145000I-800J0D01*G01*
X199200D02*G75*G03X200800Y145000I800J0D01*G01*
G75*G03X199200Y145000I-800J0D01*G01*
X189200D02*G75*G03X190800Y145000I800J0D01*G01*
G75*G03X189200Y145000I-800J0D01*G01*
X179200D02*G75*G03X180800Y145000I800J0D01*G01*
G75*G03X179200Y145000I-800J0D01*G01*
X169200D02*G75*G03X170800Y145000I800J0D01*G01*
G75*G03X169200Y145000I-800J0D01*G01*
X199200Y85000D02*G75*G03X200800Y85000I800J0D01*G01*
G75*G03X199200Y85000I-800J0D01*G01*
X209200D02*G75*G03X210800Y85000I800J0D01*G01*
G75*G03X209200Y85000I-800J0D01*G01*
X219200D02*G75*G03X220800Y85000I800J0D01*G01*
G75*G03X219200Y85000I-800J0D01*G01*
X229200D02*G75*G03X230800Y85000I800J0D01*G01*
G75*G03X229200Y85000I-800J0D01*G01*
X239200D02*G75*G03X240800Y85000I800J0D01*G01*
G75*G03X239200Y85000I-800J0D01*G01*
X249200D02*G75*G03X250800Y85000I800J0D01*G01*
G75*G03X249200Y85000I-800J0D01*G01*
X259200D02*G75*G03X260800Y85000I800J0D01*G01*
G75*G03X259200Y85000I-800J0D01*G01*
X269200D02*G75*G03X270800Y85000I800J0D01*G01*
G75*G03X269200Y85000I-800J0D01*G01*
X144200Y155000D02*G75*G03X145800Y155000I800J0D01*G01*
G75*G03X144200Y155000I-800J0D01*G01*
Y145000D02*G75*G03X145800Y145000I800J0D01*G01*
G75*G03X144200Y145000I-800J0D01*G01*
X154200Y155000D02*G75*G03X155800Y155000I800J0D01*G01*
G75*G03X154200Y155000I-800J0D01*G01*
Y145000D02*G75*G03X155800Y145000I800J0D01*G01*
G75*G03X154200Y145000I-800J0D01*G01*
X239200Y155000D02*G75*G03X240800Y155000I800J0D01*G01*
G75*G03X239200Y155000I-800J0D01*G01*
X229200D02*G75*G03X230800Y155000I800J0D01*G01*
G75*G03X229200Y155000I-800J0D01*G01*
X219200D02*G75*G03X220800Y155000I800J0D01*G01*
G75*G03X219200Y155000I-800J0D01*G01*
X209200D02*G75*G03X210800Y155000I800J0D01*G01*
G75*G03X209200Y155000I-800J0D01*G01*
X199200D02*G75*G03X200800Y155000I800J0D01*G01*
G75*G03X199200Y155000I-800J0D01*G01*
X189200D02*G75*G03X190800Y155000I800J0D01*G01*
G75*G03X189200Y155000I-800J0D01*G01*
X179200D02*G75*G03X180800Y155000I800J0D01*G01*
G75*G03X179200Y155000I-800J0D01*G01*
X169200D02*G75*G03X170800Y155000I800J0D01*G01*
G75*G03X169200Y155000I-800J0D01*G01*
X149200Y75000D02*G75*G03X150800Y75000I800J0D01*G01*
G75*G03X149200Y75000I-800J0D01*G01*
X159200D02*G75*G03X160800Y75000I800J0D01*G01*
G75*G03X159200Y75000I-800J0D01*G01*
X169200D02*G75*G03X170800Y75000I800J0D01*G01*
G75*G03X169200Y75000I-800J0D01*G01*
X179200D02*G75*G03X180800Y75000I800J0D01*G01*
G75*G03X179200Y75000I-800J0D01*G01*
X199200D02*G75*G03X200800Y75000I800J0D01*G01*
G75*G03X199200Y75000I-800J0D01*G01*
X209200D02*G75*G03X210800Y75000I800J0D01*G01*
G75*G03X209200Y75000I-800J0D01*G01*
X219200D02*G75*G03X220800Y75000I800J0D01*G01*
G75*G03X219200Y75000I-800J0D01*G01*
X229200D02*G75*G03X230800Y75000I800J0D01*G01*
G75*G03X229200Y75000I-800J0D01*G01*
X239200D02*G75*G03X240800Y75000I800J0D01*G01*
G75*G03X239200Y75000I-800J0D01*G01*
X249200D02*G75*G03X250800Y75000I800J0D01*G01*
G75*G03X249200Y75000I-800J0D01*G01*
X259200D02*G75*G03X260800Y75000I800J0D01*G01*
G75*G03X259200Y75000I-800J0D01*G01*
X269200D02*G75*G03X270800Y75000I800J0D01*G01*
G75*G03X269200Y75000I-800J0D01*G01*
X289200Y100000D02*G75*G03X290800Y100000I800J0D01*G01*
G75*G03X289200Y100000I-800J0D01*G01*
Y110000D02*G75*G03X290800Y110000I800J0D01*G01*
G75*G03X289200Y110000I-800J0D01*G01*
X14200Y291250D02*G75*G03X15800Y291250I800J0D01*G01*
G75*G03X14200Y291250I-800J0D01*G01*
X135000Y293500D02*X136500Y290500D01*
X138000Y293500D01*
X136500Y290500D02*Y287500D01*
X139800Y290800D02*X142050D01*
X139800Y287500D02*X142800D01*
X139800Y293500D02*Y287500D01*
Y293500D02*X142800D01*
X147600D02*X148350Y292750D01*
X145350Y293500D02*X147600D01*
X144600Y292750D02*X145350Y293500D01*
X144600Y292750D02*Y291250D01*
X145350Y290500D01*
X147600D01*
X148350Y289750D01*
Y288250D01*
X147600Y287500D02*X148350Y288250D01*
X145350Y287500D02*X147600D01*
X144600Y288250D02*X145350Y287500D01*
X98000Y288250D02*X98750Y287500D01*
X98000Y289450D02*Y288250D01*
Y289450D02*X99050Y290500D01*
X99950D01*
X101000Y289450D01*
Y288250D01*
X100250Y287500D02*X101000Y288250D01*
X98750Y287500D02*X100250D01*
X98000Y291550D02*X99050Y290500D01*
X98000Y292750D02*Y291550D01*
Y292750D02*X98750Y293500D01*
X100250D01*
X101000Y292750D01*
Y291550D01*
X99950Y290500D02*X101000Y291550D01*
X102800Y292750D02*X103550Y293500D01*
X105800D01*
X106550Y292750D01*
Y291250D01*
X102800Y287500D02*X106550Y291250D01*
X102800Y287500D02*X106550D01*
X45000Y288250D02*X45750Y287500D01*
X45000Y292750D02*Y288250D01*
Y292750D02*X45750Y293500D01*
X47250D01*
X48000Y292750D01*
Y288250D01*
X47250Y287500D02*X48000Y288250D01*
X45750Y287500D02*X47250D01*
X45000Y289000D02*X48000Y292000D01*
X49800Y287500D02*X50550D01*
X52350Y288250D02*X53100Y287500D01*
X52350Y292750D02*Y288250D01*
Y292750D02*X53100Y293500D01*
X54600D01*
X55350Y292750D01*
Y288250D01*
X54600Y287500D02*X55350Y288250D01*
X53100Y287500D02*X54600D01*
X52350Y289000D02*X55350Y292000D01*
X57150Y292750D02*X57900Y293500D01*
X59400D01*
X60150Y292750D01*
X59400Y287500D02*X60150Y288250D01*
X57900Y287500D02*X59400D01*
X57150Y288250D02*X57900Y287500D01*
Y290800D02*X59400D01*
X60150Y292750D02*Y291550D01*
Y290050D02*Y288250D01*
Y290050D02*X59400Y290800D01*
X60150Y291550D02*X59400Y290800D01*
X61950Y288250D02*X62700Y287500D01*
X61950Y289450D02*Y288250D01*
Y289450D02*X63000Y290500D01*
X63900D01*
X64950Y289450D01*
Y288250D01*
X64200Y287500D02*X64950Y288250D01*
X62700Y287500D02*X64200D01*
X61950Y291550D02*X63000Y290500D01*
X61950Y292750D02*Y291550D01*
Y292750D02*X62700Y293500D01*
X64200D01*
X64950Y292750D01*
Y291550D01*
X63900Y290500D02*X64950Y291550D01*
X51300Y189861D02*X53700Y187461D01*
X51300D02*X53700Y189861D01*
X51300Y172539D02*X53700Y170139D01*
X51300D02*X53700Y172539D01*
X13800Y307450D02*X16200Y305050D01*
X13800D02*X16200Y307450D01*
X140000Y308500D02*Y302500D01*
Y308500D02*X143750Y302500D01*
Y308500D02*Y302500D01*
X145550Y307750D02*Y303250D01*
Y307750D02*X146300Y308500D01*
X147800D01*
X148550Y307750D01*
Y303250D01*
X147800Y302500D02*X148550Y303250D01*
X146300Y302500D02*X147800D01*
X145550Y303250D02*X146300Y302500D01*
X98000Y307750D02*X98750Y308500D01*
X101000D01*
X101750Y307750D01*
Y306250D01*
X98000Y302500D02*X101750Y306250D01*
X98000Y302500D02*X101750D01*
X45000Y303250D02*X45750Y302500D01*
X45000Y307750D02*Y303250D01*
Y307750D02*X45750Y308500D01*
X47250D01*
X48000Y307750D01*
Y303250D01*
X47250Y302500D02*X48000Y303250D01*
X45750Y302500D02*X47250D01*
X45000Y304000D02*X48000Y307000D01*
X49800Y302500D02*X50550D01*
X52350Y303250D02*X53100Y302500D01*
X52350Y307750D02*Y303250D01*
Y307750D02*X53100Y308500D01*
X54600D01*
X55350Y307750D01*
Y303250D01*
X54600Y302500D02*X55350Y303250D01*
X53100Y302500D02*X54600D01*
X52350Y304000D02*X55350Y307000D01*
X57150Y307750D02*X57900Y308500D01*
X59400D01*
X60150Y307750D01*
X59400Y302500D02*X60150Y303250D01*
X57900Y302500D02*X59400D01*
X57150Y303250D02*X57900Y302500D01*
Y305800D02*X59400D01*
X60150Y307750D02*Y306550D01*
Y305050D02*Y303250D01*
Y305050D02*X59400Y305800D01*
X60150Y306550D02*X59400Y305800D01*
X61950Y308500D02*X64950D01*
X61950D02*Y305500D01*
X62700Y306250D01*
X64200D01*
X64950Y305500D01*
Y303250D01*
X64200Y302500D02*X64950Y303250D01*
X62700Y302500D02*X64200D01*
X61950Y303250D02*X62700Y302500D01*
X140000Y101600D02*Y98400D01*
X138400Y100000D02*X141600D01*
X150000Y101600D02*Y98400D01*
X148400Y100000D02*X151600D01*
X160000Y101600D02*Y98400D01*
X158400Y100000D02*X161600D01*
X170000Y101600D02*Y98400D01*
X168400Y100000D02*X171600D01*
X180000Y101600D02*Y98400D01*
X178400Y100000D02*X181600D01*
X190000Y101600D02*Y98400D01*
X188400Y100000D02*X191600D01*
X200000Y101600D02*Y98400D01*
X198400Y100000D02*X201600D01*
X210000Y101600D02*Y98400D01*
X208400Y100000D02*X211600D01*
X220000Y101600D02*Y98400D01*
X218400Y100000D02*X221600D01*
X230000Y101600D02*Y98400D01*
X228400Y100000D02*X231600D01*
X240000Y101600D02*Y98400D01*
X238400Y100000D02*X241600D01*
X250000Y101600D02*Y98400D01*
X248400Y100000D02*X251600D01*
X260000Y101600D02*Y98400D01*
X258400Y100000D02*X261600D01*
X270000Y101600D02*Y98400D01*
X268400Y100000D02*X271600D01*
X270000Y131600D02*Y128400D01*
X268400Y130000D02*X271600D01*
X260000Y131600D02*Y128400D01*
X258400Y130000D02*X261600D01*
X250000Y131600D02*Y128400D01*
X248400Y130000D02*X251600D01*
X240000Y131600D02*Y128400D01*
X238400Y130000D02*X241600D01*
X230000Y131600D02*Y128400D01*
X228400Y130000D02*X231600D01*
X220000Y131600D02*Y128400D01*
X218400Y130000D02*X221600D01*
X210000Y131600D02*Y128400D01*
X208400Y130000D02*X211600D01*
X200000Y131600D02*Y128400D01*
X198400Y130000D02*X201600D01*
X190000Y131600D02*Y128400D01*
X188400Y130000D02*X191600D01*
X180000Y131600D02*Y128400D01*
X178400Y130000D02*X181600D01*
X170000Y131600D02*Y128400D01*
X168400Y130000D02*X171600D01*
X160000Y131600D02*Y128400D01*
X158400Y130000D02*X161600D01*
X150000Y131600D02*Y128400D01*
X148400Y130000D02*X151600D01*
X140000Y131600D02*Y128400D01*
X138400Y130000D02*X141600D01*
X15000Y322850D02*Y319650D01*
X13400Y321250D02*X16600D01*
X135000Y323500D02*X136500Y320500D01*
X138000Y323500D01*
X136500Y320500D02*Y317500D01*
X139800Y320800D02*X142050D01*
X139800Y317500D02*X142800D01*
X139800Y323500D02*Y317500D01*
Y323500D02*X142800D01*
X147600D02*X148350Y322750D01*
X145350Y323500D02*X147600D01*
X144600Y322750D02*X145350Y323500D01*
X144600Y322750D02*Y321250D01*
X145350Y320500D01*
X147600D01*
X148350Y319750D01*
Y318250D01*
X147600Y317500D02*X148350Y318250D01*
X145350Y317500D02*X147600D01*
X144600Y318250D02*X145350Y317500D01*
X98000Y322750D02*X98750Y323500D01*
X101000D01*
X101750Y322750D01*
Y321250D01*
X98000Y317500D02*X101750Y321250D01*
X98000Y317500D02*X101750D01*
X103550Y318250D02*X104300Y317500D01*
X103550Y319450D02*Y318250D01*
Y319450D02*X104600Y320500D01*
X105500D01*
X106550Y319450D01*
Y318250D01*
X105800Y317500D02*X106550Y318250D01*
X104300Y317500D02*X105800D01*
X103550Y321550D02*X104600Y320500D01*
X103550Y322750D02*Y321550D01*
Y322750D02*X104300Y323500D01*
X105800D01*
X106550Y322750D01*
Y321550D01*
X105500Y320500D02*X106550Y321550D01*
X45000Y318250D02*X45750Y317500D01*
X45000Y322750D02*Y318250D01*
Y322750D02*X45750Y323500D01*
X47250D01*
X48000Y322750D01*
Y318250D01*
X47250Y317500D02*X48000Y318250D01*
X45750Y317500D02*X47250D01*
X45000Y319000D02*X48000Y322000D01*
X49800Y317500D02*X50550D01*
X52350Y318250D02*X53100Y317500D01*
X52350Y322750D02*Y318250D01*
Y322750D02*X53100Y323500D01*
X54600D01*
X55350Y322750D01*
Y318250D01*
X54600Y317500D02*X55350Y318250D01*
X53100Y317500D02*X54600D01*
X52350Y319000D02*X55350Y322000D01*
X57150Y322750D02*X57900Y323500D01*
X60150D01*
X60900Y322750D01*
Y321250D01*
X57150Y317500D02*X60900Y321250D01*
X57150Y317500D02*X60900D01*
X62700Y318250D02*X63450Y317500D01*
X62700Y319450D02*Y318250D01*
Y319450D02*X63750Y320500D01*
X64650D01*
X65700Y319450D01*
Y318250D01*
X64950Y317500D02*X65700Y318250D01*
X63450Y317500D02*X64950D01*
X62700Y321550D02*X63750Y320500D01*
X62700Y322750D02*Y321550D01*
Y322750D02*X63450Y323500D01*
X64950D01*
X65700Y322750D01*
Y321550D01*
X64650Y320500D02*X65700Y321550D01*
X70866Y218504D02*Y216904D01*
Y218504D02*X72253Y219304D01*
X70866Y218504D02*X69479Y219304D01*
X122047Y218504D02*Y216904D01*
Y218504D02*X123434Y219304D01*
X122047Y218504D02*X120661Y219304D01*
X120079Y141732D02*Y140132D01*
Y141732D02*X121465Y142532D01*
X120079Y141732D02*X118692Y142532D01*
X120079Y183071D02*Y181471D01*
Y183071D02*X121465Y183871D01*
X120079Y183071D02*X118692Y183871D01*
X72835Y198819D02*Y197219D01*
Y198819D02*X74221Y199619D01*
X72835Y198819D02*X71448Y199619D01*
X72835Y188976D02*Y187376D01*
Y188976D02*X74221Y189776D01*
X72835Y188976D02*X71448Y189776D01*
X100394Y152362D02*Y150762D01*
Y152362D02*X101780Y153162D01*
X100394Y152362D02*X99007Y153162D01*
X84646Y125000D02*Y123400D01*
Y125000D02*X86032Y125800D01*
X84646Y125000D02*X83259Y125800D01*
X92913Y152362D02*Y150762D01*
Y152362D02*X94300Y153162D01*
X92913Y152362D02*X91527Y153162D01*
X85236Y169291D02*Y167691D01*
Y169291D02*X86623Y170091D01*
X85236Y169291D02*X83850Y170091D01*
X95472Y169291D02*Y167691D01*
Y169291D02*X96859Y170091D01*
X95472Y169291D02*X94086Y170091D01*
X105906Y169291D02*Y167691D01*
Y169291D02*X107292Y170091D01*
X105906Y169291D02*X104519Y170091D01*
X104331Y137795D02*Y136195D01*
Y137795D02*X105717Y138595D01*
X104331Y137795D02*X102944Y138595D01*
X125984Y167323D02*Y165723D01*
Y167323D02*X127371Y168123D01*
X125984Y167323D02*X124598Y168123D01*
X51181Y162402D02*Y160802D01*
Y162402D02*X52568Y163202D01*
X51181Y162402D02*X49794Y163202D01*
X51181Y197835D02*Y196235D01*
Y197835D02*X52568Y198635D01*
X51181Y197835D02*X49794Y198635D01*
X40354Y180118D02*Y178518D01*
Y180118D02*X41741Y180918D01*
X40354Y180118D02*X38968Y180918D01*
X110827Y152559D02*Y150959D01*
Y152559D02*X112213Y153359D01*
X110827Y152559D02*X109440Y153359D01*
X82677Y183071D02*Y181471D01*
Y183071D02*X84064Y183871D01*
X82677Y183071D02*X81290Y183871D01*
X53150Y74803D02*Y73203D01*
Y74803D02*X54536Y75603D01*
X53150Y74803D02*X51763Y75603D01*
X120079Y86614D02*Y85014D01*
Y86614D02*X121465Y87414D01*
X120079Y86614D02*X118692Y87414D01*
X110236Y45276D02*Y43676D01*
Y45276D02*X111623Y46076D01*
X110236Y45276D02*X108850Y46076D01*
X129921Y45276D02*Y43676D01*
Y45276D02*X131308Y46076D01*
X129921Y45276D02*X128535Y46076D01*
X94488Y59055D02*Y57455D01*
Y59055D02*X95875Y59855D01*
X94488Y59055D02*X93102Y59855D01*
X116535Y193701D02*Y192101D01*
Y193701D02*X117922Y194501D01*
X116535Y193701D02*X115149Y194501D01*
X55906Y191732D02*Y190132D01*
Y191732D02*X57292Y192532D01*
X55906Y191732D02*X54519Y192532D01*
X125984Y177165D02*Y175565D01*
Y177165D02*X127371Y177965D01*
X125984Y177165D02*X124598Y177965D01*
X163386Y167323D02*Y165723D01*
Y167323D02*X164772Y168123D01*
X163386Y167323D02*X161999Y168123D01*
X242126Y167323D02*Y165723D01*
Y167323D02*X243513Y168123D01*
X242126Y167323D02*X240739Y168123D01*
X272500Y158800D02*Y157200D01*
Y158800D02*X273887Y159600D01*
X272500Y158800D02*X271113Y159600D01*
X112500Y120000D02*Y118400D01*
Y120000D02*X113887Y120800D01*
X112500Y120000D02*X111113Y120800D01*
X62500Y220000D02*Y218400D01*
Y220000D02*X63887Y220800D01*
X62500Y220000D02*X61113Y220800D01*
X113500Y187000D02*Y185400D01*
Y187000D02*X114887Y187800D01*
X113500Y187000D02*X112113Y187800D01*
X85236Y152362D02*Y150762D01*
Y152362D02*X86623Y153162D01*
X85236Y152362D02*X83850Y153162D01*
X46850Y211024D02*Y209424D01*
Y211024D02*X48237Y211824D01*
X46850Y211024D02*X45464Y211824D01*
X114961Y137008D02*Y135408D01*
Y137008D02*X116347Y137808D01*
X114961Y137008D02*X113574Y137808D01*
X96457Y123031D02*Y121431D01*
Y123031D02*X97843Y123831D01*
X96457Y123031D02*X95070Y123831D01*
X105500Y121000D02*Y119400D01*
Y121000D02*X106887Y121800D01*
X105500Y121000D02*X104113Y121800D01*
X55118Y132874D02*Y131274D01*
Y132874D02*X56505Y133674D01*
X55118Y132874D02*X53731Y133674D01*
X90551Y117126D02*Y115526D01*
Y117126D02*X91938Y117926D01*
X90551Y117126D02*X89165Y117926D01*
X226378Y42323D02*Y40723D01*
Y42323D02*X227765Y43123D01*
X226378Y42323D02*X224991Y43123D01*
X222441Y38386D02*Y36786D01*
Y38386D02*X223828Y39186D01*
X222441Y38386D02*X221054Y39186D01*
X265748Y62992D02*Y61392D01*
Y62992D02*X267135Y63792D01*
X265748Y62992D02*X264361Y63792D01*
X254921Y62992D02*Y61392D01*
Y62992D02*X256308Y63792D01*
X254921Y62992D02*X253535Y63792D01*
X255500Y123500D02*Y121900D01*
Y123500D02*X256887Y124300D01*
X255500Y123500D02*X254113Y124300D01*
X191000Y114000D02*Y112400D01*
Y114000D02*X192387Y114800D01*
X191000Y114000D02*X189613Y114800D01*
X145000Y106500D02*Y104900D01*
Y106500D02*X146387Y107300D01*
X145000Y106500D02*X143613Y107300D01*
X242000Y107500D02*Y105900D01*
Y107500D02*X243387Y108300D01*
X242000Y107500D02*X240613Y108300D01*
X15000Y336250D02*Y334650D01*
Y336250D02*X16387Y337050D01*
X15000Y336250D02*X13613Y337050D01*
X135000Y338500D02*X136500Y335500D01*
X138000Y338500D01*
X136500Y335500D02*Y332500D01*
X139800Y335800D02*X142050D01*
X139800Y332500D02*X142800D01*
X139800Y338500D02*Y332500D01*
Y338500D02*X142800D01*
X147600D02*X148350Y337750D01*
X145350Y338500D02*X147600D01*
X144600Y337750D02*X145350Y338500D01*
X144600Y337750D02*Y336250D01*
X145350Y335500D01*
X147600D01*
X148350Y334750D01*
Y333250D01*
X147600Y332500D02*X148350Y333250D01*
X145350Y332500D02*X147600D01*
X144600Y333250D02*X145350Y332500D01*
X98000Y334750D02*X101000Y338500D01*
X98000Y334750D02*X101750D01*
X101000Y338500D02*Y332500D01*
X103550Y333250D02*X104300Y332500D01*
X103550Y334450D02*Y333250D01*
Y334450D02*X104600Y335500D01*
X105500D01*
X106550Y334450D01*
Y333250D01*
X105800Y332500D02*X106550Y333250D01*
X104300Y332500D02*X105800D01*
X103550Y336550D02*X104600Y335500D01*
X103550Y337750D02*Y336550D01*
Y337750D02*X104300Y338500D01*
X105800D01*
X106550Y337750D01*
Y336550D01*
X105500Y335500D02*X106550Y336550D01*
X45000Y333250D02*X45750Y332500D01*
X45000Y337750D02*Y333250D01*
Y337750D02*X45750Y338500D01*
X47250D01*
X48000Y337750D01*
Y333250D01*
X47250Y332500D02*X48000Y333250D01*
X45750Y332500D02*X47250D01*
X45000Y334000D02*X48000Y337000D01*
X49800Y332500D02*X50550D01*
X52350Y333250D02*X53100Y332500D01*
X52350Y337750D02*Y333250D01*
Y337750D02*X53100Y338500D01*
X54600D01*
X55350Y337750D01*
Y333250D01*
X54600Y332500D02*X55350Y333250D01*
X53100Y332500D02*X54600D01*
X52350Y334000D02*X55350Y337000D01*
X57150Y337750D02*X57900Y338500D01*
X60150D01*
X60900Y337750D01*
Y336250D01*
X57150Y332500D02*X60900Y336250D01*
X57150Y332500D02*X60900D01*
X62700Y333250D02*X63450Y332500D01*
X62700Y337750D02*Y333250D01*
Y337750D02*X63450Y338500D01*
X64950D01*
X65700Y337750D01*
Y333250D01*
X64950Y332500D02*X65700Y333250D01*
X63450Y332500D02*X64950D01*
X62700Y334000D02*X65700Y337000D01*
X3000Y353500D02*X3750Y352750D01*
X750Y353500D02*X3000D01*
X0Y352750D02*X750Y353500D01*
X0Y352750D02*Y351250D01*
X750Y350500D01*
X3000D01*
X3750Y349750D01*
Y348250D01*
X3000Y347500D02*X3750Y348250D01*
X750Y347500D02*X3000D01*
X0Y348250D02*X750Y347500D01*
X5550Y350500D02*Y348250D01*
X6300Y347500D01*
X8550Y350500D02*Y346000D01*
X7800Y345250D02*X8550Y346000D01*
X6300Y345250D02*X7800D01*
X5550Y346000D02*X6300Y345250D01*
Y347500D02*X7800D01*
X8550Y348250D01*
X11100Y349750D02*Y347500D01*
Y349750D02*X11850Y350500D01*
X12600D01*
X13350Y349750D01*
Y347500D01*
Y349750D02*X14100Y350500D01*
X14850D01*
X15600Y349750D01*
Y347500D01*
X10350Y350500D02*X11100Y349750D01*
X17400Y353500D02*Y347500D01*
Y348250D02*X18150Y347500D01*
X19650D01*
X20400Y348250D01*
Y349750D02*Y348250D01*
X19650Y350500D02*X20400Y349750D01*
X18150Y350500D02*X19650D01*
X17400Y349750D02*X18150Y350500D01*
X22200Y349750D02*Y348250D01*
Y349750D02*X22950Y350500D01*
X24450D01*
X25200Y349750D01*
Y348250D01*
X24450Y347500D02*X25200Y348250D01*
X22950Y347500D02*X24450D01*
X22200Y348250D02*X22950Y347500D01*
X27000Y353500D02*Y348250D01*
X27750Y347500D01*
X0Y344250D02*X29250D01*
X41750Y353500D02*Y347500D01*
X43700Y353500D02*X44750Y352450D01*
Y348550D01*
X43700Y347500D02*X44750Y348550D01*
X41000Y347500D02*X43700D01*
X41000Y353500D02*X43700D01*
G54D96*X46550Y352000D02*Y351850D01*
G54D95*Y349750D02*Y347500D01*
X50300Y350500D02*X51050Y349750D01*
X48800Y350500D02*X50300D01*
X48050Y349750D02*X48800Y350500D01*
X48050Y349750D02*Y348250D01*
X48800Y347500D01*
X51050Y350500D02*Y348250D01*
X51800Y347500D01*
X48800D02*X50300D01*
X51050Y348250D01*
X54350Y349750D02*Y347500D01*
Y349750D02*X55100Y350500D01*
X55850D01*
X56600Y349750D01*
Y347500D01*
Y349750D02*X57350Y350500D01*
X58100D01*
X58850Y349750D01*
Y347500D01*
X53600Y350500D02*X54350Y349750D01*
X60650Y347500D02*X61400D01*
X65900Y348250D02*X66650Y347500D01*
X65900Y352750D02*X66650Y353500D01*
X65900Y352750D02*Y348250D01*
X68450Y353500D02*X69950D01*
X69200D02*Y347500D01*
X68450D02*X69950D01*
X72500Y349750D02*Y347500D01*
Y349750D02*X73250Y350500D01*
X74000D01*
X74750Y349750D01*
Y347500D01*
X71750Y350500D02*X72500Y349750D01*
X77300Y350500D02*X79550D01*
X76550Y349750D02*X77300Y350500D01*
X76550Y349750D02*Y348250D01*
X77300Y347500D01*
X79550D01*
X81350Y353500D02*Y347500D01*
Y349750D02*X82100Y350500D01*
X83600D01*
X84350Y349750D01*
Y347500D01*
X86150Y353500D02*X86900Y352750D01*
Y348250D01*
X86150Y347500D02*X86900Y348250D01*
X41000Y344250D02*X88700D01*
X96050Y347500D02*X98000D01*
X95000Y348550D02*X96050Y347500D01*
X95000Y352450D02*Y348550D01*
Y352450D02*X96050Y353500D01*
X98000D01*
X99800Y349750D02*Y348250D01*
Y349750D02*X100550Y350500D01*
X102050D01*
X102800Y349750D01*
Y348250D01*
X102050Y347500D02*X102800Y348250D01*
X100550Y347500D02*X102050D01*
X99800Y348250D02*X100550Y347500D01*
X104600Y350500D02*Y348250D01*
X105350Y347500D01*
X106850D01*
X107600Y348250D01*
Y350500D02*Y348250D01*
X110150Y349750D02*Y347500D01*
Y349750D02*X110900Y350500D01*
X111650D01*
X112400Y349750D01*
Y347500D01*
X109400Y350500D02*X110150Y349750D01*
X114950Y353500D02*Y348250D01*
X115700Y347500D01*
X114200Y351250D02*X115700D01*
X95000Y344250D02*X117200D01*
X130750Y353500D02*Y347500D01*
X130000Y353500D02*X133000D01*
X133750Y352750D01*
Y351250D01*
X133000Y350500D02*X133750Y351250D01*
X130750Y350500D02*X133000D01*
X135550Y353500D02*Y348250D01*
X136300Y347500D01*
X140050Y350500D02*X140800Y349750D01*
X138550Y350500D02*X140050D01*
X137800Y349750D02*X138550Y350500D01*
X137800Y349750D02*Y348250D01*
X138550Y347500D01*
X140800Y350500D02*Y348250D01*
X141550Y347500D01*
X138550D02*X140050D01*
X140800Y348250D01*
X144100Y353500D02*Y348250D01*
X144850Y347500D01*
X143350Y351250D02*X144850D01*
X147100Y347500D02*X149350D01*
X146350Y348250D02*X147100Y347500D01*
X146350Y349750D02*Y348250D01*
Y349750D02*X147100Y350500D01*
X148600D01*
X149350Y349750D01*
X146350Y349000D02*X149350D01*
Y349750D02*Y349000D01*
X154150Y353500D02*Y347500D01*
X153400D02*X154150Y348250D01*
X151900Y347500D02*X153400D01*
X151150Y348250D02*X151900Y347500D01*
X151150Y349750D02*Y348250D01*
Y349750D02*X151900Y350500D01*
X153400D01*
X154150Y349750D01*
X157450Y350500D02*Y349750D01*
Y348250D02*Y347500D01*
X155950Y352750D02*Y352000D01*
Y352750D02*X156700Y353500D01*
X158200D01*
X158950Y352750D01*
Y352000D01*
X157450Y350500D02*X158950Y352000D01*
X130000Y344250D02*X160750D01*
X0Y368500D02*X3000D01*
X1500D02*Y362500D01*
X4800Y368500D02*Y362500D01*
Y364750D02*X5550Y365500D01*
X7050D01*
X7800Y364750D01*
Y362500D01*
X10350D02*X12600D01*
X9600Y363250D02*X10350Y362500D01*
X9600Y364750D02*Y363250D01*
Y364750D02*X10350Y365500D01*
X11850D01*
X12600Y364750D01*
X9600Y364000D02*X12600D01*
Y364750D02*Y364000D01*
X15150Y364750D02*Y362500D01*
Y364750D02*X15900Y365500D01*
X17400D01*
X14400D02*X15150Y364750D01*
X19950Y362500D02*X22200D01*
X19200Y363250D02*X19950Y362500D01*
X19200Y364750D02*Y363250D01*
Y364750D02*X19950Y365500D01*
X21450D01*
X22200Y364750D01*
X19200Y364000D02*X22200D01*
Y364750D02*Y364000D01*
X28950Y365500D02*X29700Y364750D01*
X27450Y365500D02*X28950D01*
X26700Y364750D02*X27450Y365500D01*
X26700Y364750D02*Y363250D01*
X27450Y362500D01*
X29700Y365500D02*Y363250D01*
X30450Y362500D01*
X27450D02*X28950D01*
X29700Y363250D01*
X33000Y364750D02*Y362500D01*
Y364750D02*X33750Y365500D01*
X35250D01*
X32250D02*X33000Y364750D01*
X37800Y362500D02*X40050D01*
X37050Y363250D02*X37800Y362500D01*
X37050Y364750D02*Y363250D01*
Y364750D02*X37800Y365500D01*
X39300D01*
X40050Y364750D01*
X37050Y364000D02*X40050D01*
Y364750D02*Y364000D01*
X46800Y368500D02*X47550Y367750D01*
X45300Y368500D02*X46800D01*
X44550Y367750D02*X45300Y368500D01*
X44550Y367750D02*Y363250D01*
X45300Y362500D01*
X46800Y365800D02*X47550Y365050D01*
X44550Y365800D02*X46800D01*
X45300Y362500D02*X46800D01*
X47550Y363250D01*
Y365050D02*Y363250D01*
X55050Y368500D02*Y362500D01*
X54300D02*X55050Y363250D01*
X52800Y362500D02*X54300D01*
X52050Y363250D02*X52800Y362500D01*
X52050Y364750D02*Y363250D01*
Y364750D02*X52800Y365500D01*
X54300D01*
X55050Y364750D01*
G54D96*X56850Y367000D02*Y366850D01*
G54D95*Y364750D02*Y362500D01*
X59100Y367750D02*Y362500D01*
Y367750D02*X59850Y368500D01*
X60600D01*
X58350Y365500D02*X59850D01*
X62850Y367750D02*Y362500D01*
Y367750D02*X63600Y368500D01*
X64350D01*
X62100Y365500D02*X63600D01*
X66600Y362500D02*X68850D01*
X65850Y363250D02*X66600Y362500D01*
X65850Y364750D02*Y363250D01*
Y364750D02*X66600Y365500D01*
X68100D01*
X68850Y364750D01*
X65850Y364000D02*X68850D01*
Y364750D02*Y364000D01*
X71400Y364750D02*Y362500D01*
Y364750D02*X72150Y365500D01*
X73650D01*
X70650D02*X71400Y364750D01*
X76200Y362500D02*X78450D01*
X75450Y363250D02*X76200Y362500D01*
X75450Y364750D02*Y363250D01*
Y364750D02*X76200Y365500D01*
X77700D01*
X78450Y364750D01*
X75450Y364000D02*X78450D01*
Y364750D02*Y364000D01*
X81000Y364750D02*Y362500D01*
Y364750D02*X81750Y365500D01*
X82500D01*
X83250Y364750D01*
Y362500D01*
X80250Y365500D02*X81000Y364750D01*
X85800Y368500D02*Y363250D01*
X86550Y362500D01*
X85050Y366250D02*X86550D01*
X93750Y368500D02*Y362500D01*
X93000D02*X93750Y363250D01*
X91500Y362500D02*X93000D01*
X90750Y363250D02*X91500Y362500D01*
X90750Y364750D02*Y363250D01*
Y364750D02*X91500Y365500D01*
X93000D01*
X93750Y364750D01*
X96300D02*Y362500D01*
Y364750D02*X97050Y365500D01*
X98550D01*
X95550D02*X96300Y364750D01*
G54D96*X100350Y367000D02*Y366850D01*
G54D95*Y364750D02*Y362500D01*
X101850Y368500D02*Y363250D01*
X102600Y362500D01*
X104100Y368500D02*Y363250D01*
X104850Y362500D01*
X109800D02*X112050D01*
X112800Y363250D01*
X112050Y364000D02*X112800Y363250D01*
X109800Y364000D02*X112050D01*
X109050Y364750D02*X109800Y364000D01*
X109050Y364750D02*X109800Y365500D01*
X112050D01*
X112800Y364750D01*
X109050Y363250D02*X109800Y362500D01*
G54D96*X114600Y367000D02*Y366850D01*
G54D95*Y364750D02*Y362500D01*
X116100Y365500D02*X119100D01*
X116100Y362500D02*X119100Y365500D01*
X116100Y362500D02*X119100D01*
X121650D02*X123900D01*
X120900Y363250D02*X121650Y362500D01*
X120900Y364750D02*Y363250D01*
Y364750D02*X121650Y365500D01*
X123150D01*
X123900Y364750D01*
X120900Y364000D02*X123900D01*
Y364750D02*Y364000D01*
X126450Y362500D02*X128700D01*
X129450Y363250D01*
X128700Y364000D02*X129450Y363250D01*
X126450Y364000D02*X128700D01*
X125700Y364750D02*X126450Y364000D01*
X125700Y364750D02*X126450Y365500D01*
X128700D01*
X129450Y364750D01*
X125700Y363250D02*X126450Y362500D01*
X133950Y365500D02*Y363250D01*
X134700Y362500D01*
X136200D01*
X136950Y363250D01*
Y365500D02*Y363250D01*
X139500Y362500D02*X141750D01*
X142500Y363250D01*
X141750Y364000D02*X142500Y363250D01*
X139500Y364000D02*X141750D01*
X138750Y364750D02*X139500Y364000D01*
X138750Y364750D02*X139500Y365500D01*
X141750D01*
X142500Y364750D01*
X138750Y363250D02*X139500Y362500D01*
X145050D02*X147300D01*
X144300Y363250D02*X145050Y362500D01*
X144300Y364750D02*Y363250D01*
Y364750D02*X145050Y365500D01*
X146550D01*
X147300Y364750D01*
X144300Y364000D02*X147300D01*
Y364750D02*Y364000D01*
X152100Y368500D02*Y362500D01*
X151350D02*X152100Y363250D01*
X149850Y362500D02*X151350D01*
X149100Y363250D02*X149850Y362500D01*
X149100Y364750D02*Y363250D01*
Y364750D02*X149850Y365500D01*
X151350D01*
X152100Y364750D01*
G54D96*X156600Y367000D02*Y366850D01*
G54D95*Y364750D02*Y362500D01*
X158850Y364750D02*Y362500D01*
Y364750D02*X159600Y365500D01*
X160350D01*
X161100Y364750D01*
Y362500D01*
X158100Y365500D02*X158850Y364750D01*
X166350Y368500D02*Y363250D01*
X167100Y362500D01*
X165600Y366250D02*X167100D01*
X168600Y368500D02*Y362500D01*
Y364750D02*X169350Y365500D01*
X170850D01*
X171600Y364750D01*
Y362500D01*
G54D96*X173400Y367000D02*Y366850D01*
G54D95*Y364750D02*Y362500D01*
X175650D02*X177900D01*
X178650Y363250D01*
X177900Y364000D02*X178650Y363250D01*
X175650Y364000D02*X177900D01*
X174900Y364750D02*X175650Y364000D01*
X174900Y364750D02*X175650Y365500D01*
X177900D01*
X178650Y364750D01*
X174900Y363250D02*X175650Y362500D01*
X183150Y368500D02*Y363250D01*
X183900Y362500D01*
X187650Y365500D02*X188400Y364750D01*
X186150Y365500D02*X187650D01*
X185400Y364750D02*X186150Y365500D01*
X185400Y364750D02*Y363250D01*
X186150Y362500D01*
X188400Y365500D02*Y363250D01*
X189150Y362500D01*
X186150D02*X187650D01*
X188400Y363250D01*
X190950Y365500D02*Y363250D01*
X191700Y362500D01*
X193950Y365500D02*Y361000D01*
X193200Y360250D02*X193950Y361000D01*
X191700Y360250D02*X193200D01*
X190950Y361000D02*X191700Y360250D01*
Y362500D02*X193200D01*
X193950Y363250D01*
X195750Y364750D02*Y363250D01*
Y364750D02*X196500Y365500D01*
X198000D01*
X198750Y364750D01*
Y363250D01*
X198000Y362500D02*X198750Y363250D01*
X196500Y362500D02*X198000D01*
X195750Y363250D02*X196500Y362500D01*
X200550Y365500D02*Y363250D01*
X201300Y362500D01*
X202800D01*
X203550Y363250D01*
Y365500D02*Y363250D01*
X206100Y368500D02*Y363250D01*
X206850Y362500D01*
X205350Y366250D02*X206850D01*
X208350Y361000D02*X209850Y362500D01*
X214350Y367300D02*X215550Y368500D01*
Y362500D01*
X214350D02*X216600D01*
X220650Y368500D02*X221400Y367750D01*
X219150Y368500D02*X220650D01*
X218400Y367750D02*X219150Y368500D01*
X218400Y367750D02*Y363250D01*
X219150Y362500D01*
X220650Y365800D02*X221400Y365050D01*
X218400Y365800D02*X220650D01*
X219150Y362500D02*X220650D01*
X221400Y363250D01*
Y365050D02*Y363250D01*
X223950Y362500D02*X226950Y368500D01*
X223200D02*X226950D01*
X231450D02*Y362500D01*
Y364750D02*X232200Y365500D01*
X233700D01*
X234450Y364750D01*
Y362500D01*
X236250Y364750D02*Y363250D01*
Y364750D02*X237000Y365500D01*
X238500D01*
X239250Y364750D01*
Y363250D01*
X238500Y362500D02*X239250Y363250D01*
X237000Y362500D02*X238500D01*
X236250Y363250D02*X237000Y362500D01*
X241050Y368500D02*Y363250D01*
X241800Y362500D01*
X244050D02*X246300D01*
X243300Y363250D02*X244050Y362500D01*
X243300Y364750D02*Y363250D01*
Y364750D02*X244050Y365500D01*
X245550D01*
X246300Y364750D01*
X243300Y364000D02*X246300D01*
Y364750D02*Y364000D01*
X248850Y362500D02*X251100D01*
X251850Y363250D01*
X251100Y364000D02*X251850Y363250D01*
X248850Y364000D02*X251100D01*
X248100Y364750D02*X248850Y364000D01*
X248100Y364750D02*X248850Y365500D01*
X251100D01*
X251850Y364750D01*
X248100Y363250D02*X248850Y362500D01*
X257100Y368500D02*Y363250D01*
X257850Y362500D01*
X256350Y366250D02*X257850D01*
X259350Y364750D02*Y363250D01*
Y364750D02*X260100Y365500D01*
X261600D01*
X262350Y364750D01*
Y363250D01*
X261600Y362500D02*X262350Y363250D01*
X260100Y362500D02*X261600D01*
X259350Y363250D02*X260100Y362500D01*
X264900Y368500D02*Y363250D01*
X265650Y362500D01*
X264150Y366250D02*X265650D01*
X269400Y365500D02*X270150Y364750D01*
X267900Y365500D02*X269400D01*
X267150Y364750D02*X267900Y365500D01*
X267150Y364750D02*Y363250D01*
X267900Y362500D01*
X270150Y365500D02*Y363250D01*
X270900Y362500D01*
X267900D02*X269400D01*
X270150Y363250D01*
X272700Y368500D02*Y363250D01*
X273450Y362500D01*
G54D97*X35000Y240000D02*X289000D01*
X35000D02*Y30000D01*
X295000D01*
Y234000D02*Y189000D01*
X289000Y240000D02*X295000Y234000D01*
X305000Y50000D02*Y179000D01*
X295000Y189000D02*X305000Y179000D01*
Y50000D02*X295000Y40000D01*
Y30000D01*
G54D98*X9193Y8657D02*Y5657D01*
Y8657D02*X9693Y9157D01*
X10693D01*
X11193Y8657D01*
Y5657D01*
X10693Y5157D02*X11193Y5657D01*
X9693Y5157D02*X10693D01*
X9193Y5657D02*X9693Y5157D01*
X12393Y9157D02*Y5657D01*
X12893Y5157D01*
X13893D01*
X14393Y5657D01*
Y9157D02*Y5657D01*
X15593Y9157D02*X17593D01*
X16593D02*Y5157D01*
X18793Y9157D02*Y5157D01*
X20793D01*
X21993Y9157D02*X22993D01*
X22493D02*Y5157D01*
X21993D02*X22993D01*
X24193Y9157D02*Y5157D01*
Y9157D02*X26693Y5157D01*
Y9157D02*Y5157D01*
X27893Y7357D02*X29393D01*
X27893Y5157D02*X29893D01*
X27893Y9157D02*Y5157D01*
Y9157D02*X29893D01*
G54D95*X73675Y-9500D02*X76675D01*
X77425Y-8750D01*
Y-6950D02*Y-8750D01*
X76675Y-6200D02*X77425Y-6950D01*
X74425Y-6200D02*X76675D01*
X74425Y-3500D02*Y-9500D01*
X73675Y-3500D02*X76675D01*
X77425Y-4250D01*
Y-5450D01*
X76675Y-6200D02*X77425Y-5450D01*
X79225Y-7250D02*Y-8750D01*
Y-7250D02*X79975Y-6500D01*
X81475D01*
X82225Y-7250D01*
Y-8750D01*
X81475Y-9500D02*X82225Y-8750D01*
X79975Y-9500D02*X81475D01*
X79225Y-8750D02*X79975Y-9500D01*
X86275Y-6500D02*X87025Y-7250D01*
X84775Y-6500D02*X86275D01*
X84025Y-7250D02*X84775Y-6500D01*
X84025Y-7250D02*Y-8750D01*
X84775Y-9500D01*
X87025Y-6500D02*Y-8750D01*
X87775Y-9500D01*
X84775D02*X86275D01*
X87025Y-8750D01*
X90325Y-7250D02*Y-9500D01*
Y-7250D02*X91075Y-6500D01*
X92575D01*
X89575D02*X90325Y-7250D01*
X97375Y-3500D02*Y-9500D01*
X96625D02*X97375Y-8750D01*
X95125Y-9500D02*X96625D01*
X94375Y-8750D02*X95125Y-9500D01*
X94375Y-7250D02*Y-8750D01*
Y-7250D02*X95125Y-6500D01*
X96625D01*
X97375Y-7250D01*
X101875D02*Y-8750D01*
Y-7250D02*X102625Y-6500D01*
X104125D01*
X104875Y-7250D01*
Y-8750D01*
X104125Y-9500D02*X104875Y-8750D01*
X102625Y-9500D02*X104125D01*
X101875Y-8750D02*X102625Y-9500D01*
X106675Y-6500D02*Y-8750D01*
X107425Y-9500D01*
X108925D01*
X109675Y-8750D01*
Y-6500D02*Y-8750D01*
X112225Y-3500D02*Y-8750D01*
X112975Y-9500D01*
X111475Y-5750D02*X112975D01*
X114475Y-3500D02*Y-8750D01*
X115225Y-9500D01*
G54D96*X116725Y-5000D02*Y-5150D01*
G54D95*Y-7250D02*Y-9500D01*
X118975Y-7250D02*Y-9500D01*
Y-7250D02*X119725Y-6500D01*
X120475D01*
X121225Y-7250D01*
Y-9500D01*
X118225Y-6500D02*X118975Y-7250D01*
X123775Y-9500D02*X126025D01*
X123025Y-8750D02*X123775Y-9500D01*
X123025Y-7250D02*Y-8750D01*
Y-7250D02*X123775Y-6500D01*
X125275D01*
X126025Y-7250D01*
X123025Y-8000D02*X126025D01*
Y-7250D02*Y-8000D01*
G54D96*X130525Y-5000D02*Y-5150D01*
G54D95*Y-7250D02*Y-9500D01*
X132775D02*X135025D01*
X135775Y-8750D01*
X135025Y-8000D02*X135775Y-8750D01*
X132775Y-8000D02*X135025D01*
X132025Y-7250D02*X132775Y-8000D01*
X132025Y-7250D02*X132775Y-6500D01*
X135025D01*
X135775Y-7250D01*
X132025Y-8750D02*X132775Y-9500D01*
X141025Y-3500D02*Y-8750D01*
X141775Y-9500D01*
X140275Y-5750D02*X141775D01*
X143275Y-3500D02*Y-9500D01*
Y-7250D02*X144025Y-6500D01*
X145525D01*
X146275Y-7250D01*
Y-9500D01*
X148825D02*X151075D01*
X148075Y-8750D02*X148825Y-9500D01*
X148075Y-7250D02*Y-8750D01*
Y-7250D02*X148825Y-6500D01*
X150325D01*
X151075Y-7250D01*
X148075Y-8000D02*X151075D01*
Y-7250D02*Y-8000D01*
X156325Y-6500D02*X158575D01*
X155575Y-7250D02*X156325Y-6500D01*
X155575Y-7250D02*Y-8750D01*
X156325Y-9500D01*
X158575D01*
X161125D02*X163375D01*
X160375Y-8750D02*X161125Y-9500D01*
X160375Y-7250D02*Y-8750D01*
Y-7250D02*X161125Y-6500D01*
X162625D01*
X163375Y-7250D01*
X160375Y-8000D02*X163375D01*
Y-7250D02*Y-8000D01*
X165925Y-7250D02*Y-9500D01*
Y-7250D02*X166675Y-6500D01*
X167425D01*
X168175Y-7250D01*
Y-9500D01*
X165175Y-6500D02*X165925Y-7250D01*
X170725Y-3500D02*Y-8750D01*
X171475Y-9500D01*
X169975Y-5750D02*X171475D01*
X173725Y-9500D02*X175975D01*
X172975Y-8750D02*X173725Y-9500D01*
X172975Y-7250D02*Y-8750D01*
Y-7250D02*X173725Y-6500D01*
X175225D01*
X175975Y-7250D01*
X172975Y-8000D02*X175975D01*
Y-7250D02*Y-8000D01*
X178525Y-7250D02*Y-9500D01*
Y-7250D02*X179275Y-6500D01*
X180775D01*
X177775D02*X178525Y-7250D01*
X182575Y-3500D02*Y-8750D01*
X183325Y-9500D01*
G54D96*X184825Y-5000D02*Y-5150D01*
G54D95*Y-7250D02*Y-9500D01*
X187075Y-7250D02*Y-9500D01*
Y-7250D02*X187825Y-6500D01*
X188575D01*
X189325Y-7250D01*
Y-9500D01*
X186325Y-6500D02*X187075Y-7250D01*
X191875Y-9500D02*X194125D01*
X191125Y-8750D02*X191875Y-9500D01*
X191125Y-7250D02*Y-8750D01*
Y-7250D02*X191875Y-6500D01*
X193375D01*
X194125Y-7250D01*
X191125Y-8000D02*X194125D01*
Y-7250D02*Y-8000D01*
X198625Y-7250D02*Y-8750D01*
Y-7250D02*X199375Y-6500D01*
X200875D01*
X201625Y-7250D01*
Y-8750D01*
X200875Y-9500D02*X201625Y-8750D01*
X199375Y-9500D02*X200875D01*
X198625Y-8750D02*X199375Y-9500D01*
X204175Y-4250D02*Y-9500D01*
Y-4250D02*X204925Y-3500D01*
X205675D01*
X203425Y-6500D02*X204925D01*
X210625Y-3500D02*Y-8750D01*
X211375Y-9500D01*
X209875Y-5750D02*X211375D01*
X212875Y-3500D02*Y-9500D01*
Y-7250D02*X213625Y-6500D01*
X215125D01*
X215875Y-7250D01*
Y-9500D01*
G54D96*X217675Y-5000D02*Y-5150D01*
G54D95*Y-7250D02*Y-9500D01*
X219925D02*X222175D01*
X222925Y-8750D01*
X222175Y-8000D02*X222925Y-8750D01*
X219925Y-8000D02*X222175D01*
X219175Y-7250D02*X219925Y-8000D01*
X219175Y-7250D02*X219925Y-6500D01*
X222175D01*
X222925Y-7250D01*
X219175Y-8750D02*X219925Y-9500D01*
X228175Y-7250D02*Y-11750D01*
X227425Y-6500D02*X228175Y-7250D01*
X228925Y-6500D01*
X230425D01*
X231175Y-7250D01*
Y-8750D01*
X230425Y-9500D02*X231175Y-8750D01*
X228925Y-9500D02*X230425D01*
X228175Y-8750D02*X228925Y-9500D01*
X235225Y-6500D02*X235975Y-7250D01*
X233725Y-6500D02*X235225D01*
X232975Y-7250D02*X233725Y-6500D01*
X232975Y-7250D02*Y-8750D01*
X233725Y-9500D01*
X235975Y-6500D02*Y-8750D01*
X236725Y-9500D01*
X233725D02*X235225D01*
X235975Y-8750D01*
X239275Y-3500D02*Y-8750D01*
X240025Y-9500D01*
X238525Y-5750D02*X240025D01*
X241525Y-3500D02*Y-9500D01*
Y-7250D02*X242275Y-6500D01*
X243775D01*
X244525Y-7250D01*
Y-9500D01*
X200750Y278500D02*Y272500D01*
X202700Y278500D02*X203750Y277450D01*
Y273550D01*
X202700Y272500D02*X203750Y273550D01*
X200000Y272500D02*X202700D01*
X200000Y278500D02*X202700D01*
X207800Y275500D02*X208550Y274750D01*
X206300Y275500D02*X207800D01*
X205550Y274750D02*X206300Y275500D01*
X205550Y274750D02*Y273250D01*
X206300Y272500D01*
X208550Y275500D02*Y273250D01*
X209300Y272500D01*
X206300D02*X207800D01*
X208550Y273250D01*
X211850Y278500D02*Y273250D01*
X212600Y272500D01*
X211100Y276250D02*X212600D01*
X214850Y272500D02*X217100D01*
X214100Y273250D02*X214850Y272500D01*
X214100Y274750D02*Y273250D01*
Y274750D02*X214850Y275500D01*
X216350D01*
X217100Y274750D01*
X214100Y274000D02*X217100D01*
Y274750D02*Y274000D01*
X218900Y276250D02*X219650D01*
X218900Y274750D02*X219650D01*
X227150Y278500D02*X227900Y277750D01*
X224900Y278500D02*X227150D01*
X224150Y277750D02*X224900Y278500D01*
X224150Y277750D02*Y276250D01*
X224900Y275500D01*
X227150D01*
X227900Y274750D01*
Y273250D01*
X227150Y272500D02*X227900Y273250D01*
X224900Y272500D02*X227150D01*
X224150Y273250D02*X224900Y272500D01*
X229700Y275500D02*Y273250D01*
X230450Y272500D01*
X231950D01*
X232700Y273250D01*
Y275500D02*Y273250D01*
X235250Y274750D02*Y272500D01*
Y274750D02*X236000Y275500D01*
X236750D01*
X237500Y274750D01*
Y272500D01*
X234500Y275500D02*X235250Y274750D01*
X245000Y278500D02*X245750Y277750D01*
X242750Y278500D02*X245000D01*
X242000Y277750D02*X242750Y278500D01*
X242000Y277750D02*Y276250D01*
X242750Y275500D01*
X245000D01*
X245750Y274750D01*
Y273250D01*
X245000Y272500D02*X245750Y273250D01*
X242750Y272500D02*X245000D01*
X242000Y273250D02*X242750Y272500D01*
X248300D02*X250550D01*
X247550Y273250D02*X248300Y272500D01*
X247550Y274750D02*Y273250D01*
Y274750D02*X248300Y275500D01*
X249800D01*
X250550Y274750D01*
X247550Y274000D02*X250550D01*
Y274750D02*Y274000D01*
X253100Y274750D02*Y270250D01*
X252350Y275500D02*X253100Y274750D01*
X253850Y275500D01*
X255350D01*
X256100Y274750D01*
Y273250D01*
X255350Y272500D02*X256100Y273250D01*
X253850Y272500D02*X255350D01*
X253100Y273250D02*X253850Y272500D01*
X264050D02*X266300Y275500D01*
Y277750D02*Y275500D01*
X265550Y278500D02*X266300Y277750D01*
X264050Y278500D02*X265550D01*
X263300Y277750D02*X264050Y278500D01*
X263300Y277750D02*Y276250D01*
X264050Y275500D01*
X266300D01*
X270800Y277750D02*X271550Y278500D01*
X273800D01*
X274550Y277750D01*
Y276250D01*
X270800Y272500D02*X274550Y276250D01*
X270800Y272500D02*X274550D01*
X276350Y273250D02*X277100Y272500D01*
X276350Y277750D02*Y273250D01*
Y277750D02*X277100Y278500D01*
X278600D01*
X279350Y277750D01*
Y273250D01*
X278600Y272500D02*X279350Y273250D01*
X277100Y272500D02*X278600D01*
X276350Y274000D02*X279350Y277000D01*
X281150Y276250D02*X281900D01*
X281150Y274750D02*X281900D01*
X283700Y277300D02*X284900Y278500D01*
Y272500D01*
X283700D02*X285950D01*
X287750Y278500D02*X290750D01*
X287750D02*Y275500D01*
X288500Y276250D01*
X290000D01*
X290750Y275500D01*
Y273250D01*
X290000Y272500D02*X290750Y273250D01*
X288500Y272500D02*X290000D01*
X287750Y273250D02*X288500Y272500D01*
X292550Y276250D02*X293300D01*
X292550Y274750D02*X293300D01*
X295100Y277750D02*X295850Y278500D01*
X297350D01*
X298100Y277750D01*
X297350Y272500D02*X298100Y273250D01*
X295850Y272500D02*X297350D01*
X295100Y273250D02*X295850Y272500D01*
Y275800D02*X297350D01*
X298100Y277750D02*Y276550D01*
Y275050D02*Y273250D01*
Y275050D02*X297350Y275800D01*
X298100Y276550D02*X297350Y275800D01*
X300650Y272500D02*X303650Y278500D01*
X299900D02*X303650D01*
X308150Y277750D02*X308900Y278500D01*
X311150D01*
X311900Y277750D01*
Y276250D01*
X308150Y272500D02*X311900Y276250D01*
X308150Y272500D02*X311900D01*
X313700Y273250D02*X314450Y272500D01*
X313700Y277750D02*Y273250D01*
Y277750D02*X314450Y278500D01*
X315950D01*
X316700Y277750D01*
Y273250D01*
X315950Y272500D02*X316700Y273250D01*
X314450Y272500D02*X315950D01*
X313700Y274000D02*X316700Y277000D01*
X318500Y277300D02*X319700Y278500D01*
Y272500D01*
X318500D02*X320750D01*
X322550Y273250D02*X323300Y272500D01*
X322550Y274450D02*Y273250D01*
Y274450D02*X323600Y275500D01*
X324500D01*
X325550Y274450D01*
Y273250D01*
X324800Y272500D02*X325550Y273250D01*
X323300Y272500D02*X324800D01*
X322550Y276550D02*X323600Y275500D01*
X322550Y277750D02*Y276550D01*
Y277750D02*X323300Y278500D01*
X324800D01*
X325550Y277750D01*
Y276550D01*
X324500Y275500D02*X325550Y276550D01*
X330050Y278500D02*Y273250D01*
X330800Y272500D01*
X332300D01*
X333050Y273250D01*
Y278500D02*Y273250D01*
X334850Y278500D02*X337850D01*
X336350D02*Y272500D01*
X340700D02*X342650D01*
X339650Y273550D02*X340700Y272500D01*
X339650Y277450D02*Y273550D01*
Y277450D02*X340700Y278500D01*
X342650D01*
X200000Y292000D02*Y287500D01*
Y292000D02*X201050Y293500D01*
X202700D01*
X203750Y292000D01*
Y287500D01*
X200000Y290500D02*X203750D01*
X205550D02*Y288250D01*
X206300Y287500D01*
X207800D01*
X208550Y288250D01*
Y290500D02*Y288250D01*
X211100Y293500D02*Y288250D01*
X211850Y287500D01*
X210350Y291250D02*X211850D01*
X213350Y293500D02*Y287500D01*
Y289750D02*X214100Y290500D01*
X215600D01*
X216350Y289750D01*
Y287500D01*
X218150Y289750D02*Y288250D01*
Y289750D02*X218900Y290500D01*
X220400D01*
X221150Y289750D01*
Y288250D01*
X220400Y287500D02*X221150Y288250D01*
X218900Y287500D02*X220400D01*
X218150Y288250D02*X218900Y287500D01*
X223700Y289750D02*Y287500D01*
Y289750D02*X224450Y290500D01*
X225950D01*
X222950D02*X223700Y289750D01*
X227750Y291250D02*X228500D01*
X227750Y289750D02*X228500D01*
X233000Y287500D02*X236000D01*
X236750Y288250D01*
Y290050D02*Y288250D01*
X236000Y290800D02*X236750Y290050D01*
X233750Y290800D02*X236000D01*
X233750Y293500D02*Y287500D01*
X233000Y293500D02*X236000D01*
X236750Y292750D01*
Y291550D01*
X236000Y290800D02*X236750Y291550D01*
X239300Y287500D02*X241550D01*
X238550Y288250D02*X239300Y287500D01*
X238550Y289750D02*Y288250D01*
Y289750D02*X239300Y290500D01*
X240800D01*
X241550Y289750D01*
X238550Y289000D02*X241550D01*
Y289750D02*Y289000D01*
X244100Y289750D02*Y287500D01*
Y289750D02*X244850Y290500D01*
X246350D01*
X243350D02*X244100Y289750D01*
X248900Y293500D02*Y288250D01*
X249650Y287500D01*
X248150Y291250D02*X249650D01*
X253850Y293500D02*X256850D01*
X255350D02*Y287500D01*
G54D96*X258650Y292000D02*Y291850D01*
G54D95*Y289750D02*Y287500D01*
X260900Y289750D02*Y287500D01*
Y289750D02*X261650Y290500D01*
X262400D01*
X263150Y289750D01*
Y287500D01*
Y289750D02*X263900Y290500D01*
X264650D01*
X265400Y289750D01*
Y287500D01*
X260150Y290500D02*X260900Y289750D01*
X267950D02*Y287500D01*
Y289750D02*X268700Y290500D01*
X269450D01*
X270200Y289750D01*
Y287500D01*
Y289750D02*X270950Y290500D01*
X271700D01*
X272450Y289750D01*
Y287500D01*
X267200Y290500D02*X267950Y289750D01*
X275000Y287500D02*X277250D01*
X274250Y288250D02*X275000Y287500D01*
X274250Y289750D02*Y288250D01*
Y289750D02*X275000Y290500D01*
X276500D01*
X277250Y289750D01*
X274250Y289000D02*X277250D01*
Y289750D02*Y289000D01*
X279800Y289750D02*Y287500D01*
Y289750D02*X280550Y290500D01*
X282050D01*
X279050D02*X279800Y289750D01*
X284600D02*Y287500D01*
Y289750D02*X285350Y290500D01*
X286100D01*
X286850Y289750D01*
Y287500D01*
Y289750D02*X287600Y290500D01*
X288350D01*
X289100Y289750D01*
Y287500D01*
X283850Y290500D02*X284600Y289750D01*
X293150Y290500D02*X293900Y289750D01*
X291650Y290500D02*X293150D01*
X290900Y289750D02*X291650Y290500D01*
X290900Y289750D02*Y288250D01*
X291650Y287500D01*
X293900Y290500D02*Y288250D01*
X294650Y287500D01*
X291650D02*X293150D01*
X293900Y288250D01*
X297200Y289750D02*Y287500D01*
Y289750D02*X297950Y290500D01*
X298700D01*
X299450Y289750D01*
Y287500D01*
X296450Y290500D02*X297200Y289750D01*
X200000Y308500D02*X203000D01*
X201500D02*Y302500D01*
G54D96*X204800Y307000D02*Y306850D01*
G54D95*Y304750D02*Y302500D01*
X207050Y308500D02*Y303250D01*
X207800Y302500D01*
X206300Y306250D02*X207800D01*
X209300Y308500D02*Y303250D01*
X210050Y302500D01*
X212300D02*X214550D01*
X211550Y303250D02*X212300Y302500D01*
X211550Y304750D02*Y303250D01*
Y304750D02*X212300Y305500D01*
X213800D01*
X214550Y304750D01*
X211550Y304000D02*X214550D01*
Y304750D02*Y304000D01*
X216350Y306250D02*X217100D01*
X216350Y304750D02*X217100D01*
X221600Y307000D02*Y302500D01*
Y307000D02*X222650Y308500D01*
X224300D01*
X225350Y307000D01*
Y302500D01*
X221600Y305500D02*X225350D01*
X228200Y308500D02*X229400D01*
Y303250D01*
X228650Y302500D02*X229400Y303250D01*
X227900Y302500D02*X228650D01*
X227150Y303250D02*X227900Y302500D01*
X227150Y304000D02*Y303250D01*
X231200Y302500D02*X231950D01*
X233750Y303250D02*X234500Y302500D01*
X233750Y307750D02*Y303250D01*
Y307750D02*X234500Y308500D01*
X236000D01*
X236750Y307750D01*
Y303250D01*
X236000Y302500D02*X236750Y303250D01*
X234500Y302500D02*X236000D01*
X233750Y304000D02*X236750Y307000D01*
X238550Y303250D02*X239300Y302500D01*
X238550Y307750D02*Y303250D01*
Y307750D02*X239300Y308500D01*
X240800D01*
X241550Y307750D01*
Y303250D01*
X240800Y302500D02*X241550Y303250D01*
X239300Y302500D02*X240800D01*
X238550Y304000D02*X241550Y307000D01*
X243350Y307300D02*X244550Y308500D01*
Y302500D01*
X243350D02*X245600D01*
X247400D02*X248150D01*
X249950Y303250D02*X250700Y302500D01*
X249950Y307750D02*Y303250D01*
Y307750D02*X250700Y308500D01*
X252200D01*
X252950Y307750D01*
Y303250D01*
X252200Y302500D02*X252950Y303250D01*
X250700Y302500D02*X252200D01*
X249950Y304000D02*X252950Y307000D01*
X254750Y303250D02*X255500Y302500D01*
X254750Y307750D02*Y303250D01*
Y307750D02*X255500Y308500D01*
X257000D01*
X257750Y307750D01*
Y303250D01*
X257000Y302500D02*X257750Y303250D01*
X255500Y302500D02*X257000D01*
X254750Y304000D02*X257750Y307000D01*
X259550Y302500D02*X260300D01*
X262100Y303250D02*X262850Y302500D01*
X262100Y307750D02*Y303250D01*
Y307750D02*X262850Y308500D01*
X264350D01*
X265100Y307750D01*
Y303250D01*
X264350Y302500D02*X265100Y303250D01*
X262850Y302500D02*X264350D01*
X262100Y304000D02*X265100Y307000D01*
X266900Y307300D02*X268100Y308500D01*
Y302500D01*
X266900D02*X269150D01*
X270950D02*X271700D01*
X273500Y303250D02*X274250Y302500D01*
X273500Y307750D02*Y303250D01*
Y307750D02*X274250Y308500D01*
X275750D01*
X276500Y307750D01*
Y303250D01*
X275750Y302500D02*X276500Y303250D01*
X274250Y302500D02*X275750D01*
X273500Y304000D02*X276500Y307000D01*
X278300Y307300D02*X279500Y308500D01*
Y302500D01*
X278300D02*X280550D01*
X285050Y305500D02*X288050D01*
X292550Y308500D02*Y302500D01*
Y308500D02*X295550D01*
X292550Y305800D02*X294800D01*
X299600Y305500D02*X300350Y304750D01*
X298100Y305500D02*X299600D01*
X297350Y304750D02*X298100Y305500D01*
X297350Y304750D02*Y303250D01*
X298100Y302500D01*
X300350Y305500D02*Y303250D01*
X301100Y302500D01*
X298100D02*X299600D01*
X300350Y303250D01*
X302900Y308500D02*Y302500D01*
Y303250D02*X303650Y302500D01*
X305150D01*
X305900Y303250D01*
Y304750D02*Y303250D01*
X305150Y305500D02*X305900Y304750D01*
X303650Y305500D02*X305150D01*
X302900Y304750D02*X303650Y305500D01*
X308450Y304750D02*Y302500D01*
Y304750D02*X309200Y305500D01*
X310700D01*
X307700D02*X308450Y304750D01*
G54D96*X312500Y307000D02*Y306850D01*
G54D95*Y304750D02*Y302500D01*
X314750Y305500D02*X317000D01*
X314000Y304750D02*X314750Y305500D01*
X314000Y304750D02*Y303250D01*
X314750Y302500D01*
X317000D01*
X321050Y305500D02*X321800Y304750D01*
X319550Y305500D02*X321050D01*
X318800Y304750D02*X319550Y305500D01*
X318800Y304750D02*Y303250D01*
X319550Y302500D01*
X321800Y305500D02*Y303250D01*
X322550Y302500D01*
X319550D02*X321050D01*
X321800Y303250D01*
X325100Y308500D02*Y303250D01*
X325850Y302500D01*
X324350Y306250D02*X325850D01*
G54D96*X327350Y307000D02*Y306850D01*
G54D95*Y304750D02*Y302500D01*
X328850Y304750D02*Y303250D01*
Y304750D02*X329600Y305500D01*
X331100D01*
X331850Y304750D01*
Y303250D01*
X331100Y302500D02*X331850Y303250D01*
X329600Y302500D02*X331100D01*
X328850Y303250D02*X329600Y302500D01*
X334400Y304750D02*Y302500D01*
Y304750D02*X335150Y305500D01*
X335900D01*
X336650Y304750D01*
Y302500D01*
X333650Y305500D02*X334400Y304750D01*
X341900Y308500D02*Y302500D01*
X343850Y308500D02*X344900Y307450D01*
Y303550D01*
X343850Y302500D02*X344900Y303550D01*
X341150Y302500D02*X343850D01*
X341150Y308500D02*X343850D01*
X347450Y304750D02*Y302500D01*
Y304750D02*X348200Y305500D01*
X349700D01*
X346700D02*X347450Y304750D01*
X353750Y305500D02*X354500Y304750D01*
X352250Y305500D02*X353750D01*
X351500Y304750D02*X352250Y305500D01*
X351500Y304750D02*Y303250D01*
X352250Y302500D01*
X354500Y305500D02*Y303250D01*
X355250Y302500D01*
X352250D02*X353750D01*
X354500Y303250D01*
X357050Y305500D02*Y303250D01*
X357800Y302500D01*
X358550D01*
X359300Y303250D01*
Y305500D02*Y303250D01*
X360050Y302500D01*
X360800D01*
X361550Y303250D01*
Y305500D02*Y303250D01*
G54D96*X363350Y307000D02*Y306850D01*
G54D95*Y304750D02*Y302500D01*
X365600Y304750D02*Y302500D01*
Y304750D02*X366350Y305500D01*
X367100D01*
X367850Y304750D01*
Y302500D01*
X364850Y305500D02*X365600Y304750D01*
X371900Y305500D02*X372650Y304750D01*
X370400Y305500D02*X371900D01*
X369650Y304750D02*X370400Y305500D01*
X369650Y304750D02*Y303250D01*
X370400Y302500D01*
X371900D01*
X372650Y303250D01*
X369650Y301000D02*X370400Y300250D01*
X371900D01*
X372650Y301000D01*
Y305500D02*Y301000D01*
M02*
