G04 start of page 11 for group -4015 idx -4015 *
G04 Title: AJ.001.00.01.01, toppaste *
G04 Creator: pcb 4.1.2 *
G04 CreationDate: Sat Nov 17 19:06:24 2018 UTC *
G04 For: bert *
G04 Format: Gerber/RS-274X *
G04 PCB-Dimensions (mil): 3200.00 2500.00 *
G04 PCB-Coordinate-Origin: lower left *
%MOIN*%
%FSLAX25Y25*%
%LNGTP*%
%ADD118C,0.0160*%
%ADD117C,0.0001*%
G54D117*G36*
X105643Y129003D02*Y126903D01*
X108728D01*
Y129003D01*
X105643D01*
G37*
G36*
X99935Y127035D02*Y124935D01*
X103019D01*
Y127035D01*
X99935D01*
G37*
G36*
Y130972D02*Y128872D01*
X103019D01*
Y130972D01*
X99935D01*
G37*
G36*
X58209Y187283D02*Y185315D01*
X67264D01*
Y187283D01*
X58209D01*
G37*
G36*
Y184134D02*Y182165D01*
X67264D01*
Y184134D01*
X58209D01*
G37*
G36*
Y180984D02*Y179016D01*
X67264D01*
Y180984D01*
X58209D01*
G37*
G36*
Y177835D02*Y175866D01*
X67264D01*
Y177835D01*
X58209D01*
G37*
G36*
Y174685D02*Y172717D01*
X67264D01*
Y174685D01*
X58209D01*
G37*
G36*
X57421Y166417D02*Y158543D01*
X67264D01*
Y166417D01*
X57421D01*
G37*
G36*
Y201457D02*Y193583D01*
X67264D01*
Y201457D01*
X57421D01*
G37*
G36*
X35768Y166417D02*Y158543D01*
X45610D01*
Y166417D01*
X35768D01*
G37*
G36*
Y201457D02*Y193583D01*
X45610D01*
Y201457D01*
X35768D01*
G37*
G54D118*X77500Y147826D02*Y145626D01*
G54D117*G36*
X80900Y148626D02*X79300D01*
Y144826D01*
X80900D01*
Y148626D01*
G37*
G36*
X83400D02*X81800D01*
Y144826D01*
X83400D01*
Y148626D01*
G37*
G36*
X86000D02*X84400D01*
Y144826D01*
X86000D01*
Y148626D01*
G37*
G36*
X88600D02*X87000D01*
Y144826D01*
X88600D01*
Y148626D01*
G37*
G36*
X91100D02*X89500D01*
Y144826D01*
X91100D01*
Y148626D01*
G37*
G36*
X93700D02*X92100D01*
Y144826D01*
X93700D01*
Y148626D01*
G37*
G36*
X96200D02*X94600D01*
Y144826D01*
X96200D01*
Y148626D01*
G37*
G36*
X98800D02*X97200D01*
Y144826D01*
X98800D01*
Y148626D01*
G37*
G36*
X101400D02*X99800D01*
Y144826D01*
X101400D01*
Y148626D01*
G37*
G36*
X103900D02*X102300D01*
Y144826D01*
X103900D01*
Y148626D01*
G37*
G36*
X106500D02*X104900D01*
Y144826D01*
X106500D01*
Y148626D01*
G37*
G36*
X109000D02*X107400D01*
Y144826D01*
X109000D01*
Y148626D01*
G37*
G36*
X111600D02*X110000D01*
Y144826D01*
X111600D01*
Y148626D01*
G37*
G36*
X111700Y177726D02*X110100D01*
Y173926D01*
X111700D01*
Y177726D01*
G37*
G36*
X109100D02*X107500D01*
Y173926D01*
X109100D01*
Y177726D01*
G37*
G36*
X106600D02*X105000D01*
Y173926D01*
X106600D01*
Y177726D01*
G37*
G36*
X104000D02*X102400D01*
Y173926D01*
X104000D01*
Y177726D01*
G37*
G36*
X101400D02*X99800D01*
Y173926D01*
X101400D01*
Y177726D01*
G37*
G36*
X98900D02*X97300D01*
Y173926D01*
X98900D01*
Y177726D01*
G37*
G36*
X96300D02*X94700D01*
Y173926D01*
X96300D01*
Y177726D01*
G37*
G36*
X93800D02*X92200D01*
Y173926D01*
X93800D01*
Y177726D01*
G37*
G36*
X91200D02*X89600D01*
Y173926D01*
X91200D01*
Y177726D01*
G37*
G36*
X88600D02*X87000D01*
Y173926D01*
X88600D01*
Y177726D01*
G37*
G36*
X86100D02*X84500D01*
Y173926D01*
X86100D01*
Y177726D01*
G37*
G36*
X83500D02*X81900D01*
Y173926D01*
X83500D01*
Y177726D01*
G37*
G36*
X81000D02*X79400D01*
Y173926D01*
X81000D01*
Y177726D01*
G37*
G36*
X78400D02*X76800D01*
Y173926D01*
X78400D01*
Y177726D01*
G37*
G36*
X122653Y113205D02*X117504D01*
Y103331D01*
X122653D01*
Y113205D01*
G37*
G36*
Y101394D02*X117504D01*
Y91520D01*
X122653D01*
Y101394D01*
G37*
G36*
X175197Y176181D02*Y170276D01*
X196850D01*
Y176181D01*
X175197D01*
G37*
G36*
X208661D02*Y170276D01*
X230315D01*
Y176181D01*
X208661D01*
G37*
G36*
X97833Y201181D02*Y196456D01*
X102558D01*
Y201181D01*
X97833D01*
G37*
G36*
X106103D02*Y196456D01*
X110828D01*
Y201181D01*
X106103D01*
G37*
G36*
X97833Y191339D02*Y186614D01*
X102558D01*
Y191339D01*
X97833D01*
G37*
G36*
X106103D02*Y186614D01*
X110828D01*
Y191339D01*
X106103D01*
G37*
G36*
X97833Y211024D02*Y206299D01*
X102558D01*
Y211024D01*
X97833D01*
G37*
G36*
X106103D02*Y206299D01*
X110828D01*
Y211024D01*
X106103D01*
G37*
G36*
X97833Y220866D02*Y216141D01*
X102558D01*
Y220866D01*
X97833D01*
G37*
G36*
X106103D02*Y216141D01*
X110828D01*
Y220866D01*
X106103D01*
G37*
G36*
X36890Y231614D02*Y226102D01*
X43189D01*
Y231614D01*
X36890D01*
G37*
G36*
X66811D02*Y226102D01*
X73110D01*
Y231614D01*
X66811D01*
G37*
G36*
X36890Y213898D02*Y208386D01*
X43189D01*
Y213898D01*
X36890D01*
G37*
G36*
X66811D02*Y208386D01*
X73110D01*
Y213898D01*
X66811D01*
G37*
G36*
X254390Y161614D02*Y156102D01*
X260689D01*
Y161614D01*
X254390D01*
G37*
G36*
X284311D02*Y156102D01*
X290610D01*
Y161614D01*
X284311D01*
G37*
G36*
X254390Y143898D02*Y138386D01*
X260689D01*
Y143898D01*
X254390D01*
G37*
G36*
X284311D02*Y138386D01*
X290610D01*
Y143898D01*
X284311D01*
G37*
G36*
X114567Y79921D02*X105906D01*
Y69685D01*
X114567D01*
Y79921D01*
G37*
G36*
Y60236D02*X105906D01*
Y50000D01*
X114567D01*
Y60236D01*
G37*
G36*
X134252Y79921D02*X125591D01*
Y69685D01*
X134252D01*
Y79921D01*
G37*
G36*
Y60236D02*X125591D01*
Y50000D01*
X134252D01*
Y60236D01*
G37*
G36*
X67913Y149606D02*X62992D01*
Y137795D01*
X67913D01*
Y149606D01*
G37*
G36*
X47244D02*X42323D01*
Y137795D01*
X47244D01*
Y149606D01*
G37*
G36*
X72835Y113189D02*Y108268D01*
X84646D01*
Y113189D01*
X72835D01*
G37*
G36*
Y92520D02*Y87598D01*
X84646D01*
Y92520D01*
X72835D01*
G37*
G36*
X92913Y137992D02*X88189D01*
Y131693D01*
X92913D01*
Y137992D01*
G37*
G36*
X81102D02*X76378D01*
Y131693D01*
X81102D01*
Y137992D01*
G37*
G36*
X92913Y128150D02*X88189D01*
Y121850D01*
X92913D01*
Y128150D01*
G37*
G36*
X81102D02*X76378D01*
Y121850D01*
X81102D01*
Y128150D01*
G37*
G36*
X122441Y170472D02*X117717D01*
Y164173D01*
X122441D01*
Y170472D01*
G37*
G36*
X134252D02*X129528D01*
Y164173D01*
X134252D01*
Y170472D01*
G37*
G36*
X122441Y180315D02*X117717D01*
Y174016D01*
X122441D01*
Y180315D01*
G37*
G36*
X134252D02*X129528D01*
Y174016D01*
X134252D01*
Y180315D01*
G37*
G36*
X100787Y140945D02*X96063D01*
Y134646D01*
X100787D01*
Y140945D01*
G37*
G36*
X112598D02*X107874D01*
Y134646D01*
X112598D01*
Y140945D01*
G37*
G36*
X91339Y55512D02*Y50787D01*
X97638D01*
Y55512D01*
X91339D01*
G37*
G36*
Y67323D02*Y62598D01*
X97638D01*
Y67323D01*
X91339D01*
G37*
G36*
X250394Y170472D02*X245669D01*
Y164173D01*
X250394D01*
Y170472D01*
G37*
G36*
X238583D02*X233858D01*
Y164173D01*
X238583D01*
Y170472D01*
G37*
G36*
X159843D02*X155118D01*
Y164173D01*
X159843D01*
Y170472D01*
G37*
G36*
X171654D02*X166929D01*
Y164173D01*
X171654D01*
Y170472D01*
G37*
G36*
X167717Y117323D02*X162992D01*
Y111024D01*
X167717D01*
Y117323D01*
G37*
G36*
X155906D02*X151181D01*
Y111024D01*
X155906D01*
Y117323D01*
G37*
G36*
X244488D02*X239764D01*
Y111024D01*
X244488D01*
Y117323D01*
G37*
G36*
X256299D02*X251575D01*
Y111024D01*
X256299D01*
Y117323D01*
G37*
G36*
X81102Y201969D02*X76378D01*
Y195669D01*
X81102D01*
Y201969D01*
G37*
G36*
X92913D02*X88189D01*
Y195669D01*
X92913D01*
Y201969D01*
G37*
G36*
X81102Y192126D02*X76378D01*
Y185827D01*
X81102D01*
Y192126D01*
G37*
G36*
X92913D02*X88189D01*
Y185827D01*
X92913D01*
Y192126D01*
G37*
G36*
X81102Y221654D02*X76378D01*
Y215354D01*
X81102D01*
Y221654D01*
G37*
G36*
X92913D02*X88189D01*
Y215354D01*
X92913D01*
Y221654D01*
G37*
G36*
X81102Y211811D02*X76378D01*
Y205512D01*
X81102D01*
Y211811D01*
G37*
G36*
X92913D02*X88189D01*
Y205512D01*
X92913D01*
Y211811D01*
G37*
G36*
X134252Y160630D02*X129528D01*
Y154331D01*
X134252D01*
Y160630D01*
G37*
G36*
X122441D02*X117717D01*
Y154331D01*
X122441D01*
Y160630D01*
G37*
G36*
X238583Y182283D02*X233858D01*
Y175984D01*
X238583D01*
Y182283D01*
G37*
G36*
X250394D02*X245669D01*
Y175984D01*
X250394D01*
Y182283D01*
G37*
G36*
X171654D02*X166929D01*
Y175984D01*
X171654D01*
Y182283D01*
G37*
G36*
X159843D02*X155118D01*
Y175984D01*
X159843D01*
Y182283D01*
G37*
G36*
X175591Y117323D02*X170866D01*
Y111024D01*
X175591D01*
Y117323D01*
G37*
G36*
X187402D02*X182677D01*
Y111024D01*
X187402D01*
Y117323D01*
G37*
G36*
X285827Y87795D02*X281102D01*
Y81496D01*
X285827D01*
Y87795D01*
G37*
G36*
X297638D02*X292913D01*
Y81496D01*
X297638D01*
Y87795D01*
G37*
G36*
X285827Y75984D02*X281102D01*
Y69685D01*
X285827D01*
Y75984D01*
G37*
G36*
X297638D02*X292913D01*
Y69685D01*
X297638D01*
Y75984D01*
G37*
G36*
X93307Y110630D02*Y105906D01*
X99606D01*
Y110630D01*
X93307D01*
G37*
G36*
Y98819D02*Y94094D01*
X99606D01*
Y98819D01*
X93307D01*
G37*
G36*
X48681Y95000D02*X43563D01*
Y88307D01*
X48681D01*
Y95000D01*
G37*
G36*
X65945Y128228D02*X44291D01*
Y105787D01*
X65945D01*
Y128228D01*
G37*
G36*
X57677Y97283D02*X52559D01*
Y90591D01*
X57677D01*
Y97283D01*
G37*
G36*
X66673Y95000D02*X61555D01*
Y88307D01*
X66673D01*
Y95000D01*
G37*
G36*
X122441Y150787D02*X117717D01*
Y144488D01*
X122441D01*
Y150787D01*
G37*
G36*
X134252D02*X129528D01*
Y144488D01*
X134252D01*
Y150787D01*
G37*
M02*
