G04 start of page 7 for group 5 idx 5 *
G04 Title: AJ.001.00.01.01, bottom *
G04 Creator: pcb 4.1.2 *
G04 CreationDate: Fri Sep  7 21:25:06 2018 UTC *
G04 For: bert *
G04 Format: Gerber/RS-274X *
G04 PCB-Dimensions (mil): 3200.00 2500.00 *
G04 PCB-Coordinate-Origin: lower left *
%MOIN*%
%FSLAX25Y25*%
%LNGBL*%
%ADD81C,0.0354*%
%ADD80C,0.0709*%
%ADD79C,0.0280*%
%ADD78C,0.0380*%
%ADD77C,0.1260*%
%ADD76C,0.0200*%
%ADD75C,0.0360*%
%ADD74C,0.1102*%
%ADD73C,0.0600*%
%ADD72C,0.0040*%
%ADD71C,0.0100*%
%ADD70C,0.0250*%
%ADD69C,0.0001*%
G54D69*G36*
X96452Y47750D02*X99068D01*
X100250Y46568D01*
Y35088D01*
X100243Y35000D01*
X100271Y34647D01*
Y34647D01*
X100354Y34303D01*
X100489Y33975D01*
X100559Y33861D01*
X100674Y33673D01*
X100674Y33673D01*
X100904Y33404D01*
X100971Y33347D01*
X103347Y30971D01*
X103404Y30904D01*
X103673Y30674D01*
X103673Y30674D01*
X103861Y30559D01*
X103975Y30489D01*
X104303Y30354D01*
X104647Y30271D01*
X104647D01*
X105000Y30243D01*
X105088Y30250D01*
X131890D01*
Y29528D01*
X96452D01*
Y36558D01*
X96524Y36676D01*
X96964Y37737D01*
X97232Y38855D01*
X97300Y40000D01*
X97232Y41145D01*
X96964Y42263D01*
X96524Y43324D01*
X96452Y43442D01*
Y47750D01*
G37*
G36*
X108529Y158050D02*X109327Y157253D01*
Y154924D01*
X109176Y154831D01*
X108841Y154545D01*
X108555Y154210D01*
X108529Y154168D01*
Y158050D01*
G37*
G36*
X128214Y225561D02*X128294Y225542D01*
X129000Y225486D01*
X129706Y225542D01*
X130395Y225707D01*
X131049Y225978D01*
X131653Y226348D01*
X131890Y226550D01*
Y34750D01*
X128214D01*
Y166037D01*
X128282Y166051D01*
X128356Y166078D01*
X128424Y166117D01*
X128486Y166166D01*
X128539Y166223D01*
X128583Y166289D01*
X128614Y166361D01*
X128691Y166594D01*
X128744Y166834D01*
X128776Y167077D01*
X128787Y167323D01*
X128776Y167568D01*
X128744Y167812D01*
X128691Y168051D01*
X128616Y168285D01*
X128584Y168358D01*
X128540Y168423D01*
X128487Y168481D01*
X128425Y168530D01*
X128356Y168569D01*
X128282Y168597D01*
X128214Y168611D01*
Y225561D01*
G37*
G36*
X125985Y226657D02*X126347Y226348D01*
X126951Y225978D01*
X127605Y225707D01*
X128214Y225561D01*
Y168611D01*
X128205Y168612D01*
X128126Y168616D01*
X128048Y168607D01*
X127971Y168585D01*
X127900Y168553D01*
X127834Y168509D01*
X127776Y168455D01*
X127727Y168394D01*
X127688Y168325D01*
X127660Y168251D01*
X127645Y168173D01*
X127641Y168094D01*
X127650Y168016D01*
X127673Y167940D01*
X127722Y167791D01*
X127757Y167637D01*
X127777Y167480D01*
X127784Y167323D01*
X127777Y167165D01*
X127757Y167009D01*
X127722Y166855D01*
X127675Y166705D01*
X127652Y166629D01*
X127643Y166551D01*
X127646Y166472D01*
X127662Y166395D01*
X127689Y166322D01*
X127728Y166253D01*
X127777Y166191D01*
X127835Y166138D01*
X127900Y166095D01*
X127972Y166062D01*
X128048Y166041D01*
X128126Y166032D01*
X128205Y166035D01*
X128214Y166037D01*
Y34750D01*
X125985D01*
Y164520D01*
X126230Y164531D01*
X126473Y164563D01*
X126713Y164616D01*
X126947Y164691D01*
X127019Y164723D01*
X127085Y164767D01*
X127143Y164820D01*
X127192Y164882D01*
X127231Y164951D01*
X127258Y165025D01*
X127274Y165102D01*
X127277Y165181D01*
X127268Y165260D01*
X127247Y165336D01*
X127214Y165407D01*
X127170Y165473D01*
X127117Y165531D01*
X127055Y165580D01*
X126986Y165619D01*
X126912Y165647D01*
X126835Y165662D01*
X126756Y165666D01*
X126677Y165657D01*
X126602Y165634D01*
X126452Y165585D01*
X126298Y165550D01*
X126142Y165530D01*
X125985Y165523D01*
Y169123D01*
X126142Y169116D01*
X126298Y169095D01*
X126452Y169061D01*
X126603Y169013D01*
X126678Y168991D01*
X126756Y168982D01*
X126835Y168985D01*
X126912Y169001D01*
X126986Y169028D01*
X127054Y169067D01*
X127116Y169116D01*
X127169Y169174D01*
X127213Y169239D01*
X127245Y169311D01*
X127266Y169386D01*
X127275Y169465D01*
X127272Y169543D01*
X127257Y169620D01*
X127229Y169694D01*
X127190Y169763D01*
X127142Y169824D01*
X127084Y169878D01*
X127018Y169921D01*
X126946Y169952D01*
X126713Y170029D01*
X126473Y170083D01*
X126230Y170115D01*
X125985Y170125D01*
Y226657D01*
G37*
G36*
Y240148D02*X131890Y240157D01*
Y233450D01*
X131653Y233652D01*
X131049Y234022D01*
X130395Y234293D01*
X129706Y234458D01*
X129000Y234514D01*
X128294Y234458D01*
X127605Y234293D01*
X126951Y234022D01*
X126347Y233652D01*
X125985Y233343D01*
Y240148D01*
G37*
G36*
X123754Y240144D02*X125985Y240148D01*
Y233343D01*
X125808Y233192D01*
X125348Y232653D01*
X124978Y232049D01*
X124707Y231395D01*
X124542Y230706D01*
X124486Y230000D01*
X124542Y229294D01*
X124707Y228605D01*
X124978Y227951D01*
X125348Y227347D01*
X125808Y226808D01*
X125985Y226657D01*
Y170125D01*
X125984Y170126D01*
X125739Y170115D01*
X125495Y170083D01*
X125256Y170029D01*
X125022Y169955D01*
X124950Y169923D01*
X124884Y169879D01*
X124826Y169826D01*
X124777Y169764D01*
X124738Y169695D01*
X124710Y169621D01*
X124695Y169543D01*
X124691Y169465D01*
X124700Y169386D01*
X124722Y169310D01*
X124754Y169238D01*
X124798Y169172D01*
X124852Y169114D01*
X124913Y169065D01*
X124982Y169026D01*
X125056Y168999D01*
X125134Y168983D01*
X125213Y168980D01*
X125291Y168989D01*
X125367Y169012D01*
X125516Y169061D01*
X125670Y169095D01*
X125827Y169116D01*
X125984Y169123D01*
X125985Y169123D01*
Y165523D01*
X125984Y165523D01*
X125827Y165530D01*
X125670Y165550D01*
X125516Y165585D01*
X125366Y165632D01*
X125291Y165655D01*
X125213Y165664D01*
X125134Y165661D01*
X125057Y165645D01*
X124983Y165618D01*
X124914Y165579D01*
X124853Y165530D01*
X124800Y165472D01*
X124756Y165407D01*
X124723Y165335D01*
X124702Y165259D01*
X124693Y165181D01*
X124696Y165102D01*
X124712Y165025D01*
X124739Y164952D01*
X124778Y164883D01*
X124827Y164821D01*
X124885Y164768D01*
X124950Y164724D01*
X125023Y164693D01*
X125256Y164616D01*
X125495Y164563D01*
X125739Y164531D01*
X125984Y164520D01*
X125985Y164520D01*
Y34750D01*
X123754D01*
Y166035D01*
X123764Y166033D01*
X123843Y166030D01*
X123921Y166039D01*
X123997Y166060D01*
X124069Y166093D01*
X124135Y166137D01*
X124193Y166190D01*
X124242Y166252D01*
X124281Y166321D01*
X124308Y166395D01*
X124324Y166472D01*
X124327Y166551D01*
X124318Y166630D01*
X124295Y166705D01*
X124246Y166855D01*
X124212Y167009D01*
X124191Y167165D01*
X124184Y167323D01*
X124191Y167480D01*
X124212Y167637D01*
X124246Y167791D01*
X124294Y167941D01*
X124316Y168016D01*
X124325Y168095D01*
X124322Y168173D01*
X124306Y168250D01*
X124279Y168324D01*
X124240Y168393D01*
X124192Y168454D01*
X124134Y168508D01*
X124068Y168551D01*
X123996Y168584D01*
X123921Y168605D01*
X123842Y168614D01*
X123764Y168611D01*
X123754Y168609D01*
Y216280D01*
X124033Y216518D01*
X124319Y216853D01*
X124550Y217229D01*
X124718Y217636D01*
X124821Y218065D01*
X124847Y218504D01*
X124821Y218943D01*
X124718Y219372D01*
X124550Y219779D01*
X124319Y220155D01*
X124033Y220490D01*
X123754Y220728D01*
Y240144D01*
G37*
G36*
Y34750D02*X108529D01*
Y95171D01*
X108597Y95184D01*
X108671Y95212D01*
X108739Y95250D01*
X108801Y95299D01*
X108854Y95357D01*
X108898Y95423D01*
X108929Y95495D01*
X109006Y95728D01*
X109059Y95968D01*
X109091Y96211D01*
X109102Y96457D01*
X109091Y96702D01*
X109059Y96946D01*
X109006Y97185D01*
X108931Y97419D01*
X108899Y97491D01*
X108855Y97557D01*
X108802Y97615D01*
X108740Y97664D01*
X108671Y97703D01*
X108597Y97731D01*
X108529Y97744D01*
Y150950D01*
X108555Y150908D01*
X108841Y150573D01*
X109176Y150287D01*
X109552Y150057D01*
X109959Y149888D01*
X110387Y149785D01*
X110827Y149750D01*
X111266Y149785D01*
X111695Y149888D01*
X112102Y150057D01*
X112478Y150287D01*
X112813Y150573D01*
X113099Y150908D01*
X113329Y151284D01*
X113498Y151691D01*
X113601Y152120D01*
X113627Y152559D01*
X113601Y152998D01*
X113498Y153427D01*
X113329Y153834D01*
X113099Y154210D01*
X112813Y154545D01*
X112478Y154831D01*
X112327Y154924D01*
Y157815D01*
X112331Y157874D01*
X112313Y158109D01*
X112258Y158339D01*
X112167Y158557D01*
X112044Y158758D01*
X111891Y158938D01*
X111846Y158976D01*
X109370Y161452D01*
X109332Y161497D01*
X109152Y161650D01*
X108951Y161774D01*
X108733Y161864D01*
X108529Y161913D01*
Y168309D01*
X108577Y168423D01*
X108680Y168852D01*
X108706Y169291D01*
X108680Y169731D01*
X108577Y170159D01*
X108529Y170274D01*
Y181571D01*
X117714D01*
X117807Y181420D01*
X118093Y181085D01*
X118428Y180799D01*
X118579Y180706D01*
Y144097D01*
X118428Y144005D01*
X118093Y143718D01*
X117807Y143383D01*
X117576Y143007D01*
X117408Y142600D01*
X117305Y142172D01*
X117270Y141732D01*
X117305Y141293D01*
X117408Y140864D01*
X117576Y140457D01*
X117807Y140081D01*
X118093Y139746D01*
X118428Y139460D01*
X118804Y139230D01*
X119211Y139061D01*
X119639Y138958D01*
X120079Y138924D01*
X120518Y138958D01*
X120947Y139061D01*
X121354Y139230D01*
X121730Y139460D01*
X122065Y139746D01*
X122351Y140081D01*
X122581Y140457D01*
X122750Y140864D01*
X122853Y141293D01*
X122879Y141732D01*
X122853Y142172D01*
X122750Y142600D01*
X122581Y143007D01*
X122351Y143383D01*
X122065Y143718D01*
X121730Y144005D01*
X121579Y144097D01*
Y180706D01*
X121730Y180799D01*
X122065Y181085D01*
X122351Y181420D01*
X122581Y181796D01*
X122750Y182203D01*
X122853Y182632D01*
X122879Y183071D01*
X122853Y183510D01*
X122750Y183939D01*
X122581Y184346D01*
X122351Y184722D01*
X122065Y185057D01*
X121730Y185343D01*
X121354Y185573D01*
X120947Y185742D01*
X120518Y185845D01*
X120079Y185880D01*
X119639Y185845D01*
X119211Y185742D01*
X118804Y185573D01*
X118428Y185343D01*
X118093Y185057D01*
X117807Y184722D01*
X117714Y184571D01*
X108529D01*
Y217004D01*
X119683D01*
X119775Y216853D01*
X120061Y216518D01*
X120396Y216232D01*
X120772Y216001D01*
X121179Y215833D01*
X121608Y215730D01*
X122047Y215695D01*
X122487Y215730D01*
X122915Y215833D01*
X123322Y216001D01*
X123698Y216232D01*
X123754Y216280D01*
Y168609D01*
X123687Y168595D01*
X123613Y168568D01*
X123544Y168529D01*
X123483Y168480D01*
X123429Y168422D01*
X123386Y168357D01*
X123355Y168285D01*
X123278Y168051D01*
X123225Y167812D01*
X123192Y167568D01*
X123182Y167323D01*
X123192Y167077D01*
X123225Y166834D01*
X123278Y166594D01*
X123352Y166360D01*
X123384Y166288D01*
X123428Y166222D01*
X123482Y166164D01*
X123543Y166115D01*
X123612Y166076D01*
X123686Y166049D01*
X123754Y166035D01*
Y34750D01*
G37*
G36*
X118993Y240137D02*X123754Y240144D01*
Y220728D01*
X123698Y220776D01*
X123322Y221006D01*
X122915Y221175D01*
X122487Y221278D01*
X122047Y221313D01*
X121608Y221278D01*
X121179Y221175D01*
X120772Y221006D01*
X120396Y220776D01*
X120061Y220490D01*
X119775Y220155D01*
X119683Y220004D01*
X118993D01*
Y225487D01*
X119000Y225486D01*
X119706Y225542D01*
X120395Y225707D01*
X121049Y225978D01*
X121653Y226348D01*
X122192Y226808D01*
X122652Y227347D01*
X123022Y227951D01*
X123293Y228605D01*
X123458Y229294D01*
X123500Y230000D01*
X123458Y230706D01*
X123293Y231395D01*
X123022Y232049D01*
X122652Y232653D01*
X122192Y233192D01*
X121653Y233652D01*
X121049Y234022D01*
X120395Y234293D01*
X119706Y234458D01*
X119000Y234514D01*
X118993Y234513D01*
Y240137D01*
G37*
G36*
X108529Y240120D02*X118993Y240137D01*
Y234513D01*
X118294Y234458D01*
X117605Y234293D01*
X116951Y234022D01*
X116347Y233652D01*
X115808Y233192D01*
X115348Y232653D01*
X114978Y232049D01*
X114707Y231395D01*
X114542Y230706D01*
X114486Y230000D01*
X114542Y229294D01*
X114707Y228605D01*
X114978Y227951D01*
X115348Y227347D01*
X115808Y226808D01*
X116347Y226348D01*
X116951Y225978D01*
X117605Y225707D01*
X118294Y225542D01*
X118993Y225487D01*
Y220004D01*
X108529D01*
Y225506D01*
X112235Y225514D01*
X112465Y225569D01*
X112683Y225659D01*
X112884Y225783D01*
X113064Y225936D01*
X113217Y226116D01*
X113341Y226317D01*
X113431Y226535D01*
X113486Y226765D01*
X113500Y227000D01*
X113486Y233235D01*
X113431Y233465D01*
X113341Y233683D01*
X113217Y233884D01*
X113064Y234064D01*
X112884Y234217D01*
X112683Y234341D01*
X112465Y234431D01*
X112235Y234486D01*
X112000Y234500D01*
X108529Y234492D01*
Y240120D01*
G37*
G36*
Y220004D02*X106561D01*
Y225501D01*
X108529Y225506D01*
Y220004D01*
G37*
G36*
Y184571D02*X106561D01*
Y217004D01*
X108529D01*
Y184571D01*
G37*
G36*
Y170274D02*X108408Y170566D01*
X108178Y170942D01*
X107892Y171277D01*
X107556Y171564D01*
X107181Y171794D01*
X106773Y171963D01*
X106561Y172014D01*
Y181571D01*
X108529D01*
Y170274D01*
G37*
G36*
Y161913D02*X108503Y161919D01*
X108268Y161938D01*
X108209Y161933D01*
X106561D01*
Y166569D01*
X106773Y166620D01*
X107181Y166789D01*
X107556Y167019D01*
X107892Y167305D01*
X108178Y167640D01*
X108408Y168016D01*
X108529Y168309D01*
Y161913D01*
G37*
G36*
Y34750D02*X106561D01*
Y93667D01*
X106788Y93697D01*
X107028Y93750D01*
X107262Y93825D01*
X107334Y93857D01*
X107400Y93901D01*
X107458Y93954D01*
X107507Y94016D01*
X107546Y94085D01*
X107573Y94159D01*
X107589Y94236D01*
X107592Y94315D01*
X107583Y94393D01*
X107562Y94469D01*
X107529Y94541D01*
X107485Y94607D01*
X107432Y94665D01*
X107370Y94714D01*
X107301Y94753D01*
X107227Y94781D01*
X107150Y94796D01*
X107071Y94800D01*
X106992Y94791D01*
X106917Y94768D01*
X106767Y94719D01*
X106613Y94684D01*
X106561Y94677D01*
Y98236D01*
X106613Y98229D01*
X106767Y98195D01*
X106917Y98147D01*
X106993Y98125D01*
X107071Y98116D01*
X107150Y98119D01*
X107227Y98134D01*
X107300Y98162D01*
X107369Y98201D01*
X107431Y98249D01*
X107484Y98307D01*
X107527Y98373D01*
X107560Y98444D01*
X107581Y98520D01*
X107590Y98598D01*
X107587Y98677D01*
X107572Y98754D01*
X107544Y98828D01*
X107505Y98897D01*
X107457Y98958D01*
X107399Y99012D01*
X107333Y99055D01*
X107261Y99086D01*
X107028Y99163D01*
X106788Y99216D01*
X106561Y99247D01*
Y136509D01*
X106628Y136523D01*
X106702Y136550D01*
X106771Y136589D01*
X106832Y136638D01*
X106886Y136696D01*
X106929Y136761D01*
X106960Y136834D01*
X107037Y137067D01*
X107090Y137306D01*
X107123Y137550D01*
X107133Y137795D01*
X107123Y138041D01*
X107090Y138284D01*
X107037Y138524D01*
X106963Y138758D01*
X106931Y138830D01*
X106887Y138896D01*
X106833Y138954D01*
X106772Y139003D01*
X106703Y139042D01*
X106629Y139069D01*
X106561Y139083D01*
Y158933D01*
X107646D01*
X108529Y158050D01*
Y154168D01*
X108324Y153834D01*
X108156Y153427D01*
X108053Y152998D01*
X108018Y152559D01*
X108053Y152120D01*
X108156Y151691D01*
X108324Y151284D01*
X108529Y150950D01*
Y97744D01*
X108520Y97746D01*
X108441Y97750D01*
X108362Y97741D01*
X108286Y97719D01*
X108215Y97686D01*
X108149Y97643D01*
X108091Y97589D01*
X108042Y97527D01*
X108003Y97459D01*
X107975Y97385D01*
X107960Y97307D01*
X107956Y97228D01*
X107965Y97150D01*
X107988Y97074D01*
X108037Y96925D01*
X108072Y96771D01*
X108092Y96614D01*
X108099Y96457D01*
X108092Y96299D01*
X108072Y96143D01*
X108037Y95989D01*
X107990Y95838D01*
X107967Y95763D01*
X107958Y95685D01*
X107961Y95606D01*
X107977Y95529D01*
X108004Y95455D01*
X108043Y95387D01*
X108092Y95325D01*
X108150Y95272D01*
X108215Y95228D01*
X108287Y95196D01*
X108363Y95175D01*
X108441Y95165D01*
X108520Y95169D01*
X108529Y95171D01*
Y34750D01*
G37*
G36*
X106561Y240116D02*X108529Y240120D01*
Y234492D01*
X106561Y234488D01*
Y240116D01*
G37*
G36*
Y184571D02*X104332D01*
Y217004D01*
X106561D01*
Y184571D01*
G37*
G36*
Y172014D02*X106345Y172065D01*
X105906Y172100D01*
X105466Y172065D01*
X105038Y171963D01*
X104630Y171794D01*
X104332Y171611D01*
Y181571D01*
X106561D01*
Y172014D01*
G37*
G36*
Y161933D02*X104332D01*
Y166972D01*
X104630Y166789D01*
X105038Y166620D01*
X105466Y166517D01*
X105906Y166483D01*
X106345Y166517D01*
X106561Y166569D01*
Y161933D01*
G37*
G36*
Y34750D02*X105932D01*
X104750Y35932D01*
Y47412D01*
X104757Y47500D01*
X104729Y47853D01*
X104646Y48197D01*
X104607Y48293D01*
X104511Y48525D01*
X104396Y48712D01*
X104332Y48817D01*
Y95203D01*
X104384Y95227D01*
X104450Y95271D01*
X104508Y95324D01*
X104557Y95386D01*
X104596Y95455D01*
X104623Y95529D01*
X104639Y95606D01*
X104642Y95685D01*
X104633Y95763D01*
X104610Y95839D01*
X104561Y95989D01*
X104527Y96143D01*
X104506Y96299D01*
X104499Y96457D01*
X104506Y96614D01*
X104527Y96771D01*
X104561Y96925D01*
X104609Y97075D01*
X104631Y97150D01*
X104640Y97228D01*
X104637Y97307D01*
X104621Y97384D01*
X104594Y97458D01*
X104555Y97527D01*
X104506Y97588D01*
X104449Y97641D01*
X104383Y97685D01*
X104332Y97708D01*
Y134993D01*
X104576Y135003D01*
X104820Y135036D01*
X105059Y135089D01*
X105293Y135163D01*
X105365Y135195D01*
X105431Y135239D01*
X105489Y135293D01*
X105538Y135354D01*
X105577Y135423D01*
X105605Y135497D01*
X105620Y135575D01*
X105624Y135654D01*
X105615Y135732D01*
X105593Y135808D01*
X105560Y135880D01*
X105517Y135946D01*
X105463Y136004D01*
X105401Y136053D01*
X105333Y136092D01*
X105259Y136119D01*
X105181Y136135D01*
X105102Y136138D01*
X105024Y136129D01*
X104948Y136106D01*
X104799Y136057D01*
X104645Y136023D01*
X104488Y136002D01*
X104332Y135995D01*
Y139595D01*
X104488Y139588D01*
X104645Y139568D01*
X104799Y139533D01*
X104949Y139486D01*
X105024Y139463D01*
X105102Y139454D01*
X105181Y139457D01*
X105258Y139473D01*
X105332Y139500D01*
X105401Y139539D01*
X105462Y139588D01*
X105515Y139646D01*
X105559Y139712D01*
X105592Y139783D01*
X105613Y139859D01*
X105622Y139937D01*
X105619Y140016D01*
X105603Y140093D01*
X105576Y140167D01*
X105537Y140235D01*
X105488Y140297D01*
X105430Y140350D01*
X105365Y140394D01*
X105292Y140425D01*
X105059Y140502D01*
X104820Y140555D01*
X104576Y140587D01*
X104332Y140598D01*
Y158933D01*
X106561D01*
Y139083D01*
X106551Y139085D01*
X106472Y139088D01*
X106394Y139079D01*
X106318Y139058D01*
X106246Y139025D01*
X106180Y138981D01*
X106122Y138928D01*
X106073Y138866D01*
X106034Y138797D01*
X106007Y138723D01*
X105991Y138646D01*
X105988Y138567D01*
X105997Y138488D01*
X106020Y138413D01*
X106069Y138263D01*
X106103Y138109D01*
X106124Y137953D01*
X106131Y137795D01*
X106124Y137638D01*
X106103Y137481D01*
X106069Y137327D01*
X106021Y137177D01*
X105999Y137102D01*
X105990Y137024D01*
X105993Y136945D01*
X106008Y136868D01*
X106036Y136794D01*
X106075Y136725D01*
X106123Y136664D01*
X106181Y136611D01*
X106247Y136567D01*
X106319Y136534D01*
X106394Y136513D01*
X106472Y136504D01*
X106551Y136507D01*
X106561Y136509D01*
Y99247D01*
X106545Y99249D01*
X106299Y99259D01*
X106054Y99249D01*
X105810Y99216D01*
X105571Y99163D01*
X105337Y99089D01*
X105265Y99057D01*
X105199Y99013D01*
X105141Y98959D01*
X105092Y98898D01*
X105053Y98829D01*
X105025Y98755D01*
X105010Y98677D01*
X105006Y98598D01*
X105015Y98520D01*
X105037Y98444D01*
X105069Y98372D01*
X105113Y98306D01*
X105167Y98248D01*
X105228Y98199D01*
X105297Y98160D01*
X105371Y98133D01*
X105449Y98117D01*
X105528Y98114D01*
X105606Y98123D01*
X105682Y98146D01*
X105831Y98195D01*
X105985Y98229D01*
X106142Y98250D01*
X106299Y98257D01*
X106457Y98250D01*
X106561Y98236D01*
Y94677D01*
X106457Y94664D01*
X106299Y94657D01*
X106142Y94664D01*
X105985Y94684D01*
X105831Y94719D01*
X105681Y94766D01*
X105606Y94789D01*
X105527Y94798D01*
X105449Y94795D01*
X105372Y94779D01*
X105298Y94752D01*
X105229Y94713D01*
X105168Y94664D01*
X105114Y94606D01*
X105071Y94540D01*
X105038Y94469D01*
X105017Y94393D01*
X105008Y94315D01*
X105011Y94236D01*
X105027Y94159D01*
X105054Y94085D01*
X105093Y94017D01*
X105142Y93955D01*
X105200Y93902D01*
X105265Y93858D01*
X105337Y93827D01*
X105571Y93750D01*
X105810Y93697D01*
X106054Y93665D01*
X106299Y93654D01*
X106545Y93665D01*
X106561Y93667D01*
Y34750D01*
G37*
G36*
X104332Y240113D02*X106561Y240116D01*
Y234488D01*
X105765Y234486D01*
X105535Y234431D01*
X105317Y234341D01*
X105116Y234217D01*
X104936Y234064D01*
X104783Y233884D01*
X104659Y233683D01*
X104569Y233465D01*
X104514Y233235D01*
X104500Y233000D01*
X104514Y226765D01*
X104569Y226535D01*
X104659Y226317D01*
X104783Y226116D01*
X104936Y225936D01*
X105116Y225783D01*
X105317Y225659D01*
X105535Y225569D01*
X105765Y225514D01*
X106000Y225500D01*
X106561Y225501D01*
Y220004D01*
X104332D01*
Y240113D01*
G37*
G36*
Y184571D02*X96452D01*
Y217004D01*
X104332D01*
Y184571D01*
G37*
G36*
Y161933D02*X97702D01*
Y168005D01*
X97770Y168019D01*
X97844Y168046D01*
X97912Y168085D01*
X97974Y168134D01*
X98027Y168192D01*
X98071Y168258D01*
X98102Y168330D01*
X98179Y168563D01*
X98232Y168803D01*
X98264Y169046D01*
X98275Y169291D01*
X98264Y169537D01*
X98232Y169780D01*
X98179Y170020D01*
X98105Y170254D01*
X98072Y170326D01*
X98029Y170392D01*
X97975Y170450D01*
X97913Y170499D01*
X97844Y170538D01*
X97770Y170565D01*
X97702Y170579D01*
Y181571D01*
X104332D01*
Y171611D01*
X104255Y171564D01*
X103920Y171277D01*
X103633Y170942D01*
X103403Y170566D01*
X103234Y170159D01*
X103131Y169731D01*
X103097Y169291D01*
X103131Y168852D01*
X103234Y168423D01*
X103403Y168016D01*
X103633Y167640D01*
X103920Y167305D01*
X104255Y167019D01*
X104332Y166972D01*
Y161933D01*
G37*
G36*
X97702D02*X96452D01*
Y166667D01*
X96507Y166691D01*
X96573Y166735D01*
X96631Y166789D01*
X96680Y166850D01*
X96719Y166919D01*
X96746Y166993D01*
X96762Y167071D01*
X96765Y167150D01*
X96756Y167228D01*
X96735Y167304D01*
X96702Y167376D01*
X96659Y167442D01*
X96605Y167500D01*
X96543Y167549D01*
X96474Y167588D01*
X96452Y167596D01*
Y170989D01*
X96474Y170997D01*
X96542Y171035D01*
X96604Y171084D01*
X96657Y171142D01*
X96701Y171208D01*
X96733Y171279D01*
X96755Y171355D01*
X96764Y171433D01*
X96760Y171512D01*
X96745Y171589D01*
X96717Y171663D01*
X96679Y171731D01*
X96630Y171793D01*
X96572Y171846D01*
X96506Y171890D01*
X96452Y171913D01*
Y181571D01*
X97702D01*
Y170579D01*
X97693Y170581D01*
X97614Y170584D01*
X97536Y170575D01*
X97460Y170554D01*
X97388Y170521D01*
X97322Y170477D01*
X97264Y170424D01*
X97215Y170362D01*
X97176Y170293D01*
X97149Y170219D01*
X97133Y170142D01*
X97130Y170063D01*
X97139Y169985D01*
X97161Y169909D01*
X97211Y169759D01*
X97245Y169605D01*
X97266Y169449D01*
X97272Y169291D01*
X97266Y169134D01*
X97245Y168977D01*
X97211Y168823D01*
X97163Y168673D01*
X97140Y168598D01*
X97131Y168520D01*
X97135Y168441D01*
X97150Y168364D01*
X97178Y168290D01*
X97216Y168222D01*
X97265Y168160D01*
X97323Y168107D01*
X97389Y168063D01*
X97460Y168030D01*
X97536Y168009D01*
X97614Y168000D01*
X97693Y168003D01*
X97702Y168005D01*
Y161933D01*
G37*
G36*
X104332Y48817D02*X104326Y48827D01*
X104326Y48827D01*
X104096Y49096D01*
X104029Y49153D01*
X102101Y51081D01*
Y136508D01*
X102110Y136506D01*
X102189Y136502D01*
X102267Y136511D01*
X102343Y136533D01*
X102415Y136565D01*
X102481Y136609D01*
X102539Y136663D01*
X102588Y136724D01*
X102627Y136793D01*
X102655Y136867D01*
X102670Y136945D01*
X102674Y137024D01*
X102665Y137102D01*
X102642Y137178D01*
X102593Y137327D01*
X102558Y137481D01*
X102538Y137638D01*
X102531Y137795D01*
X102538Y137953D01*
X102558Y138109D01*
X102593Y138263D01*
X102640Y138414D01*
X102663Y138489D01*
X102672Y138567D01*
X102669Y138646D01*
X102653Y138723D01*
X102626Y138797D01*
X102587Y138865D01*
X102538Y138927D01*
X102480Y138980D01*
X102414Y139024D01*
X102343Y139056D01*
X102267Y139077D01*
X102189Y139086D01*
X102110Y139083D01*
X102101Y139081D01*
Y150138D01*
X102380Y150376D01*
X102666Y150711D01*
X102896Y151087D01*
X103065Y151494D01*
X103168Y151923D01*
X103194Y152362D01*
X103168Y152802D01*
X103065Y153230D01*
X102896Y153637D01*
X102666Y154013D01*
X102380Y154348D01*
X102101Y154586D01*
Y158933D01*
X104332D01*
Y140598D01*
X104331Y140598D01*
X104085Y140587D01*
X103842Y140555D01*
X103602Y140502D01*
X103368Y140427D01*
X103296Y140395D01*
X103230Y140351D01*
X103172Y140298D01*
X103123Y140236D01*
X103084Y140167D01*
X103057Y140093D01*
X103041Y140016D01*
X103038Y139937D01*
X103047Y139859D01*
X103068Y139782D01*
X103101Y139711D01*
X103145Y139645D01*
X103198Y139587D01*
X103260Y139538D01*
X103329Y139499D01*
X103403Y139471D01*
X103480Y139456D01*
X103559Y139452D01*
X103638Y139461D01*
X103713Y139484D01*
X103863Y139533D01*
X104017Y139568D01*
X104173Y139588D01*
X104331Y139595D01*
X104332Y139595D01*
Y135995D01*
X104331Y135995D01*
X104173Y136002D01*
X104017Y136023D01*
X103863Y136057D01*
X103712Y136105D01*
X103637Y136127D01*
X103559Y136136D01*
X103480Y136133D01*
X103403Y136118D01*
X103329Y136090D01*
X103261Y136051D01*
X103199Y136003D01*
X103146Y135945D01*
X103102Y135879D01*
X103070Y135807D01*
X103049Y135732D01*
X103040Y135653D01*
X103043Y135575D01*
X103058Y135498D01*
X103086Y135424D01*
X103124Y135355D01*
X103173Y135294D01*
X103231Y135240D01*
X103297Y135197D01*
X103369Y135166D01*
X103602Y135089D01*
X103842Y135036D01*
X104085Y135003D01*
X104331Y134993D01*
X104332Y134993D01*
Y97708D01*
X104311Y97718D01*
X104236Y97739D01*
X104157Y97748D01*
X104079Y97745D01*
X104002Y97729D01*
X103928Y97702D01*
X103859Y97663D01*
X103798Y97614D01*
X103744Y97556D01*
X103701Y97491D01*
X103670Y97418D01*
X103593Y97185D01*
X103539Y96946D01*
X103507Y96702D01*
X103497Y96457D01*
X103507Y96211D01*
X103539Y95968D01*
X103593Y95728D01*
X103667Y95494D01*
X103699Y95422D01*
X103743Y95356D01*
X103796Y95298D01*
X103858Y95249D01*
X103927Y95210D01*
X104001Y95183D01*
X104079Y95167D01*
X104157Y95164D01*
X104236Y95173D01*
X104312Y95194D01*
X104332Y95203D01*
Y48817D01*
G37*
G36*
X102101Y154586D02*X102045Y154634D01*
X101894Y154727D01*
Y155453D01*
X101898Y155512D01*
X101880Y155747D01*
X101825Y155977D01*
X101734Y156195D01*
X101611Y156396D01*
X101458Y156576D01*
X101413Y156614D01*
X99527Y158499D01*
X99489Y158544D01*
X99310Y158698D01*
X99108Y158821D01*
X98890Y158911D01*
X98799Y158933D01*
X102101D01*
Y154586D01*
G37*
G36*
Y51081D02*X101653Y51529D01*
X101596Y51596D01*
X101327Y51826D01*
X101327Y51826D01*
X101212Y51896D01*
X101025Y52011D01*
X100793Y52107D01*
X100697Y52146D01*
X100353Y52229D01*
X100000Y52257D01*
X99912Y52250D01*
X96452D01*
Y155980D01*
X97804D01*
X98894Y154890D01*
Y154727D01*
X98743Y154634D01*
X98408Y154348D01*
X98121Y154013D01*
X97891Y153637D01*
X97723Y153230D01*
X97620Y152802D01*
X97585Y152362D01*
X97620Y151923D01*
X97723Y151494D01*
X97891Y151087D01*
X98121Y150711D01*
X98408Y150376D01*
X98743Y150090D01*
X99119Y149860D01*
X99526Y149691D01*
X99954Y149588D01*
X100394Y149554D01*
X100833Y149588D01*
X101262Y149691D01*
X101669Y149860D01*
X102045Y150090D01*
X102101Y150138D01*
Y139081D01*
X102033Y139068D01*
X101959Y139040D01*
X101891Y139002D01*
X101829Y138953D01*
X101776Y138895D01*
X101732Y138829D01*
X101701Y138757D01*
X101624Y138524D01*
X101571Y138284D01*
X101539Y138041D01*
X101528Y137795D01*
X101539Y137550D01*
X101571Y137306D01*
X101624Y137067D01*
X101699Y136833D01*
X101731Y136761D01*
X101775Y136695D01*
X101828Y136637D01*
X101890Y136588D01*
X101959Y136549D01*
X102033Y136521D01*
X102101Y136508D01*
Y51081D01*
G37*
G36*
X96452Y240100D02*X104332Y240113D01*
Y220004D01*
X96452D01*
Y222841D01*
X97263Y223036D01*
X98324Y223476D01*
X99304Y224076D01*
X100178Y224822D01*
X100924Y225696D01*
X101524Y226676D01*
X101964Y227737D01*
X102232Y228855D01*
X102300Y230000D01*
X102232Y231145D01*
X101964Y232263D01*
X101524Y233324D01*
X100924Y234304D01*
X100178Y235178D01*
X99304Y235924D01*
X98324Y236524D01*
X97263Y236964D01*
X96452Y237159D01*
Y240100D01*
G37*
G36*
Y161933D02*X93243D01*
Y168004D01*
X93252Y168002D01*
X93331Y167998D01*
X93409Y168007D01*
X93485Y168029D01*
X93557Y168062D01*
X93623Y168105D01*
X93681Y168159D01*
X93730Y168221D01*
X93769Y168289D01*
X93796Y168363D01*
X93812Y168441D01*
X93815Y168520D01*
X93806Y168598D01*
X93784Y168674D01*
X93734Y168823D01*
X93700Y168977D01*
X93679Y169134D01*
X93672Y169291D01*
X93679Y169449D01*
X93700Y169605D01*
X93734Y169759D01*
X93782Y169910D01*
X93805Y169985D01*
X93814Y170063D01*
X93810Y170142D01*
X93795Y170219D01*
X93767Y170293D01*
X93729Y170361D01*
X93680Y170423D01*
X93622Y170476D01*
X93556Y170520D01*
X93485Y170552D01*
X93409Y170574D01*
X93331Y170583D01*
X93252Y170579D01*
X93243Y170577D01*
Y181571D01*
X96452D01*
Y171913D01*
X96434Y171921D01*
X96201Y171998D01*
X95961Y172051D01*
X95718Y172083D01*
X95472Y172094D01*
X95227Y172083D01*
X94984Y172051D01*
X94744Y171998D01*
X94510Y171924D01*
X94438Y171891D01*
X94372Y171848D01*
X94314Y171794D01*
X94265Y171732D01*
X94226Y171663D01*
X94198Y171589D01*
X94183Y171512D01*
X94180Y171433D01*
X94189Y171355D01*
X94210Y171279D01*
X94243Y171207D01*
X94286Y171141D01*
X94340Y171083D01*
X94402Y171034D01*
X94470Y170995D01*
X94544Y170967D01*
X94622Y170952D01*
X94701Y170948D01*
X94779Y170958D01*
X94855Y170980D01*
X95005Y171029D01*
X95158Y171064D01*
X95315Y171084D01*
X95472Y171091D01*
X95630Y171084D01*
X95786Y171064D01*
X95940Y171029D01*
X96091Y170982D01*
X96166Y170959D01*
X96244Y170950D01*
X96323Y170954D01*
X96400Y170969D01*
X96452Y170989D01*
Y167596D01*
X96400Y167615D01*
X96323Y167631D01*
X96244Y167634D01*
X96166Y167625D01*
X96090Y167602D01*
X95940Y167553D01*
X95786Y167519D01*
X95630Y167498D01*
X95472Y167491D01*
X95315Y167498D01*
X95158Y167519D01*
X95005Y167553D01*
X94854Y167601D01*
X94779Y167623D01*
X94701Y167632D01*
X94622Y167629D01*
X94545Y167614D01*
X94471Y167586D01*
X94403Y167547D01*
X94341Y167499D01*
X94288Y167441D01*
X94244Y167375D01*
X94211Y167304D01*
X94190Y167228D01*
X94181Y167150D01*
X94185Y167071D01*
X94200Y166994D01*
X94228Y166920D01*
X94266Y166851D01*
X94315Y166790D01*
X94373Y166737D01*
X94439Y166693D01*
X94511Y166662D01*
X94744Y166585D01*
X94984Y166532D01*
X95227Y166499D01*
X95472Y166489D01*
X95718Y166499D01*
X95961Y166532D01*
X96201Y166585D01*
X96435Y166659D01*
X96452Y166667D01*
Y161933D01*
G37*
G36*
X93243D02*X87466D01*
Y168005D01*
X87534Y168019D01*
X87608Y168046D01*
X87676Y168085D01*
X87738Y168134D01*
X87791Y168192D01*
X87835Y168258D01*
X87866Y168330D01*
X87943Y168563D01*
X87996Y168803D01*
X88028Y169046D01*
X88039Y169291D01*
X88028Y169537D01*
X87996Y169780D01*
X87943Y170020D01*
X87868Y170254D01*
X87836Y170326D01*
X87792Y170392D01*
X87739Y170450D01*
X87677Y170499D01*
X87608Y170538D01*
X87534Y170565D01*
X87466Y170579D01*
Y181571D01*
X93243D01*
Y170577D01*
X93175Y170564D01*
X93101Y170536D01*
X93033Y170498D01*
X92971Y170449D01*
X92918Y170391D01*
X92874Y170325D01*
X92843Y170253D01*
X92766Y170020D01*
X92713Y169780D01*
X92681Y169537D01*
X92670Y169291D01*
X92681Y169046D01*
X92713Y168803D01*
X92766Y168563D01*
X92840Y168329D01*
X92873Y168257D01*
X92916Y168191D01*
X92970Y168133D01*
X93032Y168084D01*
X93100Y168045D01*
X93174Y168017D01*
X93243Y168004D01*
Y161933D01*
G37*
G36*
X87466D02*X85237D01*
Y166489D01*
X85482Y166499D01*
X85725Y166532D01*
X85965Y166585D01*
X86199Y166659D01*
X86271Y166691D01*
X86337Y166735D01*
X86395Y166789D01*
X86444Y166850D01*
X86483Y166919D01*
X86510Y166993D01*
X86526Y167071D01*
X86529Y167150D01*
X86520Y167228D01*
X86499Y167304D01*
X86466Y167376D01*
X86422Y167442D01*
X86369Y167500D01*
X86307Y167549D01*
X86238Y167588D01*
X86164Y167615D01*
X86087Y167631D01*
X86008Y167634D01*
X85929Y167625D01*
X85854Y167602D01*
X85704Y167553D01*
X85550Y167519D01*
X85394Y167498D01*
X85237Y167491D01*
Y171091D01*
X85394Y171084D01*
X85550Y171064D01*
X85704Y171029D01*
X85854Y170982D01*
X85930Y170959D01*
X86008Y170950D01*
X86087Y170954D01*
X86164Y170969D01*
X86237Y170997D01*
X86306Y171035D01*
X86368Y171084D01*
X86421Y171142D01*
X86464Y171208D01*
X86497Y171279D01*
X86518Y171355D01*
X86527Y171433D01*
X86524Y171512D01*
X86509Y171589D01*
X86481Y171663D01*
X86442Y171731D01*
X86394Y171793D01*
X86336Y171846D01*
X86270Y171890D01*
X86198Y171921D01*
X85965Y171998D01*
X85725Y172051D01*
X85482Y172083D01*
X85237Y172094D01*
Y181571D01*
X87466D01*
Y170579D01*
X87457Y170581D01*
X87378Y170584D01*
X87299Y170575D01*
X87223Y170554D01*
X87152Y170521D01*
X87086Y170477D01*
X87028Y170424D01*
X86979Y170362D01*
X86940Y170293D01*
X86912Y170219D01*
X86897Y170142D01*
X86893Y170063D01*
X86902Y169985D01*
X86925Y169909D01*
X86974Y169759D01*
X87009Y169605D01*
X87029Y169449D01*
X87036Y169291D01*
X87029Y169134D01*
X87009Y168977D01*
X86974Y168823D01*
X86927Y168673D01*
X86904Y168598D01*
X86895Y168520D01*
X86898Y168441D01*
X86914Y168364D01*
X86941Y168290D01*
X86980Y168222D01*
X87029Y168160D01*
X87087Y168107D01*
X87152Y168063D01*
X87224Y168030D01*
X87300Y168009D01*
X87378Y168000D01*
X87457Y168003D01*
X87466Y168005D01*
Y161933D01*
G37*
G36*
X85237D02*X83006D01*
Y168004D01*
X83016Y168002D01*
X83094Y167998D01*
X83173Y168007D01*
X83249Y168029D01*
X83321Y168062D01*
X83387Y168105D01*
X83445Y168159D01*
X83494Y168221D01*
X83533Y168289D01*
X83560Y168363D01*
X83576Y168441D01*
X83579Y168520D01*
X83570Y168598D01*
X83547Y168674D01*
X83498Y168823D01*
X83464Y168977D01*
X83443Y169134D01*
X83436Y169291D01*
X83443Y169449D01*
X83464Y169605D01*
X83498Y169759D01*
X83546Y169910D01*
X83568Y169985D01*
X83577Y170063D01*
X83574Y170142D01*
X83558Y170219D01*
X83531Y170293D01*
X83492Y170361D01*
X83443Y170423D01*
X83386Y170476D01*
X83320Y170520D01*
X83248Y170552D01*
X83173Y170574D01*
X83094Y170583D01*
X83016Y170579D01*
X83006Y170577D01*
Y180288D01*
X83117Y180297D01*
X83545Y180400D01*
X83952Y180568D01*
X84328Y180799D01*
X84663Y181085D01*
X84949Y181420D01*
X85042Y181571D01*
X85237D01*
Y172094D01*
X85236Y172094D01*
X84991Y172083D01*
X84747Y172051D01*
X84508Y171998D01*
X84274Y171924D01*
X84202Y171891D01*
X84136Y171848D01*
X84078Y171794D01*
X84029Y171732D01*
X83990Y171663D01*
X83962Y171589D01*
X83947Y171512D01*
X83943Y171433D01*
X83952Y171355D01*
X83974Y171279D01*
X84006Y171207D01*
X84050Y171141D01*
X84104Y171083D01*
X84165Y171034D01*
X84234Y170995D01*
X84308Y170967D01*
X84386Y170952D01*
X84465Y170948D01*
X84543Y170958D01*
X84619Y170980D01*
X84768Y171029D01*
X84922Y171064D01*
X85079Y171084D01*
X85236Y171091D01*
X85237Y171091D01*
Y167491D01*
X85236Y167491D01*
X85079Y167498D01*
X84922Y167519D01*
X84768Y167553D01*
X84618Y167601D01*
X84543Y167623D01*
X84465Y167632D01*
X84386Y167629D01*
X84309Y167614D01*
X84235Y167586D01*
X84166Y167547D01*
X84105Y167499D01*
X84051Y167441D01*
X84008Y167375D01*
X83975Y167304D01*
X83954Y167228D01*
X83945Y167150D01*
X83948Y167071D01*
X83964Y166994D01*
X83991Y166920D01*
X84030Y166851D01*
X84079Y166790D01*
X84137Y166737D01*
X84202Y166693D01*
X84274Y166662D01*
X84508Y166585D01*
X84747Y166532D01*
X84991Y166499D01*
X85236Y166489D01*
X85237Y166489D01*
Y161933D01*
G37*
G36*
X83006D02*X81330D01*
X80240Y163023D01*
Y181689D01*
X80405Y181420D01*
X80691Y181085D01*
X81026Y180799D01*
X81402Y180568D01*
X81809Y180400D01*
X82238Y180297D01*
X82677Y180262D01*
X83006Y180288D01*
Y170577D01*
X82939Y170564D01*
X82865Y170536D01*
X82796Y170498D01*
X82735Y170449D01*
X82681Y170391D01*
X82638Y170325D01*
X82607Y170253D01*
X82530Y170020D01*
X82476Y169780D01*
X82444Y169537D01*
X82434Y169291D01*
X82444Y169046D01*
X82476Y168803D01*
X82530Y168563D01*
X82604Y168329D01*
X82636Y168257D01*
X82680Y168191D01*
X82733Y168133D01*
X82795Y168084D01*
X82864Y168045D01*
X82938Y168017D01*
X83006Y168004D01*
Y161933D01*
G37*
G36*
X84647Y35028D02*X84822Y34822D01*
X85696Y34076D01*
X86676Y33476D01*
X87737Y33036D01*
X88855Y32768D01*
X90000Y32677D01*
X91145Y32768D01*
X92263Y33036D01*
X93324Y33476D01*
X94304Y34076D01*
X95178Y34822D01*
X95924Y35696D01*
X96452Y36558D01*
Y29528D01*
X84647D01*
Y35028D01*
G37*
G36*
Y47771D02*X84647Y47771D01*
X84647D01*
X85000Y47743D01*
X85088Y47750D01*
X96452D01*
Y43442D01*
X95924Y44304D01*
X95178Y45178D01*
X94304Y45924D01*
X93324Y46524D01*
X92263Y46964D01*
X91145Y47232D01*
X90000Y47323D01*
X88855Y47232D01*
X87737Y46964D01*
X86676Y46524D01*
X85696Y45924D01*
X84822Y45178D01*
X84647Y44972D01*
Y47771D01*
G37*
G36*
X95143Y155980D02*X96452D01*
Y52250D01*
X95143D01*
Y151076D01*
X95211Y151090D01*
X95285Y151117D01*
X95353Y151156D01*
X95415Y151205D01*
X95468Y151263D01*
X95512Y151328D01*
X95543Y151400D01*
X95620Y151634D01*
X95673Y151873D01*
X95705Y152117D01*
X95716Y152362D01*
X95705Y152608D01*
X95673Y152851D01*
X95620Y153091D01*
X95546Y153325D01*
X95513Y153397D01*
X95470Y153463D01*
X95416Y153521D01*
X95354Y153570D01*
X95285Y153609D01*
X95211Y153636D01*
X95143Y153650D01*
Y155980D01*
G37*
G36*
X92914D02*X95143D01*
Y153650D01*
X95134Y153652D01*
X95055Y153655D01*
X94977Y153646D01*
X94901Y153625D01*
X94829Y153592D01*
X94763Y153548D01*
X94705Y153495D01*
X94656Y153433D01*
X94617Y153364D01*
X94589Y153290D01*
X94574Y153213D01*
X94571Y153134D01*
X94580Y153055D01*
X94602Y152980D01*
X94652Y152830D01*
X94686Y152676D01*
X94706Y152520D01*
X94713Y152362D01*
X94706Y152205D01*
X94686Y152048D01*
X94652Y151894D01*
X94604Y151744D01*
X94581Y151669D01*
X94572Y151590D01*
X94576Y151512D01*
X94591Y151435D01*
X94619Y151361D01*
X94657Y151292D01*
X94706Y151231D01*
X94764Y151177D01*
X94830Y151134D01*
X94901Y151101D01*
X94977Y151080D01*
X95055Y151071D01*
X95134Y151074D01*
X95143Y151076D01*
Y52250D01*
X92914D01*
Y149560D01*
X93159Y149570D01*
X93402Y149602D01*
X93642Y149656D01*
X93876Y149730D01*
X93948Y149762D01*
X94014Y149806D01*
X94072Y149859D01*
X94121Y149921D01*
X94160Y149990D01*
X94187Y150064D01*
X94203Y150142D01*
X94206Y150220D01*
X94197Y150299D01*
X94176Y150375D01*
X94143Y150447D01*
X94099Y150513D01*
X94046Y150571D01*
X93984Y150620D01*
X93915Y150659D01*
X93841Y150686D01*
X93764Y150702D01*
X93685Y150705D01*
X93607Y150696D01*
X93531Y150673D01*
X93381Y150624D01*
X93227Y150590D01*
X93071Y150569D01*
X92914Y150562D01*
Y154162D01*
X93071Y154155D01*
X93227Y154135D01*
X93381Y154100D01*
X93532Y154053D01*
X93607Y154030D01*
X93685Y154021D01*
X93764Y154024D01*
X93841Y154040D01*
X93915Y154067D01*
X93983Y154106D01*
X94045Y154155D01*
X94098Y154213D01*
X94142Y154278D01*
X94174Y154350D01*
X94196Y154426D01*
X94205Y154504D01*
X94201Y154583D01*
X94186Y154660D01*
X94158Y154734D01*
X94120Y154802D01*
X94071Y154864D01*
X94013Y154917D01*
X93947Y154961D01*
X93875Y154992D01*
X93642Y155069D01*
X93402Y155122D01*
X93159Y155154D01*
X92914Y155165D01*
Y155980D01*
G37*
G36*
X90683D02*X92914D01*
Y155165D01*
X92913Y155165D01*
X92668Y155154D01*
X92425Y155122D01*
X92185Y155069D01*
X91951Y154994D01*
X91879Y154962D01*
X91813Y154918D01*
X91755Y154865D01*
X91706Y154803D01*
X91667Y154734D01*
X91639Y154660D01*
X91624Y154583D01*
X91620Y154504D01*
X91630Y154425D01*
X91651Y154349D01*
X91684Y154278D01*
X91727Y154212D01*
X91781Y154154D01*
X91843Y154105D01*
X91911Y154066D01*
X91985Y154038D01*
X92063Y154023D01*
X92142Y154019D01*
X92220Y154028D01*
X92296Y154051D01*
X92445Y154100D01*
X92599Y154135D01*
X92756Y154155D01*
X92913Y154162D01*
X92914Y154162D01*
Y150562D01*
X92913Y150562D01*
X92756Y150569D01*
X92599Y150590D01*
X92445Y150624D01*
X92295Y150672D01*
X92220Y150694D01*
X92142Y150703D01*
X92063Y150700D01*
X91986Y150684D01*
X91912Y150657D01*
X91844Y150618D01*
X91782Y150569D01*
X91729Y150512D01*
X91685Y150446D01*
X91652Y150374D01*
X91631Y150299D01*
X91622Y150220D01*
X91625Y150142D01*
X91641Y150065D01*
X91669Y149991D01*
X91707Y149922D01*
X91756Y149861D01*
X91814Y149807D01*
X91880Y149764D01*
X91952Y149733D01*
X92185Y149656D01*
X92425Y149602D01*
X92668Y149570D01*
X92913Y149560D01*
X92914Y149560D01*
Y52250D01*
X90683D01*
Y151074D01*
X90693Y151073D01*
X90772Y151069D01*
X90850Y151078D01*
X90926Y151100D01*
X90998Y151132D01*
X91064Y151176D01*
X91122Y151230D01*
X91171Y151291D01*
X91210Y151360D01*
X91237Y151434D01*
X91253Y151512D01*
X91256Y151591D01*
X91247Y151669D01*
X91225Y151745D01*
X91175Y151894D01*
X91141Y152048D01*
X91120Y152205D01*
X91113Y152362D01*
X91120Y152520D01*
X91141Y152676D01*
X91175Y152830D01*
X91223Y152980D01*
X91245Y153056D01*
X91255Y153134D01*
X91251Y153213D01*
X91236Y153290D01*
X91208Y153363D01*
X91170Y153432D01*
X91121Y153494D01*
X91063Y153547D01*
X90997Y153590D01*
X90926Y153623D01*
X90850Y153644D01*
X90772Y153653D01*
X90693Y153650D01*
X90683Y153648D01*
Y155980D01*
G37*
G36*
X86876D02*X90683D01*
Y153648D01*
X90616Y153635D01*
X90542Y153607D01*
X90473Y153568D01*
X90412Y153520D01*
X90359Y153462D01*
X90315Y153396D01*
X90284Y153324D01*
X90207Y153091D01*
X90154Y152851D01*
X90121Y152608D01*
X90111Y152362D01*
X90121Y152117D01*
X90154Y151873D01*
X90207Y151634D01*
X90281Y151400D01*
X90314Y151328D01*
X90357Y151262D01*
X90411Y151204D01*
X90473Y151155D01*
X90541Y151116D01*
X90615Y151088D01*
X90683Y151074D01*
Y52250D01*
X86876D01*
Y56269D01*
X86914Y56284D01*
X87019Y56349D01*
X87114Y56430D01*
X87194Y56524D01*
X87259Y56630D01*
X87306Y56744D01*
X87335Y56865D01*
X87343Y56988D01*
X87335Y68135D01*
X87306Y68256D01*
X87259Y68370D01*
X87194Y68476D01*
X87114Y68570D01*
X87019Y68651D01*
X86914Y68716D01*
X86876Y68731D01*
Y126667D01*
X86943Y126680D01*
X87017Y126708D01*
X87086Y126747D01*
X87147Y126795D01*
X87200Y126853D01*
X87244Y126919D01*
X87275Y126991D01*
X87352Y127224D01*
X87405Y127464D01*
X87438Y127707D01*
X87448Y127953D01*
X87438Y128198D01*
X87405Y128442D01*
X87352Y128681D01*
X87278Y128915D01*
X87246Y128987D01*
X87202Y129053D01*
X87148Y129111D01*
X87087Y129160D01*
X87018Y129199D01*
X86944Y129227D01*
X86876Y129240D01*
Y155980D01*
G37*
G36*
Y52250D02*X85932D01*
X84647Y53535D01*
Y56207D01*
X86679Y56208D01*
X86799Y56237D01*
X86876Y56269D01*
Y52250D01*
G37*
G36*
X84647Y155980D02*X86876D01*
Y129240D01*
X86866Y129242D01*
X86787Y129246D01*
X86709Y129237D01*
X86633Y129215D01*
X86561Y129183D01*
X86495Y129139D01*
X86437Y129085D01*
X86388Y129024D01*
X86349Y128955D01*
X86322Y128881D01*
X86306Y128803D01*
X86303Y128724D01*
X86312Y128646D01*
X86335Y128570D01*
X86384Y128421D01*
X86418Y128267D01*
X86439Y128110D01*
X86446Y127953D01*
X86439Y127795D01*
X86418Y127639D01*
X86384Y127485D01*
X86336Y127334D01*
X86314Y127259D01*
X86305Y127181D01*
X86308Y127102D01*
X86323Y127025D01*
X86351Y126952D01*
X86390Y126883D01*
X86438Y126821D01*
X86496Y126768D01*
X86562Y126724D01*
X86633Y126692D01*
X86709Y126671D01*
X86787Y126662D01*
X86866Y126665D01*
X86876Y126667D01*
Y68731D01*
X86799Y68763D01*
X86679Y68792D01*
X86555Y68799D01*
X84647Y68798D01*
Y125150D01*
X84891Y125161D01*
X85134Y125193D01*
X85374Y125246D01*
X85608Y125321D01*
X85680Y125353D01*
X85746Y125397D01*
X85804Y125450D01*
X85853Y125512D01*
X85892Y125581D01*
X85920Y125655D01*
X85935Y125732D01*
X85939Y125811D01*
X85930Y125889D01*
X85908Y125966D01*
X85875Y126037D01*
X85832Y126103D01*
X85778Y126161D01*
X85716Y126210D01*
X85648Y126249D01*
X85574Y126277D01*
X85496Y126292D01*
X85417Y126296D01*
X85339Y126287D01*
X85263Y126264D01*
X85114Y126215D01*
X84960Y126180D01*
X84803Y126160D01*
X84647Y126153D01*
Y129753D01*
X84803Y129746D01*
X84960Y129725D01*
X85114Y129691D01*
X85264Y129643D01*
X85339Y129621D01*
X85417Y129612D01*
X85496Y129615D01*
X85573Y129631D01*
X85647Y129658D01*
X85715Y129697D01*
X85777Y129746D01*
X85830Y129803D01*
X85874Y129869D01*
X85907Y129941D01*
X85928Y130016D01*
X85937Y130095D01*
X85934Y130173D01*
X85918Y130250D01*
X85891Y130324D01*
X85852Y130393D01*
X85803Y130454D01*
X85745Y130508D01*
X85679Y130551D01*
X85607Y130582D01*
X85374Y130659D01*
X85134Y130712D01*
X84891Y130745D01*
X84647Y130755D01*
Y155980D01*
G37*
G36*
Y217004D02*X96452D01*
Y184571D01*
X85042D01*
X84949Y184722D01*
X84663Y185057D01*
X84647Y185071D01*
Y217004D01*
G37*
G36*
Y240081D02*X96452Y240100D01*
Y237159D01*
X96145Y237232D01*
X95000Y237323D01*
X93855Y237232D01*
X92737Y236964D01*
X91676Y236524D01*
X90696Y235924D01*
X89822Y235178D01*
X89076Y234304D01*
X88476Y233324D01*
X88036Y232263D01*
X87768Y231145D01*
X87677Y230000D01*
X87768Y228855D01*
X88036Y227737D01*
X88476Y226676D01*
X89076Y225696D01*
X89822Y224822D01*
X90696Y224076D01*
X91676Y223476D01*
X92737Y223036D01*
X93855Y222768D01*
X95000Y222677D01*
X96145Y222768D01*
X96452Y222841D01*
Y220004D01*
X84647D01*
Y240081D01*
G37*
G36*
Y53535D02*X82250Y55932D01*
Y56205D01*
X84647Y56207D01*
Y53535D01*
G37*
G36*
X82416Y49402D02*X83347Y48471D01*
X83404Y48404D01*
X83673Y48174D01*
X83673Y48174D01*
X83861Y48059D01*
X83975Y47989D01*
X84303Y47854D01*
X84647Y47771D01*
Y44972D01*
X84076Y44304D01*
X83476Y43324D01*
X83036Y42263D01*
X82768Y41145D01*
X82677Y40000D01*
X82768Y38855D01*
X83036Y37737D01*
X83476Y36676D01*
X84076Y35696D01*
X84647Y35028D01*
Y29528D01*
X82416D01*
Y49402D01*
G37*
G36*
Y155980D02*X84647D01*
Y130755D01*
X84646Y130755D01*
X84400Y130745D01*
X84157Y130712D01*
X83917Y130659D01*
X83683Y130585D01*
X83611Y130553D01*
X83545Y130509D01*
X83487Y130455D01*
X83438Y130394D01*
X83399Y130325D01*
X83372Y130251D01*
X83356Y130173D01*
X83353Y130094D01*
X83362Y130016D01*
X83383Y129940D01*
X83416Y129868D01*
X83460Y129802D01*
X83513Y129744D01*
X83575Y129695D01*
X83644Y129656D01*
X83718Y129629D01*
X83795Y129613D01*
X83874Y129610D01*
X83952Y129619D01*
X84028Y129642D01*
X84178Y129691D01*
X84332Y129725D01*
X84488Y129746D01*
X84646Y129753D01*
X84647Y129753D01*
Y126153D01*
X84646Y126153D01*
X84488Y126160D01*
X84332Y126180D01*
X84178Y126215D01*
X84027Y126262D01*
X83952Y126285D01*
X83874Y126294D01*
X83795Y126291D01*
X83718Y126275D01*
X83644Y126248D01*
X83576Y126209D01*
X83514Y126160D01*
X83461Y126102D01*
X83417Y126037D01*
X83385Y125965D01*
X83363Y125889D01*
X83354Y125811D01*
X83358Y125732D01*
X83373Y125655D01*
X83401Y125581D01*
X83439Y125513D01*
X83488Y125451D01*
X83546Y125398D01*
X83612Y125354D01*
X83684Y125323D01*
X83917Y125246D01*
X84157Y125193D01*
X84400Y125161D01*
X84646Y125150D01*
X84647Y125150D01*
Y68798D01*
X82416Y68797D01*
Y126665D01*
X82425Y126663D01*
X82504Y126660D01*
X82582Y126669D01*
X82658Y126690D01*
X82730Y126723D01*
X82796Y126767D01*
X82854Y126820D01*
X82903Y126882D01*
X82942Y126951D01*
X82970Y127025D01*
X82985Y127102D01*
X82989Y127181D01*
X82979Y127260D01*
X82957Y127335D01*
X82908Y127485D01*
X82873Y127639D01*
X82853Y127795D01*
X82846Y127953D01*
X82853Y128110D01*
X82873Y128267D01*
X82908Y128421D01*
X82955Y128571D01*
X82978Y128646D01*
X82987Y128724D01*
X82983Y128803D01*
X82968Y128880D01*
X82940Y128954D01*
X82902Y129023D01*
X82853Y129084D01*
X82795Y129137D01*
X82729Y129181D01*
X82658Y129214D01*
X82582Y129235D01*
X82504Y129244D01*
X82425Y129241D01*
X82416Y129239D01*
Y155980D01*
G37*
G36*
Y217004D02*X84647D01*
Y185071D01*
X84328Y185343D01*
X83952Y185573D01*
X83545Y185742D01*
X83117Y185845D01*
X82677Y185880D01*
X82416Y185859D01*
Y217004D01*
G37*
G36*
Y240077D02*X84647Y240081D01*
Y220004D01*
X82416D01*
Y240077D01*
G37*
G36*
X69223Y216227D02*X69591Y216001D01*
X69998Y215833D01*
X70427Y215730D01*
X70866Y215695D01*
X71306Y215730D01*
X71734Y215833D01*
X72141Y216001D01*
X72517Y216232D01*
X72852Y216518D01*
X73138Y216853D01*
X73231Y217004D01*
X82416D01*
Y185859D01*
X82238Y185845D01*
X81809Y185742D01*
X81402Y185573D01*
X81026Y185343D01*
X80691Y185057D01*
X80405Y184722D01*
X80240Y184453D01*
Y195807D01*
X80245Y195866D01*
X80226Y196102D01*
X80171Y196331D01*
X80081Y196549D01*
X79957Y196751D01*
X79804Y196930D01*
X79759Y196968D01*
X76890Y199838D01*
X76851Y199883D01*
X76672Y200036D01*
X76470Y200160D01*
X76252Y200250D01*
X76023Y200305D01*
X75787Y200324D01*
X75729Y200319D01*
X75199D01*
X75107Y200470D01*
X74821Y200805D01*
X74486Y201091D01*
X74110Y201321D01*
X73703Y201490D01*
X73274Y201593D01*
X72835Y201628D01*
X72395Y201593D01*
X71967Y201490D01*
X71560Y201321D01*
X71184Y201091D01*
X70849Y200805D01*
X70562Y200470D01*
X70332Y200094D01*
X70163Y199687D01*
X70061Y199258D01*
X70026Y198819D01*
X70061Y198380D01*
X70163Y197951D01*
X70332Y197544D01*
X70562Y197168D01*
X70849Y196833D01*
X71184Y196547D01*
X71560Y196316D01*
X71967Y196148D01*
X72395Y196045D01*
X72835Y196010D01*
X73274Y196045D01*
X73703Y196148D01*
X74110Y196316D01*
X74486Y196547D01*
X74821Y196833D01*
X75107Y197168D01*
X75187Y197298D01*
X77240Y195245D01*
Y162460D01*
X77236Y162402D01*
X77254Y162166D01*
X77309Y161937D01*
X77400Y161718D01*
X77523Y161517D01*
X77676Y161338D01*
X77721Y161299D01*
X79606Y159414D01*
X79645Y159369D01*
X79824Y159216D01*
X80026Y159092D01*
X80244Y159002D01*
X80334Y158980D01*
X75424D01*
X74335Y160070D01*
Y186612D01*
X74486Y186704D01*
X74821Y186990D01*
X75107Y187326D01*
X75337Y187701D01*
X75506Y188108D01*
X75609Y188537D01*
X75635Y188976D01*
X75609Y189416D01*
X75506Y189844D01*
X75337Y190251D01*
X75107Y190627D01*
X74821Y190962D01*
X74486Y191249D01*
X74110Y191479D01*
X73703Y191648D01*
X73274Y191750D01*
X72835Y191785D01*
X72395Y191750D01*
X71967Y191648D01*
X71560Y191479D01*
X71184Y191249D01*
X70849Y190962D01*
X70562Y190627D01*
X70332Y190251D01*
X70163Y189844D01*
X70061Y189416D01*
X70026Y188976D01*
X70061Y188537D01*
X70163Y188108D01*
X70332Y187701D01*
X70562Y187326D01*
X70849Y186990D01*
X71184Y186704D01*
X71335Y186612D01*
Y159508D01*
X71330Y159449D01*
X71349Y159213D01*
X71404Y158984D01*
X71494Y158766D01*
X71617Y158564D01*
X71771Y158385D01*
X71816Y158347D01*
X73701Y156461D01*
X73739Y156416D01*
X73919Y156263D01*
X74120Y156140D01*
X74338Y156049D01*
X74568Y155994D01*
X74803Y155976D01*
X74862Y155980D01*
X82416D01*
Y129239D01*
X82348Y129225D01*
X82274Y129198D01*
X82206Y129159D01*
X82144Y129110D01*
X82091Y129052D01*
X82047Y128987D01*
X82016Y128914D01*
X81939Y128681D01*
X81886Y128442D01*
X81854Y128198D01*
X81843Y127953D01*
X81854Y127707D01*
X81886Y127464D01*
X81939Y127224D01*
X82013Y126990D01*
X82046Y126918D01*
X82089Y126852D01*
X82143Y126794D01*
X82205Y126745D01*
X82274Y126706D01*
X82348Y126679D01*
X82416Y126665D01*
Y68797D01*
X75408Y68792D01*
X75287Y68763D01*
X75173Y68716D01*
X75067Y68651D01*
X74973Y68570D01*
X74893Y68476D01*
X74828Y68370D01*
X74780Y68256D01*
X74751Y68135D01*
X74744Y68012D01*
X74751Y56865D01*
X74780Y56744D01*
X74828Y56630D01*
X74893Y56524D01*
X74973Y56430D01*
X75067Y56349D01*
X75173Y56284D01*
X75287Y56237D01*
X75408Y56208D01*
X75531Y56201D01*
X77750Y56202D01*
Y55088D01*
X77743Y55000D01*
X77771Y54647D01*
Y54647D01*
X77854Y54303D01*
X77989Y53975D01*
X78059Y53861D01*
X78174Y53673D01*
X78174Y53673D01*
X78404Y53404D01*
X78471Y53347D01*
X82416Y49402D01*
Y29528D01*
X69223D01*
Y37284D01*
X69232Y37284D01*
X70221Y37362D01*
X71185Y37593D01*
X72101Y37972D01*
X72946Y38490D01*
X73700Y39134D01*
X74344Y39888D01*
X74862Y40734D01*
X75242Y41650D01*
X75473Y42614D01*
X75531Y43602D01*
X75473Y44591D01*
X75242Y45555D01*
X74862Y46471D01*
X74344Y47316D01*
X73700Y48070D01*
X72946Y48714D01*
X72101Y49232D01*
X71185Y49612D01*
X70221Y49843D01*
X69232Y49921D01*
X69223Y49920D01*
Y216227D01*
G37*
G36*
Y240056D02*X82416Y240077D01*
Y220004D01*
X73231D01*
X73138Y220155D01*
X72852Y220490D01*
X72517Y220776D01*
X72141Y221006D01*
X71734Y221175D01*
X71306Y221278D01*
X70866Y221313D01*
X70427Y221278D01*
X69998Y221175D01*
X69591Y221006D01*
X69223Y220781D01*
Y240056D01*
G37*
G36*
X53411Y240030D02*X69223Y240056D01*
Y220781D01*
X69215Y220776D01*
X68880Y220490D01*
X68594Y220155D01*
X68364Y219779D01*
X68195Y219372D01*
X68092Y218943D01*
X68058Y218504D01*
X68092Y218065D01*
X68195Y217636D01*
X68364Y217229D01*
X68594Y216853D01*
X68880Y216518D01*
X69215Y216232D01*
X69223Y216227D01*
Y49920D01*
X68244Y49843D01*
X67280Y49612D01*
X66364Y49232D01*
X65518Y48714D01*
X64764Y48070D01*
X64120Y47316D01*
X63602Y46471D01*
X63223Y45555D01*
X62991Y44591D01*
X62914Y43602D01*
X62991Y42614D01*
X63223Y41650D01*
X63602Y40734D01*
X64120Y39888D01*
X64764Y39134D01*
X65518Y38490D01*
X66364Y37972D01*
X67280Y37593D01*
X68244Y37362D01*
X69223Y37284D01*
Y29528D01*
X53411D01*
Y58418D01*
X53741Y58032D01*
X54495Y57388D01*
X55340Y56870D01*
X56256Y56491D01*
X57220Y56259D01*
X58209Y56181D01*
X59197Y56259D01*
X60161Y56491D01*
X61077Y56870D01*
X61923Y57388D01*
X62677Y58032D01*
X63321Y58786D01*
X63839Y59631D01*
X64218Y60547D01*
X64450Y61512D01*
X64508Y62500D01*
X64450Y63488D01*
X64218Y64453D01*
X63839Y65369D01*
X63321Y66214D01*
X62677Y66968D01*
X61923Y67612D01*
X61077Y68130D01*
X60161Y68509D01*
X59197Y68741D01*
X58209Y68819D01*
X57220Y68741D01*
X56256Y68509D01*
X55340Y68130D01*
X54495Y67612D01*
X53741Y66968D01*
X53411Y66582D01*
Y161116D01*
X53479Y161129D01*
X53552Y161157D01*
X53621Y161195D01*
X53683Y161244D01*
X53736Y161302D01*
X53779Y161368D01*
X53811Y161440D01*
X53887Y161673D01*
X53941Y161913D01*
X53973Y162156D01*
X53984Y162402D01*
X53973Y162647D01*
X53941Y162890D01*
X53887Y163130D01*
X53813Y163364D01*
X53781Y163436D01*
X53737Y163502D01*
X53684Y163560D01*
X53622Y163609D01*
X53553Y163648D01*
X53479Y163676D01*
X53411Y163689D01*
Y169372D01*
X53486Y169403D01*
X53777Y169581D01*
X54036Y169803D01*
X54257Y170062D01*
X54435Y170352D01*
X54566Y170667D01*
X54645Y170999D01*
X54665Y171339D01*
X54645Y171678D01*
X54566Y172010D01*
X54435Y172325D01*
X54257Y172615D01*
X54036Y172874D01*
X53777Y173096D01*
X53486Y173274D01*
X53411Y173305D01*
Y186695D01*
X53486Y186726D01*
X53777Y186904D01*
X54036Y187126D01*
X54257Y187385D01*
X54435Y187675D01*
X54566Y187990D01*
X54645Y188322D01*
X54665Y188661D01*
X54645Y189001D01*
X54566Y189333D01*
X54435Y189648D01*
X54257Y189938D01*
X54036Y190197D01*
X53777Y190419D01*
X53486Y190597D01*
X53411Y190628D01*
Y196549D01*
X53479Y196562D01*
X53552Y196590D01*
X53621Y196628D01*
X53683Y196677D01*
X53736Y196735D01*
X53779Y196801D01*
X53811Y196873D01*
X53887Y197106D01*
X53941Y197346D01*
X53973Y197589D01*
X53984Y197835D01*
X53973Y198080D01*
X53941Y198323D01*
X53887Y198563D01*
X53813Y198797D01*
X53781Y198869D01*
X53737Y198935D01*
X53684Y198993D01*
X53622Y199042D01*
X53553Y199081D01*
X53479Y199109D01*
X53411Y199122D01*
Y240030D01*
G37*
G36*
Y173305D02*X53171Y173404D01*
X52840Y173484D01*
X52500Y173511D01*
X52160Y173484D01*
X51829Y173404D01*
X51514Y173274D01*
X51223Y173096D01*
X51182Y173060D01*
Y186940D01*
X51223Y186904D01*
X51514Y186726D01*
X51829Y186596D01*
X52160Y186516D01*
X52500Y186489D01*
X52840Y186516D01*
X53171Y186596D01*
X53411Y186695D01*
Y173305D01*
G37*
G36*
Y29528D02*X51182D01*
Y159599D01*
X51426Y159610D01*
X51670Y159642D01*
X51910Y159695D01*
X52144Y159769D01*
X52216Y159802D01*
X52282Y159845D01*
X52340Y159899D01*
X52389Y159961D01*
X52428Y160030D01*
X52455Y160104D01*
X52471Y160181D01*
X52474Y160260D01*
X52465Y160338D01*
X52444Y160414D01*
X52411Y160486D01*
X52367Y160552D01*
X52314Y160610D01*
X52252Y160659D01*
X52183Y160698D01*
X52109Y160726D01*
X52032Y160741D01*
X51953Y160744D01*
X51874Y160735D01*
X51799Y160713D01*
X51649Y160663D01*
X51495Y160629D01*
X51339Y160608D01*
X51182Y160602D01*
Y164202D01*
X51339Y164195D01*
X51495Y164174D01*
X51649Y164140D01*
X51799Y164092D01*
X51875Y164069D01*
X51953Y164060D01*
X52031Y164064D01*
X52109Y164079D01*
X52182Y164107D01*
X52251Y164145D01*
X52313Y164194D01*
X52366Y164252D01*
X52409Y164318D01*
X52442Y164389D01*
X52463Y164465D01*
X52472Y164543D01*
X52469Y164622D01*
X52453Y164699D01*
X52426Y164773D01*
X52387Y164841D01*
X52338Y164903D01*
X52280Y164956D01*
X52215Y165000D01*
X52143Y165031D01*
X51910Y165108D01*
X51670Y165161D01*
X51426Y165194D01*
X51182Y165204D01*
Y169617D01*
X51223Y169581D01*
X51514Y169403D01*
X51829Y169273D01*
X52160Y169193D01*
X52500Y169167D01*
X52840Y169193D01*
X53171Y169273D01*
X53411Y169372D01*
Y163689D01*
X53402Y163691D01*
X53323Y163695D01*
X53244Y163685D01*
X53168Y163664D01*
X53096Y163631D01*
X53031Y163588D01*
X52973Y163534D01*
X52924Y163472D01*
X52885Y163404D01*
X52857Y163330D01*
X52842Y163252D01*
X52838Y163173D01*
X52847Y163095D01*
X52870Y163019D01*
X52919Y162869D01*
X52954Y162716D01*
X52974Y162559D01*
X52981Y162402D01*
X52974Y162244D01*
X52954Y162088D01*
X52919Y161934D01*
X52872Y161783D01*
X52849Y161708D01*
X52840Y161630D01*
X52843Y161551D01*
X52859Y161474D01*
X52886Y161400D01*
X52925Y161332D01*
X52974Y161270D01*
X53032Y161217D01*
X53097Y161173D01*
X53169Y161141D01*
X53245Y161119D01*
X53323Y161110D01*
X53402Y161114D01*
X53411Y161116D01*
Y66582D01*
X53097Y66214D01*
X52579Y65369D01*
X52199Y64453D01*
X51968Y63488D01*
X51890Y62500D01*
X51968Y61512D01*
X52199Y60547D01*
X52579Y59631D01*
X53097Y58786D01*
X53411Y58418D01*
Y29528D01*
G37*
G36*
X51182Y240026D02*X53411Y240030D01*
Y199122D01*
X53402Y199124D01*
X53323Y199128D01*
X53244Y199119D01*
X53168Y199097D01*
X53096Y199064D01*
X53031Y199021D01*
X52973Y198967D01*
X52924Y198905D01*
X52885Y198837D01*
X52857Y198763D01*
X52842Y198685D01*
X52838Y198606D01*
X52847Y198528D01*
X52870Y198452D01*
X52919Y198303D01*
X52954Y198149D01*
X52974Y197992D01*
X52981Y197835D01*
X52974Y197677D01*
X52954Y197521D01*
X52919Y197367D01*
X52872Y197216D01*
X52849Y197141D01*
X52840Y197063D01*
X52843Y196984D01*
X52859Y196907D01*
X52886Y196833D01*
X52925Y196765D01*
X52974Y196703D01*
X53032Y196650D01*
X53097Y196606D01*
X53169Y196574D01*
X53245Y196552D01*
X53323Y196543D01*
X53402Y196547D01*
X53411Y196549D01*
Y190628D01*
X53171Y190727D01*
X52840Y190807D01*
X52500Y190833D01*
X52160Y190807D01*
X51829Y190727D01*
X51514Y190597D01*
X51223Y190419D01*
X51182Y190383D01*
Y195032D01*
X51426Y195043D01*
X51670Y195075D01*
X51910Y195128D01*
X52144Y195202D01*
X52216Y195235D01*
X52282Y195278D01*
X52340Y195332D01*
X52389Y195394D01*
X52428Y195463D01*
X52455Y195537D01*
X52471Y195614D01*
X52474Y195693D01*
X52465Y195771D01*
X52444Y195847D01*
X52411Y195919D01*
X52367Y195985D01*
X52314Y196043D01*
X52252Y196092D01*
X52183Y196131D01*
X52109Y196159D01*
X52032Y196174D01*
X51953Y196178D01*
X51874Y196168D01*
X51799Y196146D01*
X51649Y196097D01*
X51495Y196062D01*
X51339Y196042D01*
X51182Y196035D01*
Y199635D01*
X51339Y199628D01*
X51495Y199607D01*
X51649Y199573D01*
X51799Y199525D01*
X51875Y199503D01*
X51953Y199494D01*
X52031Y199497D01*
X52109Y199512D01*
X52182Y199540D01*
X52251Y199578D01*
X52313Y199627D01*
X52366Y199685D01*
X52409Y199751D01*
X52442Y199822D01*
X52463Y199898D01*
X52472Y199976D01*
X52469Y200055D01*
X52453Y200132D01*
X52426Y200206D01*
X52387Y200275D01*
X52338Y200336D01*
X52280Y200389D01*
X52215Y200433D01*
X52143Y200464D01*
X51910Y200541D01*
X51670Y200594D01*
X51426Y200627D01*
X51182Y200637D01*
Y240026D01*
G37*
G36*
X48951Y240023D02*X51182Y240026D01*
Y200637D01*
X51181Y200637D01*
X50936Y200627D01*
X50692Y200594D01*
X50453Y200541D01*
X50218Y200467D01*
X50146Y200435D01*
X50081Y200391D01*
X50023Y200337D01*
X49973Y200276D01*
X49935Y200207D01*
X49907Y200133D01*
X49891Y200055D01*
X49888Y199976D01*
X49897Y199898D01*
X49918Y199822D01*
X49951Y199750D01*
X49995Y199684D01*
X50048Y199626D01*
X50110Y199577D01*
X50179Y199538D01*
X50253Y199511D01*
X50331Y199495D01*
X50409Y199492D01*
X50488Y199501D01*
X50563Y199524D01*
X50713Y199573D01*
X50867Y199607D01*
X51024Y199628D01*
X51181Y199635D01*
X51182Y199635D01*
Y196035D01*
X51181Y196035D01*
X51024Y196042D01*
X50867Y196062D01*
X50713Y196097D01*
X50563Y196144D01*
X50488Y196167D01*
X50409Y196176D01*
X50331Y196172D01*
X50254Y196157D01*
X50180Y196129D01*
X50111Y196091D01*
X50050Y196042D01*
X49996Y195984D01*
X49953Y195918D01*
X49920Y195847D01*
X49899Y195771D01*
X49890Y195693D01*
X49893Y195614D01*
X49909Y195537D01*
X49936Y195463D01*
X49975Y195395D01*
X50024Y195333D01*
X50082Y195280D01*
X50147Y195236D01*
X50219Y195205D01*
X50453Y195128D01*
X50692Y195075D01*
X50936Y195043D01*
X51181Y195032D01*
X51182Y195032D01*
Y190383D01*
X50964Y190197D01*
X50743Y189938D01*
X50565Y189648D01*
X50434Y189333D01*
X50355Y189001D01*
X50328Y188661D01*
X50355Y188322D01*
X50434Y187990D01*
X50565Y187675D01*
X50743Y187385D01*
X50964Y187126D01*
X51182Y186940D01*
Y173060D01*
X50964Y172874D01*
X50743Y172615D01*
X50565Y172325D01*
X50434Y172010D01*
X50355Y171678D01*
X50328Y171339D01*
X50355Y170999D01*
X50434Y170667D01*
X50565Y170352D01*
X50743Y170062D01*
X50964Y169803D01*
X51182Y169617D01*
Y165204D01*
X51181Y165204D01*
X50936Y165194D01*
X50692Y165161D01*
X50453Y165108D01*
X50218Y165034D01*
X50146Y165001D01*
X50081Y164958D01*
X50023Y164904D01*
X49973Y164842D01*
X49935Y164774D01*
X49907Y164700D01*
X49891Y164622D01*
X49888Y164543D01*
X49897Y164465D01*
X49918Y164389D01*
X49951Y164317D01*
X49995Y164251D01*
X50048Y164193D01*
X50110Y164144D01*
X50179Y164105D01*
X50253Y164078D01*
X50331Y164062D01*
X50409Y164059D01*
X50488Y164068D01*
X50563Y164090D01*
X50713Y164140D01*
X50867Y164174D01*
X51024Y164195D01*
X51181Y164202D01*
X51182Y164202D01*
Y160602D01*
X51181Y160602D01*
X51024Y160608D01*
X50867Y160629D01*
X50713Y160663D01*
X50563Y160711D01*
X50488Y160734D01*
X50409Y160743D01*
X50331Y160739D01*
X50254Y160724D01*
X50180Y160696D01*
X50111Y160658D01*
X50050Y160609D01*
X49996Y160551D01*
X49953Y160485D01*
X49920Y160414D01*
X49899Y160338D01*
X49890Y160260D01*
X49893Y160181D01*
X49909Y160104D01*
X49936Y160030D01*
X49975Y159962D01*
X50024Y159900D01*
X50082Y159847D01*
X50147Y159803D01*
X50219Y159772D01*
X50453Y159695D01*
X50692Y159642D01*
X50936Y159610D01*
X51181Y159599D01*
X51182Y159599D01*
Y29528D01*
X48951D01*
Y161114D01*
X48960Y161112D01*
X49039Y161109D01*
X49118Y161118D01*
X49194Y161139D01*
X49266Y161172D01*
X49331Y161215D01*
X49390Y161269D01*
X49439Y161331D01*
X49477Y161400D01*
X49505Y161474D01*
X49521Y161551D01*
X49524Y161630D01*
X49515Y161708D01*
X49492Y161784D01*
X49443Y161934D01*
X49409Y162088D01*
X49388Y162244D01*
X49381Y162402D01*
X49388Y162559D01*
X49409Y162716D01*
X49443Y162869D01*
X49491Y163020D01*
X49513Y163095D01*
X49522Y163173D01*
X49519Y163252D01*
X49503Y163329D01*
X49476Y163403D01*
X49437Y163471D01*
X49388Y163533D01*
X49330Y163586D01*
X49265Y163630D01*
X49193Y163663D01*
X49117Y163684D01*
X49039Y163693D01*
X48961Y163689D01*
X48951Y163688D01*
Y196547D01*
X48960Y196545D01*
X49039Y196542D01*
X49118Y196551D01*
X49194Y196572D01*
X49266Y196605D01*
X49331Y196649D01*
X49390Y196702D01*
X49439Y196764D01*
X49477Y196833D01*
X49505Y196907D01*
X49521Y196984D01*
X49524Y197063D01*
X49515Y197141D01*
X49492Y197217D01*
X49443Y197367D01*
X49409Y197521D01*
X49388Y197677D01*
X49381Y197835D01*
X49388Y197992D01*
X49409Y198149D01*
X49443Y198303D01*
X49491Y198453D01*
X49513Y198528D01*
X49522Y198606D01*
X49519Y198685D01*
X49503Y198762D01*
X49476Y198836D01*
X49437Y198904D01*
X49388Y198966D01*
X49330Y199019D01*
X49265Y199063D01*
X49193Y199096D01*
X49117Y199117D01*
X49039Y199126D01*
X48961Y199123D01*
X48951Y199121D01*
Y240023D01*
G37*
G36*
X42584Y240012D02*X48951Y240023D01*
Y199121D01*
X48884Y199107D01*
X48810Y199080D01*
X48741Y199041D01*
X48680Y198992D01*
X48626Y198934D01*
X48583Y198868D01*
X48551Y198796D01*
X48475Y198563D01*
X48421Y198323D01*
X48389Y198080D01*
X48378Y197835D01*
X48389Y197589D01*
X48421Y197346D01*
X48475Y197106D01*
X48549Y196872D01*
X48581Y196800D01*
X48625Y196734D01*
X48678Y196676D01*
X48740Y196627D01*
X48809Y196588D01*
X48883Y196561D01*
X48951Y196547D01*
Y163688D01*
X48884Y163674D01*
X48810Y163646D01*
X48741Y163608D01*
X48680Y163559D01*
X48626Y163501D01*
X48583Y163435D01*
X48551Y163363D01*
X48475Y163130D01*
X48421Y162890D01*
X48389Y162647D01*
X48378Y162402D01*
X48389Y162156D01*
X48421Y161913D01*
X48475Y161673D01*
X48549Y161439D01*
X48581Y161367D01*
X48625Y161301D01*
X48678Y161243D01*
X48740Y161194D01*
X48809Y161155D01*
X48883Y161128D01*
X48951Y161114D01*
Y29528D01*
X42584D01*
Y178832D01*
X42652Y178846D01*
X42726Y178873D01*
X42794Y178912D01*
X42856Y178961D01*
X42909Y179019D01*
X42953Y179084D01*
X42984Y179156D01*
X43061Y179390D01*
X43114Y179629D01*
X43146Y179873D01*
X43157Y180118D01*
X43146Y180363D01*
X43114Y180607D01*
X43061Y180847D01*
X42987Y181081D01*
X42954Y181153D01*
X42911Y181219D01*
X42857Y181277D01*
X42795Y181326D01*
X42726Y181365D01*
X42652Y181392D01*
X42584Y181406D01*
Y240012D01*
G37*
G36*
X40355Y240009D02*X42584Y240012D01*
Y181406D01*
X42575Y181408D01*
X42496Y181411D01*
X42418Y181402D01*
X42342Y181381D01*
X42270Y181348D01*
X42204Y181304D01*
X42146Y181251D01*
X42097Y181189D01*
X42058Y181120D01*
X42030Y181046D01*
X42015Y180969D01*
X42011Y180890D01*
X42021Y180811D01*
X42043Y180736D01*
X42092Y180586D01*
X42127Y180432D01*
X42147Y180276D01*
X42154Y180118D01*
X42147Y179961D01*
X42127Y179804D01*
X42092Y179650D01*
X42045Y179500D01*
X42022Y179425D01*
X42013Y179346D01*
X42017Y179268D01*
X42032Y179191D01*
X42060Y179117D01*
X42098Y179048D01*
X42147Y178987D01*
X42205Y178933D01*
X42271Y178890D01*
X42342Y178857D01*
X42418Y178836D01*
X42496Y178827D01*
X42575Y178830D01*
X42584Y178832D01*
Y29528D01*
X40355D01*
Y177315D01*
X40600Y177326D01*
X40843Y177358D01*
X41083Y177412D01*
X41317Y177486D01*
X41389Y177518D01*
X41455Y177562D01*
X41513Y177615D01*
X41562Y177677D01*
X41601Y177746D01*
X41628Y177820D01*
X41644Y177897D01*
X41647Y177976D01*
X41638Y178055D01*
X41617Y178131D01*
X41584Y178203D01*
X41540Y178268D01*
X41487Y178327D01*
X41425Y178376D01*
X41356Y178414D01*
X41282Y178442D01*
X41205Y178458D01*
X41126Y178461D01*
X41048Y178452D01*
X40972Y178429D01*
X40822Y178380D01*
X40668Y178346D01*
X40512Y178325D01*
X40355Y178318D01*
Y181918D01*
X40512Y181911D01*
X40668Y181891D01*
X40822Y181856D01*
X40973Y181809D01*
X41048Y181786D01*
X41126Y181777D01*
X41205Y181780D01*
X41282Y181796D01*
X41356Y181823D01*
X41424Y181862D01*
X41486Y181911D01*
X41539Y181969D01*
X41583Y182034D01*
X41615Y182106D01*
X41636Y182182D01*
X41646Y182260D01*
X41642Y182339D01*
X41627Y182416D01*
X41599Y182489D01*
X41561Y182558D01*
X41512Y182620D01*
X41454Y182673D01*
X41388Y182716D01*
X41316Y182748D01*
X41083Y182824D01*
X40843Y182878D01*
X40600Y182910D01*
X40355Y182921D01*
Y240009D01*
G37*
G36*
X38124Y240005D02*X40355Y240009D01*
Y182921D01*
X40354Y182921D01*
X40109Y182910D01*
X39866Y182878D01*
X39626Y182824D01*
X39392Y182750D01*
X39320Y182718D01*
X39254Y182674D01*
X39196Y182621D01*
X39147Y182559D01*
X39108Y182490D01*
X39080Y182416D01*
X39065Y182339D01*
X39061Y182260D01*
X39070Y182181D01*
X39092Y182105D01*
X39125Y182034D01*
X39168Y181968D01*
X39222Y181910D01*
X39284Y181861D01*
X39352Y181822D01*
X39426Y181794D01*
X39504Y181779D01*
X39583Y181775D01*
X39661Y181784D01*
X39737Y181807D01*
X39886Y181856D01*
X40040Y181891D01*
X40197Y181911D01*
X40354Y181918D01*
X40355Y181918D01*
Y178318D01*
X40354Y178318D01*
X40197Y178325D01*
X40040Y178346D01*
X39886Y178380D01*
X39736Y178428D01*
X39661Y178450D01*
X39583Y178459D01*
X39504Y178456D01*
X39427Y178440D01*
X39353Y178413D01*
X39285Y178374D01*
X39223Y178325D01*
X39170Y178267D01*
X39126Y178202D01*
X39093Y178130D01*
X39072Y178054D01*
X39063Y177976D01*
X39066Y177898D01*
X39082Y177821D01*
X39109Y177747D01*
X39148Y177678D01*
X39197Y177617D01*
X39255Y177563D01*
X39321Y177520D01*
X39393Y177488D01*
X39626Y177412D01*
X39866Y177358D01*
X40109Y177326D01*
X40354Y177315D01*
X40355Y177315D01*
Y29528D01*
X38124D01*
Y178830D01*
X38134Y178828D01*
X38213Y178825D01*
X38291Y178834D01*
X38367Y178855D01*
X38439Y178888D01*
X38505Y178932D01*
X38563Y178985D01*
X38612Y179047D01*
X38651Y179116D01*
X38678Y179190D01*
X38694Y179268D01*
X38697Y179346D01*
X38688Y179425D01*
X38665Y179500D01*
X38616Y179650D01*
X38582Y179804D01*
X38561Y179961D01*
X38554Y180118D01*
X38561Y180276D01*
X38582Y180432D01*
X38616Y180586D01*
X38664Y180736D01*
X38686Y180812D01*
X38695Y180890D01*
X38692Y180968D01*
X38677Y181046D01*
X38649Y181119D01*
X38610Y181188D01*
X38562Y181250D01*
X38504Y181303D01*
X38438Y181346D01*
X38367Y181379D01*
X38291Y181400D01*
X38213Y181409D01*
X38134Y181406D01*
X38124Y181404D01*
Y240005D01*
G37*
G36*
X35433Y29528D02*X35000Y240000D01*
X38124Y240005D01*
Y181404D01*
X38057Y181390D01*
X37983Y181363D01*
X37914Y181324D01*
X37853Y181275D01*
X37800Y181217D01*
X37756Y181152D01*
X37725Y181080D01*
X37648Y180847D01*
X37595Y180607D01*
X37562Y180363D01*
X37552Y180118D01*
X37562Y179873D01*
X37595Y179629D01*
X37648Y179390D01*
X37722Y179155D01*
X37754Y179083D01*
X37798Y179018D01*
X37852Y178960D01*
X37913Y178910D01*
X37982Y178872D01*
X38056Y178844D01*
X38124Y178830D01*
Y29528D01*
X35433D01*
G37*
G54D70*X140000Y100000D02*X150000D01*
X195000Y40000D02*X205000D01*
X215000D02*Y35000D01*
X212500Y32500D01*
X105000D01*
X102500Y35000D01*
Y47500D01*
X100000Y50000D01*
X85000D01*
X80000Y55000D01*
Y60000D01*
G54D71*X70866Y218504D02*X122047D01*
X72835Y198819D02*X75787D01*
X78740Y195866D01*
X120079Y141732D02*Y183071D01*
X78740Y195866D02*Y162402D01*
X100394Y152362D02*Y155512D01*
X98425Y157480D01*
X80709Y160433D02*X108268D01*
X98425Y157480D02*X74803D01*
X72835Y159449D01*
Y188976D01*
X78740Y162402D02*X80709Y160433D01*
X82677Y183071D02*X120079D01*
X108268Y160433D02*X110827Y157874D01*
Y152559D02*Y157874D01*
G54D72*X46000Y19000D02*X45500Y18500D01*
X46000Y19000D02*X47000D01*
X47500Y18500D02*X47000Y19000D01*
X47500Y15500D02*Y18500D01*
Y15500D02*X47000Y15000D01*
X46000Y17200D02*X45500Y16700D01*
X46000Y17200D02*X47500D01*
X46000Y15000D02*X47000D01*
X46000D02*X45500Y15500D01*
Y16700D01*
G54D69*G36*
X287000Y133000D02*Y127000D01*
X293000D01*
Y133000D01*
X287000D01*
G37*
G54D73*X290000Y120000D03*
Y110000D03*
Y100000D03*
G54D69*G36*
X237000Y158000D02*Y152000D01*
X243000D01*
Y158000D01*
X237000D01*
G37*
G54D73*X240000Y75000D03*
X250000D03*
X260000D03*
X270000D03*
G54D69*G36*
X277000Y103000D02*Y97000D01*
X283000D01*
Y103000D01*
X277000D01*
G37*
G54D73*X280000Y110000D03*
X165000Y40000D03*
X175000D03*
X185000D03*
X195000D03*
X205000D03*
X215000D03*
G54D69*G36*
X232000Y43000D02*Y37000D01*
X238000D01*
Y43000D01*
X232000D01*
G37*
G54D73*X245000Y40000D03*
X255000D03*
X265000D03*
X275000D03*
X285000D03*
G54D69*G36*
X212000Y233000D02*Y227000D01*
X218000D01*
Y233000D01*
X212000D01*
G37*
G54D73*X225000Y230000D03*
X235000D03*
X245000D03*
X255000D03*
X265000D03*
X275000D03*
X285000D03*
X230000Y145000D03*
X220000D03*
X210000D03*
X200000D03*
X190000D03*
X220000Y155000D03*
X210000D03*
X200000D03*
X190000D03*
G54D69*G36*
X197000Y88000D02*Y82000D01*
X203000D01*
Y88000D01*
X197000D01*
G37*
G54D73*X210000Y85000D03*
X190000Y100000D03*
X200000D03*
X210000D03*
X220000Y85000D03*
Y100000D03*
G54D69*G36*
X237000Y148000D02*Y142000D01*
X243000D01*
Y148000D01*
X237000D01*
G37*
G54D73*X240000Y130000D03*
X230000D03*
X220000D03*
X210000D03*
Y75000D03*
X220000D03*
X200000Y130000D03*
X190000D03*
X170000D03*
X180000Y155000D03*
X170000D03*
Y75000D03*
X180000D03*
G54D69*G36*
X197000Y78000D02*Y72000D01*
X203000D01*
Y78000D01*
X197000D01*
G37*
G54D73*X270000Y130000D03*
X260000D03*
X250000D03*
X230000Y85000D03*
Y100000D03*
X240000D03*
X230000Y75000D03*
X240000Y85000D03*
X250000D03*
X260000D03*
X270000D03*
X230000Y155000D03*
X250000Y100000D03*
X260000D03*
X270000D03*
G54D69*G36*
X75531Y68012D02*Y56988D01*
X86555D01*
Y68012D01*
X75531D01*
G37*
G36*
X106000Y233000D02*Y227000D01*
X112000D01*
Y233000D01*
X106000D01*
G37*
G54D73*X119000Y230000D03*
X129000D03*
X139000D03*
X149000D03*
X159000D03*
X169000D03*
X179000D03*
X189000D03*
X199000D03*
G54D69*G36*
X142000Y43000D02*Y37000D01*
X148000D01*
Y43000D01*
X142000D01*
G37*
G54D73*X155000Y40000D03*
G54D74*X58209Y62500D03*
X69232Y43602D03*
G54D69*G36*
X147000Y88000D02*Y82000D01*
X153000D01*
Y88000D01*
X147000D01*
G37*
G36*
X137000Y103000D02*Y97000D01*
X143000D01*
Y103000D01*
X137000D01*
G37*
G54D73*X150000Y100000D03*
G54D69*G36*
X147000Y78000D02*Y72000D01*
X153000D01*
Y78000D01*
X147000D01*
G37*
G54D73*X160000Y85000D03*
Y100000D03*
Y75000D03*
X170000Y85000D03*
X180000D03*
X170000Y100000D03*
X180000D03*
Y145000D03*
X170000D03*
X180000Y130000D03*
X160000D03*
X150000D03*
X140000D03*
G54D69*G36*
X142000Y158000D02*Y152000D01*
X148000D01*
Y158000D01*
X142000D01*
G37*
G54D73*X145000Y145000D03*
G54D69*G36*
X152000Y158000D02*Y152000D01*
X158000D01*
Y158000D01*
X152000D01*
G37*
G54D73*X155000Y145000D03*
G54D75*X260000Y107500D03*
X100394Y152362D03*
X104331Y137795D03*
X84646Y127953D03*
X85236Y169291D03*
X120079Y141732D03*
Y183071D03*
X106299Y96457D03*
X105906Y169291D03*
X125984Y167323D03*
X110827Y152559D03*
X70866Y218504D03*
X72835Y198819D03*
Y188976D03*
X51181Y197835D03*
X40354Y180118D03*
X122047Y218504D03*
X92913Y152362D03*
X95472Y169291D03*
X51181Y162402D03*
X82677Y183071D03*
G54D76*G54D77*G54D78*G54D79*G54D78*G54D79*G54D78*G54D79*G54D78*G54D79*G54D78*G54D79*G54D78*G54D79*G54D78*G54D79*G54D77*G54D80*G54D78*G54D81*G54D78*G54D80*G54D78*G54D79*G54D78*G54D79*G54D78*G54D79*G54D78*G54D79*G54D78*M02*
