G04 start of page 6 for group 4 idx 4 *
G04 Title: AJ.001.00.01.01, outline *
G04 Creator: pcb 4.1.2 *
G04 CreationDate: Sun Sep  9 20:15:37 2018 UTC *
G04 For: bert *
G04 Format: Gerber/RS-274X *
G04 PCB-Dimensions (mil): 3200.00 2500.00 *
G04 PCB-Coordinate-Origin: lower left *
%MOIN*%
%FSLAX25Y25*%
%LNGKO*%
%ADD61C,0.0040*%
%ADD60C,0.0060*%
G54D60*X35000Y30000D02*X295000D01*
Y40000D02*Y30000D01*
X35000Y240000D02*X289000D01*
X35000D02*Y30000D01*
X295000Y234000D02*Y189000D01*
X289000Y240000D02*X295000Y234000D01*
X305000Y50000D02*Y179000D01*
X295000Y189000D02*X305000Y179000D01*
Y50000D02*X295000Y40000D01*
G54D61*X9193Y8657D02*Y5657D01*
Y8657D02*X9693Y9157D01*
X10693D01*
X11193Y8657D01*
Y5657D01*
X10693Y5157D02*X11193Y5657D01*
X9693Y5157D02*X10693D01*
X9193Y5657D02*X9693Y5157D01*
X12393Y9157D02*Y5657D01*
X12893Y5157D01*
X13893D01*
X14393Y5657D01*
Y9157D02*Y5657D01*
X15593Y9157D02*X17593D01*
X16593D02*Y5157D01*
X18793Y9157D02*Y5157D01*
X20793D01*
X21993Y9157D02*X22993D01*
X22493D02*Y5157D01*
X21993D02*X22993D01*
X24193Y9157D02*Y5157D01*
Y9157D02*X26693Y5157D01*
Y9157D02*Y5157D01*
X27893Y7357D02*X29393D01*
X27893Y5157D02*X29893D01*
X27893Y9157D02*Y5157D01*
Y9157D02*X29893D01*
M02*
