M48
INCH
T87C0.020
T86C0.071
T85C0.028
T84C0.038
%
T87
X004035Y018012
X005118Y019783
X005118Y016240
X007087Y021850
X007283Y019882
X007283Y018898
X008268Y018307
X008465Y012795
X008524Y016929
X009291Y015236
X009547Y016929
X010039Y015236
X010433Y013780
X010591Y016929
X010630Y009646
X011083Y015256
X012008Y018307
X012008Y014173
X012205Y021850
X012598Y016732
X026000Y010750
T85
X014000Y013000
X014000Y010000
X015000Y013000
X015000Y010000
X016000Y013000
X016000Y010000
X017000Y013000
X017000Y010000
X018000Y013000
X018000Y010000
X019000Y013000
X019000Y010000
X020000Y013000
X020000Y010000
X021000Y013000
X021000Y010000
X022000Y013000
X022000Y010000
X023000Y013000
X023000Y010000
X024000Y013000
X024000Y010000
X025000Y013000
X025000Y010000
X026000Y013000
X026000Y010000
X027000Y013000
X027000Y010000
T84
X010900Y023000
X011900Y023000
X012900Y023000
X013900Y023000
X014500Y015500
X014500Y014500
X014500Y004000
X014900Y023000
X015000Y008500
X015000Y007500
X015500Y015500
X015500Y014500
X015500Y004000
X015900Y023000
X016000Y008500
X016000Y007500
X016500Y004000
X016900Y023000
X017000Y015500
X017000Y014500
X017000Y008500
X017000Y007500
X017500Y004000
X017900Y023000
X018000Y015500
X018000Y014500
X018000Y008500
X018000Y007500
X018500Y004000
X018900Y023000
X019000Y015500
X019000Y014500
X019500Y004000
X019900Y023000
X020000Y015500
X020000Y014500
X020000Y008500
X020000Y007500
X020500Y004000
X021000Y015500
X021000Y014500
X021000Y008500
X021000Y007500
X021500Y023000
X021500Y004000
X022000Y015500
X022000Y014500
X022000Y008500
X022000Y007500
X022500Y023000
X023000Y015500
X023000Y014500
X023000Y008500
X023000Y007500
X023500Y023000
X023500Y004000
X024000Y015500
X024000Y014500
X024000Y008500
X024000Y007500
X024500Y023000
X024500Y004000
X025000Y008500
X025000Y007500
X025500Y023000
X025500Y004000
X026000Y008500
X026000Y007500
X026500Y023000
X026500Y004000
X027000Y008500
X027000Y007500
X027500Y023000
X027500Y004000
X028000Y011000
X028000Y010000
X028500Y023000
X028500Y004000
X029000Y013000
X029000Y012000
X029000Y011000
X029000Y010000
T86
X005821Y006250
X006923Y004360
X008104Y006250
M30
