G04 start of page 9 for group -4079 idx -4079 *
G04 Title: AJ.001.00.01.01, topsilk *
G04 Creator: pcb 4.1.2 *
G04 CreationDate: Fri Sep 14 18:28:19 2018 UTC *
G04 For: bert *
G04 Format: Gerber/RS-274X *
G04 PCB-Dimensions (mil): 3200.00 2500.00 *
G04 PCB-Coordinate-Origin: lower left *
%MOIN*%
%FSLAX25Y25*%
%LNGTO*%
%ADD68C,0.0039*%
%ADD67C,0.0000*%
%ADD66C,0.0000*%
%ADD65C,0.0079*%
%ADD64C,0.0000*%
%ADD63C,0.0004*%
%ADD62C,0.0047*%
%ADD61C,0.0100*%
%ADD60C,0.0050*%
%ADD59C,0.0040*%
%ADD58C,0.0060*%
%ADD57C,0.0001*%
G54D57*G36*
X272914Y216280D02*X275491D01*
X275574Y216248D01*
X275621Y216172D01*
X275670Y215933D01*
X275714Y215711D01*
X276105Y213579D01*
X276152Y213491D01*
X276235Y213433D01*
X276338Y213389D01*
X277128Y213118D01*
X277878Y212760D01*
X277884D01*
X277971Y212722D01*
X278068Y212708D01*
X278166Y212739D01*
X279939Y213958D01*
X280130Y214083D01*
X280331Y214219D01*
X280417Y214244D01*
X280499Y214208D01*
X280830Y213878D01*
X281334Y213378D01*
X281492Y213215D01*
X281991Y212717D01*
X282153Y212560D01*
X282321Y212386D01*
X282360Y212301D01*
X282338Y212212D01*
X282202Y212011D01*
X282073Y211821D01*
X280884Y210085D01*
X280852Y209993D01*
X280867Y209896D01*
X280912Y209797D01*
X281595Y208191D01*
X281632Y208100D01*
X281695Y208022D01*
X281785Y207975D01*
X283824Y207594D01*
X284048Y207551D01*
X284291Y207508D01*
X284366Y207461D01*
X284395Y207378D01*
Y204801D01*
X284366Y204712D01*
X284291Y204665D01*
X284048Y204622D01*
X283824Y204579D01*
X281845Y204210D01*
X281757Y204162D01*
X281703Y204079D01*
X281675Y204019D01*
Y204008D01*
X280960Y202235D01*
X280955Y202223D01*
X280938Y202180D01*
X280921Y202079D01*
X280949Y201985D01*
X282078Y200353D01*
X282202Y200162D01*
X282343Y199961D01*
X282362Y199875D01*
X282321Y199793D01*
X282153Y199614D01*
X281991Y199457D01*
X280673Y198139D01*
X280499Y197971D01*
X280417Y197930D01*
X280331Y197948D01*
X280130Y198090D01*
X279939Y198214D01*
X278345Y199311D01*
X278246Y199340D01*
X278149Y199321D01*
X277818Y199137D01*
X277624Y199028D01*
X277277Y198850D01*
X277192Y198844D01*
X277130Y198904D01*
X276984Y199261D01*
X276896Y199468D01*
X275513Y202826D01*
X275425Y203032D01*
X275328Y203265D01*
X275324Y203360D01*
X275377Y203433D01*
X275600Y203564D01*
X275741Y203672D01*
X276277Y204118D01*
X276692Y204682D01*
X276959Y205341D01*
X277053Y206071D01*
X276995Y206646D01*
X276830Y207180D01*
X276567Y207665D01*
X276218Y208087D01*
X275798Y208436D01*
X275314Y208700D01*
X274780Y208865D01*
X274206Y208923D01*
X273631Y208865D01*
X273096Y208700D01*
X272613Y208436D01*
X272191Y208087D01*
X271843Y207665D01*
X271581Y207180D01*
X271416Y206646D01*
X271357Y206071D01*
X271450Y205341D01*
X271717Y204682D01*
X272131Y204118D01*
X272670Y203672D01*
X272806Y203564D01*
X273028Y203433D01*
X273082Y203360D01*
X273077Y203265D01*
X272980Y203032D01*
X272892Y202826D01*
X271509Y199468D01*
X271423Y199261D01*
X271275Y198904D01*
X271214Y198844D01*
X271130Y198850D01*
X270788Y199028D01*
X270587Y199137D01*
X270256Y199321D01*
X270157Y199340D01*
X270060Y199311D01*
X268466Y198214D01*
X268281Y198090D01*
X268075Y197948D01*
X267988Y197930D01*
X267906Y197971D01*
X267732Y198139D01*
X267575Y198301D01*
X267077Y198800D01*
X266914Y198958D01*
X266414Y199457D01*
X266252Y199614D01*
X266084Y199793D01*
X266045Y199875D01*
X266067Y199961D01*
X266203Y200162D01*
X266334Y200353D01*
X267456Y201985D01*
X267484Y202079D01*
X267467Y202180D01*
X267445Y202240D01*
X266735Y204014D01*
X266702Y204079D01*
X266648Y204162D01*
X266562Y204210D01*
X264581Y204579D01*
X264359Y204622D01*
X264120Y204665D01*
X264041Y204715D01*
X264012Y204801D01*
Y207378D01*
X264041Y207461D01*
X264120Y207508D01*
X264359Y207557D01*
X264581Y207594D01*
X266621Y207975D01*
X266710Y208022D01*
X266773Y208105D01*
X266810Y208191D01*
X267499Y209797D01*
X267538Y209896D01*
X267555Y209993D01*
X267527Y210085D01*
X266334Y211826D01*
X266203Y212011D01*
X266067Y212212D01*
X266045Y212301D01*
X266084Y212386D01*
X266252Y212560D01*
X266414Y212717D01*
X267906Y214208D01*
X267988Y214244D01*
X268075Y214225D01*
X268281Y214089D01*
X268466Y213958D01*
X270239Y212739D01*
X270337Y212710D01*
X270435Y212728D01*
X270521Y212760D01*
X270532Y212765D01*
X271278Y213119D01*
X272068Y213394D01*
X272171Y213433D01*
X272255Y213491D01*
X272300Y213579D01*
X272698Y215711D01*
X272735Y215933D01*
X272784Y216172D01*
X272831Y216248D01*
X272914Y216280D01*
G37*
G54D58*X305000Y179000D02*Y50000D01*
X295000Y40000D01*
Y30000D01*
X35000D01*
X264961Y171260D02*X277961D01*
X289000Y240000D02*X295000Y234000D01*
Y189000D01*
X305000Y179000D01*
X35000Y30000D02*Y240000D01*
X289000D01*
G54D59*X128000Y210000D02*X131000D01*
X128000D02*X127000Y210700D01*
Y211800D02*Y210700D01*
Y211800D02*X128000Y212500D01*
X131000D01*
X129000D02*Y210000D01*
X127000Y215700D02*Y213700D01*
Y215700D02*X127500Y216200D01*
X128500D01*
X129000Y215700D02*X128500Y216200D01*
X129000Y215700D02*Y214200D01*
X127000D02*X131000D01*
X129000Y215000D02*X131000Y216200D01*
X128800Y218900D02*Y217400D01*
X131000Y219400D02*Y217400D01*
X127000D02*X131000D01*
X127000Y219400D02*Y217400D01*
Y220600D02*X131000D01*
X127000Y222600D02*Y220600D01*
X128800Y222100D02*Y220600D01*
X45000Y238016D02*X47000D01*
X47500Y237516D01*
Y236516D01*
X47000Y236016D02*X47500Y236516D01*
X45500Y236016D02*X47000D01*
X45500Y238016D02*Y234016D01*
X46300Y236016D02*X47500Y234016D01*
X50700Y238016D02*X51200Y237516D01*
X49200Y238016D02*X50700D01*
X48700Y237516D02*X49200Y238016D01*
X48700Y237516D02*Y236516D01*
X49200Y236016D01*
X50700D01*
X51200Y235516D01*
Y234516D01*
X50700Y234016D02*X51200Y234516D01*
X49200Y234016D02*X50700D01*
X48700Y234516D02*X49200Y234016D01*
X52400Y238016D02*X54400D01*
X53400D02*Y234016D01*
X114087Y220606D02*X116087D01*
X115087D02*Y216606D01*
X117287D02*X119787Y220606D01*
X117287D02*X119787Y216606D01*
X137000Y214500D02*X137500Y215000D01*
X137000Y214500D02*Y213000D01*
X137500Y212500D02*X137000Y213000D01*
X137500Y212500D02*X140500D01*
X141000Y213000D01*
Y214500D02*Y213000D01*
Y214500D02*X140500Y215000D01*
X139500D02*X140500D01*
X139000Y214500D02*X139500Y215000D01*
X139000Y214500D02*Y213500D01*
X137000Y216200D02*X141000D01*
X137000D02*X141000Y218700D01*
X137000D02*X141000D01*
X137000Y220400D02*X141000D01*
X137000Y221700D02*X137700Y222400D01*
X140300D01*
X141000Y221700D02*X140300Y222400D01*
X141000Y221700D02*Y219900D01*
X137000Y221700D02*Y219900D01*
X183000Y49500D02*Y47500D01*
X185000D01*
X184500Y48000D01*
Y49000D02*Y48000D01*
Y49000D02*X185000Y49500D01*
X186500D01*
X187000Y49000D02*X186500Y49500D01*
X187000Y49000D02*Y48000D01*
X186500Y47500D02*X187000Y48000D01*
X183000Y50700D02*X187000Y51700D01*
X183000Y52700D01*
X173500Y47500D02*X173000Y48000D01*
Y49000D02*Y48000D01*
Y49000D02*X173500Y49500D01*
X177000Y49000D02*X176500Y49500D01*
X177000Y49000D02*Y48000D01*
X176500Y47500D02*X177000Y48000D01*
X174800Y49000D02*Y48000D01*
X173500Y49500D02*X174300D01*
X175300D02*X176500D01*
X175300D02*X174800Y49000D01*
X174300Y49500D02*X174800Y49000D01*
X173000Y50700D02*X177000Y51700D01*
X173000Y52700D01*
X173500Y53900D02*X173000Y54400D01*
Y55400D02*Y54400D01*
Y55400D02*X173500Y55900D01*
X177000Y55400D02*X176500Y55900D01*
X177000Y55400D02*Y54400D01*
X176500Y53900D02*X177000Y54400D01*
X174800Y55400D02*Y54400D01*
X173500Y55900D02*X174300D01*
X175300D02*X176500D01*
X175300D02*X174800Y55400D01*
X174300Y55900D02*X174800Y55400D01*
X163000Y49500D02*Y47500D01*
Y49500D02*X163500Y50000D01*
X164500D01*
X165000Y49500D02*X164500Y50000D01*
X165000Y49500D02*Y48000D01*
X163000D02*X167000D01*
X165000Y48800D02*X167000Y50000D01*
X164800Y52700D02*Y51200D01*
X167000Y53200D02*Y51200D01*
X163000D02*X167000D01*
X163000Y53200D02*Y51200D01*
Y56400D02*X163500Y56900D01*
X163000Y56400D02*Y54900D01*
X163500Y54400D02*X163000Y54900D01*
X163500Y54400D02*X164500D01*
X165000Y54900D01*
Y56400D02*Y54900D01*
Y56400D02*X165500Y56900D01*
X166500D01*
X167000Y56400D02*X166500Y56900D01*
X167000Y56400D02*Y54900D01*
X166500Y54400D02*X167000Y54900D01*
X164800Y59600D02*Y58100D01*
X167000Y60100D02*Y58100D01*
X163000D02*X167000D01*
X163000Y60100D02*Y58100D01*
Y63300D02*Y61300D01*
Y62300D02*X167000D01*
X153000Y48500D02*Y47500D01*
Y48000D02*X157000D01*
Y48500D02*Y47500D01*
X153500Y49700D02*X156500D01*
X153500D02*X153000Y50200D01*
Y51200D02*Y50200D01*
Y51200D02*X153500Y51700D01*
X156500D01*
X157000Y51200D02*X156500Y51700D01*
X157000Y51200D02*Y50200D01*
X156500Y49700D02*X157000Y50200D01*
X153000Y54900D02*Y52900D01*
Y54900D02*X153500Y55400D01*
X154500D01*
X155000Y54900D02*X154500Y55400D01*
X155000Y54900D02*Y53400D01*
X153000D02*X157000D01*
X155000Y54200D02*X157000Y55400D01*
X154800Y58100D02*Y56600D01*
X157000Y58600D02*Y56600D01*
X153000D02*X157000D01*
X153000Y58600D02*Y56600D01*
Y59800D02*X157000D01*
X153000Y61800D02*Y59800D01*
X154800Y61300D02*Y59800D01*
X213000Y47500D02*X217000Y48500D01*
X213000Y49500D01*
Y51700D02*Y50700D01*
Y51200D02*X217000D01*
Y51700D02*Y50700D01*
X213000Y52900D02*X217000D01*
X213000D02*X217000Y55400D01*
X213000D02*X217000D01*
X193000Y49500D02*X193500Y50000D01*
X193000Y49500D02*Y48000D01*
X193500Y47500D02*X193000Y48000D01*
X193500Y47500D02*X196500D01*
X197000Y48000D01*
Y49500D02*Y48000D01*
Y49500D02*X196500Y50000D01*
X195500D02*X196500D01*
X195000Y49500D02*X195500Y50000D01*
X195000Y49500D02*Y48500D01*
X193000Y51200D02*X197000D01*
X193000D02*X197000Y53700D01*
X193000D02*X197000D01*
X193000Y55400D02*X197000D01*
X193000Y56700D02*X193700Y57400D01*
X196300D01*
X197000Y56700D02*X196300Y57400D01*
X197000Y56700D02*Y54900D01*
X193000Y56700D02*Y54900D01*
X203000Y49500D02*X203500Y50000D01*
X203000Y49500D02*Y48000D01*
X203500Y47500D02*X203000Y48000D01*
X203500Y47500D02*X206500D01*
X207000Y48000D01*
Y49500D02*Y48000D01*
Y49500D02*X206500Y50000D01*
X205500D02*X206500D01*
X205000Y49500D02*X205500Y50000D01*
X205000Y49500D02*Y48500D01*
X203000Y51200D02*X207000D01*
X203000D02*X207000Y53700D01*
X203000D02*X207000D01*
X203000Y55400D02*X207000D01*
X203000Y56700D02*X203700Y57400D01*
X206300D01*
X207000Y56700D02*X206300Y57400D01*
X207000Y56700D02*Y54900D01*
X203000Y56700D02*Y54900D01*
X234000Y47500D02*X237000D01*
X234000D02*X233000Y48200D01*
Y49300D02*Y48200D01*
Y49300D02*X234000Y50000D01*
X237000D01*
X235000D02*Y47500D01*
X236500Y51200D02*X237000Y51700D01*
X233500Y51200D02*X236500D01*
X233500D02*X233000Y51700D01*
Y52700D02*Y51700D01*
Y52700D02*X233500Y53200D01*
X236500D01*
X237000Y52700D02*X236500Y53200D01*
X237000Y52700D02*Y51700D01*
X236000Y51200D02*X234000Y53200D01*
X244000Y47500D02*X247000D01*
X244000D02*X243000Y48200D01*
Y49300D02*Y48200D01*
Y49300D02*X244000Y50000D01*
X247000D01*
X245000D02*Y47500D01*
X243800Y51200D02*X243000Y52000D01*
X247000D01*
Y52700D02*Y51200D01*
X254000Y47500D02*X257000D01*
X254000D02*X253000Y48200D01*
Y49300D02*Y48200D01*
Y49300D02*X254000Y50000D01*
X257000D01*
X255000D02*Y47500D01*
X253500Y51200D02*X253000Y51700D01*
Y53200D02*Y51700D01*
Y53200D02*X253500Y53700D01*
X254500D01*
X257000Y51200D02*X254500Y53700D01*
X257000D02*Y51200D01*
X258000Y59500D02*Y57500D01*
Y58500D02*X262000D01*
Y60700D02*X258000Y63200D01*
Y60700D02*X262000Y63200D01*
X258000Y64900D02*X262000D01*
X258000Y66200D02*X258700Y66900D01*
X261300D01*
X262000Y66200D02*X261300Y66900D01*
X262000Y66200D02*Y64400D01*
X258000Y66200D02*Y64400D01*
X268000Y59000D02*Y57000D01*
Y59000D02*X268500Y59500D01*
X269500D01*
X270000Y59000D02*X269500Y59500D01*
X270000Y59000D02*Y57500D01*
X268000D02*X272000D01*
X270000Y58300D02*X272000Y59500D01*
Y60700D02*X268000Y63200D01*
Y60700D02*X272000Y63200D01*
X268000Y64900D02*X272000D01*
X268000Y66200D02*X268700Y66900D01*
X271300D01*
X272000Y66200D02*X271300Y66900D01*
X272000Y66200D02*Y64400D01*
X268000Y66200D02*Y64400D01*
X264000Y47500D02*X267000D01*
X264000D02*X263000Y48200D01*
Y49300D02*Y48200D01*
Y49300D02*X264000Y50000D01*
X267000D01*
X265000D02*Y47500D01*
X263500Y51200D02*X263000Y51700D01*
Y52700D02*Y51700D01*
Y52700D02*X263500Y53200D01*
X267000Y52700D02*X266500Y53200D01*
X267000Y52700D02*Y51700D01*
X266500Y51200D02*X267000Y51700D01*
X264800Y52700D02*Y51700D01*
X263500Y53200D02*X264300D01*
X265300D02*X266500D01*
X265300D02*X264800Y52700D01*
X264300Y53200D02*X264800Y52700D01*
X274000Y47500D02*X277000D01*
X274000D02*X273000Y48200D01*
Y49300D02*Y48200D01*
Y49300D02*X274000Y50000D01*
X277000D01*
X275000D02*Y47500D01*
X275500Y51200D02*X273000Y53200D01*
X275500Y53700D02*Y51200D01*
X273000Y53200D02*X277000D01*
X284000Y47500D02*X287000D01*
X284000D02*X283000Y48200D01*
Y49300D02*Y48200D01*
Y49300D02*X284000Y50000D01*
X287000D01*
X285000D02*Y47500D01*
X283000Y53200D02*Y51200D01*
X285000D01*
X284500Y51700D01*
Y52700D02*Y51700D01*
Y52700D02*X285000Y53200D01*
X286500D01*
X287000Y52700D02*X286500Y53200D01*
X287000Y52700D02*Y51700D01*
X286500Y51200D02*X287000Y51700D01*
X286500Y220500D02*X287000Y221000D01*
X283500Y220500D02*X286500D01*
X283500D02*X283000Y221000D01*
Y222000D02*Y221000D01*
Y222000D02*X283500Y222500D01*
X286500D01*
X287000Y222000D02*X286500Y222500D01*
X287000Y222000D02*Y221000D01*
X286000Y220500D02*X284000Y222500D01*
X257500Y194000D02*Y193000D01*
Y194000D02*X258000Y194500D01*
X259000D01*
X259500Y194000D01*
Y193000D01*
X259000Y192500D02*X259500Y193000D01*
X258000Y192500D02*X259000D01*
X257500Y193000D02*X258000Y192500D01*
X261200Y194000D02*Y191000D01*
X260700Y194500D02*X261200Y194000D01*
X261700Y194500D01*
X262700D01*
X263200Y194000D01*
Y193000D01*
X262700Y192500D02*X263200Y193000D01*
X261700Y192500D02*X262700D01*
X261200Y193000D02*X261700Y192500D01*
X264900D02*X266400D01*
X264400Y193000D02*X264900Y192500D01*
X264400Y194000D02*Y193000D01*
Y194000D02*X264900Y194500D01*
X265900D01*
X266400Y194000D01*
X264400Y193500D02*X266400D01*
Y194000D02*Y193500D01*
X268100Y194000D02*Y192500D01*
Y194000D02*X268600Y194500D01*
X269100D01*
X269600Y194000D01*
Y192500D01*
X267600Y194500D02*X268100Y194000D01*
X273100Y192500D02*X274600D01*
X275100Y193000D01*
X274600Y193500D02*X275100Y193000D01*
X273100Y193500D02*X274600D01*
X272600Y194000D02*X273100Y193500D01*
X272600Y194000D02*X273100Y194500D01*
X274600D01*
X275100Y194000D01*
X272600Y193000D02*X273100Y192500D01*
X276300Y194000D02*Y193000D01*
Y194000D02*X276800Y194500D01*
X277800D01*
X278300Y194000D01*
Y193000D01*
X277800Y192500D02*X278300Y193000D01*
X276800Y192500D02*X277800D01*
X276300Y193000D02*X276800Y192500D01*
X279500Y194500D02*Y193000D01*
X280000Y192500D01*
X281000D01*
X281500Y193000D01*
Y194500D02*Y193000D01*
X283200Y194000D02*Y192500D01*
Y194000D02*X283700Y194500D01*
X284700D01*
X282700D02*X283200Y194000D01*
X286400Y194500D02*X287900D01*
X285900Y194000D02*X286400Y194500D01*
X285900Y194000D02*Y193000D01*
X286400Y192500D01*
X287900D01*
X289600D02*X291100D01*
X289100Y193000D02*X289600Y192500D01*
X289100Y194000D02*Y193000D01*
Y194000D02*X289600Y194500D01*
X290600D01*
X291100Y194000D01*
X289100Y193500D02*X291100D01*
Y194000D02*Y193500D01*
X260500Y190000D02*Y186000D01*
Y187500D02*X261000Y188000D01*
X262000D01*
X262500Y187500D01*
Y186000D01*
X265200Y188000D02*X265700Y187500D01*
X264200Y188000D02*X265200D01*
X263700Y187500D02*X264200Y188000D01*
X263700Y187500D02*Y186500D01*
X264200Y186000D01*
X265700Y188000D02*Y186500D01*
X266200Y186000D01*
X264200D02*X265200D01*
X265700Y186500D01*
X267900Y187500D02*Y186000D01*
Y187500D02*X268400Y188000D01*
X269400D01*
X267400D02*X267900Y187500D01*
X272600Y190000D02*Y186000D01*
X272100D02*X272600Y186500D01*
X271100Y186000D02*X272100D01*
X270600Y186500D02*X271100Y186000D01*
X270600Y187500D02*Y186500D01*
Y187500D02*X271100Y188000D01*
X272100D01*
X272600Y187500D01*
X273800Y188000D02*Y186500D01*
X274300Y186000D01*
X274800D01*
X275300Y186500D01*
Y188000D02*Y186500D01*
X275800Y186000D01*
X276300D01*
X276800Y186500D01*
Y188000D02*Y186500D01*
X279500Y188000D02*X280000Y187500D01*
X278500Y188000D02*X279500D01*
X278000Y187500D02*X278500Y188000D01*
X278000Y187500D02*Y186500D01*
X278500Y186000D01*
X280000Y188000D02*Y186500D01*
X280500Y186000D01*
X278500D02*X279500D01*
X280000Y186500D01*
X282200Y187500D02*Y186000D01*
Y187500D02*X282700Y188000D01*
X283700D01*
X281700D02*X282200Y187500D01*
X285400Y186000D02*X286900D01*
X284900Y186500D02*X285400Y186000D01*
X284900Y187500D02*Y186500D01*
Y187500D02*X285400Y188000D01*
X286400D01*
X286900Y187500D01*
X284900Y187000D02*X286900D01*
Y187500D02*Y187000D01*
X274300Y221000D02*X273500Y221800D01*
X277500D01*
Y222500D02*Y221000D01*
X263500Y220000D02*X263000Y220500D01*
Y222000D02*Y220500D01*
Y222000D02*X263500Y222500D01*
X264500D01*
X267000Y220000D02*X264500Y222500D01*
X267000D02*Y220000D01*
X253500Y220500D02*X253000Y221000D01*
Y222000D02*Y221000D01*
Y222000D02*X253500Y222500D01*
X257000Y222000D02*X256500Y222500D01*
X257000Y222000D02*Y221000D01*
X256500Y220500D02*X257000Y221000D01*
X254800Y222000D02*Y221000D01*
X253500Y222500D02*X254300D01*
X255300D02*X256500D01*
X255300D02*X254800Y222000D01*
X254300Y222500D02*X254800Y222000D01*
X245500Y220000D02*X243000Y222000D01*
X245500Y222500D02*Y220000D01*
X243000Y222000D02*X247000D01*
X233000Y222500D02*Y220500D01*
X235000D01*
X234500Y221000D01*
Y222000D02*Y221000D01*
Y222000D02*X235000Y222500D01*
X236500D01*
X237000Y222000D02*X236500Y222500D01*
X237000Y222000D02*Y221000D01*
X236500Y220500D02*X237000Y221000D01*
X223000Y222000D02*X223500Y222500D01*
X223000Y222000D02*Y221000D01*
X223500Y220500D02*X223000Y221000D01*
X223500Y220500D02*X226500D01*
X227000Y221000D01*
X224800Y222000D02*X225300Y222500D01*
X224800Y222000D02*Y220500D01*
X227000Y222000D02*Y221000D01*
Y222000D02*X226500Y222500D01*
X225300D02*X226500D01*
X217000Y220500D02*X213000Y222500D01*
Y220000D01*
X205500Y212500D02*X206000Y212000D01*
X204000Y212500D02*X205500D01*
X203500Y212000D02*X204000Y212500D01*
X203500Y212000D02*Y211000D01*
X204000Y210500D01*
X205500D01*
X206000Y210000D01*
Y209000D01*
X205500Y208500D02*X206000Y209000D01*
X204000Y208500D02*X205500D01*
X203500Y209000D02*X204000Y208500D01*
X207200D02*X209700Y212500D01*
X207200D02*X209700Y208500D01*
X210900Y212000D02*X211400Y212500D01*
X212900D01*
X213400Y212000D01*
Y211000D01*
X210900Y208500D02*X213400Y211000D01*
X210900Y208500D02*X213400D01*
X214600Y209000D02*X215100Y208500D01*
X214600Y209800D02*Y209000D01*
Y209800D02*X215300Y210500D01*
X215900D01*
X216600Y209800D01*
Y209000D01*
X216100Y208500D02*X216600Y209000D01*
X215100Y208500D02*X216100D01*
X214600Y211200D02*X215300Y210500D01*
X214600Y212000D02*Y211200D01*
Y212000D02*X215100Y212500D01*
X216100D01*
X216600Y212000D01*
Y211200D01*
X215900Y210500D02*X216600Y211200D01*
X217800Y211500D02*Y208500D01*
Y211500D02*X218500Y212500D01*
X219600D01*
X220300Y211500D01*
Y208500D01*
X217800Y210500D02*X220300D01*
X222200Y208500D02*X223500D01*
X221500Y209200D02*X222200Y208500D01*
X221500Y211800D02*Y209200D01*
Y211800D02*X222200Y212500D01*
X223500D01*
X224700Y209000D02*X227700Y212000D01*
X229400Y212500D02*Y208500D01*
X230700Y212500D02*X231400Y211800D01*
Y209200D01*
X230700Y208500D02*X231400Y209200D01*
X228900Y208500D02*X230700D01*
X228900Y212500D02*X230700D01*
X233100D02*Y208500D01*
X232600Y212500D02*X234600D01*
X235100Y212000D01*
Y211000D01*
X234600Y210500D02*X235100Y211000D01*
X233100Y210500D02*X234600D01*
X238100Y208500D02*X240100D01*
X240600Y209000D01*
Y210200D02*Y209000D01*
X240100Y210700D02*X240600Y210200D01*
X238600Y210700D02*X240100D01*
X238600Y212500D02*Y208500D01*
X238100Y212500D02*X240100D01*
X240600Y212000D01*
Y211200D01*
X240100Y210700D02*X240600Y211200D01*
X241800Y210000D02*Y209000D01*
Y210000D02*X242300Y210500D01*
X243300D01*
X243800Y210000D01*
Y209000D01*
X243300Y208500D02*X243800Y209000D01*
X242300Y208500D02*X243300D01*
X241800Y209000D02*X242300Y208500D01*
X246500Y210500D02*X247000Y210000D01*
X245500Y210500D02*X246500D01*
X245000Y210000D02*X245500Y210500D01*
X245000Y210000D02*Y209000D01*
X245500Y208500D01*
X247000Y210500D02*Y209000D01*
X247500Y208500D01*
X245500D02*X246500D01*
X247000Y209000D01*
X249200Y210000D02*Y208500D01*
Y210000D02*X249700Y210500D01*
X250700D01*
X248700D02*X249200Y210000D01*
X253900Y212500D02*Y208500D01*
X253400D02*X253900Y209000D01*
X252400Y208500D02*X253400D01*
X251900Y209000D02*X252400Y208500D01*
X251900Y210000D02*Y209000D01*
Y210000D02*X252400Y210500D01*
X253400D01*
X253900Y210000D01*
X204200Y201000D02*X205500D01*
X203500Y201700D02*X204200Y201000D01*
X203500Y204300D02*Y201700D01*
Y204300D02*X204200Y205000D01*
X205500D01*
X206700Y202500D02*Y201500D01*
Y202500D02*X207200Y203000D01*
X208200D01*
X208700Y202500D01*
Y201500D01*
X208200Y201000D02*X208700Y201500D01*
X207200Y201000D02*X208200D01*
X206700Y201500D02*X207200Y201000D01*
X210400Y202500D02*Y199500D01*
X209900Y203000D02*X210400Y202500D01*
X210900Y203000D01*
X211900D01*
X212400Y202500D01*
Y201500D01*
X211900Y201000D02*X212400Y201500D01*
X210900Y201000D02*X211900D01*
X210400Y201500D02*X210900Y201000D01*
X213600Y203000D02*Y201500D01*
X214100Y201000D01*
X215600Y203000D02*Y200000D01*
X215100Y199500D02*X215600Y200000D01*
X214100Y199500D02*X215100D01*
X213600Y200000D02*X214100Y199500D01*
Y201000D02*X215100D01*
X215600Y201500D01*
X217300Y202500D02*Y201000D01*
Y202500D02*X217800Y203000D01*
X218800D01*
X216800D02*X217300Y202500D01*
G54D60*X220000Y204000D02*Y203900D01*
G54D59*Y202500D02*Y201000D01*
X222500Y203000D02*X223000Y202500D01*
X221500Y203000D02*X222500D01*
X221000Y202500D02*X221500Y203000D01*
X221000Y202500D02*Y201500D01*
X221500Y201000D01*
X222500D01*
X223000Y201500D01*
X221000Y200000D02*X221500Y199500D01*
X222500D01*
X223000Y200000D01*
Y203000D02*Y200000D01*
X224200Y205000D02*Y201000D01*
Y202500D02*X224700Y203000D01*
X225700D01*
X226200Y202500D01*
Y201000D01*
X227900Y205000D02*Y201500D01*
X228400Y201000D01*
X227400Y203500D02*X228400D01*
X231200Y201500D02*X231700Y201000D01*
X231200Y204500D02*X231700Y205000D01*
X231200Y204500D02*Y201500D01*
X233600Y201000D02*X234900D01*
X232900Y201700D02*X233600Y201000D01*
X232900Y204300D02*Y201700D01*
Y204300D02*X233600Y205000D01*
X234900D01*
X236100D02*X236600Y204500D01*
Y201500D01*
X236100Y201000D02*X236600Y201500D01*
X239600Y204500D02*X240100Y205000D01*
X241600D01*
X242100Y204500D01*
Y203500D01*
X239600Y201000D02*X242100Y203500D01*
X239600Y201000D02*X242100D01*
X243300Y201500D02*X243800Y201000D01*
X243300Y204500D02*Y201500D01*
Y204500D02*X243800Y205000D01*
X244800D01*
X245300Y204500D01*
Y201500D01*
X244800Y201000D02*X245300Y201500D01*
X243800Y201000D02*X244800D01*
X243300Y202000D02*X245300Y204000D01*
X246500Y204200D02*X247300Y205000D01*
Y201000D01*
X246500D02*X248000D01*
X249200Y201500D02*X249700Y201000D01*
X249200Y202300D02*Y201500D01*
Y202300D02*X249900Y203000D01*
X250500D01*
X251200Y202300D01*
Y201500D01*
X250700Y201000D02*X251200Y201500D01*
X249700Y201000D02*X250700D01*
X249200Y203700D02*X249900Y203000D01*
X249200Y204500D02*Y203700D01*
Y204500D02*X249700Y205000D01*
X250700D01*
X251200Y204500D01*
Y203700D01*
X250500Y203000D02*X251200Y203700D01*
X203500Y193500D02*X205500D01*
X206000Y194000D01*
Y195200D02*Y194000D01*
X205500Y195700D02*X206000Y195200D01*
X204000Y195700D02*X205500D01*
X204000Y197500D02*Y193500D01*
X203500Y197500D02*X205500D01*
X206000Y197000D01*
Y196200D01*
X205500Y195700D02*X206000Y196200D01*
X207700Y193500D02*X209200D01*
X207200Y194000D02*X207700Y193500D01*
X207200Y195000D02*Y194000D01*
Y195000D02*X207700Y195500D01*
X208700D01*
X209200Y195000D01*
X207200Y194500D02*X209200D01*
Y195000D02*Y194500D01*
X210900Y195000D02*Y193500D01*
Y195000D02*X211400Y195500D01*
X212400D01*
X210400D02*X210900Y195000D01*
X214100Y197500D02*Y194000D01*
X214600Y193500D01*
X213600Y196000D02*X214600D01*
X217400Y197500D02*X219400D01*
X218400D02*Y193500D01*
G54D60*X220600Y196500D02*Y196400D01*
G54D59*Y195000D02*Y193500D01*
X222100Y195000D02*Y193500D01*
Y195000D02*X222600Y195500D01*
X223100D01*
X223600Y195000D01*
Y193500D01*
Y195000D02*X224100Y195500D01*
X224600D01*
X225100Y195000D01*
Y193500D01*
X221600Y195500D02*X222100Y195000D01*
X226800D02*Y193500D01*
Y195000D02*X227300Y195500D01*
X227800D01*
X228300Y195000D01*
Y193500D01*
Y195000D02*X228800Y195500D01*
X229300D01*
X229800Y195000D01*
Y193500D01*
X226300Y195500D02*X226800Y195000D01*
X231500Y193500D02*X233000D01*
X231000Y194000D02*X231500Y193500D01*
X231000Y195000D02*Y194000D01*
Y195000D02*X231500Y195500D01*
X232500D01*
X233000Y195000D01*
X231000Y194500D02*X233000D01*
Y195000D02*Y194500D01*
X234700Y195000D02*Y193500D01*
Y195000D02*X235200Y195500D01*
X236200D01*
X234200D02*X234700Y195000D01*
X237900D02*Y193500D01*
Y195000D02*X238400Y195500D01*
X238900D01*
X239400Y195000D01*
Y193500D01*
Y195000D02*X239900Y195500D01*
X240400D01*
X240900Y195000D01*
Y193500D01*
X237400Y195500D02*X237900Y195000D01*
X243600Y195500D02*X244100Y195000D01*
X242600Y195500D02*X243600D01*
X242100Y195000D02*X242600Y195500D01*
X242100Y195000D02*Y194000D01*
X242600Y193500D01*
X244100Y195500D02*Y194000D01*
X244600Y193500D01*
X242600D02*X243600D01*
X244100Y194000D01*
X246300Y195000D02*Y193500D01*
Y195000D02*X246800Y195500D01*
X247300D01*
X247800Y195000D01*
Y193500D01*
X245800Y195500D02*X246300Y195000D01*
X264961Y169760D02*Y165760D01*
Y169760D02*X266461Y167760D01*
X267961Y169760D01*
Y165760D01*
X269861D02*X271161D01*
X269161Y166460D02*X269861Y165760D01*
X269161Y169060D02*Y166460D01*
Y169060D02*X269861Y169760D01*
X271161D01*
X272361D02*Y165760D01*
X274361D01*
X275561Y169760D02*X277561D01*
X278061Y169260D01*
Y168260D01*
X277561Y167760D02*X278061Y168260D01*
X276061Y167760D02*X277561D01*
X276061Y169760D02*Y165760D01*
X276861Y167760D02*X278061Y165760D01*
X288000Y132000D02*X289000D01*
X288500D02*Y128000D01*
X288000D02*X289000D01*
X290900D02*X292200D01*
X290200Y128700D02*X290900Y128000D01*
X290200Y131300D02*Y128700D01*
Y131300D02*X290900Y132000D01*
X292200D01*
X295400D02*X295900Y131500D01*
X293900Y132000D02*X295400D01*
X293400Y131500D02*X293900Y132000D01*
X293400Y131500D02*Y130500D01*
X293900Y130000D01*
X295400D01*
X295900Y129500D01*
Y128500D01*
X295400Y128000D02*X295900Y128500D01*
X293900Y128000D02*X295400D01*
X293400Y128500D02*X293900Y128000D01*
X297600Y132000D02*Y128000D01*
X297100Y132000D02*X299100D01*
X299600Y131500D01*
Y130500D01*
X299100Y130000D02*X299600Y130500D01*
X297600Y130000D02*X299100D01*
X200500Y220500D02*X201000Y221000D01*
X199700Y220500D02*X200500D01*
X199700D02*X199000Y221200D01*
Y221800D02*Y221200D01*
Y221800D02*X199700Y222500D01*
X200500D01*
X201000Y222000D02*X200500Y222500D01*
X201000Y222000D02*Y221000D01*
X198300Y220500D02*X199000Y221200D01*
X197500Y220500D02*X198300D01*
X197500D02*X197000Y221000D01*
Y222000D02*Y221000D01*
Y222000D02*X197500Y222500D01*
X198300D01*
X199000Y221800D02*X198300Y222500D01*
X191000Y221000D02*X189000Y222500D01*
X187500D02*X189000D01*
X187000Y222000D02*X187500Y222500D01*
X187000Y222000D02*Y221000D01*
X187500Y220500D02*X187000Y221000D01*
X187500Y220500D02*X188500D01*
X189000Y221000D01*
Y222500D02*Y221000D01*
X177300Y218000D02*X176500Y218800D01*
X180500D01*
Y219500D02*Y218000D01*
X180000Y220700D02*X180500Y221200D01*
X177000Y220700D02*X180000D01*
X177000D02*X176500Y221200D01*
Y222200D02*Y221200D01*
Y222200D02*X177000Y222700D01*
X180000D01*
X180500Y222200D02*X180000Y222700D01*
X180500Y222200D02*Y221200D01*
X179500Y220700D02*X177500Y222700D01*
X167800Y218500D02*X167000Y219300D01*
X171000D01*
Y220000D02*Y218500D01*
X167800Y221200D02*X167000Y222000D01*
X171000D01*
Y222700D02*Y221200D01*
X203500Y189000D02*Y186000D01*
Y189000D02*X204200Y190000D01*
X205300D01*
X206000Y189000D01*
Y186000D01*
X203500Y188000D02*X206000D01*
X207900Y190000D02*X208700D01*
Y186500D01*
X208200Y186000D02*X208700Y186500D01*
X207700Y186000D02*X208200D01*
X207200Y186500D02*X207700Y186000D01*
X207200Y187000D02*Y186500D01*
X209900Y186000D02*X210400D01*
X211600Y186500D02*X212100Y186000D01*
X211600Y189500D02*Y186500D01*
Y189500D02*X212100Y190000D01*
X213100D01*
X213600Y189500D01*
Y186500D01*
X213100Y186000D02*X213600Y186500D01*
X212100Y186000D02*X213100D01*
X211600Y187000D02*X213600Y189000D01*
X214800Y186500D02*X215300Y186000D01*
X214800Y189500D02*Y186500D01*
Y189500D02*X215300Y190000D01*
X216300D01*
X216800Y189500D01*
Y186500D01*
X216300Y186000D02*X216800Y186500D01*
X215300Y186000D02*X216300D01*
X214800Y187000D02*X216800Y189000D01*
X218000Y189200D02*X218800Y190000D01*
Y186000D01*
X218000D02*X219500D01*
X220700D02*X221200D01*
X222400Y186500D02*X222900Y186000D01*
X222400Y189500D02*Y186500D01*
Y189500D02*X222900Y190000D01*
X223900D01*
X224400Y189500D01*
Y186500D01*
X223900Y186000D02*X224400Y186500D01*
X222900Y186000D02*X223900D01*
X222400Y187000D02*X224400Y189000D01*
X225600Y186500D02*X226100Y186000D01*
X225600Y189500D02*Y186500D01*
Y189500D02*X226100Y190000D01*
X227100D01*
X227600Y189500D01*
Y186500D01*
X227100Y186000D02*X227600Y186500D01*
X226100Y186000D02*X227100D01*
X225600Y187000D02*X227600Y189000D01*
X228800Y186000D02*X229300D01*
X230500Y186500D02*X231000Y186000D01*
X230500Y189500D02*Y186500D01*
Y189500D02*X231000Y190000D01*
X232000D01*
X232500Y189500D01*
Y186500D01*
X232000Y186000D02*X232500Y186500D01*
X231000Y186000D02*X232000D01*
X230500Y187000D02*X232500Y189000D01*
X233700Y189200D02*X234500Y190000D01*
Y186000D01*
X233700D02*X235200D01*
X236400D02*X236900D01*
X238100Y186500D02*X238600Y186000D01*
X238100Y189500D02*Y186500D01*
Y189500D02*X238600Y190000D01*
X239600D01*
X240100Y189500D01*
Y186500D01*
X239600Y186000D02*X240100Y186500D01*
X238600Y186000D02*X239600D01*
X238100Y187000D02*X240100Y189000D01*
X241300Y189200D02*X242100Y190000D01*
Y186000D01*
X241300D02*X242800D01*
X116087Y190776D02*X116587Y190276D01*
X114587Y190776D02*X116087D01*
X114087Y190276D02*X114587Y190776D01*
X114087Y190276D02*Y189276D01*
X114587Y188776D01*
X116087D01*
X116587Y188276D01*
Y187276D01*
X116087Y186776D02*X116587Y187276D01*
X114587Y186776D02*X116087D01*
X114087Y187276D02*X114587Y186776D01*
X117787Y190776D02*Y186776D01*
X119787D01*
X120987Y188976D02*X122487D01*
X120987Y186776D02*X122987D01*
X120987Y190776D02*Y186776D01*
Y190776D02*X122987D01*
X124187Y188976D02*X125687D01*
X124187Y186776D02*X126187D01*
X124187Y190776D02*Y186776D01*
Y190776D02*X126187D01*
X127887D02*Y186776D01*
X127387Y190776D02*X129387D01*
X129887Y190276D01*
Y189276D01*
X129387Y188776D02*X129887Y189276D01*
X127887Y188776D02*X129387D01*
X114587Y200897D02*Y196897D01*
X114087Y200897D02*X116087D01*
X116587Y200397D01*
Y199397D01*
X116087Y198897D02*X116587Y199397D01*
X114587Y198897D02*X116087D01*
X117787Y200897D02*Y198897D01*
X118287Y196897D01*
X119287Y198897D01*
X120287Y196897D01*
X120787Y198897D01*
Y200897D02*Y198897D01*
X121987Y200897D02*X123987D01*
X124487Y200397D01*
Y199397D01*
X123987Y198897D02*X124487Y199397D01*
X122487Y198897D02*X123987D01*
X122487Y200897D02*Y196897D01*
X123287Y198897D02*X124487Y196897D01*
X125687Y199097D02*X127187D01*
X125687Y196897D02*X127687D01*
X125687Y200897D02*Y196897D01*
Y200897D02*X127687D01*
X128887D02*Y196897D01*
Y200897D02*X131387Y196897D01*
Y200897D02*Y196897D01*
X157800Y217000D02*X157000Y217800D01*
X161000D01*
Y218500D02*Y217000D01*
X157500Y219700D02*X157000Y220200D01*
Y221700D02*Y220200D01*
Y221700D02*X157500Y222200D01*
X158500D01*
X161000Y219700D02*X158500Y222200D01*
X161000D02*Y219700D01*
X147300Y217500D02*X146500Y218300D01*
X150500D01*
Y219000D02*Y217500D01*
X147000Y220200D02*X146500Y220700D01*
Y221700D02*Y220700D01*
Y221700D02*X147000Y222200D01*
X150500Y221700D02*X150000Y222200D01*
X150500Y221700D02*Y220700D01*
X150000Y220200D02*X150500Y220700D01*
X148300Y221700D02*Y220700D01*
X147000Y222200D02*X147800D01*
X148800D02*X150000D01*
X148800D02*X148300Y221700D01*
X147800Y222200D02*X148300Y221700D01*
X114087Y210925D02*X116087D01*
X116587Y210425D01*
Y209425D01*
X116087Y208925D02*X116587Y209425D01*
X114587Y208925D02*X116087D01*
X114587Y210925D02*Y206925D01*
X115387Y208925D02*X116587Y206925D01*
X117787D02*X120287Y210925D01*
X117787D02*X120287Y206925D01*
G54D61*X140000Y45000D02*Y35000D01*
X150000Y45000D02*Y35000D01*
X140000D02*X220000D01*
X140000Y45000D02*X220000D01*
Y35000D01*
X230000Y45000D02*Y35000D01*
X240000Y45000D02*Y35000D01*
X230000D02*X290000D01*
X230000Y45000D02*X290000D01*
Y35000D01*
G54D62*X91102Y61732D02*Y56378D01*
X97874Y61732D02*Y56378D01*
G54D63*X94488Y60630D02*Y57480D01*
X92913Y59055D02*X96063D01*
G54D64*X90709Y68110D02*Y50000D01*
X98268Y68110D02*Y50000D01*
X90709D02*X98268D01*
X90709Y68110D02*X98268D01*
G54D63*X94488Y58071D02*G75*G03X94488Y58071I0J984D01*G01*
G54D61*X195000Y90000D02*Y80000D01*
X205000Y90000D02*Y80000D01*
X195000D02*X275000D01*
X195000Y90000D02*X275000D01*
Y80000D01*
X195000D02*Y70000D01*
X205000Y80000D02*Y70000D01*
X195000D02*X275000D01*
X195000Y80000D02*X275000D01*
Y70000D01*
G54D62*X286693Y88031D02*X292047D01*
X286693Y81260D02*X292047D01*
G54D63*X290945Y84646D02*X287795D01*
X289370Y83071D02*Y86220D01*
G54D64*X280315Y88425D02*X298425D01*
X280315Y80866D02*X298425D01*
X280315D02*Y88425D01*
X298425Y80866D02*Y88425D01*
G54D63*X288386Y84646D02*G75*G03X288386Y84646I984J0D01*G01*
G54D62*X286693Y76220D02*X292047D01*
X286693Y69449D02*X292047D01*
G54D63*X290945Y72835D02*X287795D01*
X289370Y71260D02*Y74409D01*
G54D64*X280315Y76614D02*X298425D01*
X280315Y69055D02*X298425D01*
X280315D02*Y76614D01*
X298425Y69055D02*Y76614D01*
G54D63*X288386Y72835D02*G75*G03X288386Y72835I984J0D01*G01*
G54D61*X210000Y235000D02*Y225000D01*
X220000Y235000D02*Y225000D01*
X210000D02*X290000D01*
X210000Y235000D02*X290000D01*
Y225000D01*
X104000Y235000D02*Y225000D01*
X114000Y235000D02*Y225000D01*
X104000D02*X204000D01*
X104000Y235000D02*X204000D01*
Y225000D01*
G54D65*X180315Y182480D02*X225197D01*
X180315D02*Y177165D01*
Y163976D02*Y169291D01*
X225197Y182480D02*Y177165D01*
Y163976D02*Y169291D01*
X180315Y163976D02*X225197D01*
X188622Y180728D02*X216890D01*
X188622Y165728D02*X216890D01*
G54D66*X174409Y163386D02*X231102D01*
X174409Y183071D02*X231102D01*
X174409D02*Y163386D01*
X231102Y183071D02*Y163386D01*
G54D65*X188622Y180709D02*G75*G03X182495Y177519I0J-7480D01*G01*
X182495Y168938D02*G75*G03X188622Y165748I6128J4291D01*G01*
X216890D02*G75*G03X223017Y168938I0J7480D01*G01*
X223017Y177519D02*G75*G03X216890Y180709I-6128J-4291D01*G01*
G54D62*X239449Y182520D02*X244803D01*
X239449Y175748D02*X244803D01*
G54D63*X240551Y179134D02*X243701D01*
X242126Y180709D02*Y177559D01*
G54D64*X233071Y182913D02*X251181D01*
X233071Y175354D02*X251181D01*
X233071Y182913D02*Y175354D01*
X251181Y182913D02*Y175354D01*
G54D63*X241142Y179134D02*G75*G03X241142Y179134I984J0D01*G01*
G54D62*X160709Y175748D02*X166063D01*
X160709Y182520D02*X166063D01*
G54D63*X161811Y179134D02*X164961D01*
X163386Y180709D02*Y177559D01*
G54D64*X154331Y175354D02*X172441D01*
X154331Y182913D02*X172441D01*
Y175354D01*
X154331Y182913D02*Y175354D01*
G54D63*X164370Y179134D02*G75*G03X164370Y179134I-984J0D01*G01*
G54D61*X145000Y90000D02*Y80000D01*
X155000Y90000D02*Y80000D01*
X145000D02*X185000D01*
X145000Y90000D02*X185000D01*
Y80000D01*
X109921Y92204D02*X116205D01*
X109921Y109520D02*Y92204D01*
Y109520D02*X112921Y112520D01*
X116205D01*
X123953Y92204D02*X130237D01*
Y109520D02*Y92204D01*
Y109520D02*X127237Y112520D01*
X123953D02*X127237D01*
G54D67*X108879Y90562D02*X131279D01*
X108879Y114162D02*X131279D01*
X108879D02*Y90562D01*
X131279Y114162D02*Y90562D01*
G54D61*X145000Y80000D02*Y70000D01*
X155000Y80000D02*Y70000D01*
X145000D02*X185000D01*
X145000Y80000D02*X185000D01*
Y70000D01*
G54D68*X27500Y80217D02*X84587D01*
X27500Y44783D02*X61358D01*
X77106D02*X84587D01*
X27500Y80217D02*Y44783D01*
X84587Y80217D02*Y70374D01*
Y44783D02*Y54626D01*
G54D64*X27500Y81004D02*X87736D01*
X27500Y37303D02*X87736D01*
X27500Y81004D02*Y37303D01*
X87736Y81004D02*Y37303D01*
G54D62*X116772Y80709D02*Y55118D01*
X103701Y80709D02*Y55118D01*
Y80709D02*X116772D01*
G54D63*X110236Y66535D02*Y63386D01*
X108661Y64961D02*X111811D01*
G54D64*X102756Y81496D02*X117717D01*
X102756Y48425D02*X117717D01*
Y81496D02*Y48425D01*
X102756Y81496D02*Y48425D01*
G54D63*X110236Y65945D02*G75*G03X110236Y65945I0J-984D01*G01*
G54D62*X136457Y80709D02*Y55118D01*
X123386Y80709D02*Y55118D01*
Y80709D02*X136457D01*
G54D63*X129921Y66535D02*Y63386D01*
X128346Y64961D02*X131496D01*
G54D64*X122441Y81496D02*X137402D01*
X122441Y48425D02*X137402D01*
Y81496D02*Y48425D01*
X122441Y81496D02*Y48425D01*
G54D63*X129921Y65945D02*G75*G03X129921Y65945I0J-984D01*G01*
G54D61*X140000Y160000D02*X150000D01*
X140000Y150000D02*X150000D01*
X140000Y160000D02*Y140000D01*
X150000Y160000D02*Y140000D01*
X140000D02*X150000D01*
G54D62*X44783Y136929D02*X68740D01*
X44783Y150472D02*X68740D01*
Y136929D01*
G54D63*X53543Y143701D02*X56693D01*
X55118Y145276D02*Y142126D01*
G54D66*X69370Y151102D02*Y136299D01*
X40866Y151102D02*Y136299D01*
X69370D01*
X40866Y151102D02*X69370D01*
G54D63*X56102Y143701D02*G75*G03X56102Y143701I-984J0D01*G01*
G54D62*X123307Y151024D02*X128661D01*
X123307Y144252D02*X128661D01*
G54D63*X127559Y147638D02*X124409D01*
X125984Y146063D02*Y149213D01*
G54D64*X116929Y151417D02*X135039D01*
X116929Y143858D02*X135039D01*
X116929D02*Y151417D01*
X135039Y143858D02*Y151417D01*
G54D63*X125000Y147638D02*G75*G03X125000Y147638I984J0D01*G01*
G54D62*X85512Y114016D02*Y90059D01*
X71969Y114016D02*Y90059D01*
Y114016D02*X85512D01*
G54D63*X78740Y101969D02*Y98819D01*
X77165Y100394D02*X80315D01*
G54D66*X71339Y114646D02*X86142D01*
X71339Y86142D02*X86142D01*
Y114646D02*Y86142D01*
X71339Y114646D02*Y86142D01*
G54D63*X78740Y101378D02*G75*G03X78740Y101378I0J-984D01*G01*
G54D62*X99843Y105039D02*Y99685D01*
X93071Y105039D02*Y99685D01*
G54D63*X96457Y103937D02*Y100787D01*
X94882Y102362D02*X98031D01*
G54D64*X100236Y111417D02*Y93307D01*
X92677Y111417D02*Y93307D01*
Y111417D02*X100236D01*
X92677Y93307D02*X100236D01*
G54D63*X96457Y103346D02*G75*G03X96457Y103346I0J-984D01*G01*
G54D62*X42165Y94488D02*X42559D01*
X68071D02*X67677D01*
X42165Y118504D02*X43307D01*
X68071D02*X66929D01*
X42165D02*Y94488D01*
X68071Y118504D02*Y94488D01*
G54D63*X56693Y104331D02*X53543D01*
X55118Y102756D02*Y105906D01*
G54D64*X41535Y129016D02*X68701D01*
X41535Y87520D02*X68701D01*
X41535Y129016D02*Y87520D01*
X68701Y129016D02*Y87520D01*
G54D63*X54134Y104331D02*G75*G03X54134Y104331I984J0D01*G01*
G54D62*X81969Y121614D02*X87323D01*
X81969Y128386D02*X87323D01*
G54D63*X83071Y125000D02*X86220D01*
X84646Y126575D02*Y123425D01*
G54D64*X75591Y121220D02*X93701D01*
X75591Y128780D02*X93701D01*
Y121220D01*
X75591Y128780D02*Y121220D01*
G54D63*X85630Y125000D02*G75*G03X85630Y125000I-984J0D01*G01*
G54D62*X156772Y110787D02*X162126D01*
X156772Y117559D02*X162126D01*
G54D63*X157874Y114173D02*X161024D01*
X159449Y115748D02*Y112598D01*
G54D64*X150394Y110394D02*X168504D01*
X150394Y117953D02*X168504D01*
Y110394D01*
X150394Y117953D02*Y110394D01*
G54D63*X160433Y114173D02*G75*G03X160433Y114173I-984J0D01*G01*
G54D61*X275000Y135000D02*X285000D01*
X275000Y125000D02*X285000D01*
X275000Y135000D02*Y95000D01*
X285000Y135000D02*Y95000D01*
X275000D02*X285000D01*
X295000D01*
X285000Y105000D02*X295000D01*
Y115000D02*Y95000D01*
X285000Y115000D02*Y95000D01*
Y115000D02*X295000D01*
X109843Y132087D02*Y123819D01*
X98819D02*X109843D01*
X98819Y132087D02*Y123819D01*
X98820Y132087D02*X109844D01*
G54D62*X81969Y131457D02*X87323D01*
X81969Y138228D02*X87323D01*
G54D63*X83071Y134843D02*X86220D01*
X84646Y136417D02*Y133268D01*
G54D64*X75591Y131063D02*X93701D01*
X75591Y138622D02*X93701D01*
Y131063D01*
X75591Y138622D02*Y131063D01*
G54D63*X85630Y134843D02*G75*G03X85630Y134843I-984J0D01*G01*
G54D61*X75300Y158726D02*Y143826D01*
Y178726D02*Y163726D01*
Y178726D02*X113100D01*
Y143826D01*
X75300D02*X113100D01*
X75300Y158726D02*G75*G03X75300Y163726I0J2500D01*G01*
X103561Y200819D02*Y196819D01*
Y198819D02*X105101D01*
G54D67*X96331Y202669D02*X112331D01*
X96331Y194969D02*X112331D01*
X96331Y202669D02*Y194969D01*
X112331Y202669D02*Y194969D01*
G54D61*X103561Y210661D02*Y206661D01*
Y208661D02*X105101D01*
G54D67*X96331Y212511D02*X112331D01*
X96331Y204811D02*X112331D01*
X96331Y212511D02*Y204811D01*
X112331Y212511D02*Y204811D01*
G54D61*X103561Y220504D02*Y216504D01*
Y218504D02*X105101D01*
G54D67*X96331Y222354D02*X112331D01*
X96331Y214654D02*X112331D01*
X96331Y222354D02*Y214654D01*
X112331Y222354D02*Y214654D01*
G54D61*X103561Y190976D02*Y186976D01*
Y188976D02*X105101D01*
G54D67*X96331Y192826D02*X112331D01*
X96331Y185126D02*X112331D01*
X96331Y192826D02*Y185126D01*
X112331Y192826D02*Y185126D01*
G54D62*X123307Y180551D02*X128661D01*
X123307Y173780D02*X128661D01*
G54D63*X127559Y177165D02*X124409D01*
X125984Y175591D02*Y178740D01*
G54D64*X116929Y180945D02*X135039D01*
X116929Y173386D02*X135039D01*
X116929D02*Y180945D01*
X135039Y173386D02*Y180945D01*
G54D63*X125000Y177165D02*G75*G03X125000Y177165I984J0D01*G01*
G54D68*X35177Y202047D02*X67854D01*
X35177Y157953D02*X67854D01*
X35177D02*Y202047D01*
X67854Y157953D02*Y202047D01*
G54D65*X44370Y231811D02*X65630D01*
X44370Y208189D02*X65630D01*
X43189Y224724D02*Y215276D01*
X66811Y224724D02*Y215276D01*
G54D63*X56575Y220000D02*X53425D01*
X55000Y218425D02*Y221575D01*
G54D66*X36102Y232598D02*X73898D01*
X36102Y207402D02*X73898D01*
X36102Y232598D02*Y207402D01*
X73898Y232598D02*Y207402D01*
G54D65*X48110Y220000D02*G75*G03X48110Y220000I6890J0D01*G01*
G54D63*X54016D02*G75*G03X54016Y220000I984J0D01*G01*
G54D62*X81969Y202205D02*X87323D01*
X81969Y195433D02*X87323D01*
G54D63*X86220Y198819D02*X83071D01*
X84646Y197244D02*Y200394D01*
G54D64*X75591Y202598D02*X93701D01*
X75591Y195039D02*X93701D01*
X75591D02*Y202598D01*
X93701Y195039D02*Y202598D01*
G54D63*X83661Y198819D02*G75*G03X83661Y198819I984J0D01*G01*
G54D62*X81969Y192362D02*X87323D01*
X81969Y185591D02*X87323D01*
G54D63*X86220Y188976D02*X83071D01*
X84646Y187402D02*Y190551D01*
G54D64*X75591Y192756D02*X93701D01*
X75591Y185197D02*X93701D01*
X75591D02*Y192756D01*
X93701Y185197D02*Y192756D01*
G54D63*X83661Y188976D02*G75*G03X83661Y188976I984J0D01*G01*
G54D62*X81969Y221890D02*X87323D01*
X81969Y215118D02*X87323D01*
G54D63*X86220Y218504D02*X83071D01*
X84646Y216929D02*Y220079D01*
G54D64*X75591Y222283D02*X93701D01*
X75591Y214724D02*X93701D01*
X75591D02*Y222283D01*
X93701Y214724D02*Y222283D01*
G54D63*X83661Y218504D02*G75*G03X83661Y218504I984J0D01*G01*
G54D62*X81969Y212047D02*X87323D01*
X81969Y205276D02*X87323D01*
G54D63*X86220Y208661D02*X83071D01*
X84646Y207087D02*Y210236D01*
G54D64*X75591Y212441D02*X93701D01*
X75591Y204882D02*X93701D01*
X75591D02*Y212441D01*
X93701Y204882D02*Y212441D01*
G54D63*X83661Y208661D02*G75*G03X83661Y208661I984J0D01*G01*
G54D61*X245000Y150000D02*Y140000D01*
X235000Y150000D02*Y140000D01*
X165000Y150000D02*X245000D01*
X165000Y140000D02*X245000D01*
X165000Y150000D02*Y140000D01*
X245000Y160000D02*Y150000D01*
X235000Y160000D02*Y150000D01*
X165000Y160000D02*X245000D01*
X165000Y150000D02*X245000D01*
X165000Y160000D02*Y150000D01*
G54D65*X261870Y161811D02*X283130D01*
X261870Y138189D02*X283130D01*
X260689Y154724D02*Y145276D01*
X284311Y154724D02*Y145276D01*
G54D63*X274075Y150000D02*X270925D01*
X272500Y148425D02*Y151575D01*
G54D66*X253602Y162598D02*X291398D01*
X253602Y137402D02*X291398D01*
X253602Y162598D02*Y137402D01*
X291398Y162598D02*Y137402D01*
G54D65*X265610Y150000D02*G75*G03X265610Y150000I6890J0D01*G01*
G54D63*X271516D02*G75*G03X271516Y150000I984J0D01*G01*
G54D62*X239449Y163937D02*X244803D01*
X239449Y170709D02*X244803D01*
G54D63*X240551Y167323D02*X243701D01*
X242126Y168898D02*Y165748D01*
G54D64*X233071Y163543D02*X251181D01*
X233071Y171102D02*X251181D01*
Y163543D01*
X233071Y171102D02*Y163543D01*
G54D63*X243110Y167323D02*G75*G03X243110Y167323I-984J0D01*G01*
G54D62*X123307Y170709D02*X128661D01*
X123307Y163937D02*X128661D01*
G54D63*X127559Y167323D02*X124409D01*
X125984Y165748D02*Y168898D01*
G54D64*X116929Y171102D02*X135039D01*
X116929Y163543D02*X135039D01*
X116929D02*Y171102D01*
X135039Y163543D02*Y171102D01*
G54D63*X125000Y167323D02*G75*G03X125000Y167323I984J0D01*G01*
G54D62*X101654Y141181D02*X107008D01*
X101654Y134409D02*X107008D01*
G54D63*X105906Y137795D02*X102756D01*
X104331Y136220D02*Y139370D01*
G54D64*X95276Y141575D02*X113386D01*
X95276Y134016D02*X113386D01*
X95276D02*Y141575D01*
X113386Y134016D02*Y141575D01*
G54D63*X103346Y137795D02*G75*G03X103346Y137795I984J0D01*G01*
G54D61*X150000Y160000D02*X160000D01*
X150000Y150000D02*X160000D01*
X150000Y160000D02*Y140000D01*
X160000Y160000D02*Y140000D01*
X150000D02*X160000D01*
G54D62*X160709Y170709D02*X166063D01*
X160709Y163937D02*X166063D01*
G54D63*X164961Y167323D02*X161811D01*
X163386Y165748D02*Y168898D01*
G54D64*X154331Y171102D02*X172441D01*
X154331Y163543D02*X172441D01*
X154331D02*Y171102D01*
X172441Y163543D02*Y171102D01*
G54D63*X162402Y167323D02*G75*G03X162402Y167323I984J0D01*G01*
G54D62*X123307Y154094D02*X128661D01*
X123307Y160866D02*X128661D01*
G54D63*X124409Y157480D02*X127559D01*
X125984Y159055D02*Y155906D01*
G54D64*X116929Y153701D02*X135039D01*
X116929Y161260D02*X135039D01*
Y153701D01*
X116929Y161260D02*Y153701D01*
G54D63*X126969Y157480D02*G75*G03X126969Y157480I-984J0D01*G01*
G54D61*X135000Y95000D02*X275000D01*
Y135000D02*Y95000D01*
X135000Y135000D02*X275000D01*
X135000Y110000D02*Y95000D01*
Y135000D02*Y120000D01*
Y110000D02*G75*G03X135000Y120000I0J5000D01*G01*
G54D62*X245354Y117559D02*X250709D01*
X245354Y110787D02*X250709D01*
G54D63*X249606Y114173D02*X246457D01*
X248031Y112598D02*Y115748D01*
G54D64*X238976Y117953D02*X257087D01*
X238976Y110394D02*X257087D01*
X238976D02*Y117953D01*
X257087Y110394D02*Y117953D01*
G54D63*X247047Y114173D02*G75*G03X247047Y114173I984J0D01*G01*
G54D62*X176457Y117559D02*X181811D01*
X176457Y110787D02*X181811D01*
G54D63*X180709Y114173D02*X177559D01*
X179134Y112598D02*Y115748D01*
G54D64*X170079Y117953D02*X188189D01*
X170079Y110394D02*X188189D01*
X170079D02*Y117953D01*
X188189Y110394D02*Y117953D01*
G54D63*X178150Y114173D02*G75*G03X178150Y114173I984J0D01*G01*
G54D59*X90500Y26500D02*Y22500D01*
X91800Y26500D02*X92500Y25800D01*
Y23200D01*
X91800Y22500D02*X92500Y23200D01*
X90000Y22500D02*X91800D01*
X90000Y26500D02*X91800D01*
X140700Y27500D02*X141500D01*
Y24000D01*
X141000Y23500D02*X141500Y24000D01*
X140500Y23500D02*X141000D01*
X140000Y24000D02*X140500Y23500D01*
X140000Y24500D02*Y24000D01*
X143200Y27500D02*Y23500D01*
X142700Y27500D02*X144700D01*
X145200Y27000D01*
Y26000D01*
X144700Y25500D02*X145200Y26000D01*
X143200Y25500D02*X144700D01*
X146400Y27000D02*X146900Y27500D01*
X147900D01*
X148400Y27000D01*
X147900Y23500D02*X148400Y24000D01*
X146900Y23500D02*X147900D01*
X146400Y24000D02*X146900Y23500D01*
Y25700D02*X147900D01*
X148400Y27000D02*Y26200D01*
Y25200D02*Y24000D01*
Y25200D02*X147900Y25700D01*
X148400Y26200D02*X147900Y25700D01*
X155700Y20000D02*X156500D01*
Y16500D01*
X156000Y16000D02*X156500Y16500D01*
X155500Y16000D02*X156000D01*
X155000Y16500D02*X155500Y16000D01*
X155000Y17000D02*Y16500D01*
X157700D02*X158200Y16000D01*
X157700Y17300D02*Y16500D01*
Y17300D02*X158400Y18000D01*
X159000D01*
X159700Y17300D01*
Y16500D01*
X159200Y16000D02*X159700Y16500D01*
X158200Y16000D02*X159200D01*
X157700Y18700D02*X158400Y18000D01*
X157700Y19500D02*Y18700D01*
Y19500D02*X158200Y20000D01*
X159200D01*
X159700Y19500D01*
Y18700D01*
X159000Y18000D02*X159700Y18700D01*
X121079Y21862D02*Y20562D01*
X120379Y19862D02*X121079Y20562D01*
X117779Y19862D02*X120379D01*
X117779D02*X117079Y20562D01*
Y21862D02*Y20562D01*
X117579Y23062D02*X117079Y23562D01*
Y25062D02*Y23562D01*
Y25062D02*X117579Y25562D01*
X118579D01*
X121079Y23062D02*X118579Y25562D01*
X121079D02*Y23062D01*
X308200Y52500D02*X309500D01*
X307500Y53200D02*X308200Y52500D01*
X307500Y55800D02*Y53200D01*
Y55800D02*X308200Y56500D01*
X309500D01*
X230700Y27500D02*X231500D01*
Y24000D01*
X231000Y23500D02*X231500Y24000D01*
X230500Y23500D02*X231000D01*
X230000Y24000D02*X230500Y23500D01*
X230000Y24500D02*Y24000D01*
X233200Y27500D02*Y23500D01*
X232700Y27500D02*X234700D01*
X235200Y27000D01*
Y26000D01*
X234700Y25500D02*X235200Y26000D01*
X233200Y25500D02*X234700D01*
X236400Y25000D02*X238400Y27500D01*
X236400Y25000D02*X238900D01*
X238400Y27500D02*Y23500D01*
X193000Y27500D02*Y23500D01*
X192500Y27500D02*X194500D01*
X195000Y27000D01*
Y26000D01*
X194500Y25500D02*X195000Y26000D01*
X193000Y25500D02*X194500D01*
X196200Y27000D02*Y24000D01*
Y27000D02*X196700Y27500D01*
X197700D01*
X198200Y27000D01*
Y24000D01*
X197700Y23500D02*X198200Y24000D01*
X196700Y23500D02*X197700D01*
X196200Y24000D02*X196700Y23500D01*
X199400Y27500D02*X201400D01*
X201900Y27000D01*
Y26000D01*
X201400Y25500D02*X201900Y26000D01*
X199900Y25500D02*X201400D01*
X199900Y27500D02*Y23500D01*
X200700Y25500D02*X201900Y23500D01*
X203100Y27500D02*X205100D01*
X204100D02*Y23500D01*
X206300D02*X208300D01*
X210200D02*X211500D01*
X209500Y24200D02*X210200Y23500D01*
X209500Y26800D02*Y24200D01*
Y26800D02*X210200Y27500D01*
X211500D01*
X250500D02*Y23500D01*
X250000Y27500D02*X252000D01*
X252500Y27000D01*
Y26000D01*
X252000Y25500D02*X252500Y26000D01*
X250500Y25500D02*X252000D01*
X253700Y27000D02*Y24000D01*
Y27000D02*X254200Y27500D01*
X255200D01*
X255700Y27000D01*
Y24000D01*
X255200Y23500D02*X255700Y24000D01*
X254200Y23500D02*X255200D01*
X253700Y24000D02*X254200Y23500D01*
X256900Y27500D02*X258900D01*
X259400Y27000D01*
Y26000D01*
X258900Y25500D02*X259400Y26000D01*
X257400Y25500D02*X258900D01*
X257400Y27500D02*Y23500D01*
X258200Y25500D02*X259400Y23500D01*
X260600Y27500D02*X262600D01*
X261600D02*Y23500D01*
X263800D02*X265800D01*
X267000D02*X269000D01*
X269500Y24000D01*
Y25200D02*Y24000D01*
X269000Y25700D02*X269500Y25200D01*
X267500Y25700D02*X269000D01*
X267500Y27500D02*Y23500D01*
X267000Y27500D02*X269000D01*
X269500Y27000D01*
Y26200D01*
X269000Y25700D02*X269500Y26200D01*
X155500Y27500D02*Y23500D01*
X155000Y27500D02*X157000D01*
X157500Y27000D01*
Y26000D01*
X157000Y25500D02*X157500Y26000D01*
X155500Y25500D02*X157000D01*
X158700Y27000D02*Y24000D01*
Y27000D02*X159200Y27500D01*
X160200D01*
X160700Y27000D01*
Y24000D01*
X160200Y23500D02*X160700Y24000D01*
X159200Y23500D02*X160200D01*
X158700Y24000D02*X159200Y23500D01*
X161900Y27500D02*X163900D01*
X164400Y27000D01*
Y26000D01*
X163900Y25500D02*X164400Y26000D01*
X162400Y25500D02*X163900D01*
X162400Y27500D02*Y23500D01*
X163200Y25500D02*X164400Y23500D01*
X165600Y27500D02*X167600D01*
X166600D02*Y23500D01*
X168800D02*X170800D01*
X172000Y26500D02*Y23500D01*
Y26500D02*X172700Y27500D01*
X173800D01*
X174500Y26500D01*
Y23500D01*
X172000Y25500D02*X174500D01*
X193200Y20000D02*X194000D01*
Y16500D01*
X193500Y16000D02*X194000Y16500D01*
X193000Y16000D02*X193500D01*
X192500Y16500D02*X193000Y16000D01*
X192500Y17000D02*Y16500D01*
X195700Y16000D02*X197700Y20000D01*
X195200D02*X197700D01*
X250700D02*X251500D01*
Y16500D01*
X251000Y16000D02*X251500Y16500D01*
X250500Y16000D02*X251000D01*
X250000Y16500D02*X250500Y16000D01*
X250000Y17000D02*Y16500D01*
X254200Y20000D02*X254700Y19500D01*
X253200Y20000D02*X254200D01*
X252700Y19500D02*X253200Y20000D01*
X252700Y19500D02*Y16500D01*
X253200Y16000D01*
X254200Y18200D02*X254700Y17700D01*
X252700Y18200D02*X254200D01*
X253200Y16000D02*X254200D01*
X254700Y16500D01*
Y17700D02*Y16500D01*
X113516Y10799D02*Y9499D01*
X112816Y8799D02*X113516Y9499D01*
X110216Y8799D02*X112816D01*
X110216D02*X109516Y9499D01*
Y10799D02*Y9499D01*
X110316Y11999D02*X109516Y12799D01*
X113516D01*
Y13499D02*Y11999D01*
X113016Y14699D02*X113516Y15199D01*
X110016Y14699D02*X113016D01*
X110016D02*X109516Y15199D01*
Y16199D02*Y15199D01*
Y16199D02*X110016Y16699D01*
X113016D01*
X113516Y16199D02*X113016Y16699D01*
X113516Y16199D02*Y15199D01*
X112516Y14699D02*X110516Y16699D01*
X132016Y11091D02*Y9791D01*
X131316Y9091D02*X132016Y9791D01*
X128716Y9091D02*X131316D01*
X128716D02*X128016Y9791D01*
Y11091D02*Y9791D01*
X128816Y12291D02*X128016Y13091D01*
X132016D01*
Y13791D02*Y12291D01*
X128516Y14991D02*X128016Y15491D01*
Y16991D02*Y15491D01*
Y16991D02*X128516Y17491D01*
X129516D01*
X132016Y14991D02*X129516Y17491D01*
X132016D02*Y14991D01*
X94878Y15189D02*Y13889D01*
X94178Y13189D02*X94878Y13889D01*
X91578Y13189D02*X94178D01*
X91578D02*X90878Y13889D01*
Y15189D02*Y13889D01*
X91678Y16389D02*X90878Y17189D01*
X94878D01*
Y17889D02*Y16389D01*
X91678Y19089D02*X90878Y19889D01*
X94878D01*
Y20589D02*Y19089D01*
X95000Y245500D02*Y242500D01*
Y245500D02*X95700Y246500D01*
X96800D01*
X97500Y245500D01*
Y242500D01*
X95000Y244500D02*X97500D01*
X213200Y247500D02*X214000D01*
Y244000D01*
X213500Y243500D02*X214000Y244000D01*
X213000Y243500D02*X213500D01*
X212500Y244000D02*X213000Y243500D01*
X212500Y244500D02*Y244000D01*
X215700Y247500D02*Y243500D01*
X215200Y247500D02*X217200D01*
X217700Y247000D01*
Y246000D01*
X217200Y245500D02*X217700Y246000D01*
X215700Y245500D02*X217200D01*
X218900Y247000D02*X219400Y247500D01*
X220900D01*
X221400Y247000D01*
Y246000D01*
X218900Y243500D02*X221400Y246000D01*
X218900Y243500D02*X221400D01*
X109700Y247000D02*X110500D01*
Y243500D01*
X110000Y243000D02*X110500Y243500D01*
X109500Y243000D02*X110000D01*
X109000Y243500D02*X109500Y243000D01*
X109000Y244000D02*Y243500D01*
X112200Y247000D02*Y243000D01*
X111700Y247000D02*X113700D01*
X114200Y246500D01*
Y245500D01*
X113700Y245000D02*X114200Y245500D01*
X112200Y245000D02*X113700D01*
X115400Y246200D02*X116200Y247000D01*
Y243000D01*
X115400D02*X116900D01*
X175197Y185945D02*X177697Y189945D01*
X175197D02*X177697Y185945D01*
X178897Y189145D02*X179697Y189945D01*
Y185945D01*
X178897D02*X180397D01*
X136594Y92878D02*Y89378D01*
X137094Y88878D01*
X138094D01*
X138594Y89378D01*
Y92878D02*Y89378D01*
X139794Y92378D02*X140294Y92878D01*
X141794D01*
X142294Y92378D01*
Y91378D01*
X139794Y88878D02*X142294Y91378D01*
X139794Y88878D02*X142294D01*
X147964Y164823D02*X149264D01*
X147264Y165523D02*X147964Y164823D01*
X147264Y168123D02*Y165523D01*
Y168123D02*X147964Y168823D01*
X149264D01*
X150464Y165323D02*X150964Y164823D01*
X150464Y166123D02*Y165323D01*
Y166123D02*X151164Y166823D01*
X151764D01*
X152464Y166123D01*
Y165323D01*
X151964Y164823D02*X152464Y165323D01*
X150964Y164823D02*X151964D01*
X150464Y167523D02*X151164Y166823D01*
X150464Y168323D02*Y167523D01*
Y168323D02*X150964Y168823D01*
X151964D01*
X152464Y168323D01*
Y167523D01*
X151764Y166823D02*X152464Y167523D01*
X147264Y181618D02*X149264D01*
X149764Y181118D01*
Y180118D01*
X149264Y179618D02*X149764Y180118D01*
X147764Y179618D02*X149264D01*
X147764Y181618D02*Y177618D01*
X148564Y179618D02*X149764Y177618D01*
X152464Y181618D02*X152964Y181118D01*
X151464Y181618D02*X152464D01*
X150964Y181118D02*X151464Y181618D01*
X150964Y181118D02*Y178118D01*
X151464Y177618D01*
X152464Y179818D02*X152964Y179318D01*
X150964Y179818D02*X152464D01*
X151464Y177618D02*X152464D01*
X152964Y178118D01*
Y179318D02*Y178118D01*
X94559Y90831D02*Y86831D01*
Y90831D02*X96559D01*
X94559Y89031D02*X96059D01*
X97759Y90031D02*X98559Y90831D01*
Y86831D01*
X97759D02*X99259D01*
X308200Y102500D02*X309000D01*
Y99000D01*
X308500Y98500D02*X309000Y99000D01*
X308000Y98500D02*X308500D01*
X307500Y99000D02*X308000Y98500D01*
X307500Y99500D02*Y99000D01*
X310700Y98500D02*X312200Y100500D01*
Y102000D02*Y100500D01*
X311700Y102500D02*X312200Y102000D01*
X310700Y102500D02*X311700D01*
X310200Y102000D02*X310700Y102500D01*
X310200Y102000D02*Y101000D01*
X310700Y100500D01*
X312200D01*
X310000Y167500D02*X312000D01*
X312500Y168000D01*
Y169200D02*Y168000D01*
X312000Y169700D02*X312500Y169200D01*
X310500Y169700D02*X312000D01*
X310500Y171500D02*Y167500D01*
X310000Y171500D02*X312000D01*
X312500Y171000D01*
Y170200D01*
X312000Y169700D02*X312500Y170200D01*
X308200Y132500D02*X309000D01*
Y129000D01*
X308500Y128500D02*X309000Y129000D01*
X308000Y128500D02*X308500D01*
X307500Y129000D02*X308000Y128500D01*
X307500Y129500D02*Y129000D01*
X310200Y132000D02*X310700Y132500D01*
X311700D01*
X312200Y132000D01*
X311700Y128500D02*X312200Y129000D01*
X310700Y128500D02*X311700D01*
X310200Y129000D02*X310700Y128500D01*
Y130700D02*X311700D01*
X312200Y132000D02*Y131200D01*
Y130200D02*Y129000D01*
Y130200D02*X311700Y130700D01*
X312200Y131200D02*X311700Y130700D01*
X311000Y151500D02*X311500Y151000D01*
X309500Y151500D02*X311000D01*
X309000Y151000D02*X309500Y151500D01*
X309000Y151000D02*Y150000D01*
X309500Y149500D01*
X311000D01*
X311500Y149000D01*
Y148000D01*
X311000Y147500D02*X311500Y148000D01*
X309500Y147500D02*X311000D01*
X309000Y148000D02*X309500Y147500D01*
X312700Y151000D02*X313200Y151500D01*
X314700D01*
X315200Y151000D01*
Y150000D01*
X312700Y147500D02*X315200Y150000D01*
X312700Y147500D02*X315200D01*
X254106Y165197D02*X255406D01*
X253406Y165897D02*X254106Y165197D01*
X253406Y168497D02*Y165897D01*
Y168497D02*X254106Y169197D01*
X255406D01*
X257106Y165197D02*X258606Y167197D01*
Y168697D02*Y167197D01*
X258106Y169197D02*X258606Y168697D01*
X257106Y169197D02*X258106D01*
X256606Y168697D02*X257106Y169197D01*
X256606Y168697D02*Y167697D01*
X257106Y167197D01*
X258606D01*
X307031Y116173D02*X309031D01*
X309531Y115673D01*
Y114673D01*
X309031Y114173D02*X309531Y114673D01*
X307531Y114173D02*X309031D01*
X307531Y116173D02*Y112173D01*
X308331Y114173D02*X309531Y112173D01*
X311232D02*X312732Y114173D01*
Y115673D02*Y114173D01*
X312232Y116173D02*X312732Y115673D01*
X311232Y116173D02*X312232D01*
X310732Y115673D02*X311232Y116173D01*
X310732Y115673D02*Y114673D01*
X311232Y114173D01*
X312732D01*
X252579Y181618D02*X254579D01*
X255079Y181118D01*
Y180118D01*
X254579Y179618D02*X255079Y180118D01*
X253079Y179618D02*X254579D01*
X253079Y181618D02*Y177618D01*
X253879Y179618D02*X255079Y177618D01*
X256779D02*X258779Y181618D01*
X256279D02*X258779D01*
X307049Y87146D02*X309049D01*
X309549Y86646D01*
Y85646D01*
X309049Y85146D02*X309549Y85646D01*
X307549Y85146D02*X309049D01*
X307549Y87146D02*Y83146D01*
X308349Y85146D02*X309549Y83146D01*
X310749Y86346D02*X311549Y87146D01*
Y83146D01*
X310749D02*X312249D01*
X313449Y86346D02*X314249Y87146D01*
Y83146D01*
X313449D02*X314949D01*
X306949Y75335D02*X308949D01*
X309449Y74835D01*
Y73835D01*
X308949Y73335D02*X309449Y73835D01*
X307449Y73335D02*X308949D01*
X307449Y75335D02*Y71335D01*
X308249Y73335D02*X309449Y71335D01*
X310649Y74535D02*X311449Y75335D01*
Y71335D01*
X310649D02*X312149D01*
X313349Y71835D02*X313849Y71335D01*
X313349Y74835D02*Y71835D01*
Y74835D02*X313849Y75335D01*
X314849D01*
X315349Y74835D01*
Y71835D01*
X314849Y71335D02*X315349Y71835D01*
X313849Y71335D02*X314849D01*
X313349Y72335D02*X315349Y74335D01*
X20194Y129356D02*Y126356D01*
Y129356D02*X20694Y129856D01*
X21694D01*
X22194Y129356D01*
Y126856D01*
X21194Y125856D02*X22194Y126856D01*
X20694Y125856D02*X21194D01*
X20194Y126356D02*X20694Y125856D01*
X21194Y127356D02*X22194Y125856D01*
X23394Y129056D02*X24194Y129856D01*
Y125856D01*
X23394D02*X24894D01*
X13200Y150000D02*X14000D01*
Y146500D01*
X13500Y146000D02*X14000Y146500D01*
X13000Y146000D02*X13500D01*
X12500Y146500D02*X13000Y146000D01*
X12500Y147000D02*Y146500D01*
X15200Y150000D02*X17200D01*
X15200D02*Y148000D01*
X15700Y148500D01*
X16700D01*
X17200Y148000D01*
Y146500D01*
X16700Y146000D02*X17200Y146500D01*
X15700Y146000D02*X16700D01*
X15200Y146500D02*X15700Y146000D01*
X20700Y150000D02*X21500D01*
Y146500D01*
X21000Y146000D02*X21500Y146500D01*
X20500Y146000D02*X21000D01*
X20000Y146500D02*X20500Y146000D01*
X20000Y147000D02*Y146500D01*
X22700Y147500D02*X24700Y150000D01*
X22700Y147500D02*X25200D01*
X24700Y150000D02*Y146000D01*
X18300Y164726D02*Y161226D01*
X18800Y160726D01*
X19800D01*
X20300Y161226D01*
Y164726D02*Y161226D01*
X21500Y163926D02*X22300Y164726D01*
Y160726D01*
X21500D02*X23000D01*
X28059Y146638D02*Y142638D01*
X29359Y146638D02*X30059Y145938D01*
Y143338D01*
X29359Y142638D02*X30059Y143338D01*
X27559Y142638D02*X29359D01*
X27559Y146638D02*X29359D01*
X32759D02*X33259Y146138D01*
X31759Y146638D02*X32759D01*
X31259Y146138D02*X31759Y146638D01*
X31259Y146138D02*Y143138D01*
X31759Y142638D01*
X32759Y144838D02*X33259Y144338D01*
X31259Y144838D02*X32759D01*
X31759Y142638D02*X32759D01*
X33259Y143138D01*
Y144338D02*Y143138D01*
X27885Y126437D02*X29185D01*
X27185Y127137D02*X27885Y126437D01*
X27185Y129737D02*Y127137D01*
Y129737D02*X27885Y130437D01*
X29185D01*
X31885D02*X32385Y129937D01*
X30885Y130437D02*X31885D01*
X30385Y129937D02*X30885Y130437D01*
X30385Y129937D02*Y126937D01*
X30885Y126437D01*
X31885Y128637D02*X32385Y128137D01*
X30385Y128637D02*X31885D01*
X30885Y126437D02*X31885D01*
X32385Y126937D01*
Y128137D02*Y126937D01*
X27885Y120531D02*X29185D01*
X27185Y121231D02*X27885Y120531D01*
X27185Y123831D02*Y121231D01*
Y123831D02*X27885Y124531D01*
X29185D01*
X30385D02*X32385D01*
X30385D02*Y122531D01*
X30885Y123031D01*
X31885D01*
X32385Y122531D01*
Y121031D01*
X31885Y120531D02*X32385Y121031D01*
X30885Y120531D02*X31885D01*
X30385Y121031D02*X30885Y120531D01*
X27885Y135295D02*X29185D01*
X27185Y135995D02*X27885Y135295D01*
X27185Y138595D02*Y135995D01*
Y138595D02*X27885Y139295D01*
X29185D01*
X30385Y136795D02*X32385Y139295D01*
X30385Y136795D02*X32885D01*
X32385Y139295D02*Y135295D01*
X20700Y64000D02*X21500D01*
Y60500D01*
X21000Y60000D02*X21500Y60500D01*
X20500Y60000D02*X21000D01*
X20000Y60500D02*X20500Y60000D01*
X20000Y61000D02*Y60500D01*
X22700Y63500D02*X23200Y64000D01*
X24700D01*
X25200Y63500D01*
Y62500D01*
X22700Y60000D02*X25200Y62500D01*
X22700Y60000D02*X25200D01*
X20185Y103331D02*Y99331D01*
X21485Y103331D02*X22185Y102631D01*
Y100031D01*
X21485Y99331D02*X22185Y100031D01*
X19685Y99331D02*X21485D01*
X19685Y103331D02*X21485D01*
X23385D02*X25385D01*
X23385D02*Y101331D01*
X23885Y101831D01*
X24885D01*
X25385Y101331D01*
Y99831D01*
X24885Y99331D02*X25385Y99831D01*
X23885Y99331D02*X24885D01*
X23385Y99831D02*X23885Y99331D01*
X18649Y112173D02*X19949D01*
X17949Y112873D02*X18649Y112173D01*
X17949Y115473D02*Y112873D01*
Y115473D02*X18649Y116173D01*
X19949D01*
X21649Y112173D02*X23649Y116173D01*
X21149D02*X23649D01*
X25634D02*X27634D01*
X28134Y115673D01*
Y114673D01*
X27634Y114173D02*X28134Y114673D01*
X26134Y114173D02*X27634D01*
X26134Y116173D02*Y112173D01*
X26934Y114173D02*X28134Y112173D01*
X29334Y112673D02*X29834Y112173D01*
X29334Y113473D02*Y112673D01*
Y113473D02*X30034Y114173D01*
X30634D01*
X31334Y113473D01*
Y112673D01*
X30834Y112173D02*X31334Y112673D01*
X29834Y112173D02*X30834D01*
X29334Y114873D02*X30034Y114173D01*
X29334Y115673D02*Y114873D01*
Y115673D02*X29834Y116173D01*
X30834D01*
X31334Y115673D01*
Y114873D01*
X30634Y114173D02*X31334Y114873D01*
X11811Y107268D02*Y103768D01*
X12311Y103268D01*
X13311D01*
X13811Y103768D01*
Y107268D02*Y103768D01*
X15011Y106768D02*X15511Y107268D01*
X16511D01*
X17011Y106768D01*
X16511Y103268D02*X17011Y103768D01*
X15511Y103268D02*X16511D01*
X15011Y103768D02*X15511Y103268D01*
Y105468D02*X16511D01*
X17011Y106768D02*Y105968D01*
Y104968D02*Y103768D01*
Y104968D02*X16511Y105468D01*
X17011Y105968D02*X16511Y105468D01*
X27648Y181697D02*X28448D01*
Y178197D01*
X27948Y177697D02*X28448Y178197D01*
X27448Y177697D02*X27948D01*
X26948Y178197D02*X27448Y177697D01*
X26948Y178697D02*Y178197D01*
X29648Y180897D02*X30448Y181697D01*
Y177697D01*
X29648D02*X31148D01*
X30000Y232000D02*X30500Y231500D01*
X28500Y232000D02*X30000D01*
X28000Y231500D02*X28500Y232000D01*
X28000Y231500D02*Y230500D01*
X28500Y230000D01*
X30000D01*
X30500Y229500D01*
Y228500D01*
X30000Y228000D02*X30500Y228500D01*
X28500Y228000D02*X30000D01*
X28000Y228500D02*X28500Y228000D01*
X31700Y231200D02*X32500Y232000D01*
Y228000D01*
X31700D02*X33200D01*
X20331Y200319D02*Y196319D01*
X21631Y200319D02*X22331Y199619D01*
Y197019D01*
X21631Y196319D02*X22331Y197019D01*
X19831Y196319D02*X21631D01*
X19831Y200319D02*X21631D01*
X23531Y197819D02*X25531Y200319D01*
X23531Y197819D02*X26031D01*
X25531Y200319D02*Y196319D01*
X20291Y190881D02*Y186881D01*
X21591Y190881D02*X22291Y190181D01*
Y187581D01*
X21591Y186881D02*X22291Y187581D01*
X19791Y186881D02*X21591D01*
X19791Y190881D02*X21591D01*
X23491Y190381D02*X23991Y190881D01*
X24991D01*
X25491Y190381D01*
X24991Y186881D02*X25491Y187381D01*
X23991Y186881D02*X24991D01*
X23491Y187381D02*X23991Y186881D01*
Y189081D02*X24991D01*
X25491Y190381D02*Y189581D01*
Y188581D02*Y187381D01*
Y188581D02*X24991Y189081D01*
X25491Y189581D02*X24991Y189081D01*
X20331Y211161D02*Y207161D01*
X21631Y211161D02*X22331Y210461D01*
Y207861D01*
X21631Y207161D02*X22331Y207861D01*
X19831Y207161D02*X21631D01*
X19831Y211161D02*X21631D01*
X23531Y210361D02*X24331Y211161D01*
Y207161D01*
X23531D02*X25031D01*
X20331Y221004D02*Y217004D01*
X21631Y221004D02*X22331Y220304D01*
Y217704D01*
X21631Y217004D02*X22331Y217704D01*
X19831Y217004D02*X21631D01*
X19831Y221004D02*X21631D01*
X23531Y220504D02*X24031Y221004D01*
X25531D01*
X26031Y220504D01*
Y219504D01*
X23531Y217004D02*X26031Y219504D01*
X23531Y217004D02*X26031D01*
X6146Y221234D02*X8146D01*
X8646Y220734D01*
Y219734D01*
X8146Y219234D02*X8646Y219734D01*
X6646Y219234D02*X8146D01*
X6646Y221234D02*Y217234D01*
X7446Y219234D02*X8646Y217234D01*
X9846Y220734D02*X10346Y221234D01*
X11846D01*
X12346Y220734D01*
Y219734D01*
X9846Y217234D02*X12346Y219734D01*
X9846Y217234D02*X12346D01*
X6546Y210661D02*X8546D01*
X9046Y210161D01*
Y209161D01*
X8546Y208661D02*X9046Y209161D01*
X7046Y208661D02*X8546D01*
X7046Y210661D02*Y206661D01*
X7846Y208661D02*X9046Y206661D01*
X10246Y209861D02*X11046Y210661D01*
Y206661D01*
X10246D02*X11746D01*
X4263Y166791D02*X5563D01*
X3563Y167491D02*X4263Y166791D01*
X3563Y170091D02*Y167491D01*
Y170091D02*X4263Y170791D01*
X5563D01*
X6763Y170291D02*X7263Y170791D01*
X8263D01*
X8763Y170291D01*
X8263Y166791D02*X8763Y167291D01*
X7263Y166791D02*X8263D01*
X6763Y167291D02*X7263Y166791D01*
Y168991D02*X8263D01*
X8763Y170291D02*Y169491D01*
Y168491D02*Y167291D01*
Y168491D02*X8263Y168991D01*
X8763Y169491D02*X8263Y168991D01*
X4263Y176634D02*X5563D01*
X3563Y177334D02*X4263Y176634D01*
X3563Y179934D02*Y177334D01*
Y179934D02*X4263Y180634D01*
X5563D01*
X6763Y179834D02*X7563Y180634D01*
Y176634D01*
X6763D02*X8263D01*
X6646Y200319D02*X8646D01*
X9146Y199819D01*
Y198819D01*
X8646Y198319D02*X9146Y198819D01*
X7146Y198319D02*X8646D01*
X7146Y200319D02*Y196319D01*
X7946Y198319D02*X9146Y196319D01*
X10346Y197819D02*X12346Y200319D01*
X10346Y197819D02*X12846D01*
X12346Y200319D02*Y196319D01*
X6781Y190976D02*X8781D01*
X9281Y190476D01*
Y189476D01*
X8781Y188976D02*X9281Y189476D01*
X7281Y188976D02*X8781D01*
X7281Y190976D02*Y186976D01*
X8081Y188976D02*X9281Y186976D01*
X10481Y190476D02*X10981Y190976D01*
X11981D01*
X12481Y190476D01*
X11981Y186976D02*X12481Y187476D01*
X10981Y186976D02*X11981D01*
X10481Y187476D02*X10981Y186976D01*
Y189176D02*X11981D01*
X12481Y190476D02*Y189676D01*
Y188676D02*Y187476D01*
Y188676D02*X11981Y189176D01*
X12481Y189676D02*X11981Y189176D01*
X4063Y159480D02*X6063D01*
X6563Y158980D01*
Y157980D01*
X6063Y157480D02*X6563Y157980D01*
X4563Y157480D02*X6063D01*
X4563Y159480D02*Y155480D01*
X5363Y157480D02*X6563Y155480D01*
X7763Y159480D02*X9763D01*
X7763D02*Y157480D01*
X8263Y157980D01*
X9263D01*
X9763Y157480D01*
Y155980D01*
X9263Y155480D02*X9763Y155980D01*
X8263Y155480D02*X9263D01*
X7763Y155980D02*X8263Y155480D01*
X3937Y148606D02*Y144606D01*
X5937D01*
X7137Y147806D02*X7937Y148606D01*
Y144606D01*
X7137D02*X8637D01*
M02*
